<?xml version="1.0" encoding="utf-8"?>
<!-- Generator: Adobe Illustrator 28.1.0, SVG Export Plug-In . SVG Version: 6.00 Build 0)  -->
<svg version="1.1" xmlns="http://www.w3.org/2000/svg" xmlns:xlink="http://www.w3.org/1999/xlink" x="0px" y="0px"
	 viewBox="0 0 2670.3 856" style="enable-background:new 0 0 2670.3 856;" xml:space="preserve">
<style type="text/css">
	.st0{display:none;}
	.st1{display:inline;}
	.st2{fill:none;stroke:#000000;stroke-width:0.9157;stroke-miterlimit:10;}
	.st3{fill:#221F20;}
	.st4{opacity:0.6;}
	.st5{opacity:0.3;}
	.st6{opacity:0.3;fill:#221F20;}
	.st7{fill:#FFFFFF;}
	.st8{opacity:0.3;fill:#FFFFFF;}
	.st9{fill:url(#SVGID_1_);}
	.st10{fill:none;}
	.st11{fill:url(#SVGID_00000131345007088530904980000012948168246538464700_);}
	.st12{fill:url(#SVGID_00000019665767919343150580000009059566315685937292_);}
	.st13{fill:url(#SVGID_00000163032686265484185790000004793451432770231707_);}
	.st14{fill:url(#SVGID_00000024704235970609522100000013776907245982127280_);}
	.st15{fill:url(#SVGID_00000169542224283016238270000014593169051680596627_);}
	.st16{fill:url(#SVGID_00000047779841870438205020000014300131529013078694_);}
	.st17{fill:url(#SVGID_00000039819190974316843420000009112151198483772347_);}
	.st18{fill:url(#SVGID_00000153696264156958097160000005516268614484082325_);}
	.st19{fill:url(#SVGID_00000021826538736059406440000007524862039124090787_);}
	.st20{fill:url(#SVGID_00000165225797812529477550000011187128437673737630_);}
	.st21{fill:url(#SVGID_00000026129398550910279410000009014904073384049025_);}
	.st22{fill:url(#SVGID_00000114774218945428813130000016905201320237671310_);}
	.st23{fill:url(#SVGID_00000149376281742900536730000016764420024172617404_);}
	.st24{fill:url(#SVGID_00000028327156071187870200000007727633828118327978_);}
	.st25{fill:url(#SVGID_00000161619645155223585060000002897200589923271329_);}
	.st26{fill:url(#SVGID_00000085948336971279239380000002315829949135377567_);}
	.st27{fill:url(#SVGID_00000042015650798294062650000000132375214805341605_);}
	.st28{fill:url(#SVGID_00000128478609626739565010000003818984500129624453_);}
	.st29{fill:url(#SVGID_00000106144453916335284660000003802019762575672990_);}
	.st30{fill:url(#SVGID_00000127028843255419824700000004533039277773826702_);}
	.st31{fill:url(#SVGID_00000010996918889776682810000008272374449940737938_);}
	.st32{fill:url(#SVGID_00000053547147460330147480000001854741129185159312_);}
	.st33{fill:url(#SVGID_00000161605136204188904350000017233645379995701683_);}
	.st34{fill:url(#SVGID_00000147185922019921035460000006920181508352656008_);}
	.st35{fill:url(#SVGID_00000029756969619385958520000015813279010846362298_);}
	.st36{fill:url(#SVGID_00000018951032902676251190000004083320087117178794_);}
	.st37{fill:url(#SVGID_00000087379538315418088630000011008113859402073520_);}
	.st38{fill:url(#SVGID_00000101096160587197980200000005923566175033056447_);}
	.st39{fill:url(#SVGID_00000137095264395333757530000001623309669912519300_);}
	.st40{fill:url(#SVGID_00000025439332224321401520000016979578478263207603_);}
	.st41{fill:url(#SVGID_00000005249571346981868090000014445815914969623191_);}
	.st42{fill:url(#SVGID_00000179612044369798857740000001633784598380422070_);}
	.st43{fill:url(#SVGID_00000096774771602578783120000007816144889586912407_);}
	.st44{fill:url(#SVGID_00000088837840807891649450000013835343930624288646_);}
	.st45{fill:url(#SVGID_00000132781324035902541220000004861771382367282603_);}
	.st46{fill:url(#SVGID_00000027589631599492185240000003295450499127185542_);}
	.st47{fill:url(#SVGID_00000134238527789458483850000017524883869672725637_);}
	.st48{fill:url(#SVGID_00000088831934827193178860000006166505444899592117_);}
	.st49{fill:url(#SVGID_00000023268083958679978500000006578252267308636817_);}
	.st50{fill:#172B43;}
	.st51{fill:url(#SVGID_00000156553551498290266420000015344629218282112649_);}
	.st52{fill:url(#SVGID_00000034771937685726908760000003996187052630124453_);}
	.st53{fill:url(#SVGID_00000097464613409807754670000011653084024364927634_);}
	.st54{fill:url(#SVGID_00000103979257498226301810000006676999859462843779_);}
	.st55{fill:url(#SVGID_00000078736039508663986470000015135869444967390885_);}
	.st56{fill:url(#SVGID_00000044149240456935185970000012869047769471462587_);}
	.st57{fill:url(#SVGID_00000141415630528175129800000001714868918270037892_);}
	.st58{fill:url(#SVGID_00000119076051686504157830000006362404271654784442_);}
	.st59{fill:url(#SVGID_00000096024340437291560490000012281654111056342401_);}
	.st60{fill:url(#SVGID_00000034778090529394995640000003606438553258954426_);}
	.st61{fill:url(#SVGID_00000160878626179225632730000013950169921770117558_);}
	.st62{fill:url(#SVGID_00000008113822532135842760000007822620618363191690_);}
	.st63{fill:url(#SVGID_00000155106435986679630100000017638045708631094960_);}
	.st64{fill:url(#SVGID_00000136407673649114966050000014808650643950469508_);}
	.st65{fill:url(#SVGID_00000006687068650656202180000009486502735919343015_);}
	.st66{fill:url(#SVGID_00000000904040211313289630000007142067344656225410_);}
	.st67{fill:url(#SVGID_00000147181110653184975080000005205899440592426144_);}
	.st68{fill:url(#SVGID_00000139268999194490296100000018068457086129350832_);}
	.st69{fill:url(#SVGID_00000163058243773352796230000012116447763083695007_);}
	.st70{fill:url(#SVGID_00000010273124236286281990000010608057229265908109_);}
	.st71{fill:url(#SVGID_00000128461429727220008440000004891097297626238382_);}
	.st72{fill:url(#SVGID_00000101100391784497682550000008473853063913087158_);}
	.st73{fill:url(#SVGID_00000083058485701026704600000016915077721838427274_);}
	.st74{fill:url(#SVGID_00000080183159869925046910000008734475969299777963_);}
	.st75{fill:url(#SVGID_00000027588378699535351480000005622605001628560287_);}
	.st76{fill:url(#SVGID_00000065762358478609365610000015589227784481894557_);}
	.st77{fill:url(#SVGID_00000157997650088558099490000002566748878122328505_);}
	.st78{fill:url(#SVGID_00000072984330518405771630000001304452013665266585_);}
	.st79{fill:url(#SVGID_00000129192094568012319710000005747402564601215369_);}
	.st80{fill:url(#SVGID_00000067958188446559643460000015523573480678131121_);}
	.st81{fill:url(#SVGID_00000074413056068158780560000009056722880065252506_);}
	.st82{fill:url(#SVGID_00000043418536669143132960000009313740017614554535_);}
	.st83{fill:url(#SVGID_00000017495757661675058660000003599881337092803770_);}
	.st84{fill:url(#SVGID_00000057860088417317152880000014106115869506927021_);}
	.st85{fill:url(#SVGID_00000132047535734827514540000010004065318313061777_);}
	.st86{fill:url(#SVGID_00000143615941535284817380000007697975704885789824_);}
	.st87{fill:url(#SVGID_00000124158400144566664510000017956173212706288821_);}
	.st88{fill:url(#SVGID_00000169523865576551264460000007278645028821907117_);}
	.st89{fill:url(#SVGID_00000160887589967419492740000015617922272152816555_);}
	.st90{fill:url(#SVGID_00000158738435636278130100000015700247051176820926_);}
	.st91{fill:url(#SVGID_00000052813956396368689400000003182813229077786812_);}
	.st92{fill:url(#SVGID_00000112622608672956898340000003250123746713566895_);}
	.st93{fill:url(#SVGID_00000154395499905675588960000011906916502735953322_);}
	.st94{fill:url(#SVGID_00000082341412164454493720000015379186696213587072_);}
	.st95{fill:url(#SVGID_00000094586774644269322110000010189429580875579318_);}
	.st96{fill:url(#SVGID_00000183238103985809894900000000210075175822433190_);}
	.st97{fill:url(#SVGID_00000109745152539492429520000005092910680913290644_);}
	.st98{fill:url(#SVGID_00000072993222705156027500000002441845573801358518_);}
	.st99{fill:url(#SVGID_00000088109609317838163310000004020404285524212117_);}
	.st100{fill:url(#SVGID_00000067235308267914500220000001120535112476122806_);}
	.st101{fill:url(#SVGID_00000057830390976130294530000007044708420168066694_);}
	.st102{fill:url(#SVGID_00000119106923082623117900000001040603290919939496_);}
	.st103{fill:url(#SVGID_00000085947473844125762970000004895293780509020850_);}
	.st104{fill:url(#SVGID_00000114774859526944756810000007715526331581421966_);}
	.st105{fill:url(#SVGID_00000059271350581611375300000011230030816767798920_);}
	.st106{fill:url(#SVGID_00000080191810512858548780000010324354393179199885_);}
	.st107{fill:url(#SVGID_00000147218976314948127890000012420384465216912303_);}
	.st108{fill:url(#SVGID_00000132766808069516965430000018258128853340865426_);}
	.st109{fill:url(#SVGID_00000047775876120431990010000008389897847399042233_);}
	.st110{fill:url(#SVGID_00000053530302613195647970000016156872287318737339_);}
	.st111{fill:url(#SVGID_00000132085741036792589540000004133437085832089732_);}
	.st112{fill:url(#SVGID_00000173122143267807513600000007383483026155251871_);}
	.st113{fill:url(#SVGID_00000075880310553986919090000016803811667321503107_);}
	.st114{fill:url(#SVGID_00000027595010614302644440000015608661859072835981_);}
	.st115{fill:url(#SVGID_00000124864959341961935120000002056836914372440741_);}
	.st116{fill:url(#SVGID_00000000194888874158009120000018427778331187270330_);}
	.st117{fill:url(#SVGID_00000134246745718196834400000007718898652791270573_);}
	.st118{fill:url(#SVGID_00000106134083752083831100000008743326283079985836_);}
	.st119{fill:url(#SVGID_00000116944023472378876990000002091838465801160633_);}
	.st120{fill:url(#SVGID_00000001630938641030452580000017340582958634479796_);}
	.st121{fill:url(#SVGID_00000015317964518619348260000003569425153845906360_);}
	.st122{fill:url(#SVGID_00000064315806444002125570000007759112428427596201_);}
	.st123{fill:url(#SVGID_00000103975509275465690400000009897313862792314497_);}
	.st124{fill:url(#SVGID_00000031913879455950494820000006206539578812944776_);}
	.st125{fill:url(#SVGID_00000024703157997240148300000009535028359820558739_);}
	.st126{fill:url(#SVGID_00000054257760838194273670000004389545264785735343_);}
	.st127{fill:url(#SVGID_00000173857098654646287580000018176385756294304959_);}
	.st128{fill:url(#SVGID_00000173160473415089530880000009663737992908281752_);}
	.st129{fill:url(#SVGID_00000116200977113233956410000016176619849055769732_);}
	.st130{fill:url(#SVGID_00000027606128021349601550000009954085629973755320_);}
	.st131{fill:url(#SVGID_00000013902716714085624910000016899902054643388849_);}
	.st132{fill:url(#SVGID_00000173859661469401768040000006839953418843656621_);}
	.st133{fill:url(#SVGID_00000097498656297672356240000000058337255348760741_);}
	.st134{fill:url(#SVGID_00000138564043873078444900000017180339439126769028_);}
	.st135{fill:url(#SVGID_00000173126032798884382660000014438604706999851418_);}
	.st136{fill:url(#SVGID_00000132773166051575840950000009575173008637582241_);}
	.st137{fill:url(#SVGID_00000168831876284336878660000005640984650863686799_);}
	.st138{fill:url(#SVGID_00000093861034589566138840000014407700819128536756_);}
	.st139{fill:url(#SVGID_00000127041421914457124550000016514892874724622749_);}
	.st140{fill:url(#SVGID_00000017475634950037020840000011948774494969425821_);}
	.st141{fill:url(#SVGID_00000100354080400987276990000007348891043581689004_);}
	.st142{fill:url(#SVGID_00000176727401975381024010000002691617869770699138_);}
	.st143{fill:url(#SVGID_00000082368561524590715170000013724180835989806988_);}
	.st144{fill:url(#SVGID_00000026852932093440759080000005614134106619958204_);}
	.st145{fill:url(#SVGID_00000043446777152930155230000000547823508049598864_);}
	.st146{fill:url(#SVGID_00000181070263934682637300000013689341551535076764_);}
	.st147{fill:url(#SVGID_00000079450565249598951890000000290983930106542730_);}
	.st148{fill:url(#SVGID_00000052802391280380201140000002605915448253265588_);}
	.st149{fill:url(#SVGID_00000106127677396876069990000000041437924021136574_);}
	.st150{fill:url(#SVGID_00000132769622077538707330000003920906688554465682_);}
	.st151{fill:url(#SVGID_00000084507920588987832730000001050457028970754454_);}
	.st152{fill:url(#SVGID_00000127737724800252985080000005984115588995489925_);}
	.st153{fill:url(#SVGID_00000145039969721085288680000005121654197333609624_);}
	.st154{fill:url(#SVGID_00000064317713791568026390000014123499216194301625_);}
	.st155{fill:url(#SVGID_00000030466581080414698270000007128276226377170068_);}
	.st156{fill:url(#SVGID_00000042723796566339822800000008341026380724257693_);}
	.st157{fill:url(#SVGID_00000166650269871488297110000016376769184966284462_);}
	.st158{fill:url(#SVGID_00000052103321893734440530000006822123310047730324_);}
	.st159{fill:url(#SVGID_00000071542810809089877520000005246028635499734426_);}
	.st160{fill:url(#SVGID_00000174575915997846057950000016937781172925374141_);}
	.st161{fill:url(#SVGID_00000158711060420310346040000000830851091584223146_);}
	.st162{fill:url(#SVGID_00000003809525892491165480000002813926051865972403_);}
	.st163{fill:url(#SVGID_00000116223455864816050150000011147468963964417437_);}
	.st164{fill:url(#SVGID_00000050639809973842007110000014306062282640194696_);}
	.st165{fill:url(#SVGID_00000139974805994017244130000010709078593809514382_);}
	.st166{fill:url(#SVGID_00000130631354596536010380000017308511275025935254_);}
	.st167{fill:url(#SVGID_00000004536692215664870760000006553622089569999498_);}
	.st168{fill:url(#SVGID_00000088127495663593495790000004888179052225612977_);}
	.st169{fill:url(#SVGID_00000121991862322788919720000003363041422588118409_);}
	.st170{fill:url(#SVGID_00000098919025259680609640000016088847176166759591_);}
</style>
<g id="Layer_1">
	<g>
		<g>
			<linearGradient id="SVGID_1_" gradientUnits="userSpaceOnUse" x1="75.7321" y1="242.9642" x2="593.1761" y2="242.9642">
				<stop  offset="4.753638e-04" style="stop-color:#46978F"/>
				<stop  offset="1" style="stop-color:#7CDBC7"/>
			</linearGradient>
			<circle class="st9" cx="306.1" cy="243" r="124.5"/>
			<g>
				<g>
					<path class="st7" d="M317.6,326.5c-3.9,0-7,3.1-7,7c0,3.9,3.1,7,7,7c3.9,0,7-3.1,7-7C324.6,329.7,321.5,326.5,317.6,326.5z"/>
				</g>
				<g>
					<path class="st7" d="M278.7,188.8h-2.5v-7h0c0-4.9-4.1-8.9-9-8.9c-5,0-9,4-9,8.9h0v7h-2.5c-0.5,0-1,0.5-1,1v14c0,0.5,0.5,1,1,1
						h23c0.6,0,1-0.5,1-1v-14C279.7,189.2,279.3,188.8,278.7,188.8z M261.7,181.8C261.7,181.8,261.7,181.8,261.7,181.8
						c0-3,2.5-5.4,5.5-5.4s5.5,2.4,5.5,5.5c0,0,0,0,0,0v7h-11V181.8z M269.1,199.3h-3.8l1.2-3.5c-0.8-0.3-1.3-1-1.3-1.9
						c0-1.1,0.9-2,2-2s2,0.9,2,2c0,0.9-0.6,1.6-1.3,1.9L269.1,199.3z"/>
				</g>
			</g>
			<g class="st4">
				<g>
					<path class="st7" d="M362.8,301.5c0.2,2.8,2.5,5.1,5.3,5.1c3,0,5.4-2.4,5.4-5.4s-2.4-5.4-5.4-5.4c-2.5,0-4.5,1.7-5.2,4h-68.8
						c-0.4-3.6-3.4-6.4-7.1-6.4c-4,0-7.2,3.2-7.2,7.2c0,4,3.2,7.2,7.2,7.2c3.7,0,6.7-2.8,7.1-6.4H362.8z"/>
					<path class="st7" d="M209.3,198.8c-3,0-5.4,2.4-5.4,5.4c0,3,2.4,5.4,5.4,5.4c3,0,5.4-2.4,5.4-5.4
						C214.7,201.2,212.3,198.8,209.3,198.8z"/>
				</g>
				<g>
					<path class="st7" d="M332.5,291.7H331v-3.9h0c0-2.8-2.3-5-5.1-5c-2.8,0-5,2.2-5.1,5h0v3.9h-1.4c-0.3,0-0.6,0.3-0.6,0.6v7.9
						c0,0.3,0.3,0.6,0.6,0.6h13c0.3,0,0.6-0.3,0.6-0.6v-7.9C333,291.9,332.8,291.7,332.5,291.7z M322.9,287.7
						C322.9,287.7,322.9,287.7,322.9,287.7c0-1.7,1.4-3.1,3.1-3.1c1.7,0,3.1,1.4,3.1,3.1c0,0,0,0,0,0v3.9h-6.2V287.7z M327,297.6
						h-2.1l0.7-2c-0.4-0.2-0.7-0.6-0.7-1.1c0-0.6,0.5-1.1,1.1-1.1c0.6,0,1.1,0.5,1.1,1.1c0,0.5-0.3,0.9-0.7,1.1L327,297.6z"/>
					<path class="st7" d="M347.4,174.5h-1.9v-5.4h0c0-3.8-3.1-6.8-6.9-6.8c-3.8,0-6.9,3.1-6.9,6.8h0v5.4h-1.9
						c-0.4,0-0.8,0.3-0.8,0.8V186c0,0.4,0.3,0.8,0.8,0.8h17.6c0.4,0,0.8-0.3,0.8-0.8v-10.7C348.2,174.8,347.8,174.5,347.4,174.5z
						 M334.4,169.1C334.4,169.1,334.4,169.1,334.4,169.1c0-2.3,1.9-4.2,4.2-4.2c2.3,0,4.2,1.9,4.2,4.2c0,0,0,0,0,0v5.4h-8.4V169.1z
						 M340,182.6h-2.9l0.9-2.7c-0.6-0.2-1-0.8-1-1.4c0-0.8,0.7-1.5,1.5-1.5c0.8,0,1.5,0.7,1.5,1.5c0,0.7-0.4,1.2-1,1.4L340,182.6z"
						/>
				</g>
			</g>
			<g class="st5">
				<path class="st10" d="M382,186.6v-42.3c-21-16.2-47.4-25.9-76-25.9c-0.9,0-1.8,0-2.7,0v68.1H382z"/>
				<path class="st10" d="M303.3,188.3v64.3H258v74c2.6,0.4,4.5,2.6,4.5,5.3c0,3-2.4,5.4-5.4,5.4c-3,0-5.4-2.4-5.4-5.4
					c0-2.7,2-4.9,4.5-5.3v-75.7h45.3v-62.6h-2v-1.7h2v-68.1c-66.7,2.3-120.1,57.1-120.1,124.4c0,68.8,55.8,124.5,124.5,124.5
					c68.8,0,124.5-55.8,124.5-124.5c0-39.4-18.3-74.5-46.8-97.3v42.6H303.3z"/>
				<path class="st7" d="M382,186.6h-78.7v-68.1c-0.6,0-1.1,0-1.7,0.1v68.1h-2v1.7h2v62.6h-45.3v75.7c-2.6,0.4-4.5,2.6-4.5,5.3
					c0,3,2.4,5.4,5.4,5.4c3,0,5.4-2.4,5.4-5.4c0-2.7-2-4.9-4.5-5.3v-74h45.3v-64.3h80.4v-42.6c-0.6-0.4-1.1-0.9-1.7-1.3V186.6z"/>
			</g>
			<g>
				<path class="st8" d="M341.3,312.8v-68h58.2v-66.5h12.9c-0.5-0.7-0.9-1.5-1.4-2.2h-13.7v66.5h-56V123.9h-2.2v118.7h-44.5v-39.9
					h-69.1c-0.1-19.7-0.1-39.1-0.1-54.5c-0.7,0.6-1.5,1.3-2.2,1.9c0,15.2,0,33.9,0.1,52.6h-35c-0.3,0.7-0.5,1.5-0.7,2.2h35.8
					c0.1,29,0.4,57.6,0.5,73.2h-37.2c0.2,0.7,0.4,1.5,0.7,2.2H226l0-1.1c-0.2-17.4-0.4-45.9-0.5-74.3h66.9v39.9h46.8v65.8h-85.5
					v45.3c0.7,0.3,1.5,0.7,2.2,1v-44.1H341.3z"/>
				<path class="st8" d="M384.7,310.6c-0.6-4.7-4.5-8.3-9.3-8.3c-5.2,0-9.4,4.2-9.4,9.4c0,5.2,4.2,9.4,9.4,9.4
					c4.8,0,8.8-3.6,9.3-8.3h24.5c0.5-0.7,1-1.5,1.5-2.2H384.7z"/>
			</g>
			<g>
				<path class="st10" d="M394.5,322.5v-77.6h-50.6c-0.4,2.6-2.6,4.5-5.3,4.5c-3,0-5.4-2.4-5.4-5.4c0-3,2.4-5.4,5.4-5.4
					c2.7,0,4.9,2,5.3,4.5h52.3v81h-37.4v31.6c42.4-19.9,71.8-62.9,71.8-112.8c0-68.8-55.8-124.5-124.5-124.5
					c-68.8,0-124.5,55.8-124.5,124.5c0,11.6,1.6,22.9,4.6,33.6v-11.2h22.3v-55.8h0.8h0.9V267h-22.3v15.1
					c16.4,49.6,63.1,85.4,118.2,85.4c3.5,0,7-0.2,10.5-0.4v-26.5h1.1h1.1v26.3c13.6-1.4,26.5-4.9,38.4-10.3v-34.1H394.5z"/>
				<path class="st10" d="M317.6,340.6h-1.1v26.5c0.7-0.1,1.5-0.1,2.2-0.2v-26.3H317.6z"/>
				<path class="st10" d="M210.1,267v-57.5h-0.9h-0.8v55.8h-22.3v11.2c0.5,1.9,1.1,3.7,1.7,5.6V267H210.1z"/>
				<path class="st10" d="M358.8,324.2h37.4v-81h-52.3c-0.4-2.6-2.6-4.5-5.3-4.5c-3,0-5.4,2.4-5.4,5.4c0,3,2.4,5.4,5.4,5.4
					c2.7,0,4.9-2,5.3-4.5h50.6v77.6h-37.4v34.1c0.6-0.3,1.1-0.5,1.7-0.8V324.2z"/>
			</g>
			<g>
				
					<linearGradient id="SVGID_00000016778506634805122250000008377672790106980772_" gradientUnits="userSpaceOnUse" x1="329.2624" y1="292.6531" x2="672.6697" y2="292.6531">
					<stop  offset="4.753638e-04" style="stop-color:#46978F"/>
					<stop  offset="1" style="stop-color:#7CDBC7"/>
				</linearGradient>
				<path style="fill:url(#SVGID_00000016778506634805122250000008377672790106980772_);" d="M612.9,291.8
					c-0.5,7.2,5.2,13.2,12.3,13.2h61.3c6.6,0,12.3-5,12.7-11.5c0.5-7.2-5.2-13.2-12.3-13.2h-61.3
					C619.1,280.3,613.3,285.3,612.9,291.8z"/>
				
					<linearGradient id="SVGID_00000129163653994713664090000013570347100783761572_" gradientUnits="userSpaceOnUse" x1="329.2624" y1="242.9642" x2="672.6697" y2="242.9642">
					<stop  offset="4.753638e-04" style="stop-color:#46978F"/>
					<stop  offset="1" style="stop-color:#7CDBC7"/>
				</linearGradient>
				<path style="fill:url(#SVGID_00000129163653994713664090000013570347100783761572_);" d="M775.5,243.8
					c0.5-7.2-5.2-13.2-12.3-13.2h-85c-6.6,0-12.3,5-12.7,11.5c-0.5,7.2,5.2,13.2,12.3,13.2h85C769.4,255.3,775.1,250.4,775.5,243.8z
					"/>
				
					<linearGradient id="SVGID_00000082370694024312335970000008083565622142729880_" gradientUnits="userSpaceOnUse" x1="329.2624" y1="292.6531" x2="672.6697" y2="292.6531">
					<stop  offset="4.753638e-04" style="stop-color:#46978F"/>
					<stop  offset="1" style="stop-color:#7CDBC7"/>
				</linearGradient>
				<path style="fill:url(#SVGID_00000082370694024312335970000008083565622142729880_);" d="M728.7,280.3c-6.6,0-12.3,5-12.7,11.5
					c-0.5,7.2,5.2,13.2,12.3,13.2h28.1c6.6,0,12.3-5,12.7-11.5c0.5-7.2-5.2-13.2-12.3-13.2H728.7z"/>
				
					<linearGradient id="SVGID_00000021837436714866593000000013471912129592018049_" gradientUnits="userSpaceOnUse" x1="329.2624" y1="193.2754" x2="672.6697" y2="193.2754">
					<stop  offset="4.753638e-04" style="stop-color:#46978F"/>
					<stop  offset="1" style="stop-color:#7CDBC7"/>
				</linearGradient>
				<path style="fill:url(#SVGID_00000021837436714866593000000013471912129592018049_);" d="M656.1,180.9H628
					c-6.6,0-12.3,5-12.7,11.5c-0.5,7.2,5.2,13.2,12.3,13.2h28.1c6.6,0,12.3-5,12.7-11.5C668.9,186.9,663.2,180.9,656.1,180.9z"/>
				
					<linearGradient id="SVGID_00000150784322725232637820000004544589694826232492_" gradientUnits="userSpaceOnUse" x1="329.2624" y1="190.8367" x2="672.6697" y2="190.8367">
					<stop  offset="4.753638e-04" style="stop-color:#46978F"/>
					<stop  offset="1" style="stop-color:#7CDBC7"/>
				</linearGradient>
				<path style="fill:url(#SVGID_00000150784322725232637820000004544589694826232492_);" d="M450.8,194.1
					c0.4-5.7-3.2-10.7-8.2-12.5c2.4,6,4.5,12.1,6.1,18.4C449.9,198.3,450.7,196.3,450.8,194.1z"/>
				
					<linearGradient id="SVGID_00000170246572929201223490000008210509071133829768_" gradientUnits="userSpaceOnUse" x1="329.2624" y1="541.098" x2="672.6697" y2="541.098">
					<stop  offset="4.753638e-04" style="stop-color:#46978F"/>
					<stop  offset="1" style="stop-color:#7CDBC7"/>
				</linearGradient>
				<path style="fill:url(#SVGID_00000170246572929201223490000008210509071133829768_);" d="M603.9,528.7
					c-6.8,0-12.3,5.5-12.3,12.4c0,6.8,5.5,12.4,12.3,12.4c6.8,0,12.4-5.5,12.4-12.4C616.3,534.3,610.7,528.7,603.9,528.7z"/>
				
					<linearGradient id="SVGID_00000155141666030614027500000006153466201417977763_" gradientUnits="userSpaceOnUse" x1="329.2624" y1="367.1863" x2="672.6697" y2="367.1863">
					<stop  offset="4.753638e-04" style="stop-color:#46978F"/>
					<stop  offset="1" style="stop-color:#7CDBC7"/>
				</linearGradient>
				<path style="fill:url(#SVGID_00000155141666030614027500000006153466201417977763_);" d="M697,379.7h-20.6
					c-6.6,0-12.3,5-12.7,11.5c-0.5,7.2,5.2,13.2,12.3,13.2h56.8c6.6,0,12.3-5,12.7-11.5c0.5-7.2-5.2-13.2-12.3-13.2h3.3
					c-6.8,0-12.4-5.5-12.4-12.4v-0.5c0-6.7,5.4-12.1,12.1-12.1c0.1,0,10.4,0,10.6,0c6.4-0.2,11.9-5.1,12.3-11.5
					c0.5-7.2-5.2-13.2-12.3-13.2h-88.6c-6.6,0-12.3,5-12.7,11.5c-0.5,7.2,5.2,13.2,12.3,13.2H697c6.8,0,12.3,5.5,12.3,12.4v0.3
					C709.4,374.2,703.8,379.7,697,379.7z"/>
				
					<linearGradient id="SVGID_00000160173895578505023140000011108930753597493694_" gradientUnits="userSpaceOnUse" x1="329.2624" y1="441.72" x2="672.6697" y2="441.72">
					<stop  offset="4.753638e-04" style="stop-color:#46978F"/>
					<stop  offset="1" style="stop-color:#7CDBC7"/>
				</linearGradient>
				<path style="fill:url(#SVGID_00000160173895578505023140000011108930753597493694_);" d="M696.5,429.4
					c-6.8,0-12.4,5.5-12.4,12.3c0,6.8,5.5,12.4,12.4,12.4h17.4c6.8,0,12.3-5.5,12.3-12.4c0-6.8-5.5-12.3-12.3-12.3H696.5z"/>
				
					<linearGradient id="SVGID_00000049922955401819188140000006256133131162368663_" gradientUnits="userSpaceOnUse" x1="329.2624" y1="143.5848" x2="672.6697" y2="143.5848">
					<stop  offset="4.753638e-04" style="stop-color:#46978F"/>
					<stop  offset="1" style="stop-color:#7CDBC7"/>
				</linearGradient>
				<path style="fill:url(#SVGID_00000049922955401819188140000006256133131162368663_);" d="M528.6,131.2
					c-6.8,0-12.4,5.5-12.4,12.4c0,6.8,5.5,12.3,12.4,12.3h9.3c6.8,0,12.4-5.5,12.4-12.3c0-6.8-5.5-12.4-12.4-12.4H528.6z"/>
				
					<linearGradient id="SVGID_00000059999149386547747510000004097323862845570963_" gradientUnits="userSpaceOnUse" x1="329.2624" y1="317.3662" x2="672.6697" y2="317.3662">
					<stop  offset="4.753638e-04" style="stop-color:#46978F"/>
					<stop  offset="1" style="stop-color:#7CDBC7"/>
				</linearGradient>
				<path style="fill:url(#SVGID_00000059999149386547747510000004097323862845570963_);" d="M551.2,321.6c2.4-2.4,2.4-6.2,0-8.6
					c-2.4-2.4-6.2-2.4-8.6,0c-2.4,2.4-2.4,6.2,0,8.6C545,324,548.8,324,551.2,321.6z"/>
				
					<linearGradient id="SVGID_00000001654238522916311910000003120504257994852755_" gradientUnits="userSpaceOnUse" x1="329.2624" y1="416.8754" x2="672.6697" y2="416.8754">
					<stop  offset="4.753638e-04" style="stop-color:#46978F"/>
					<stop  offset="1" style="stop-color:#7CDBC7"/>
				</linearGradient>
				<path style="fill:url(#SVGID_00000001654238522916311910000003120504257994852755_);" d="M542.8,421.4c2.5-2.5,2.5-6.6,0-9.1
					c-2.5-2.5-6.6-2.5-9.1,0c-2.5,2.5-2.5,6.6,0,9.1C536.2,423.9,540.3,423.9,542.8,421.4z"/>
				
					<linearGradient id="SVGID_00000125586746336263793730000001487026958676176003_" gradientUnits="userSpaceOnUse" x1="329.2624" y1="367.3304" x2="672.6697" y2="367.3304">
					<stop  offset="4.753638e-04" style="stop-color:#46978F"/>
					<stop  offset="1" style="stop-color:#7CDBC7"/>
				</linearGradient>
				<path style="fill:url(#SVGID_00000125586746336263793730000001487026958676176003_);" d="M513,374.4c3.9-3.9,3.9-10.2,0-14.1
					c-3.9-3.9-10.2-3.9-14.1,0c-3.9,3.9-3.9,10.2,0,14.1C502.9,378.3,509.2,378.3,513,374.4z"/>
				
					<linearGradient id="SVGID_00000115507898774805264770000003617057702836619669_" gradientUnits="userSpaceOnUse" x1="329.2624" y1="441.7198" x2="672.6697" y2="441.7198">
					<stop  offset="4.753638e-04" style="stop-color:#46978F"/>
					<stop  offset="1" style="stop-color:#7CDBC7"/>
				</linearGradient>
				<path style="fill:url(#SVGID_00000115507898774805264770000003617057702836619669_);" d="M436.3,441.7c0-6.8-5.5-12.3-12.4-12.3
					h-34.4c0,0,0,0,0,0h-42.9c-6.5,0-12.3,4.6-13,11.1c-0.7,7.4,5,13.6,12.3,13.6h78.1C430.7,454.1,436.3,448.5,436.3,441.7z"/>
				
					<linearGradient id="SVGID_00000088820410727130972490000003294303631510410146_" gradientUnits="userSpaceOnUse" x1="329.2624" y1="640.4774" x2="672.6697" y2="640.4774">
					<stop  offset="4.753638e-04" style="stop-color:#46978F"/>
					<stop  offset="1" style="stop-color:#7CDBC7"/>
				</linearGradient>
				<path style="fill:url(#SVGID_00000088820410727130972490000003294303631510410146_);" d="M533.9,652.8c6.8,0,12.4-5.5,12.4-12.4
					c0-6.8-5.5-12.4-12.4-12.4h-1.2c-6.8,0-12.4,5.5-12.4,12.4c0,6.8,5.5,12.4,12.4,12.4H533.9z"/>
				
					<linearGradient id="SVGID_00000032626365796758757230000011148038950865209271_" gradientUnits="userSpaceOnUse" x1="329.2624" y1="218.1199" x2="672.6697" y2="218.1199">
					<stop  offset="4.753638e-04" style="stop-color:#46978F"/>
					<stop  offset="1" style="stop-color:#7CDBC7"/>
				</linearGradient>
				<path style="fill:url(#SVGID_00000032626365796758757230000011148038950865209271_);" d="M452.6,255.3h20h163.9
					c6.5,0,12.3-4.6,13-11.1c0.7-7.4-5-13.6-12.3-13.6H580c-6.8,0-12.4-5.5-12.4-12.4V218c0-6.8,5.5-12.4,12.3-12.4h6.9
					c6.5,0,12.3-4.6,13-11.1c0.7-7.4-5-13.6-12.3-13.6h-108c-6.5,0-12.3,4.6-13,11.1c-0.7,7.4,5,13.6,12.3,13.6h61.6
					c6.8,0,12.4,5.5,12.4,12.4v0.3c0,6.8-5.5,12.4-12.4,12.4h-87.1C453.9,239,453.6,247.2,452.6,255.3z"/>
				
					<linearGradient id="SVGID_00000114780464825718849230000000232552982381163907_" gradientUnits="userSpaceOnUse" x1="329.2624" y1="491.409" x2="672.6697" y2="491.409">
					<stop  offset="4.753638e-04" style="stop-color:#46978F"/>
					<stop  offset="1" style="stop-color:#7CDBC7"/>
				</linearGradient>
				<path style="fill:url(#SVGID_00000114780464825718849230000000232552982381163907_);" d="M649.6,491.4c0,6.8,5.5,12.4,12.4,12.4
					h31.2c6.8,0,12.4-5.5,12.4-12.4c0-6.8-5.5-12.3-12.4-12.3H662C655.2,479.1,649.6,484.6,649.6,491.4z"/>
				
					<linearGradient id="SVGID_00000118367848080670359480000000882423858893168814_" gradientUnits="userSpaceOnUse" x1="329.2624" y1="541.098" x2="672.6697" y2="541.098">
					<stop  offset="4.753638e-04" style="stop-color:#46978F"/>
					<stop  offset="1" style="stop-color:#7CDBC7"/>
				</linearGradient>
				<path style="fill:url(#SVGID_00000118367848080670359480000000882423858893168814_);" d="M628,541.1c0,6.8,5.5,12.4,12.4,12.4
					h21c6.8,0,12.4-5.5,12.4-12.4c0-6.8-5.5-12.3-12.4-12.3h-21C633.5,528.7,628,534.3,628,541.1z"/>
				
					<linearGradient id="SVGID_00000140731035914704554290000005246491467321772197_" gradientUnits="userSpaceOnUse" x1="329.2624" y1="590.7867" x2="672.6697" y2="590.7867">
					<stop  offset="4.753638e-04" style="stop-color:#46978F"/>
					<stop  offset="1" style="stop-color:#7CDBC7"/>
				</linearGradient>
				<path style="fill:url(#SVGID_00000140731035914704554290000005246491467321772197_);" d="M617.7,578.4H608
					c-6.8,0-12.4,5.5-12.4,12.4c0,6.8,5.5,12.4,12.4,12.4h9.7c6.8,0,12.4-5.5,12.4-12.4C630.1,584,624.5,578.4,617.7,578.4z"/>
				
					<linearGradient id="SVGID_00000029762217618042219160000008903859068393561748_" gradientUnits="userSpaceOnUse" x1="329.2624" y1="441.6292" x2="672.6697" y2="441.6292">
					<stop  offset="4.753638e-04" style="stop-color:#46978F"/>
					<stop  offset="1" style="stop-color:#7CDBC7"/>
				</linearGradient>
				<path style="fill:url(#SVGID_00000029762217618042219160000008903859068393561748_);" d="M448.6,305h22.3c0,0,0,0,0,0h48
					c5.2,0,10.4-1.6,14.7-4.5c1.9-1.3,4-2.5,6.2-3.2c2.6-0.9,5.3-1.3,8-1.2c5.1,0.2,10.2,2.3,14.1,6.2c7.6,7.6,8.2,19.4,2.1,27.7
					c-0.6,0.9-1.3,1.7-2.1,2.5c-5.7,5.7-13.9,7.7-21.1,5.4c-3-1-5.6-2.3-7.6-3.7c-4.5-3-9.7-4.5-15.1-4.5h-48.9c0,0.1,0,0.2,0,0.3
					H439c-0.4-0.5-0.8-1.1-1.3-1.6c-3.1-3.1-7-4.9-11.2-5.4c-6,8.5-12.9,16.3-20.6,23.4c0.8,3.2,2.4,6.3,5,8.9
					c3.6,3.6,8.3,5.6,13.4,5.6c5.1,0,9.8-2,13.4-5.6c0.2-0.2,0.3-0.3,0.4-0.5h32.4c5.8,0,11.4-2.3,15.5-6.4l0.5-0.5h0
					c10.8-10.8,28.3-10.8,39.1,0c2.1,2.1,3.8,4.4,5,6.9c5.3,10.4,3.7,23.5-5,32.2c-10.8,10.8-28.3,10.8-39.1,0h0
					c-0.2-0.2-0.3-0.3-0.5-0.5c-4.2-4.4-10-7-16.2-7h-4.9c0,0.1,0,0.2,0,0.3h-91c-0.8-1.2-1.7-2.3-2.8-3.4c-1.5-1.5-3.2-2.8-5-3.8
					c-10.1,4.5-20.8,7.9-32,10c-4.1,8.6-2.7,19.2,4.4,26.3c4.4,4.4,10.1,6.7,16.3,6.7c6.2,0,11.9-2.4,16.3-6.7
					c1.4-1.4,2.4-2.9,3.4-4.5h15h73.4c0,0,0,0.1,0,0.1H514c5.1,0,10.2-1.4,14.6-4c2.6-1.5,6.3-2.8,11.1-2.5
					c5.6,0.4,11.1,3.4,14.6,8.8c3.9,6.1,3.8,14.2-0.1,20.2c-3.7,5.6-9.5,8.6-15.4,8.7c-5,0.1-8.4-1-10.6-2.4
					c-4.2-2.5-8.8-4.1-13.7-4.1l-48.2,0c0,0,0,0.1,0.1,0.1h-2.5c-6.5,0-12.3,4.6-13,11.1c-0.7,7.4,5,13.6,12.3,13.6h15.7h8.2
					c6.5,0,12.3,4.6,13,11.1c0.7,6.5-3.7,12.1-9.7,13.4h-63.7c-0.8-1.2-1.7-2.3-2.8-3.4c-4.3-4.3-10.1-6.7-16.3-6.7
					s-11.9,2.4-16.3,6.7c-9,9-9,23.6,0,32.6c4.4,4.4,10.1,6.7,16.3,6.7s11.9-2.4,16.3-6.7c1.2-1.2,2.2-2.5,3.1-4c0.2,0,0.5,0,0.7,0
					h32c6.8,0,12.4,5.5,12.4,12.4v0.3c0,6.8-5.5,12.4-12.3,12.4h-58.5c-6.5,0-12.4,4.6-13,11.1c-0.7,7.4,5,13.6,12.3,13.6h87h25.3
					c6.5,0,12.3,4.6,13,11.1c0.7,7.4-5,13.6-12.3,13.6h-64.2v0.3l-3.5,0c-6.5,0-12.4,4.6-13,11.1c-0.7,7.4,5,13.6,12.3,13.6h123.4
					c6.8,0,12.3-5.5,12.3-12.4c0-0.1,0-0.3,0-0.4c0,0,0-0.1,0-0.1v-76.8c0-7.5,6-13.5,13.5-13.5H622c9.3,0,16.8-7.5,16.8-16.8v-37.7
					c0-3.7,3-6.7,6.7-6.7h15.3c2,0,3.9-0.6,5.3-2c2.5-2.3,3-5.9,1.6-8.8L655,402.6c-7-14.1-12.3-28.9-17-43.9
					c-14.9-48.1-61.3-81.4-113.3-78.4h-52.1h-24c-0.4,0-0.9,0-1.3,0.1c-2.1,7-4.8,13.9-7.9,20.5C441.6,303.4,444.9,305,448.6,305z
					 M430.3,348.3c-3.3,3.3-8.7,3.3-12,0c-3.3-3.3-3.3-8.7,0-12c3.3-3.3,8.7-3.3,12,0C433.6,339.7,433.6,345,430.3,348.3z
					 M362.6,400.4c-4.3,4.3-11.3,4.3-15.6,0c-4.3-4.3-4.3-11.3,0-15.6c4.3-4.3,11.3-4.3,15.6,0C366.9,389.1,366.9,396.1,362.6,400.4
					z M415.1,499.2c-4.3,4.3-11.3,4.3-15.6,0c-4.3-4.3-4.3-11.3,0-15.6c4.3-4.3,11.3-4.3,15.6,0
					C419.4,487.9,419.4,494.9,415.1,499.2z"/>
			</g>
			<g>
				<g>
					<path class="st50" d="M531.4,60.2l-143.6,54.6c-30.6-20.4-67.1-28.5-103.7-23c-39,5.9-73.3,26.6-96.8,58.3
						c-23.4,31.7-33.1,70.6-27.2,109.6c4.2,27.7,15.9,53.1,33.7,73.9L69.7,465.9c-6.6,7-6.2,18,0.8,24.6c3.4,3.1,7.6,4.7,11.9,4.7
						c4.6,0,9.3-1.8,12.7-5.5l124.3-132.6c6.6,4.8,13.4,9,20.6,12.5c5.1,20,11.2,40.8,18.2,62c25.2,75.2,58.3,137.9,98.5,187.1
						c25.4,6.1,49,13.1,70.8,21c-76-65.8-120.1-167-145.5-256.4c7.8,1.3,15.8,1.9,23.8,1.9c7.4,0,14.8-0.6,22.3-1.7c2-0.3,4-0.7,6-1
						c11.2-2.2,21.9-5.6,32-10c14.8-6.6,28.2-15.5,39.8-26.2c7.7-7.1,14.6-14.9,20.6-23.4c4.9-7,9.3-14.4,13-22.1
						c3.1-6.6,5.8-13.4,7.9-20.5c2.5-8.1,4.2-16.5,5.3-25.1c1-8.1,1.3-16.3,0.9-24.7c-0.2-4.9-0.7-9.9-1.5-14.9
						c-0.8-5.3-1.9-10.6-3.2-15.7c-1.6-6.3-3.7-12.4-6.1-18.4c-5.9-14.4-13.9-27.7-24-39.5l112.8-42.9l282.1,107.2
						c-6.3,60.7-40.7,312.1-183,435.2c22-8.2,45.8-15.5,71.5-21.8c40.2-49.3,69.2-114,99.6-188c38.2-92.8,48.2-222.2,49.6-236.2
						l0.9-13.5L531.4,60.2z M418.8,236.4c0,4.1-0.1,8.2-0.5,12.2c-1.1,11-3.8,21.7-7.9,31.7c-3.6,8.8-8.3,17.1-13.9,24.6
						c-9.7,13-22.2,24-36.8,31.9c-11.2,6-23.5,10.3-36.8,12.3c-5.5,0.8-11,1.2-16.5,1.3c-11.7,0.1-23.3-1.7-34.4-5.2
						c-11.7-3.7-22.8-9.3-32.9-16.8c-3.7-2.7-7.2-5.7-10.5-8.8c-18.3-17.2-30.2-39.9-34-65.2c-4.5-29.8,2.9-59.5,20.8-83.8
						c17.9-24.2,44.2-40.1,73.9-44.5c5.7-0.9,11.4-1.3,17-1.3c12.9,0,25.6,2.2,37.7,6.6c10.3,3.7,20,8.9,29.1,15.5
						c3.6,2.7,7.1,5.6,10.4,8.6c8.1,7.6,15,16.3,20.4,25.8c4.4,7.6,7.8,15.7,10.4,24.3c1.5,5,2.6,10.1,3.4,15.3
						C418.4,226.1,418.8,231.3,418.8,236.4z"/>
					<path class="st50" d="M578.4,733.7c33.3-22.2,86.4-46.5,170.2-63.3v-32.7c-31,6-58.3,13-82.3,20.7
						c-67.9,21.7-109.6,48.3-134.8,71.2c-25.8-23.4-68.8-50.7-139.5-72.6c-22.9-7.1-48.6-13.6-77.6-19.2l-0.3,1.7v30.9
						c84.1,16.9,137.4,41.2,170.7,63.5c-28.4-9.1-66.7-16-117.6-16c-27.1,0-57.7,2-92.3,6.6v31.9l0,0.4c35.1-4.9,65.7-6.9,92.3-6.9
						c63.8,0,104.9,11.6,129.9,23.1c3.5,1.6,6.6,3.2,9.5,4.7l14.5,10.6l9.9,7.2c0.1,0.2,0.2,0.3,0.3,0.3l0.1-0.1l0.4,0.3
						c0-0.1,0.5-0.6,1.3-1.5l9.1-6.5l14.1-10.2c2.9-1.6,6.2-3.2,9.7-4.9c25.1-11.6,66.2-23.1,130-23.1c26.5,0,57,2,91.9,6.8v-32.3
						c-34.4-4.6-65-6.5-91.9-6.5C645.1,717.6,606.8,724.5,578.4,733.7z"/>
				</g>
			</g>
		</g>
		<g>
			<g>
				<path class="st50" d="M1260.7,566.5h-70l-126.1-215.2v215.2h-65.4V239.6h70L1195.3,455V239.6h65.4V566.5z"/>
				<path class="st50" d="M1581.4,533.4c-15.2,12.9-32.1,22.8-50.8,29.8s-38.1,10.4-58.4,10.4c-15.5,0-30.4-2-44.8-6
					c-14.4-4-27.8-9.7-40.2-17.1c-12.5-7.4-23.9-16.2-34.2-26.4c-10.3-10.3-19.1-21.7-26.4-34.2c-7.3-12.5-13-26-17-40.5
					c-4-14.4-6-29.4-6-44.9s2-30.4,6-44.7c4-14.3,9.7-27.7,17-40.2c7.3-12.5,16.1-23.9,26.4-34.2c10.3-10.3,21.7-19,34.2-26.3
					c12.5-7.3,25.9-13,40.2-17c14.4-4,29.3-6,44.8-6c20.2,0,39.7,3.5,58.4,10.4c18.7,6.9,35.6,16.8,50.8,29.7l-34.2,57
					c-9.9-10-21.3-17.9-34.2-23.6c-12.9-5.7-26.5-8.5-40.8-8.5c-14.3,0-27.7,2.7-40.2,8.2c-12.5,5.5-23.5,12.9-32.9,22.2
					c-9.4,9.3-16.9,20.3-22.3,32.8c-5.5,12.5-8.2,26-8.2,40.2c0,14.4,2.7,28,8.2,40.6c5.5,12.6,12.9,23.6,22.3,33.1
					c9.4,9.4,20.4,16.9,32.9,22.3c12.5,5.5,25.9,8.2,40.2,8.2c8.2,0,16.2-1,23.9-3c7.8-2,15.1-4.7,22.1-8.2v-93h63.1V533.4z"/>
				<path class="st50" d="M1612.7,337.6c0-13.5,2.6-26.2,7.8-38.1c5.2-11.9,12.2-22.2,21.1-31.1c8.9-8.9,19.3-15.9,31.1-21.1
					c11.9-5.2,24.5-7.8,38.1-7.8h150V305h-150c-4.6,0-8.8,0.8-12.8,2.5c-4,1.7-7.4,4-10.4,7c-3,3-5.3,6.4-7,10.4
					c-1.7,4-2.5,8.2-2.5,12.8s0.8,8.9,2.5,12.9c1.7,4,4,7.5,7,10.5c3,3,6.4,5.3,10.4,7c4,1.7,8.2,2.5,12.8,2.5h65.4
					c13.5,0,26.3,2.5,38.2,7.6c11.9,5.1,22.3,12.1,31.2,21c8.9,8.9,15.9,19.3,21,31.2c5.1,11.9,7.6,24.7,7.6,38.2
					c0,13.5-2.5,26.2-7.6,38.1c-5.1,11.9-12.1,22.2-21,31.1c-8.9,8.9-19.3,15.9-31.2,21.1c-11.9,5.2-24.7,7.8-38.2,7.8h-145.2v-65.4
					h145.2c4.6,0,8.8-0.8,12.8-2.5c4-1.7,7.4-4,10.4-7c3-3,5.3-6.4,7-10.4c1.7-4,2.5-8.2,2.5-12.8s-0.8-8.8-2.5-12.8
					c-1.7-4-4-7.4-7-10.4c-3-3-6.4-5.3-10.4-7c-4-1.7-8.2-2.5-12.8-2.5h-65.4c-13.5,0-26.2-2.6-38.1-7.8
					c-11.9-5.2-22.2-12.2-31.1-21.1c-8.9-8.9-15.9-19.3-21.1-31.2C1615.3,363.9,1612.7,351.1,1612.7,337.6z"/>
				<path class="st50" d="M2237.3,404.4c0,15.5-2,30.4-6,44.8c-4,14.4-9.7,27.8-17,40.3s-16.1,24-26.4,34.3
					c-10.3,10.3-21.7,19.2-34.2,26.6c-12.5,7.4-25.9,13.1-40.4,17.1c-14.4,4-29.4,6-44.9,6s-30.4-2-44.8-6
					c-14.4-4-27.8-9.7-40.4-17.1c-12.5-7.4-24-16.2-34.3-26.6c-10.3-10.3-19.2-21.8-26.6-34.3c-7.4-12.5-13.1-26-17.1-40.3
					c-4-14.4-6-29.3-6-44.8s2-30.5,6-44.9c4-14.4,9.7-27.9,17.1-40.3c7.4-12.5,16.2-23.9,26.6-34.2c10.3-10.3,21.8-19.1,34.3-26.4
					c12.5-7.3,26-13,40.4-17c14.4-4,29.3-6,44.8-6s30.5,2,44.9,6c14.4,4,27.9,9.7,40.4,17c12.5,7.3,23.9,16.1,34.2,26.4
					c10.3,10.3,19.1,21.7,26.4,34.2c7.3,12.5,13,25.9,17,40.3C2235.3,373.9,2237.3,388.9,2237.3,404.4z M2172.3,404.4
					c0-14.3-2.7-27.8-8.2-40.5c-5.5-12.7-12.9-23.7-22.2-33.1s-20.4-16.8-33.1-22.2c-12.7-5.5-26.2-8.2-40.5-8.2
					c-14.4,0-28,2.7-40.6,8.2c-12.6,5.5-23.6,12.9-33.1,22.2c-9.4,9.3-16.9,20.4-22.3,33.1c-5.5,12.7-8.2,26.2-8.2,40.5
					c0,14.3,2.7,27.7,8.2,40.2c5.5,12.5,12.9,23.5,22.3,32.9c9.4,9.4,20.4,16.9,33.1,22.3c12.6,5.5,26.1,8.2,40.6,8.2
					c14.3,0,27.8-2.7,40.5-8.2c12.7-5.5,23.7-12.9,33.1-22.3c9.3-9.4,16.8-20.4,22.2-32.9C2169.6,432.1,2172.3,418.7,2172.3,404.4z"
					/>
				<path class="st50" d="M2407.1,566.5h-65.2V305h-98.3v-65.4h261.5V305h-98V566.5z"/>
				<path class="st50" d="M2605.2,566.5h-65.4V239.6h65.4V566.5z"/>
			</g>
		</g>
	</g>
</g>
<g id="Layer_2">
</g>
</svg>
