<?xml version="1.0" encoding="utf-8"?>
<!-- Generator: Adobe Illustrator 28.1.0, SVG Export Plug-In . SVG Version: 6.00 Build 0)  -->
<svg version="1.1" xmlns="http://www.w3.org/2000/svg" xmlns:xlink="http://www.w3.org/1999/xlink" x="0px" y="0px"
	 viewBox="0 0 1515.1 1515.1" style="enable-background:new 0 0 1515.1 1515.1;" xml:space="preserve">
<style type="text/css">
	.st0{display:none;}
	.st1{display:inline;}
	.st2{fill:none;stroke:#000000;stroke-width:0.9157;stroke-miterlimit:10;}
	.st3{fill:#221F20;}
	.st4{opacity:0.6;}
	.st5{opacity:0.3;}
	.st6{opacity:0.3;fill:#221F20;}
	.st7{fill:#FFFFFF;}
	.st8{opacity:0.3;fill:#FFFFFF;}
	.st9{fill:url(#SVGID_1_);}
	.st10{fill:none;}
	.st11{fill:url(#SVGID_00000082349410491817402780000013659528020775174316_);}
	.st12{fill:url(#SVGID_00000080185535366882330010000015919497467341305238_);}
	.st13{fill:url(#SVGID_00000078728788261230693720000007194599965023484088_);}
	.st14{fill:url(#SVGID_00000142134126686038727020000002148025839274381197_);}
	.st15{fill:url(#SVGID_00000149367055764229573850000002248079067448608681_);}
	.st16{fill:url(#SVGID_00000141454324303836543690000017567039700271192986_);}
	.st17{fill:url(#SVGID_00000008864940954707544870000010329945564325449126_);}
	.st18{fill:url(#SVGID_00000127015054822568979580000000378547045816459710_);}
	.st19{fill:url(#SVGID_00000000183864306597990980000002206068102603549102_);}
	.st20{fill:url(#SVGID_00000092422058017494085380000010060236926151980987_);}
	.st21{fill:url(#SVGID_00000050636758477103282060000015364009458801477807_);}
	.st22{fill:url(#SVGID_00000052075342003418580900000005311088996195615623_);}
	.st23{fill:url(#SVGID_00000168119149932841275360000002779022616752563113_);}
	.st24{fill:url(#SVGID_00000021086498500833257600000001082101386889922980_);}
	.st25{fill:url(#SVGID_00000109728742689742727090000004223164624232732590_);}
	.st26{fill:url(#SVGID_00000039133993268075763280000001369589065174832791_);}
	.st27{fill:url(#SVGID_00000116928750223608960680000004249327237337836965_);}
	.st28{fill:url(#SVGID_00000061448294272222148980000005667969546272149640_);}
	.st29{fill:url(#SVGID_00000104702361220351699970000011471233337006331269_);}
	.st30{fill:url(#SVGID_00000140016354900476235760000006631483715807867058_);}
	.st31{fill:url(#SVGID_00000177463145122480993210000010934458769371468449_);}
	.st32{fill:url(#SVGID_00000026848032676804037990000000387477080264494250_);}
	.st33{fill:url(#SVGID_00000043427891901728587990000010938884097097648558_);}
	.st34{fill:url(#SVGID_00000044145929871717344370000016248272371870625678_);}
	.st35{fill:url(#SVGID_00000009583026482707550020000002299756274200544948_);}
	.st36{fill:url(#SVGID_00000109013031645823525870000016023070564639734168_);}
	.st37{fill:url(#SVGID_00000000942074667040356060000003395143215309720463_);}
	.st38{fill:url(#SVGID_00000092425085001053319860000003519986852164498307_);}
	.st39{fill:url(#SVGID_00000108308922177490867240000010106917550626862481_);}
	.st40{fill:url(#SVGID_00000031911973338522002960000011008146626230019518_);}
	.st41{fill:url(#SVGID_00000036240210392562601040000011185917554638045830_);}
	.st42{fill:url(#SVGID_00000140723266945963652870000010772351001191759022_);}
	.st43{fill:url(#SVGID_00000121968250312489789100000017634937769781507769_);}
	.st44{fill:url(#SVGID_00000072974705289025294500000013570053618742119855_);}
	.st45{fill:url(#SVGID_00000085946200733754312120000005803828572821728698_);}
	.st46{fill:url(#SVGID_00000162313752872105012020000007543689142035070389_);}
	.st47{fill:url(#SVGID_00000119817461955466996520000008106467429948657836_);}
	.st48{fill:url(#SVGID_00000037683141871682637550000002814575340105010067_);}
	.st49{fill:url(#SVGID_00000157271305344705033860000017356925492924268448_);}
	.st50{fill:#172B43;}
	.st51{fill:url(#SVGID_00000005230413647329748460000006449906987934211502_);}
	.st52{fill:url(#SVGID_00000134939877959468092520000005962415840326501306_);}
	.st53{fill:url(#SVGID_00000134245172903925396000000017116513657210751918_);}
	.st54{fill:url(#SVGID_00000032613323733700215210000001409755760877669267_);}
	.st55{fill:url(#SVGID_00000017495034487507377770000017781151655232424371_);}
	.st56{fill:url(#SVGID_00000014600642652551892850000016042981769461063822_);}
	.st57{fill:url(#SVGID_00000059280412851203227240000000074262053567338404_);}
	.st58{fill:url(#SVGID_00000136376055484323111050000006191955092284683967_);}
	.st59{fill:url(#SVGID_00000175318782372251707520000001951602424362771116_);}
	.st60{fill:url(#SVGID_00000160878108339330089040000016344339342152422017_);}
	.st61{fill:url(#SVGID_00000181768385975533401490000006607648093177968024_);}
	.st62{fill:url(#SVGID_00000107566103097723880000000002282496274270125981_);}
	.st63{fill:url(#SVGID_00000007391661878485379270000000779211331307298214_);}
	.st64{fill:url(#SVGID_00000064344125369003443740000017484303746778130593_);}
	.st65{fill:url(#SVGID_00000086650769692499688180000008329361186014125206_);}
	.st66{fill:url(#SVGID_00000049214977987248063840000015110585196901207699_);}
	.st67{fill:url(#SVGID_00000050660917359564381680000004048726108615435967_);}
	.st68{fill:url(#SVGID_00000104676736002764831420000018182554293562586014_);}
	.st69{fill:url(#SVGID_00000042016170042982976480000005704560676817142719_);}
	.st70{fill:url(#SVGID_00000145753223664490605510000007777979112253268917_);}
	.st71{fill:url(#SVGID_00000102533769371802324310000010919819627120139428_);}
	.st72{fill:url(#SVGID_00000047738954120433307380000011509867266685898420_);}
	.st73{fill:url(#SVGID_00000139289899425048111830000011955173259137025975_);}
	.st74{fill:url(#SVGID_00000117638839968588498590000006513671240607156608_);}
	.st75{fill:url(#SVGID_00000073002766728933451100000011385866693847595957_);}
	.st76{fill:url(#SVGID_00000067232550179428455640000004228476043190613131_);}
	.st77{fill:url(#SVGID_00000102546502109111222500000013690396060297004956_);}
	.st78{fill:url(#SVGID_00000106860948834010244450000009296133430427653261_);}
	.st79{fill:url(#SVGID_00000028303246960901723510000013433366325596875665_);}
	.st80{fill:url(#SVGID_00000011734359978259918940000016975909459146660251_);}
	.st81{fill:url(#SVGID_00000082363627994772551310000010003339351040217232_);}
	.st82{fill:url(#SVGID_00000092417497358351211100000006816356163377868984_);}
	.st83{fill:url(#SVGID_00000007401085250232118830000008505910771422935175_);}
	.st84{fill:url(#SVGID_00000098924885451096086070000003121126046878064549_);}
	.st85{fill:url(#SVGID_00000165936013265910785300000014104506365022171798_);}
	.st86{fill:url(#SVGID_00000170977075762627812380000015196648834026888074_);}
	.st87{fill:url(#SVGID_00000173122502447471966110000010802226176950211513_);}
	.st88{fill:url(#SVGID_00000004528940345584686270000002158062003707895201_);}
	.st89{fill:url(#SVGID_00000078739492913849860500000004062808891345214361_);}
	.st90{fill:url(#SVGID_00000033338907618646726860000013274775148056615855_);}
	.st91{fill:url(#SVGID_00000031885668834106479280000009842893320805609376_);}
	.st92{fill:url(#SVGID_00000029726270801020968050000012411009183670275509_);}
	.st93{fill:url(#SVGID_00000139289660830470358220000018258431228973451683_);}
	.st94{fill:url(#SVGID_00000013178809724440571450000005291308983508810892_);}
	.st95{fill:url(#SVGID_00000016783591904609652040000010958130440006412943_);}
	.st96{fill:url(#SVGID_00000039853800704926916790000000173646636445979798_);}
	.st97{fill:url(#SVGID_00000058583764603862565140000010404936464722315180_);}
	.st98{fill:url(#SVGID_00000114072299002999465110000006477869620191506338_);}
	.st99{fill:url(#SVGID_00000011723714120819571760000007543269593120464568_);}
	.st100{fill:url(#SVGID_00000063624642433208495390000012422884172092849061_);}
	.st101{fill:url(#SVGID_00000166659045018345875620000004533182643828922027_);}
	.st102{fill:url(#SVGID_00000085211074775371413570000004676450075321012410_);}
	.st103{fill:url(#SVGID_00000118391561438875838600000000875946641713321146_);}
	.st104{fill:url(#SVGID_00000149372003927248758680000004270545091966973115_);}
	.st105{fill:url(#SVGID_00000013169038681927863850000015399074321486449318_);}
	.st106{fill:url(#SVGID_00000133497600206212496970000006004787083444719030_);}
	.st107{fill:url(#SVGID_00000158009647084839775280000003611711442162031236_);}
	.st108{fill:url(#SVGID_00000080927464288585886590000013329790466905353391_);}
	.st109{fill:url(#SVGID_00000147184807870371500410000008607575126142396304_);}
	.st110{fill:url(#SVGID_00000144333129465749774990000016653641812266183569_);}
	.st111{fill:url(#SVGID_00000157306803281325634100000009628995633828373949_);}
	.st112{fill:url(#SVGID_00000174563693142058712620000002902236159032793535_);}
	.st113{fill:url(#SVGID_00000146466181748124971110000017903670632000563612_);}
	.st114{fill:url(#SVGID_00000082342115552877332700000010231052790355231162_);}
	.st115{fill:url(#SVGID_00000090278001383010524100000002306560974876877476_);}
	.st116{fill:url(#SVGID_00000026128562603723259760000003105788246208980149_);}
	.st117{fill:url(#SVGID_00000143605012455663286890000009559607060538055602_);}
	.st118{fill:url(#SVGID_00000017478531526300189480000011809194568601472918_);}
	.st119{fill:url(#SVGID_00000179640336131320817480000005631474472248726914_);}
	.st120{fill:url(#SVGID_00000084522122822965544570000011253825753819949970_);}
	.st121{fill:url(#SVGID_00000100384664558123414350000006870804892277160336_);}
	.st122{fill:url(#SVGID_00000131335137469211548260000008111350408796392375_);}
	.st123{fill:url(#SVGID_00000120548409893178356520000013739333433326196148_);}
	.st124{fill:url(#SVGID_00000067923937106831078970000004790906571069673400_);}
	.st125{fill:url(#SVGID_00000061452641238515859340000005123184103598187402_);}
	.st126{fill:url(#SVGID_00000007404803888358766600000017500755704795658921_);}
	.st127{fill:url(#SVGID_00000157304636145531569680000012106582798485884049_);}
	.st128{fill:url(#SVGID_00000167375287337176578090000000159704700469101214_);}
	.st129{fill:url(#SVGID_00000067206403254565788810000012005597029718037692_);}
	.st130{fill:url(#SVGID_00000119828718824883225640000005840511324873486234_);}
	.st131{fill:url(#SVGID_00000116204172282092985690000013136243571828944543_);}
	.st132{fill:url(#SVGID_00000110465046100329438910000014555547236676489878_);}
	.st133{fill:url(#SVGID_00000133523104552428811430000016931285239607213226_);}
	.st134{fill:url(#SVGID_00000027564225333111472810000004484002758535535521_);}
	.st135{fill:url(#SVGID_00000142140222497435233670000007135665365545245088_);}
	.st136{fill:url(#SVGID_00000103978708763197928470000010247350347817362111_);}
	.st137{fill:url(#SVGID_00000021806297791460305800000002976157696951006381_);}
	.st138{fill:url(#SVGID_00000176742109591758720420000008609039051812248245_);}
	.st139{fill:url(#SVGID_00000018956698356058811010000002036049332474612107_);}
	.st140{fill:url(#SVGID_00000033355152616609047670000015245472594985703078_);}
	.st141{fill:url(#SVGID_00000062181630456170161360000007021130377281514670_);}
	.st142{fill:url(#SVGID_00000142856135614334593760000010543994121285746338_);}
	.st143{fill:url(#SVGID_00000070806581766931282880000015890393321814249878_);}
	.st144{fill:url(#SVGID_00000067927886016012535720000004672666477076414367_);}
	.st145{fill:url(#SVGID_00000119831821689447600200000010811646531004368299_);}
	.st146{fill:url(#SVGID_00000085967956857748015050000016932977428758283904_);}
	.st147{fill:url(#SVGID_00000081644782517130462560000001564171086182974142_);}
	.st148{fill:url(#SVGID_00000083067580408603439940000009448311190825381015_);}
	.st149{fill:url(#SVGID_00000170238686907695817460000013771690875871830707_);}
	.st150{fill:url(#SVGID_00000101078090994383786700000015236243497366193309_);}
	.st151{fill:url(#SVGID_00000064338938813212506930000002105005017567851149_);}
	.st152{fill:url(#SVGID_00000141423580825261400450000000599040483013776001_);}
	.st153{fill:url(#SVGID_00000012436750749758967610000018304213786165952170_);}
	.st154{fill:url(#SVGID_00000150791727426132393870000000080202751718354850_);}
	.st155{fill:url(#SVGID_00000101823348030996005340000011073885410943865006_);}
	.st156{fill:url(#SVGID_00000134232789740399615660000016048891233762382244_);}
	.st157{fill:url(#SVGID_00000171711101687584610730000009552155320104698559_);}
	.st158{fill:url(#SVGID_00000110455200482554904940000002101684306243783614_);}
	.st159{fill:url(#SVGID_00000148622548590942376860000003007989259539539605_);}
	.st160{fill:url(#SVGID_00000017510557195161472910000002201994381751017405_);}
	.st161{fill:url(#SVGID_00000093895497232914731630000011875463017404788907_);}
	.st162{fill:url(#SVGID_00000149355439984869341260000001926839685547204279_);}
	.st163{fill:url(#SVGID_00000134933585737453080460000016970347724909558716_);}
	.st164{fill:url(#SVGID_00000083805293171905242030000017680384682685158283_);}
	.st165{fill:url(#SVGID_00000152959910657858178660000008603262669888701352_);}
	.st166{fill:url(#SVGID_00000142134569244324987680000005984499413243802284_);}
	.st167{fill:url(#SVGID_00000023983084694373317450000017868996953029234594_);}
	.st168{fill:url(#SVGID_00000117644866223321621610000008537336501215131322_);}
	.st169{fill:url(#SVGID_00000067223941588625360620000000965841053175346066_);}
	.st170{fill:url(#SVGID_00000161616612766772947030000010205804965156069049_);}
</style>
<g id="Layer_1">
	<g>
		<g>
			<g>
				<path class="st3" d="M531.9,613.1c-5.5,0-10,4.5-10,10c0,5.5,4.5,10,10,10c5.5,0,10-4.5,10-10
					C541.9,617.6,537.4,613.1,531.9,613.1z"/>
			</g>
			<g>
				<path class="st3" d="M476.5,417h-3.6v-10h0c-0.1-7-5.8-12.7-12.8-12.7s-12.8,5.7-12.8,12.7h0v10h-3.6c-0.8,0-1.4,0.6-1.4,1.4
					v19.9c0,0.8,0.6,1.4,1.4,1.4h32.8c0.8,0,1.4-0.6,1.4-1.4v-19.9C477.9,417.6,477.3,417,476.5,417z M452.3,407
					C452.3,407,452.3,407,452.3,407c0-4.2,3.6-7.7,7.8-7.7s7.8,3.5,7.8,7.8c0,0,0,0,0,0v10h-15.7V407z M462.8,432h-5.4l1.7-5
					c-1.1-0.4-1.9-1.4-1.9-2.7c0-1.6,1.3-2.8,2.8-2.8s2.8,1.3,2.8,2.8c0,1.2-0.8,2.3-1.9,2.7L462.8,432z"/>
			</g>
		</g>
		<g class="st4">
			<g>
				<path class="st3" d="M596.2,577.5c0.2,4,3.5,7.3,7.6,7.3c4.2,0,7.7-3.4,7.7-7.7c0-4.2-3.4-7.7-7.7-7.7c-3.5,0-6.5,2.4-7.4,5.6
					h-98c-0.6-5.1-4.9-9.1-10.2-9.1c-5.7,0-10.3,4.6-10.3,10.3c0,5.7,4.6,10.3,10.3,10.3c5.3,0,9.6-4,10.2-9.1H596.2z"/>
				<path class="st3" d="M377.6,431.2c-4.2,0-7.7,3.4-7.7,7.7c0,4.2,3.4,7.7,7.7,7.7c4.2,0,7.7-3.4,7.7-7.7
					C385.3,434.6,381.9,431.2,377.6,431.2z"/>
			</g>
			<g>
				<path class="st3" d="M553,563.5h-2v-5.6h0c0-4-3.2-7.2-7.2-7.2c-4,0-7.2,3.2-7.2,7.2h0v5.6h-2c-0.4,0-0.8,0.4-0.8,0.8v11.2
					c0,0.4,0.4,0.8,0.8,0.8H553c0.4,0,0.8-0.4,0.8-0.8v-11.2C553.8,563.9,553.4,563.5,553,563.5z M539.4,557.9
					C539.4,557.9,539.4,557.9,539.4,557.9c0-2.4,2-4.4,4.4-4.4c2.4,0,4.4,2,4.4,4.4c0,0,0,0,0,0v5.6h-8.8V557.9z M545.3,571.9h-3
					l1-2.8c-0.6-0.2-1.1-0.8-1.1-1.5c0-0.9,0.7-1.6,1.6-1.6c0.9,0,1.6,0.7,1.6,1.6c0,0.7-0.4,1.3-1.1,1.5L545.3,571.9z"/>
				<path class="st3" d="M574.3,396.6h-2.7V389h0c0-5.4-4.4-9.7-9.8-9.7c-5.4,0-9.8,4.4-9.8,9.7h0v7.6h-2.7c-0.6,0-1.1,0.5-1.1,1.1
					V413c0,0.6,0.5,1.1,1.1,1.1h25.1c0.6,0,1.1-0.5,1.1-1.1v-15.3C575.4,397.1,574.9,396.6,574.3,396.6z M555.7,389
					C555.7,389,555.7,389,555.7,389c0-3.3,2.7-5.9,6-5.9c3.3,0,6,2.7,6,6c0,0,0,0,0,0v7.6h-12V389z M563.8,408.1h-4.1l1.3-3.8
					c-0.8-0.3-1.4-1.1-1.4-2c0-1.2,1-2.2,2.2-2.2c1.2,0,2.2,1,2.2,2.2c0,0.9-0.6,1.7-1.4,2L563.8,408.1z"/>
			</g>
		</g>
		<g class="st5">
			<path class="st3" d="M623.6,413.9H511.5v-97c-0.8,0-1.6,0-2.4,0.1v96.9h-2.9v2.4h2.9v89.1h-64.5v107.7c-3.6,0.6-6.4,3.7-6.4,7.5
				c0,4.2,3.4,7.7,7.7,7.7c4.2,0,7.7-3.4,7.7-7.7c0-3.8-2.8-7-6.4-7.5V507.8h64.5v-91.5H626v-60.7c-0.8-0.6-1.6-1.3-2.4-1.9V413.9z"
				/>
		</g>
		<g>
			<path class="st6" d="M565.7,593.6v-96.9h82.9V402H667c-0.6-1.1-1.3-2.1-2-3.2h-19.6v94.7h-79.8v-169h-3.2v169h-63.4v-56.8h-98.4
				c-0.1-28-0.2-55.7-0.2-77.7c-1.1,0.9-2.1,1.8-3.2,2.8c-0.1,21.7,0,48.3,0.1,74.9h-49.9c-0.4,1-0.7,2.1-1,3.2h50.9
				c0.2,41.2,0.6,82.1,0.8,104.2h-53c0.3,1.1,0.6,2.1,1,3.2h55.2l0-1.6c-0.2-24.7-0.5-65.4-0.7-105.8h95.2v56.8h66.6v93.7H440.7V655
				c1,0.5,2.1,1,3.2,1.4v-62.8H565.7z"/>
			<path class="st6" d="M627.3,590.5c-0.8-6.7-6.4-11.8-13.3-11.8c-7.4,0-13.4,6-13.4,13.4c0,7.4,6,13.4,13.4,13.4
				c6.9,0,12.5-5.2,13.3-11.8h34.8c0.7-1,1.4-2.1,2.1-3.2H627.3z"/>
		</g>
		<g>
			<path class="st3" d="M531.9,633.1h-1.6v37.7c1.1-0.1,2.1-0.2,3.2-0.3v-37.4H531.9z"/>
			<path class="st3" d="M378.9,528.4v-81.9h-1.2h-1.2V526h-31.8v15.9c0.7,2.7,1.6,5.3,2.4,7.9v-21.4H378.9z"/>
			<path class="st3" d="M590.5,609.8h53.2V494.5h-74.5c-0.6-3.7-3.7-6.4-7.5-6.4c-4.2,0-7.7,3.4-7.7,7.7c0,4.2,3.4,7.7,7.7,7.7
				c3.8,0,7-2.8,7.5-6.4h72.1v110.5h-53.2v48.5c0.8-0.4,1.6-0.7,2.4-1.1V609.8z"/>
		</g>
		<g>
			<path class="st3" d="M952.3,563.7c-0.7,10.2,7.4,18.8,17.5,18.8h87.3c9.4,0,17.5-7.1,18.1-16.4c0.7-10.2-7.4-18.8-17.5-18.8
				h-87.3C961.1,547.3,952.9,554.4,952.3,563.7z"/>
			<path class="st3" d="M1183.8,495.3c0.7-10.2-7.4-18.8-17.5-18.8h-121.1c-9.4,0-17.5,7.1-18.1,16.4c-0.7,10.2,7.4,18.8,17.5,18.8
				h121.1C1175.1,511.7,1183.2,504.6,1183.8,495.3z"/>
			<path class="st3" d="M1117.2,547.3c-9.4,0-17.5,7.1-18.1,16.4c-0.7,10.2,7.4,18.8,17.5,18.8h40c9.4,0,17.5-7.1,18.1-16.4
				c0.7-10.2-7.4-18.8-17.5-18.8H1117.2z"/>
			<path class="st3" d="M1013.8,405.8h-40c-9.4,0-17.5,7.1-18.1,16.4c-0.7,10.2,7.4,18.8,17.5,18.8h40c9.4,0,17.5-7.1,18.1-16.4
				C1032,414.3,1023.9,405.8,1013.8,405.8z"/>
			<path class="st3" d="M721.5,424.6c0.5-8.1-4.5-15.2-11.7-17.7c3.5,8.5,6.4,17.2,8.7,26.2C720.3,430.6,721.3,427.7,721.5,424.6z"
				/>
			<path class="st3" d="M939.5,901c-9.7,0-17.6,7.9-17.6,17.6c0,9.7,7.9,17.6,17.6,17.6c9.7,0,17.6-7.9,17.6-17.6
				C957.1,908.9,949.2,901,939.5,901z"/>
			<path class="st3" d="M1072,688.8h-29.4c-9.4,0-17.5,7.1-18.1,16.4c-0.7,10.2,7.4,18.8,17.5,18.8h80.8c9.4,0,17.5-7.1,18.1-16.4
				c0.7-10.2-7.4-18.8-17.5-18.8h4.7c-9.7,0-17.6-7.9-17.6-17.6v-0.7c0-9.5,7.7-17.2,17.2-17.2c0.2,0,14.9,0,15.1,0
				c9.1-0.3,17-7.3,17.6-16.4c0.7-10.2-7.4-18.8-17.5-18.8h-126.1c-9.4,0-17.5,7.1-18.1,16.4c-0.7,10.2,7.4,18.8,17.5,18.8h55.8
				c9.7,0,17.6,7.9,17.6,17.6v0.4C1089.6,680.9,1081.8,688.8,1072,688.8z"/>
			<path class="st3" d="M1071.3,759.5c-9.7,0-17.6,7.9-17.6,17.6c0,9.7,7.9,17.6,17.6,17.6h24.8c9.7,0,17.6-7.9,17.6-17.6
				c0-9.7-7.9-17.6-17.6-17.6H1071.3z"/>
			<path class="st3" d="M832.3,335.1c-9.7,0-17.6,7.9-17.6,17.6c0,9.7,7.9,17.6,17.6,17.6h13.2c9.7,0,17.6-7.9,17.6-17.6
				c0-9.7-7.9-17.6-17.6-17.6H832.3z"/>
			<path class="st3" d="M864.4,606.1c3.4-3.4,3.4-8.8,0-12.2c-3.4-3.4-8.8-3.4-12.2,0c-3.4,3.4-3.4,8.8,0,12.2
				C855.6,609.5,861,609.5,864.4,606.1z"/>
			<path class="st3" d="M852.5,748.2c3.6-3.6,3.6-9.4,0-13c-3.6-3.6-9.4-3.6-13,0c-3.6,3.6-3.6,9.4,0,13
				C843.1,751.8,848.9,751.8,852.5,748.2z"/>
			<path class="st3" d="M810.1,681.2c5.5-5.5,5.5-14.5,0-20c-5.5-5.5-14.5-5.5-20,0c-5.5,5.5-5.5,14.5,0,20
				C795.6,686.8,804.6,686.8,810.1,681.2z"/>
			<path class="st3" d="M700.8,777.1c0-9.7-7.9-17.6-17.6-17.6h-49c0,0,0,0,0,0h-61.1c-9.2,0-17.6,6.6-18.5,15.8
				c-1.1,10.5,7.2,19.4,17.5,19.4h111.2C692.9,794.7,700.8,786.8,700.8,777.1z"/>
			<path class="st3" d="M839.8,1077.7c9.7,0,17.6-7.9,17.6-17.6c0-9.7-7.9-17.6-17.6-17.6H838c-9.7,0-17.6,7.9-17.6,17.6
				c0,9.7,7.9,17.6,17.6,17.6H839.8z"/>
			<path class="st3" d="M724,511.7h28.5H986c9.2,0,17.6-6.6,18.5-15.8c1.1-10.5-7.2-19.4-17.5-19.4h-81.5c-9.7,0-17.6-7.9-17.6-17.6
				v-0.4c0-9.7,7.9-17.6,17.6-17.6h9.8c9.2,0,17.6-6.6,18.5-15.8c1.1-10.5-7.2-19.4-17.5-19.4H762.6c-9.2,0-17.6,6.6-18.5,15.8
				c-1.1,10.5,7.2,19.4,17.5,19.4h87.7c9.7,0,17.6,7.9,17.6,17.6v0.4c0,9.7-7.9,17.6-17.6,17.6h-124
				C725.9,488.4,725.4,500.2,724,511.7z"/>
			<path class="st3" d="M1004.6,847.9c0,9.7,7.9,17.6,17.6,17.6h44.4c9.7,0,17.6-7.9,17.6-17.6c0-9.7-7.9-17.6-17.6-17.6h-44.4
				C1012.5,830.3,1004.6,838.1,1004.6,847.9z"/>
			<path class="st3" d="M973.8,918.6c0,9.7,7.9,17.6,17.6,17.6h29.9c9.7,0,17.6-7.9,17.6-17.6c0-9.7-7.9-17.6-17.6-17.6h-29.9
				C981.7,901,973.8,908.9,973.8,918.6z"/>
			<path class="st3" d="M959.2,971.8h-13.8c-9.7,0-17.6,7.9-17.6,17.6c0,9.7,7.9,17.6,17.6,17.6h13.8c9.7,0,17.6-7.9,17.6-17.6
				C976.8,979.6,968.9,971.8,959.2,971.8z"/>
			<path class="st3" d="M718.4,582.5h31.8c0,0,0,0,0,0h68.3c7.5,0,14.8-2.2,20.9-6.5c2.7-1.8,5.7-3.6,8.8-4.6
				c3.7-1.2,7.6-1.8,11.4-1.7c7.3,0.3,14.5,3.3,20.1,8.8c10.8,10.8,11.7,27.6,3,39.5c-0.9,1.2-1.9,2.4-3,3.5
				c-8.1,8.1-19.8,10.9-30,7.7c-4.3-1.4-8-3.3-10.8-5.2c-6.3-4.3-13.8-6.4-21.5-6.4h-69.7c0,0.1,0,0.3,0,0.4h-43.1
				c-0.6-0.8-1.2-1.6-1.9-2.3c-4.4-4.4-10-7-16-7.7c-8.6,12.1-18.4,23.2-29.3,33.3c1.1,4.6,3.5,9,7.1,12.6
				c5.1,5.1,11.9,7.9,19.1,7.9c7.2,0,14-2.8,19.1-7.9c0.2-0.2,0.4-0.5,0.6-0.7h46.1c8.3,0,16.3-3.3,22.1-9.2l0.7-0.7h0
				c15.4-15.4,40.3-15.4,55.7,0c3,3,5.4,6.3,7.2,9.9c7.6,14.8,5.2,33.4-7.2,45.8c-15.4,15.4-40.3,15.4-55.7,0h0
				c-0.2-0.2-0.5-0.5-0.7-0.7c-6-6.3-14.3-9.9-23-9.9h-7c0,0.1,0,0.3,0,0.4H611.9c-1.2-1.7-2.5-3.3-4-4.8c-2.1-2.1-4.6-3.9-7.1-5.4
				c-14.3,6.4-29.5,11.2-45.5,14.3c-5.9,12.2-3.8,27.3,6.3,37.5c6.2,6.2,14.4,9.6,23.2,9.6c8.8,0,17-3.4,23.2-9.6
				c1.9-1.9,3.5-4.1,4.9-6.4h21.4h104.5c0,0.1,0,0.1,0,0.2h72.8c7.3,0,14.5-1.9,20.8-5.7c3.7-2.2,8.9-4,15.7-3.6
				c8,0.6,15.8,4.8,20.8,12.6c5.5,8.6,5.5,20.1-0.2,28.7c-5.3,8-13.6,12.2-21.9,12.4c-7.1,0.2-11.9-1.5-15.1-3.4
				c-6-3.6-12.6-5.9-19.5-5.9l-68.6,0c0,0.1,0.1,0.1,0.1,0.2h-3.6c-9.2,0-17.6,6.6-18.5,15.8c-1.1,10.5,7.2,19.4,17.5,19.4h22.3
				h11.7c9.2,0,17.6,6.6,18.5,15.8c0.9,9.2-5.3,17.2-13.8,19h-90.8c-1.2-1.7-2.5-3.3-4-4.8c-6.2-6.2-14.4-9.6-23.2-9.6
				c-8.8,0-17,3.4-23.2,9.6c-12.8,12.8-12.8,33.6,0,46.4c6.2,6.2,14.4,9.6,23.2,9.6c8.8,0,17-3.4,23.2-9.6c1.7-1.7,3.1-3.6,4.4-5.6
				c0.3,0,0.6,0,1,0h45.6c9.7,0,17.6,7.9,17.6,17.6v0.4c0,9.7-7.9,17.6-17.6,17.6h-83.3c-9.2,0-17.6,6.6-18.5,15.8
				c-1.1,10.5,7.2,19.4,17.5,19.4h123.8h36.1c9.2,0,17.6,6.6,18.5,15.8c1.1,10.5-7.2,19.4-17.5,19.4H719v0.4l-5,0
				c-9.2,0-17.6,6.6-18.5,15.8c-1.1,10.5,7.2,19.4,17.5,19.4h175.6c9.7,0,17.6-7.9,17.6-17.6c0-0.2,0-0.4,0-0.6c0-0.1,0-0.1,0-0.2
				V879.2c0-10.6,8.6-19.2,19.2-19.2h39.8c13.2,0,23.9-10.7,23.9-23.9v-53.7c0-5.3,4.3-9.6,9.6-9.6h21.8c2.8,0,5.6-0.9,7.6-2.8
				c3.5-3.3,4.3-8.4,2.3-12.5l-18.1-36.2c-10-20-17.5-41.1-24.1-62.4c-21.3-68.5-87.3-115.8-161.3-111.6h-74.2h-34.2
				c-0.6,0-1.3,0-1.9,0.1c-3,10-6.8,19.8-11.3,29.1C708.5,580.2,713.2,582.5,718.4,582.5z M692.3,644.2c-4.7,4.7-12.4,4.7-17.1,0
				c-4.7-4.7-4.7-12.4,0-17.1c4.7-4.7,12.4-4.7,17.1,0C697,631.8,697,639.5,692.3,644.2z M595.9,718.3c-6.1,6.1-16.1,6.1-22.2,0
				c-6.1-6.1-6.1-16.1,0-22.2c6.1-6.1,16.1-6.1,22.2,0C602,702.2,602,712.1,595.9,718.3z M670.7,859c-6.1,6.1-16.1,6.1-22.2,0
				c-6.1-6.1-6.1-16.1,0-22.2c6.1-6.1,16.1-6.1,22.2,0C676.8,842.9,676.8,852.8,670.7,859z"/>
		</g>
		<g>
			<path class="st3" d="M836.3,233.9l-204.5,77.7c-43.5-29-95.5-40.6-147.6-32.8c-55.5,8.4-104.4,37.8-137.8,83
				c-33.3,45.1-47.1,100.6-38.7,156.1c5.9,39.5,22.6,75.7,48,105.3L179,811.6c-9.4,10-8.8,25.6,1.1,35c4.8,4.5,10.9,6.7,16.9,6.7
				c6.6,0,13.2-2.6,18.1-7.8l177-188.8c9.4,6.8,19.1,12.7,29.3,17.8c7.3,28.5,15.9,58.2,26,88.3c35.8,107.1,83,196.3,140.2,266.3
				c36.1,8.7,69.7,18.6,100.8,29.9c-108.1-93.7-171-237.8-207.2-365.1c11.1,1.8,22.5,2.8,33.9,2.8c10.5,0,21.1-0.8,31.7-2.4
				c2.9-0.4,5.7-0.9,8.6-1.5c16-3.1,31.2-7.9,45.5-14.3c21.1-9.4,40.2-22,56.7-37.3c10.9-10.1,20.7-21.2,29.3-33.3
				c7-9.9,13.2-20.4,18.5-31.5c4.5-9.4,8.2-19.1,11.3-29.1c3.5-11.6,6-23.5,7.5-35.7c1.4-11.5,1.8-23.3,1.3-35.2
				c-0.3-7-1-14.1-2.1-21.2c-1.1-7.6-2.7-15-4.6-22.3c-2.3-9-5.3-17.7-8.7-26.2c-8.3-20.4-19.8-39.4-34.2-56.2l160.6-61l401.6,152.7
				c-9,86.4-57.9,444.4-260.6,619.6c31.3-11.7,65.3-22.1,101.9-31.1c57.2-70.2,98.5-162.4,141.9-267.7
				c54.4-132.1,68.6-316.4,70.6-336.3l1.3-19.2L836.3,233.9z M676,484.9c0.1,5.9-0.2,11.7-0.7,17.4c-1.5,15.7-5.4,30.9-11.2,45.1
				c-5.1,12.5-11.8,24.3-19.9,35.1c-13.8,18.6-31.7,34.2-52.4,45.4c-15.9,8.6-33.5,14.7-52.4,17.5c-7.8,1.2-15.7,1.8-23.5,1.8
				c-16.7,0.1-33.2-2.4-48.9-7.4c-16.6-5.3-32.4-13.3-46.9-24c-5.3-3.9-10.3-8.1-15-12.5c-26-24.5-43-56.9-48.4-92.8
				c-6.4-42.4,4.1-84.8,29.6-119.3c25.5-34.5,62.9-57,105.3-63.4c8.1-1.2,16.2-1.8,24.2-1.8c18.4,0,36.5,3.2,53.7,9.3
				c14.6,5.2,28.5,12.6,41.4,22.1c5.2,3.8,10.1,7.9,14.7,12.3c11.5,10.8,21.3,23.2,29.1,36.7c6.2,10.8,11.2,22.4,14.7,34.6
				c2.1,7.1,3.7,14.3,4.8,21.7C675.4,470.1,675.9,477.5,676,484.9z"/>
			<path class="st3" d="M903.2,1192.8c47.4-31.6,123.1-66.1,242.4-90.2v-46.5c-44.2,8.6-83,18.6-117.2,29.5
				c-96.7,30.8-156,68.8-191.9,101.3c-36.8-33.2-97.9-72.2-198.6-103.4c-32.5-10.1-69.2-19.4-110.5-27.4l-0.5,2.4v44
				c119.7,24.1,195.6,58.7,243,90.3c-40.4-13-94.9-22.8-167.4-22.8c-38.5,0-82.1,2.8-131.4,9.4v45.4l0.1,0.5
				c49.9-6.9,93.5-9.8,131.4-9.8c90.9,0,149.3,16.5,185,32.9c4.9,2.3,9.4,4.5,13.5,6.7l20.6,15.1l14.1,10.3c0.2,0.2,0.3,0.4,0.4,0.4
				l0.1-0.1l0.5,0.4c0.1-0.1,0.7-0.9,1.9-2.1l12.9-9.3l20.1-14.5c4.2-2.3,8.8-4.6,13.9-7c35.7-16.5,94.2-32.9,185-32.9
				c37.8,0,81.2,2.8,130.9,9.7v-45.9c-49-6.5-92.5-9.3-130.9-9.3C998.1,1170,943.6,1179.8,903.2,1192.8z"/>
		</g>
	</g>
</g>
<g id="Layer_2">
</g>
</svg>
