<?xml version="1.0" encoding="utf-8"?>
<!-- Generator: Adobe Illustrator 28.1.0, SVG Export Plug-In . SVG Version: 6.00 Build 0)  -->
<svg version="1.1" xmlns="http://www.w3.org/2000/svg" xmlns:xlink="http://www.w3.org/1999/xlink" x="0px" y="0px"
	 viewBox="0 0 1515.1 1515.1" style="enable-background:new 0 0 1515.1 1515.1;" xml:space="preserve">
<style type="text/css">
	.st0{display:none;}
	.st1{display:inline;}
	.st2{fill:none;stroke:#000000;stroke-width:0.9157;stroke-miterlimit:10;}
	.st3{fill:#221F20;}
	.st4{opacity:0.6;}
	.st5{opacity:0.3;}
	.st6{opacity:0.3;fill:#221F20;}
	.st7{fill:#FFFFFF;}
	.st8{opacity:0.3;fill:#FFFFFF;}
	.st9{fill:url(#SVGID_1_);}
	.st10{fill:none;}
	.st11{fill:url(#SVGID_00000074430068866431988920000000757575207599903635_);}
	.st12{fill:url(#SVGID_00000111907035968832502270000006352965723783784585_);}
	.st13{fill:url(#SVGID_00000031928476939685213930000011353023598421965442_);}
	.st14{fill:url(#SVGID_00000093859619008436803620000012094119996656915088_);}
	.st15{fill:url(#SVGID_00000134958379555200078820000001077489353989697191_);}
	.st16{fill:url(#SVGID_00000133521854792300464880000008447761017224322187_);}
	.st17{fill:url(#SVGID_00000080198564230590629030000005375017927851638169_);}
	.st18{fill:url(#SVGID_00000000213968169899454190000004480344603712248459_);}
	.st19{fill:url(#SVGID_00000060749355201586594930000008161878297599638969_);}
	.st20{fill:url(#SVGID_00000177467213375506415640000009533150030122730168_);}
	.st21{fill:url(#SVGID_00000106854604864003775900000010786539877801769860_);}
	.st22{fill:url(#SVGID_00000023246962963424793120000007220766598778844843_);}
	.st23{fill:url(#SVGID_00000083054042604477527230000013083931662714096031_);}
	.st24{fill:url(#SVGID_00000167391630657692137890000003716663441284855686_);}
	.st25{fill:url(#SVGID_00000043427000710703183930000017189697583202849202_);}
	.st26{fill:url(#SVGID_00000031168612843751699230000017068132223907643264_);}
	.st27{fill:url(#SVGID_00000138555695535248526830000012424286665515631234_);}
	.st28{fill:url(#SVGID_00000088812023803502941180000003084296924146092429_);}
	.st29{fill:url(#SVGID_00000023274633195087076300000011692052242070607790_);}
	.st30{fill:url(#SVGID_00000150815032628908549780000017358717045199501758_);}
	.st31{fill:url(#SVGID_00000119099362037577716900000004334715296981245583_);}
	.st32{fill:url(#SVGID_00000176029668947492732940000012137718981593577861_);}
	.st33{fill:url(#SVGID_00000065769310600333718890000004930058505888333971_);}
	.st34{fill:url(#SVGID_00000059302893598588504610000007570090618686529678_);}
	.st35{fill:url(#SVGID_00000112595915941899415280000018333656353639936923_);}
	.st36{fill:url(#SVGID_00000047763189585593460660000008547499643484369852_);}
	.st37{fill:url(#SVGID_00000165218439671314800770000006681234715992078756_);}
	.st38{fill:url(#SVGID_00000026141476745684984650000001555826492469924243_);}
	.st39{fill:url(#SVGID_00000131338738578133967080000017363913456155356331_);}
	.st40{fill:url(#SVGID_00000093894069705704751960000002951962937667013296_);}
	.st41{fill:url(#SVGID_00000064319351037731171280000011234751001071753886_);}
	.st42{fill:url(#SVGID_00000118378212827456111390000007406819929448342430_);}
	.st43{fill:url(#SVGID_00000130610366831657898100000001580732754831078591_);}
	.st44{fill:url(#SVGID_00000031200518914394988110000003450832113671217808_);}
	.st45{fill:url(#SVGID_00000056404171524415112130000000776097086837805980_);}
	.st46{fill:url(#SVGID_00000143585668602085718720000017728466240043995264_);}
	.st47{fill:url(#SVGID_00000132792609168778031060000005399266957154252441_);}
	.st48{fill:url(#SVGID_00000151504313845479400550000005426199592478665127_);}
	.st49{fill:url(#SVGID_00000101103473730472099280000014215772093287748027_);}
	.st50{fill:#172B43;}
	.st51{fill:url(#SVGID_00000161623871225346423210000002455814310873122751_);}
	.st52{fill:url(#SVGID_00000016756202138049042090000014854164177119487890_);}
	.st53{fill:url(#SVGID_00000157301349012408116380000015943492847357068722_);}
	.st54{fill:url(#SVGID_00000093137190032743022860000003208127450882048390_);}
	.st55{fill:url(#SVGID_00000137125583718787566250000016155024712144939153_);}
	.st56{fill:url(#SVGID_00000017475509560890190160000017256661463842379428_);}
	.st57{fill:url(#SVGID_00000116227424947051527970000008509441631417665700_);}
	.st58{fill:url(#SVGID_00000013914866499116115340000005404682169125184666_);}
	.st59{fill:url(#SVGID_00000030477766269986351160000013650405132932132771_);}
	.st60{fill:url(#SVGID_00000151533694899106750610000000954786714985410688_);}
	.st61{fill:url(#SVGID_00000180351098139851050920000016042207261449619095_);}
	.st62{fill:url(#SVGID_00000062898865967982710600000002349053824625359759_);}
	.st63{fill:url(#SVGID_00000057838580103407355330000002653031817790314420_);}
	.st64{fill:url(#SVGID_00000043451742116300345630000002725302099478072462_);}
	.st65{fill:url(#SVGID_00000162346529305425664840000008333429586989603204_);}
	.st66{fill:url(#SVGID_00000132804422053420567900000011304198520405716888_);}
	.st67{fill:url(#SVGID_00000132771017354401189890000005688247981790654373_);}
	.st68{fill:url(#SVGID_00000040574161318529251340000012706142600716282504_);}
	.st69{fill:url(#SVGID_00000041288159296816963130000001619917795208636565_);}
	.st70{fill:url(#SVGID_00000068655705455493448580000007530321056592865215_);}
	.st71{fill:url(#SVGID_00000081648699012259017810000016912334212233899684_);}
	.st72{fill:url(#SVGID_00000170976455667967964010000007559236156946588811_);}
	.st73{fill:url(#SVGID_00000018205850503759072670000014332810831574540164_);}
	.st74{fill:url(#SVGID_00000001644147095657781190000006719818217988619668_);}
	.st75{fill:url(#SVGID_00000183206895197988351480000000639584774123063428_);}
	.st76{fill:url(#SVGID_00000036219428876900335000000015925098818356859028_);}
	.st77{fill:url(#SVGID_00000027589091130088499290000000749209627813505425_);}
	.st78{fill:url(#SVGID_00000170262058236534710020000015959246928908912005_);}
	.st79{fill:url(#SVGID_00000127002710500049159550000014969051616054236819_);}
	.st80{fill:url(#SVGID_00000128448711468648370960000006258682540691287477_);}
	.st81{fill:url(#SVGID_00000078009478692653673420000016652183103419798661_);}
	.st82{fill:url(#SVGID_00000151505582176450778120000013770509376797129125_);}
	.st83{fill:url(#SVGID_00000008134358739259653340000010518036228675891854_);}
	.st84{fill:url(#SVGID_00000162338848200084537400000007223432207108857260_);}
	.st85{fill:url(#SVGID_00000132801373330919969570000008671263090894613890_);}
	.st86{fill:url(#SVGID_00000071543810721839885530000016332657709690568635_);}
	.st87{fill:url(#SVGID_00000111170446696507346770000006934036282453472934_);}
	.st88{fill:url(#SVGID_00000018916937588966277410000017454000907632764848_);}
	.st89{fill:url(#SVGID_00000170274510933863518220000008842338481808924332_);}
	.st90{fill:url(#SVGID_00000180346132826274225600000018340202728009634711_);}
	.st91{fill:url(#SVGID_00000181794602170032198780000013150703610339267747_);}
	.st92{fill:url(#SVGID_00000037658656602297814280000000912714152847372720_);}
	.st93{fill:url(#SVGID_00000018223875844968557330000015652618274552470961_);}
	.st94{fill:url(#SVGID_00000005234531844318114980000000641821837527252926_);}
	.st95{fill:url(#SVGID_00000138531574801727963390000001646124213332294042_);}
	.st96{fill:url(#SVGID_00000040569743723291304580000002822084024249302677_);}
	.st97{fill:url(#SVGID_00000132799430188443982630000011586965006377819533_);}
	.st98{fill:url(#SVGID_00000112626071093523887670000015067702806243893642_);}
	.st99{fill:url(#SVGID_00000062161220391169134040000017034198501370508478_);}
	.st100{fill:url(#SVGID_00000148657343090163920960000006528693523723481786_);}
	.st101{fill:url(#SVGID_00000007417314754119821780000004912813046865415586_);}
	.st102{fill:url(#SVGID_00000010296564814217587690000015493002031153577386_);}
	.st103{fill:url(#SVGID_00000060004983684618761910000015870497784848117635_);}
	.st104{fill:url(#SVGID_00000050625420228227417110000006878153586357400495_);}
	.st105{fill:url(#SVGID_00000075863194198383186350000004049665180574279300_);}
	.st106{fill:url(#SVGID_00000100364280705884775050000015928391698618448301_);}
	.st107{fill:url(#SVGID_00000023976759945112595320000002269967405222674351_);}
	.st108{fill:url(#SVGID_00000092434399339168857950000007404702688667493816_);}
	.st109{fill:url(#SVGID_00000121980506474628744960000016721685409989297068_);}
	.st110{fill:url(#SVGID_00000049187439660087714320000015224063618888303021_);}
	.st111{fill:url(#SVGID_00000023981128740497153090000007026581790567244438_);}
	.st112{fill:url(#SVGID_00000137093211041183491220000008219339100225789343_);}
	.st113{fill:url(#SVGID_00000109030969872793917450000000181326717858889398_);}
	.st114{fill:url(#SVGID_00000167385154535819823390000000348504878646424452_);}
	.st115{fill:url(#SVGID_00000086651472872415409190000017711302391512655015_);}
	.st116{fill:url(#SVGID_00000086664401799506549600000000799474843341277090_);}
	.st117{fill:url(#SVGID_00000046311583043720930600000005656800221728008873_);}
	.st118{fill:url(#SVGID_00000052784168723400754170000010399205670191888528_);}
	.st119{fill:url(#SVGID_00000148641212311136635520000016673983989306111670_);}
	.st120{fill:url(#SVGID_00000006684965041217261030000004830162009850301594_);}
	.st121{fill:url(#SVGID_00000151534080930764816270000010066334967249464761_);}
	.st122{fill:url(#SVGID_00000178198676162084019670000008695112207819625105_);}
	.st123{fill:url(#SVGID_00000058553452392490738070000018161265465148195476_);}
	.st124{fill:url(#SVGID_00000023987557648613990770000004386622747501521825_);}
	.st125{fill:url(#SVGID_00000152985864807505617020000017658513087201728394_);}
	.st126{fill:url(#SVGID_00000027570180814799868420000013177149423182333606_);}
	.st127{fill:url(#SVGID_00000008850950927050708270000012984794210316508824_);}
	.st128{fill:url(#SVGID_00000009569452133447690630000000094494280277921439_);}
	.st129{fill:url(#SVGID_00000095315344969128844350000009406559240937928630_);}
	.st130{fill:url(#SVGID_00000182505643635079916910000007248120934167091595_);}
	.st131{fill:url(#SVGID_00000004515833236885538160000004615359487908921510_);}
	.st132{fill:url(#SVGID_00000094583766900951280820000014862887031591036047_);}
	.st133{fill:url(#SVGID_00000023983367409121104260000014846467477077108873_);}
	.st134{fill:url(#SVGID_00000046308734148247458280000012368668530059312318_);}
	.st135{fill:url(#SVGID_00000127739445826366932330000005404225933723254709_);}
	.st136{fill:url(#SVGID_00000130613579525335810460000008987463680359561129_);}
	.st137{fill:url(#SVGID_00000036962979659732378090000004495278372696868003_);}
	.st138{fill:url(#SVGID_00000098206013444140048690000011651688373466638243_);}
	.st139{fill:url(#SVGID_00000150086791524563947720000008629095943656533934_);}
	.st140{fill:url(#SVGID_00000079469302178231723680000000721780927284481722_);}
	.st141{fill:url(#SVGID_00000035532392033937006550000006771203788489704607_);}
	.st142{fill:url(#SVGID_00000041255056659803497930000005702923961748702365_);}
	.st143{fill:url(#SVGID_00000133496773134961427770000007214692151293198507_);}
	.st144{fill:url(#SVGID_00000174577294382270859940000018020366631355763607_);}
	.st145{fill:url(#SVGID_00000011751817520543708890000017217396719911830411_);}
	.st146{fill:url(#SVGID_00000178891749936561046630000004199698481306629261_);}
	.st147{fill:url(#SVGID_00000037654980783997319890000001961425259911060132_);}
	.st148{fill:url(#SVGID_00000088098904373577633150000003611751026015449533_);}
	.st149{fill:url(#SVGID_00000161614971282019031380000007654098010278598830_);}
	.st150{fill:url(#SVGID_00000095300981509865178300000000802196941275691151_);}
	.st151{fill:url(#SVGID_00000128467260209503756760000009277426387666687895_);}
	.st152{fill:url(#SVGID_00000085936430337236406730000002904852891800445341_);}
	.st153{fill:url(#SVGID_00000022526242590302241670000004322820533907722670_);}
	.st154{fill:url(#SVGID_00000178896863732187953170000017831679396777252995_);}
	.st155{fill:url(#SVGID_00000119115220355445014460000018016355425918414256_);}
	.st156{fill:url(#SVGID_00000008137260884540972670000009723202588397082782_);}
	.st157{fill:url(#SVGID_00000051355187010410543030000005282211073095360152_);}
	.st158{fill:url(#SVGID_00000157299881085132943690000008320288372144230836_);}
	.st159{fill:url(#SVGID_00000177444142231098682020000008719513091409217669_);}
	.st160{fill:url(#SVGID_00000039107639005960715940000016875368753678444430_);}
	.st161{fill:url(#SVGID_00000013186525245789644460000006382495526664115337_);}
	.st162{fill:url(#SVGID_00000143606167263459928280000014176579030255734699_);}
	.st163{fill:url(#SVGID_00000127022340711224792690000010537186045100201371_);}
	.st164{fill:url(#SVGID_00000054964268595518791380000010694987502369039543_);}
	.st165{fill:url(#SVGID_00000023240600203220639950000004136455863959870592_);}
	.st166{fill:url(#SVGID_00000132772816952003871270000011488069496535836291_);}
	.st167{fill:url(#SVGID_00000048486652777004330900000017733084578177445273_);}
	.st168{fill:url(#SVGID_00000161618866052735471980000001519168436420959912_);}
	.st169{fill:url(#SVGID_00000038371445145248548840000017757776000175566208_);}
	.st170{fill:url(#SVGID_00000105403011793192111070000014438649647931802007_);}
</style>
<g id="Layer_1">
	<g>
		<g>
			<g>
				<path class="st7" d="M531.9,613.1c-5.5,0-10,4.5-10,10c0,5.5,4.5,10,10,10c5.5,0,10-4.5,10-10
					C541.9,617.6,537.4,613.1,531.9,613.1z"/>
			</g>
			<g>
				<path class="st7" d="M476.5,417h-3.6v-10h0c-0.1-7-5.8-12.7-12.8-12.7s-12.8,5.7-12.8,12.7h0v10h-3.6c-0.8,0-1.4,0.6-1.4,1.4
					v19.9c0,0.8,0.6,1.4,1.4,1.4h32.8c0.8,0,1.4-0.6,1.4-1.4v-19.9C477.9,417.6,477.3,417,476.5,417z M452.3,407
					C452.3,407,452.3,407,452.3,407c0-4.2,3.6-7.7,7.8-7.7s7.8,3.5,7.8,7.8c0,0,0,0,0,0v10h-15.7V407z M462.8,432h-5.4l1.7-5
					c-1.1-0.4-1.9-1.4-1.9-2.7c0-1.6,1.3-2.8,2.8-2.8s2.8,1.3,2.8,2.8c0,1.2-0.8,2.3-1.9,2.7L462.8,432z"/>
			</g>
		</g>
		<g class="st4">
			<g>
				<path class="st7" d="M596.2,577.5c0.2,4,3.5,7.3,7.6,7.3c4.2,0,7.7-3.4,7.7-7.7c0-4.2-3.4-7.7-7.7-7.7c-3.5,0-6.5,2.4-7.4,5.6
					h-98c-0.6-5.1-4.9-9.1-10.2-9.1c-5.7,0-10.3,4.6-10.3,10.3c0,5.7,4.6,10.3,10.3,10.3c5.3,0,9.6-4,10.2-9.1H596.2z"/>
				<path class="st7" d="M377.6,431.2c-4.2,0-7.7,3.4-7.7,7.7c0,4.2,3.4,7.7,7.7,7.7c4.2,0,7.7-3.4,7.7-7.7
					C385.3,434.6,381.9,431.2,377.6,431.2z"/>
			</g>
			<g>
				<path class="st7" d="M553,563.5h-2v-5.6h0c0-4-3.2-7.2-7.2-7.2c-4,0-7.2,3.2-7.2,7.2h0v5.6h-2c-0.4,0-0.8,0.4-0.8,0.8v11.2
					c0,0.4,0.4,0.8,0.8,0.8H553c0.4,0,0.8-0.4,0.8-0.8v-11.2C553.8,563.9,553.4,563.5,553,563.5z M539.4,557.9
					C539.4,557.9,539.4,557.9,539.4,557.9c0-2.4,2-4.4,4.4-4.4c2.4,0,4.4,2,4.4,4.4c0,0,0,0,0,0v5.6h-8.8V557.9z M545.3,571.9h-3
					l1-2.8c-0.6-0.2-1.1-0.8-1.1-1.5c0-0.9,0.7-1.6,1.6-1.6c0.9,0,1.6,0.7,1.6,1.6c0,0.7-0.4,1.3-1.1,1.5L545.3,571.9z"/>
				<path class="st7" d="M574.3,396.6h-2.7V389h0c0-5.4-4.4-9.7-9.8-9.7c-5.4,0-9.8,4.4-9.8,9.7h0v7.6h-2.7c-0.6,0-1.1,0.5-1.1,1.1
					V413c0,0.6,0.5,1.1,1.1,1.1h25.1c0.6,0,1.1-0.5,1.1-1.1v-15.3C575.4,397.1,574.9,396.6,574.3,396.6z M555.7,389
					C555.7,389,555.7,389,555.7,389c0-3.3,2.7-5.9,6-5.9c3.3,0,6,2.7,6,6c0,0,0,0,0,0v7.6h-12V389z M563.8,408.1h-4.1l1.3-3.8
					c-0.8-0.3-1.4-1.1-1.4-2c0-1.2,1-2.2,2.2-2.2c1.2,0,2.2,1,2.2,2.2c0,0.9-0.6,1.7-1.4,2L563.8,408.1z"/>
			</g>
		</g>
		<g class="st5">
			<path class="st7" d="M623.6,413.9H511.5v-97c-0.8,0-1.6,0-2.4,0.1v96.9h-2.9v2.4h2.9v89.1h-64.5v107.7c-3.6,0.6-6.4,3.7-6.4,7.5
				c0,4.2,3.4,7.7,7.7,7.7c4.2,0,7.7-3.4,7.7-7.7c0-3.8-2.8-7-6.4-7.5V507.8h64.5v-91.5H626v-60.7c-0.8-0.6-1.6-1.3-2.4-1.9V413.9z"
				/>
		</g>
		<g>
			<path class="st8" d="M565.7,593.6v-96.9h82.9V402H667c-0.6-1.1-1.3-2.1-2-3.2h-19.6v94.7h-79.8v-169h-3.2v169h-63.4v-56.8h-98.4
				c-0.1-28-0.2-55.7-0.2-77.7c-1.1,0.9-2.1,1.8-3.2,2.8c-0.1,21.7,0,48.3,0.1,74.9h-49.9c-0.4,1-0.7,2.1-1,3.2h50.9
				c0.2,41.2,0.6,82.1,0.8,104.2h-53c0.3,1.1,0.6,2.1,1,3.2h55.2l0-1.6c-0.2-24.7-0.5-65.4-0.7-105.8h95.2v56.8h66.6v93.7H440.7V655
				c1,0.5,2.1,1,3.2,1.4v-62.8H565.7z"/>
			<path class="st8" d="M627.3,590.5c-0.8-6.7-6.4-11.8-13.3-11.8c-7.4,0-13.4,6-13.4,13.4c0,7.4,6,13.4,13.4,13.4
				c6.9,0,12.5-5.2,13.3-11.8h34.8c0.7-1,1.4-2.1,2.1-3.2H627.3z"/>
		</g>
		<g>
			<path class="st7" d="M531.9,633.1h-1.6v37.7c1.1-0.1,2.1-0.2,3.2-0.3v-37.4H531.9z"/>
			<path class="st7" d="M378.9,528.4v-81.9h-1.2h-1.2V526h-31.8v15.9c0.7,2.7,1.6,5.3,2.4,7.9v-21.4H378.9z"/>
			<path class="st7" d="M590.5,609.8h53.2V494.5h-74.5c-0.6-3.7-3.7-6.4-7.5-6.4c-4.2,0-7.7,3.4-7.7,7.7c0,4.2,3.4,7.7,7.7,7.7
				c3.8,0,7-2.8,7.5-6.4h72.1v110.5h-53.2v48.5c0.8-0.4,1.6-0.7,2.4-1.1V609.8z"/>
		</g>
		<g>
			<path class="st7" d="M952.3,563.7c-0.7,10.2,7.4,18.8,17.5,18.8h87.3c9.4,0,17.5-7.1,18.1-16.4c0.7-10.2-7.4-18.8-17.5-18.8
				h-87.3C961.1,547.3,952.9,554.4,952.3,563.7z"/>
			<path class="st7" d="M1183.8,495.3c0.7-10.2-7.4-18.8-17.5-18.8h-121.1c-9.4,0-17.5,7.1-18.1,16.4c-0.7,10.2,7.4,18.8,17.5,18.8
				h121.1C1175.1,511.7,1183.2,504.6,1183.8,495.3z"/>
			<path class="st7" d="M1117.2,547.3c-9.4,0-17.5,7.1-18.1,16.4c-0.7,10.2,7.4,18.8,17.5,18.8h40c9.4,0,17.5-7.1,18.1-16.4
				c0.7-10.2-7.4-18.8-17.5-18.8H1117.2z"/>
			<path class="st7" d="M1013.8,405.8h-40c-9.4,0-17.5,7.1-18.1,16.4c-0.7,10.2,7.4,18.8,17.5,18.8h40c9.4,0,17.5-7.1,18.1-16.4
				C1032,414.3,1023.9,405.8,1013.8,405.8z"/>
			<path class="st7" d="M721.5,424.6c0.5-8.1-4.5-15.2-11.7-17.7c3.5,8.5,6.4,17.2,8.7,26.2C720.3,430.6,721.3,427.7,721.5,424.6z"
				/>
			<path class="st7" d="M939.5,901c-9.7,0-17.6,7.9-17.6,17.6c0,9.7,7.9,17.6,17.6,17.6c9.7,0,17.6-7.9,17.6-17.6
				C957.1,908.9,949.2,901,939.5,901z"/>
			<path class="st7" d="M1072,688.8h-29.4c-9.4,0-17.5,7.1-18.1,16.4c-0.7,10.2,7.4,18.8,17.5,18.8h80.8c9.4,0,17.5-7.1,18.1-16.4
				c0.7-10.2-7.4-18.8-17.5-18.8h4.7c-9.7,0-17.6-7.9-17.6-17.6v-0.7c0-9.5,7.7-17.2,17.2-17.2c0.2,0,14.9,0,15.1,0
				c9.1-0.3,17-7.3,17.6-16.4c0.7-10.2-7.4-18.8-17.5-18.8h-126.1c-9.4,0-17.5,7.1-18.1,16.4c-0.7,10.2,7.4,18.8,17.5,18.8h55.8
				c9.7,0,17.6,7.9,17.6,17.6v0.4C1089.6,680.9,1081.8,688.8,1072,688.8z"/>
			<path class="st7" d="M1071.3,759.5c-9.7,0-17.6,7.9-17.6,17.6c0,9.7,7.9,17.6,17.6,17.6h24.8c9.7,0,17.6-7.9,17.6-17.6
				c0-9.7-7.9-17.6-17.6-17.6H1071.3z"/>
			<path class="st7" d="M832.3,335.1c-9.7,0-17.6,7.9-17.6,17.6c0,9.7,7.9,17.6,17.6,17.6h13.2c9.7,0,17.6-7.9,17.6-17.6
				c0-9.7-7.9-17.6-17.6-17.6H832.3z"/>
			<path class="st7" d="M864.4,606.1c3.4-3.4,3.4-8.8,0-12.2c-3.4-3.4-8.8-3.4-12.2,0c-3.4,3.4-3.4,8.8,0,12.2
				C855.6,609.5,861,609.5,864.4,606.1z"/>
			<path class="st7" d="M852.5,748.2c3.6-3.6,3.6-9.4,0-13c-3.6-3.6-9.4-3.6-13,0c-3.6,3.6-3.6,9.4,0,13
				C843.1,751.8,848.9,751.8,852.5,748.2z"/>
			<path class="st7" d="M810.1,681.2c5.5-5.5,5.5-14.5,0-20c-5.5-5.5-14.5-5.5-20,0c-5.5,5.5-5.5,14.5,0,20
				C795.6,686.8,804.6,686.8,810.1,681.2z"/>
			<path class="st7" d="M700.8,777.1c0-9.7-7.9-17.6-17.6-17.6h-49c0,0,0,0,0,0h-61.1c-9.2,0-17.6,6.6-18.5,15.8
				c-1.1,10.5,7.2,19.4,17.5,19.4h111.2C692.9,794.7,700.8,786.8,700.8,777.1z"/>
			<path class="st7" d="M839.8,1077.7c9.7,0,17.6-7.9,17.6-17.6c0-9.7-7.9-17.6-17.6-17.6H838c-9.7,0-17.6,7.9-17.6,17.6
				c0,9.7,7.9,17.6,17.6,17.6H839.8z"/>
			<path class="st7" d="M724,511.7h28.5H986c9.2,0,17.6-6.6,18.5-15.8c1.1-10.5-7.2-19.4-17.5-19.4h-81.5c-9.7,0-17.6-7.9-17.6-17.6
				v-0.4c0-9.7,7.9-17.6,17.6-17.6h9.8c9.2,0,17.6-6.6,18.5-15.8c1.1-10.5-7.2-19.4-17.5-19.4H762.6c-9.2,0-17.6,6.6-18.5,15.8
				c-1.1,10.5,7.2,19.4,17.5,19.4h87.7c9.7,0,17.6,7.9,17.6,17.6v0.4c0,9.7-7.9,17.6-17.6,17.6h-124
				C725.9,488.4,725.4,500.2,724,511.7z"/>
			<path class="st7" d="M1004.6,847.9c0,9.7,7.9,17.6,17.6,17.6h44.4c9.7,0,17.6-7.9,17.6-17.6c0-9.7-7.9-17.6-17.6-17.6h-44.4
				C1012.5,830.3,1004.6,838.1,1004.6,847.9z"/>
			<path class="st7" d="M973.8,918.6c0,9.7,7.9,17.6,17.6,17.6h29.9c9.7,0,17.6-7.9,17.6-17.6c0-9.7-7.9-17.6-17.6-17.6h-29.9
				C981.7,901,973.8,908.9,973.8,918.6z"/>
			<path class="st7" d="M959.2,971.8h-13.8c-9.7,0-17.6,7.9-17.6,17.6c0,9.7,7.9,17.6,17.6,17.6h13.8c9.7,0,17.6-7.9,17.6-17.6
				C976.8,979.6,968.9,971.8,959.2,971.8z"/>
			<path class="st7" d="M718.4,582.5h31.8c0,0,0,0,0,0h68.3c7.5,0,14.8-2.2,20.9-6.5c2.7-1.8,5.7-3.6,8.8-4.6
				c3.7-1.2,7.6-1.8,11.4-1.7c7.3,0.3,14.5,3.3,20.1,8.8c10.8,10.8,11.7,27.6,3,39.5c-0.9,1.2-1.9,2.4-3,3.5
				c-8.1,8.1-19.8,10.9-30,7.7c-4.3-1.4-8-3.3-10.8-5.2c-6.3-4.3-13.8-6.4-21.5-6.4h-69.7c0,0.1,0,0.3,0,0.4h-43.1
				c-0.6-0.8-1.2-1.6-1.9-2.3c-4.4-4.4-10-7-16-7.7c-8.6,12.1-18.4,23.2-29.3,33.3c1.1,4.6,3.5,9,7.1,12.6
				c5.1,5.1,11.9,7.9,19.1,7.9c7.2,0,14-2.8,19.1-7.9c0.2-0.2,0.4-0.5,0.6-0.7h46.1c8.3,0,16.3-3.3,22.1-9.2l0.7-0.7h0
				c15.4-15.4,40.3-15.4,55.7,0c3,3,5.4,6.3,7.2,9.9c7.6,14.8,5.2,33.4-7.2,45.8c-15.4,15.4-40.3,15.4-55.7,0h0
				c-0.2-0.2-0.5-0.5-0.7-0.7c-6-6.3-14.3-9.9-23-9.9h-7c0,0.1,0,0.3,0,0.4H611.9c-1.2-1.7-2.5-3.3-4-4.8c-2.1-2.1-4.6-3.9-7.1-5.4
				c-14.3,6.4-29.5,11.2-45.5,14.3c-5.9,12.2-3.8,27.3,6.3,37.5c6.2,6.2,14.4,9.6,23.2,9.6c8.8,0,17-3.4,23.2-9.6
				c1.9-1.9,3.5-4.1,4.9-6.4h21.4h104.5c0,0.1,0,0.1,0,0.2h72.8c7.3,0,14.5-1.9,20.8-5.7c3.7-2.2,8.9-4,15.7-3.6
				c8,0.6,15.8,4.8,20.8,12.6c5.5,8.6,5.5,20.1-0.2,28.7c-5.3,8-13.6,12.2-21.9,12.4c-7.1,0.2-11.9-1.5-15.1-3.4
				c-6-3.6-12.6-5.9-19.5-5.9l-68.6,0c0,0.1,0.1,0.1,0.1,0.2h-3.6c-9.2,0-17.6,6.6-18.5,15.8c-1.1,10.5,7.2,19.4,17.5,19.4h22.3
				h11.7c9.2,0,17.6,6.6,18.5,15.8c0.9,9.2-5.3,17.2-13.8,19h-90.8c-1.2-1.7-2.5-3.3-4-4.8c-6.2-6.2-14.4-9.6-23.2-9.6
				c-8.8,0-17,3.4-23.2,9.6c-12.8,12.8-12.8,33.6,0,46.4c6.2,6.2,14.4,9.6,23.2,9.6c8.8,0,17-3.4,23.2-9.6c1.7-1.7,3.1-3.6,4.4-5.6
				c0.3,0,0.6,0,1,0h45.6c9.7,0,17.6,7.9,17.6,17.6v0.4c0,9.7-7.9,17.6-17.6,17.6h-83.3c-9.2,0-17.6,6.6-18.5,15.8
				c-1.1,10.5,7.2,19.4,17.5,19.4h123.8h36.1c9.2,0,17.6,6.6,18.5,15.8c1.1,10.5-7.2,19.4-17.5,19.4H719v0.4l-5,0
				c-9.2,0-17.6,6.6-18.5,15.8c-1.1,10.5,7.2,19.4,17.5,19.4h175.6c9.7,0,17.6-7.9,17.6-17.6c0-0.2,0-0.4,0-0.6c0-0.1,0-0.1,0-0.2
				V879.2c0-10.6,8.6-19.2,19.2-19.2h39.8c13.2,0,23.9-10.7,23.9-23.9v-53.7c0-5.3,4.3-9.6,9.6-9.6h21.8c2.8,0,5.6-0.9,7.6-2.8
				c3.5-3.3,4.3-8.4,2.3-12.5l-18.1-36.2c-10-20-17.5-41.1-24.1-62.4c-21.3-68.5-87.3-115.8-161.3-111.6h-74.2h-34.2
				c-0.6,0-1.3,0-1.9,0.1c-3,10-6.8,19.8-11.3,29.1C708.5,580.2,713.2,582.5,718.4,582.5z M692.3,644.2c-4.7,4.7-12.4,4.7-17.1,0
				c-4.7-4.7-4.7-12.4,0-17.1c4.7-4.7,12.4-4.7,17.1,0C697,631.8,697,639.5,692.3,644.2z M595.9,718.3c-6.1,6.1-16.1,6.1-22.2,0
				c-6.1-6.1-6.1-16.1,0-22.2c6.1-6.1,16.1-6.1,22.2,0C602,702.2,602,712.1,595.9,718.3z M670.7,859c-6.1,6.1-16.1,6.1-22.2,0
				c-6.1-6.1-6.1-16.1,0-22.2c6.1-6.1,16.1-6.1,22.2,0C676.8,842.9,676.8,852.8,670.7,859z"/>
		</g>
		<g>
			<path class="st7" d="M836.3,233.9l-204.5,77.7c-43.5-29-95.5-40.6-147.6-32.8c-55.5,8.4-104.4,37.8-137.8,83
				c-33.3,45.1-47.1,100.6-38.7,156.1c5.9,39.5,22.6,75.7,48,105.3L179,811.6c-9.4,10-8.8,25.6,1.1,35c4.8,4.5,10.9,6.7,16.9,6.7
				c6.6,0,13.2-2.6,18.1-7.8l177-188.8c9.4,6.8,19.1,12.7,29.3,17.8c7.3,28.5,15.9,58.2,26,88.3c35.8,107.1,83,196.3,140.2,266.3
				c36.1,8.7,69.7,18.6,100.8,29.9c-108.1-93.7-171-237.8-207.2-365.1c11.1,1.8,22.5,2.8,33.9,2.8c10.5,0,21.1-0.8,31.7-2.4
				c2.9-0.4,5.7-0.9,8.6-1.5c16-3.1,31.2-7.9,45.5-14.3c21.1-9.4,40.2-22,56.7-37.3c10.9-10.1,20.7-21.2,29.3-33.3
				c7-9.9,13.2-20.4,18.5-31.5c4.5-9.4,8.2-19.1,11.3-29.1c3.5-11.6,6-23.5,7.5-35.7c1.4-11.5,1.8-23.3,1.3-35.2
				c-0.3-7-1-14.1-2.1-21.2c-1.1-7.6-2.7-15-4.6-22.3c-2.3-9-5.3-17.7-8.7-26.2c-8.3-20.4-19.8-39.4-34.2-56.2l160.6-61l401.6,152.7
				c-9,86.4-57.9,444.4-260.6,619.6c31.3-11.7,65.3-22.1,101.9-31.1c57.2-70.2,98.5-162.4,141.9-267.7
				c54.4-132.1,68.6-316.4,70.6-336.3l1.3-19.2L836.3,233.9z M676,484.9c0.1,5.9-0.2,11.7-0.7,17.4c-1.5,15.7-5.4,30.9-11.2,45.1
				c-5.1,12.5-11.8,24.3-19.9,35.1c-13.8,18.6-31.7,34.2-52.4,45.4c-15.9,8.6-33.5,14.7-52.4,17.5c-7.8,1.2-15.7,1.8-23.5,1.8
				c-16.7,0.1-33.2-2.4-48.9-7.4c-16.6-5.3-32.4-13.3-46.9-24c-5.3-3.9-10.3-8.1-15-12.5c-26-24.5-43-56.9-48.4-92.8
				c-6.4-42.4,4.1-84.8,29.6-119.3c25.5-34.5,62.9-57,105.3-63.4c8.1-1.2,16.2-1.8,24.2-1.8c18.4,0,36.5,3.2,53.7,9.3
				c14.6,5.2,28.5,12.6,41.4,22.1c5.2,3.8,10.1,7.9,14.7,12.3c11.5,10.8,21.3,23.2,29.1,36.7c6.2,10.8,11.2,22.4,14.7,34.6
				c2.1,7.1,3.7,14.3,4.8,21.7C675.4,470.1,675.9,477.5,676,484.9z"/>
			<path class="st7" d="M903.2,1192.8c47.4-31.6,123.1-66.1,242.4-90.2v-46.5c-44.2,8.6-83,18.6-117.2,29.5
				c-96.7,30.8-156,68.8-191.9,101.3c-36.8-33.2-97.9-72.2-198.6-103.4c-32.5-10.1-69.2-19.4-110.5-27.4l-0.5,2.4v44
				c119.7,24.1,195.6,58.7,243,90.3c-40.4-13-94.9-22.8-167.4-22.8c-38.5,0-82.1,2.8-131.4,9.4v45.4l0.1,0.5
				c49.9-6.9,93.5-9.8,131.4-9.8c90.9,0,149.3,16.5,185,32.9c4.9,2.3,9.4,4.5,13.5,6.7l20.6,15.1l14.1,10.3c0.2,0.2,0.3,0.4,0.4,0.4
				l0.1-0.1l0.5,0.4c0.1-0.1,0.7-0.9,1.9-2.1l12.9-9.3l20.1-14.5c4.2-2.3,8.8-4.6,13.9-7c35.7-16.5,94.2-32.9,185-32.9
				c37.8,0,81.2,2.8,130.9,9.7v-45.9c-49-6.5-92.5-9.3-130.9-9.3C998.1,1170,943.6,1179.8,903.2,1192.8z"/>
		</g>
	</g>
</g>
<g id="Layer_2">
</g>
</svg>
