<?xml version="1.0" encoding="utf-8"?>
<!-- Generator: Adobe Illustrator 28.1.0, SVG Export Plug-In . SVG Version: 6.00 Build 0)  -->
<svg version="1.1" xmlns="http://www.w3.org/2000/svg" xmlns:xlink="http://www.w3.org/1999/xlink" x="0px" y="0px"
	 viewBox="0 0 2670.3 856" style="enable-background:new 0 0 2670.3 856;" xml:space="preserve">
<style type="text/css">
	.st0{display:none;}
	.st1{display:inline;}
	.st2{fill:none;stroke:#000000;stroke-width:0.9157;stroke-miterlimit:10;}
	.st3{fill:#221F20;}
	.st4{opacity:0.6;}
	.st5{opacity:0.3;}
	.st6{opacity:0.3;fill:#221F20;}
	.st7{fill:#FFFFFF;}
	.st8{opacity:0.3;fill:#FFFFFF;}
	.st9{fill:url(#SVGID_1_);}
	.st10{fill:none;}
	.st11{fill:url(#SVGID_00000170242594423952341130000011842527923815659696_);}
	.st12{fill:url(#SVGID_00000098943100476968262030000013429913873861048253_);}
	.st13{fill:url(#SVGID_00000128457217074874806580000012198073227959057298_);}
	.st14{fill:url(#SVGID_00000038378135370245828100000017913033736913540007_);}
	.st15{fill:url(#SVGID_00000181804372905065038390000004631818322410494611_);}
	.st16{fill:url(#SVGID_00000089556538171839538720000014485899394570975648_);}
	.st17{fill:url(#SVGID_00000056429688181741049860000013645761595087895704_);}
	.st18{fill:url(#SVGID_00000048474538282361799580000000355207762606417063_);}
	.st19{fill:url(#SVGID_00000013889621444276940530000003265874083960776616_);}
	.st20{fill:url(#SVGID_00000041269011526951305160000015032529786591384755_);}
	.st21{fill:url(#SVGID_00000030449795250252379920000017575909288729949871_);}
	.st22{fill:url(#SVGID_00000019648845836689465390000006567745092614703273_);}
	.st23{fill:url(#SVGID_00000037661812366754565910000009818771166797744039_);}
	.st24{fill:url(#SVGID_00000127753904512571931560000008758548362673817221_);}
	.st25{fill:url(#SVGID_00000046308955001063798960000014702257112606333373_);}
	.st26{fill:url(#SVGID_00000015325593388929934080000008581609963657216933_);}
	.st27{fill:url(#SVGID_00000047753542634722139930000010770068418773273984_);}
	.st28{fill:url(#SVGID_00000046317490032745740140000013285021208151615367_);}
	.st29{fill:url(#SVGID_00000009565079372919447890000015239019064050442404_);}
	.st30{fill:url(#SVGID_00000059998955300869397900000007590276300475696558_);}
	.st31{fill:url(#SVGID_00000140016812728645515620000011178299826896584365_);}
	.st32{fill:url(#SVGID_00000155118979051313567230000012461776154936784544_);}
	.st33{fill:url(#SVGID_00000179639998533587567450000014875832885865389194_);}
	.st34{fill:url(#SVGID_00000175288096671447940250000009484045310569074090_);}
	.st35{fill:url(#SVGID_00000155140663071280891170000004179044493680698522_);}
	.st36{fill:url(#SVGID_00000124845898507635153430000012403860206114010261_);}
	.st37{fill:url(#SVGID_00000151501358168142281000000014439516335052540811_);}
	.st38{fill:url(#SVGID_00000109749883074610816940000010421222559292858798_);}
	.st39{fill:url(#SVGID_00000134211453527074592860000014373709016317171123_);}
	.st40{fill:url(#SVGID_00000029735154368180000300000018233437437563641273_);}
	.st41{fill:url(#SVGID_00000009565043729357813430000004077125797107966087_);}
	.st42{fill:url(#SVGID_00000144299162319239807280000013642549321367728796_);}
	.st43{fill:url(#SVGID_00000167361500059713948350000001088037010445725076_);}
	.st44{fill:url(#SVGID_00000081632993789527856390000003724171261273191866_);}
	.st45{fill:url(#SVGID_00000085965068630084308940000003812707441122362266_);}
	.st46{fill:url(#SVGID_00000132079868802130350240000017659140559289514628_);}
	.st47{fill:url(#SVGID_00000013161096069150153740000014937261675739413142_);}
	.st48{fill:url(#SVGID_00000009591956327843332640000012815237322971535012_);}
	.st49{fill:url(#SVGID_00000016795349763161194960000013310751753609597826_);}
	.st50{fill:#172B43;}
	.st51{fill:url(#SVGID_00000014610882436422332430000007555841135526247584_);}
	.st52{fill:url(#SVGID_00000112623589663217811600000013705285486948710079_);}
	.st53{fill:url(#SVGID_00000183966988933095783480000016890277586598722491_);}
	.st54{fill:url(#SVGID_00000078013923003114928460000011872233694563953074_);}
	.st55{fill:url(#SVGID_00000023259075573215060230000007708011061826838933_);}
	.st56{fill:url(#SVGID_00000057147950918078064810000017660081433310013596_);}
	.st57{fill:url(#SVGID_00000029039054747706836550000011735236321284098732_);}
	.st58{fill:url(#SVGID_00000114034372166838648980000017194033777809791150_);}
	.st59{fill:url(#SVGID_00000018227674643717605530000016164488799634383235_);}
	.st60{fill:url(#SVGID_00000089555821847391083320000005836596334489642381_);}
	.st61{fill:url(#SVGID_00000083809897531590978840000005677417039678714026_);}
	.st62{fill:url(#SVGID_00000089561320754570510560000001982146148997300869_);}
	.st63{fill:url(#SVGID_00000106128061726723323450000015175245757984808885_);}
	.st64{fill:url(#SVGID_00000018943572798491513580000010954549931740257200_);}
	.st65{fill:url(#SVGID_00000168826596807660501940000004090573859943608713_);}
	.st66{fill:url(#SVGID_00000065036569961230256740000006595288258778714541_);}
	.st67{fill:url(#SVGID_00000183220539356580508160000004280797824381182370_);}
	.st68{fill:url(#SVGID_00000168097948850641779620000008470055278735986819_);}
	.st69{fill:url(#SVGID_00000160164253049397070050000016673011728804108170_);}
	.st70{fill:url(#SVGID_00000038394544377601564800000012789598213061736368_);}
	.st71{fill:url(#SVGID_00000000913609005840875740000000452393591304461224_);}
	.st72{fill:url(#SVGID_00000173140664695602566950000017455898186444890792_);}
	.st73{fill:url(#SVGID_00000108295587507789194900000012097270854923136650_);}
	.st74{fill:url(#SVGID_00000096763792897538264570000010121108170069952927_);}
	.st75{fill:url(#SVGID_00000091697891066943380310000007164108815799131013_);}
	.st76{fill:url(#SVGID_00000059998110920313733110000013993848267364280466_);}
	.st77{fill:url(#SVGID_00000173134826840466602370000012345834356426887592_);}
	.st78{fill:url(#SVGID_00000044891270493850666960000011913458750992047011_);}
	.st79{fill:url(#SVGID_00000077282184390011847460000011049056327687743632_);}
	.st80{fill:url(#SVGID_00000003101703429375544250000014649996267577887421_);}
	.st81{fill:url(#SVGID_00000067929475880429372980000014342410571724173955_);}
	.st82{fill:url(#SVGID_00000013901255681609744980000012026758348684215428_);}
	.st83{fill:url(#SVGID_00000154396626637087041340000003306241771319183000_);}
	.st84{fill:url(#SVGID_00000169530597721891299540000014455374412098873780_);}
	.st85{fill:url(#SVGID_00000158010056688500598810000005712484119242895787_);}
	.st86{fill:url(#SVGID_00000127727760930892978640000005824220251159989651_);}
	.st87{fill:url(#SVGID_00000108303074734834322350000003791801238309469373_);}
	.st88{fill:url(#SVGID_00000080201231722508051740000016105488844339457721_);}
	.st89{fill:url(#SVGID_00000011736104502233038010000012655681456080335549_);}
	.st90{fill:url(#SVGID_00000067199238037936947030000016072157620596143518_);}
	.st91{fill:url(#SVGID_00000162334659858213200040000004923526181611394231_);}
	.st92{fill:url(#SVGID_00000127740114293573398310000012217275896969075603_);}
	.st93{fill:url(#SVGID_00000149374311549207769450000013766258565771905926_);}
	.st94{fill:url(#SVGID_00000096754697036482462910000007544557178332058023_);}
	.st95{fill:url(#SVGID_00000166635982902293449650000011314865511252926375_);}
	.st96{fill:url(#SVGID_00000132072352591923393120000016785140917960349852_);}
	.st97{fill:url(#SVGID_00000096033418066088674730000005590345762206631342_);}
	.st98{fill:url(#SVGID_00000145035770257735763610000004325219009951666819_);}
	.st99{fill:url(#SVGID_00000116237904356439125110000011890768640913680515_);}
	.st100{fill:url(#SVGID_00000078008402481254221550000008390850943298325921_);}
	.st101{fill:url(#SVGID_00000139266975658800472660000000005248075649775256_);}
	.st102{fill:url(#SVGID_00000031170356731891473070000004051215950918791322_);}
	.st103{fill:url(#SVGID_00000040575831937948534440000001420648684022185889_);}
	.st104{fill:url(#SVGID_00000114768711738804474590000012102892891829670309_);}
	.st105{fill:url(#SVGID_00000098219416162295092550000005172542298894187425_);}
	.st106{fill:url(#SVGID_00000066481062387711070560000014778659058802875778_);}
	.st107{fill:url(#SVGID_00000174584700824053975480000006643633041123651995_);}
	.st108{fill:url(#SVGID_00000150813807161682675410000009423108821888250787_);}
	.st109{fill:url(#SVGID_00000121970683303092967730000015916724763842290834_);}
	.st110{fill:url(#SVGID_00000021096264611042799580000007120290951421353381_);}
	.st111{fill:url(#SVGID_00000085955137631740051680000000722614460371655093_);}
	.st112{fill:url(#SVGID_00000085938345449983943420000012756359833005934243_);}
	.st113{fill:url(#SVGID_00000065033347401828442160000010302516026462779292_);}
	.st114{fill:url(#SVGID_00000000926752558017411020000001526101047194999681_);}
	.st115{fill:url(#SVGID_00000183927756356475002800000013884595114085745808_);}
	.st116{fill:url(#SVGID_00000163758041063285046800000013102155750269658005_);}
	.st117{fill:url(#SVGID_00000181087077131440350270000006651060282942754232_);}
	.st118{fill:url(#SVGID_00000026870380645463195260000010644583865104658580_);}
	.st119{fill:url(#SVGID_00000074411848107860733860000014720475676720731581_);}
	.st120{fill:url(#SVGID_00000062886093235039917580000003457724089738985150_);}
	.st121{fill:url(#SVGID_00000175288327509477207350000013539563569234000262_);}
	.st122{fill:url(#SVGID_00000175299401410403113480000013204311755970764206_);}
	.st123{fill:url(#SVGID_00000086658635724072316160000002309763556187000729_);}
	.st124{fill:url(#SVGID_00000179621558458862243110000002609859718939656350_);}
	.st125{fill:url(#SVGID_00000166660898163062133080000009123334913102372006_);}
	.st126{fill:url(#SVGID_00000093143940441320055580000005017549360921252250_);}
	.st127{fill:url(#SVGID_00000033345283064984864560000008033242886787799688_);}
	.st128{fill:url(#SVGID_00000057828711878280200550000016869584346877675441_);}
	.st129{fill:url(#SVGID_00000041280366931914389220000012520977678121641918_);}
	.st130{fill:url(#SVGID_00000052823980847427830910000008736394655505254831_);}
	.st131{fill:url(#SVGID_00000075843699217918459640000017493008671875944331_);}
	.st132{fill:url(#SVGID_00000145744454102525621800000008759318060510246791_);}
	.st133{fill:url(#SVGID_00000012443502691122260460000012903157571696813979_);}
	.st134{fill:url(#SVGID_00000052098264918960789280000015696571675261224614_);}
	.st135{fill:url(#SVGID_00000062894045462328816220000012816871382894080158_);}
	.st136{fill:url(#SVGID_00000018203336294943827150000018433529614026798234_);}
	.st137{fill:url(#SVGID_00000124135203157874329700000016660145584054038147_);}
	.st138{fill:url(#SVGID_00000078030511285929375300000009489162629917771160_);}
	.st139{fill:url(#SVGID_00000050650802743541580490000005321792735980257945_);}
	.st140{fill:url(#SVGID_00000068644629507253184700000001471577874958556838_);}
	.st141{fill:url(#SVGID_00000005253547974231171580000002663293411192015516_);}
	.st142{fill:url(#SVGID_00000159444166053911130230000003013337080585518255_);}
	.st143{fill:url(#SVGID_00000102523924387605788770000009227126422383743122_);}
	.st144{fill:url(#SVGID_00000172410551026454464080000011766616995956009150_);}
	.st145{fill:url(#SVGID_00000127041924718114606290000003721892034981623684_);}
	.st146{fill:url(#SVGID_00000026861652092854368090000017565833468733701283_);}
	.st147{fill:url(#SVGID_00000123431171165596415200000017138318770804816807_);}
	.st148{fill:url(#SVGID_00000155139377861086021840000004753878883645155472_);}
	.st149{fill:url(#SVGID_00000021093688031881877010000016046881261360183479_);}
	.st150{fill:url(#SVGID_00000048488988344020918230000013706145738906077321_);}
	.st151{fill:url(#SVGID_00000016039661380595946690000001491120857750443176_);}
	.st152{fill:url(#SVGID_00000155131152381879416420000005528604563347123125_);}
	.st153{fill:url(#SVGID_00000067953865083941813800000002279773089868284594_);}
	.st154{fill:url(#SVGID_00000097463208358841580570000004081727494743101628_);}
	.st155{fill:url(#SVGID_00000103260241491859541380000005855754603666667671_);}
	.st156{fill:url(#SVGID_00000026156365522547173770000016154756642898428820_);}
	.st157{fill:url(#SVGID_00000008831640650621291470000001144554592023052160_);}
	.st158{fill:url(#SVGID_00000147898543465179484940000011091365996157539717_);}
	.st159{fill:url(#SVGID_00000057864016673344891070000000657819154921228688_);}
	.st160{fill:url(#SVGID_00000028314127147403701910000014892979252350700420_);}
	.st161{fill:url(#SVGID_00000108277243000864699430000001958531029922335420_);}
	.st162{fill:url(#SVGID_00000075133887337716228330000014886118181842819469_);}
	.st163{fill:url(#SVGID_00000090996837122154842750000007480413522969629631_);}
	.st164{fill:url(#SVGID_00000106826882900047891850000003924458651148142476_);}
	.st165{fill:url(#SVGID_00000113349493426813635530000014796691790209944487_);}
	.st166{fill:url(#SVGID_00000127027533411603574220000014167477621109907628_);}
	.st167{fill:url(#SVGID_00000064341713015406344790000003768291818518966958_);}
	.st168{fill:url(#SVGID_00000181781426444824233080000016387292128455686846_);}
	.st169{fill:url(#SVGID_00000033353678546031605640000002445894721751221647_);}
	.st170{fill:url(#SVGID_00000008141185144499902550000011714283054928559017_);}
</style>
<g id="Layer_1">
	<g>
		<g>
			<g>
				<g>
					<path class="st7" d="M317.6,326.5c-3.9,0-7,3.1-7,7c0,3.9,3.1,7,7,7c3.9,0,7-3.1,7-7C324.6,329.7,321.5,326.5,317.6,326.5z"/>
				</g>
				<g>
					<path class="st7" d="M278.7,188.8h-2.5v-7h0c0-4.9-4.1-8.9-9-8.9c-5,0-9,4-9,8.9h0v7h-2.5c-0.5,0-1,0.5-1,1v14c0,0.5,0.5,1,1,1
						h23c0.6,0,1-0.5,1-1v-14C279.7,189.2,279.3,188.8,278.7,188.8z M261.7,181.8C261.7,181.8,261.7,181.8,261.7,181.8
						c0-3,2.5-5.4,5.5-5.4s5.5,2.4,5.5,5.5c0,0,0,0,0,0v7h-11V181.8z M269.1,199.3h-3.8l1.2-3.5c-0.8-0.3-1.3-1-1.3-1.9
						c0-1.1,0.9-2,2-2s2,0.9,2,2c0,0.9-0.6,1.6-1.3,1.9L269.1,199.3z"/>
				</g>
			</g>
			<g class="st4">
				<g>
					<path class="st7" d="M362.8,301.5c0.2,2.8,2.5,5.1,5.3,5.1c3,0,5.4-2.4,5.4-5.4s-2.4-5.4-5.4-5.4c-2.5,0-4.5,1.7-5.2,4h-68.8
						c-0.4-3.6-3.4-6.4-7.1-6.4c-4,0-7.2,3.2-7.2,7.2c0,4,3.2,7.2,7.2,7.2c3.7,0,6.7-2.8,7.1-6.4H362.8z"/>
					<path class="st7" d="M209.3,198.8c-3,0-5.4,2.4-5.4,5.4c0,3,2.4,5.4,5.4,5.4c3,0,5.4-2.4,5.4-5.4
						C214.7,201.2,212.3,198.8,209.3,198.8z"/>
				</g>
				<g>
					<path class="st7" d="M332.5,291.7H331v-3.9h0c0-2.8-2.3-5-5.1-5c-2.8,0-5,2.2-5.1,5h0v3.9h-1.4c-0.3,0-0.6,0.3-0.6,0.6v7.9
						c0,0.3,0.3,0.6,0.6,0.6h13c0.3,0,0.6-0.3,0.6-0.6v-7.9C333,291.9,332.8,291.7,332.5,291.7z M322.9,287.7
						C322.9,287.7,322.9,287.7,322.9,287.7c0-1.7,1.4-3.1,3.1-3.1c1.7,0,3.1,1.4,3.1,3.1c0,0,0,0,0,0v3.9h-6.2V287.7z M327,297.6
						h-2.1l0.7-2c-0.4-0.2-0.7-0.6-0.7-1.1c0-0.6,0.5-1.1,1.1-1.1c0.6,0,1.1,0.5,1.1,1.1c0,0.5-0.3,0.9-0.7,1.1L327,297.6z"/>
					<path class="st7" d="M347.4,174.5h-1.9v-5.4h0c0-3.8-3.1-6.8-6.9-6.8c-3.8,0-6.9,3.1-6.9,6.8h0v5.4h-1.9
						c-0.4,0-0.8,0.3-0.8,0.8V186c0,0.4,0.3,0.8,0.8,0.8h17.6c0.4,0,0.8-0.3,0.8-0.8v-10.7C348.2,174.8,347.8,174.5,347.4,174.5z
						 M334.4,169.1C334.4,169.1,334.4,169.1,334.4,169.1c0-2.3,1.9-4.2,4.2-4.2c2.3,0,4.2,1.9,4.2,4.2c0,0,0,0,0,0v5.4h-8.4V169.1z
						 M340,182.6h-2.9l0.9-2.7c-0.6-0.2-1-0.8-1-1.4c0-0.8,0.7-1.5,1.5-1.5c0.8,0,1.5,0.7,1.5,1.5c0,0.7-0.4,1.2-1,1.4L340,182.6z"
						/>
				</g>
			</g>
			<g class="st5">
				<path class="st7" d="M382,186.6h-78.7v-68.1c-0.6,0-1.1,0-1.7,0.1v68.1h-2v1.7h2v62.6h-45.3v75.7c-2.6,0.4-4.5,2.6-4.5,5.3
					c0,3,2.4,5.4,5.4,5.4c3,0,5.4-2.4,5.4-5.4c0-2.7-2-4.9-4.5-5.3v-74h45.3v-64.3h80.4v-42.6c-0.6-0.4-1.1-0.9-1.7-1.3V186.6z"/>
			</g>
			<g>
				<path class="st8" d="M341.3,312.8v-68h58.2v-66.5h12.9c-0.5-0.7-0.9-1.5-1.4-2.2h-13.7v66.5h-56V123.9h-2.2v118.7h-44.5v-39.9
					h-69.1c-0.1-19.7-0.1-39.1-0.1-54.5c-0.7,0.6-1.5,1.3-2.2,1.9c0,15.2,0,33.9,0.1,52.6h-35c-0.3,0.7-0.5,1.5-0.7,2.2h35.8
					c0.1,29,0.4,57.6,0.5,73.2h-37.2c0.2,0.7,0.4,1.5,0.7,2.2H226l0-1.1c-0.2-17.4-0.4-45.9-0.5-74.3h66.9v39.9h46.8v65.8h-85.5
					v45.3c0.7,0.3,1.5,0.7,2.2,1v-44.1H341.3z"/>
				<path class="st8" d="M384.7,310.6c-0.6-4.7-4.5-8.3-9.3-8.3c-5.2,0-9.4,4.2-9.4,9.4c0,5.2,4.2,9.4,9.4,9.4
					c4.8,0,8.8-3.6,9.3-8.3h24.5c0.5-0.7,1-1.5,1.5-2.2H384.7z"/>
			</g>
			<g>
				<path class="st7" d="M317.6,340.6h-1.1v26.5c0.7-0.1,1.5-0.1,2.2-0.2v-26.3H317.6z"/>
				<path class="st7" d="M210.1,267v-57.5h-0.9h-0.8v55.8h-22.3v11.2c0.5,1.9,1.1,3.7,1.7,5.6V267H210.1z"/>
				<path class="st7" d="M358.8,324.2h37.4v-81h-52.3c-0.4-2.6-2.6-4.5-5.3-4.5c-3,0-5.4,2.4-5.4,5.4c0,3,2.4,5.4,5.4,5.4
					c2.7,0,4.9-2,5.3-4.5h50.6v77.6h-37.4v34.1c0.6-0.3,1.1-0.5,1.7-0.8V324.2z"/>
			</g>
			<g>
				<path class="st7" d="M612.9,291.8c-0.5,7.2,5.2,13.2,12.3,13.2h61.3c6.6,0,12.3-5,12.7-11.5c0.5-7.2-5.2-13.2-12.3-13.2h-61.3
					C619.1,280.3,613.3,285.3,612.9,291.8z"/>
				<path class="st7" d="M775.5,243.8c0.5-7.2-5.2-13.2-12.3-13.2h-85c-6.6,0-12.3,5-12.7,11.5c-0.5,7.2,5.2,13.2,12.3,13.2h85
					C769.4,255.3,775.1,250.4,775.5,243.8z"/>
				<path class="st7" d="M728.7,280.3c-6.6,0-12.3,5-12.7,11.5c-0.5,7.2,5.2,13.2,12.3,13.2h28.1c6.6,0,12.3-5,12.7-11.5
					c0.5-7.2-5.2-13.2-12.3-13.2H728.7z"/>
				<path class="st7" d="M656.1,180.9H628c-6.6,0-12.3,5-12.7,11.5c-0.5,7.2,5.2,13.2,12.3,13.2h28.1c6.6,0,12.3-5,12.7-11.5
					C668.9,186.9,663.2,180.9,656.1,180.9z"/>
				<path class="st7" d="M450.8,194.1c0.4-5.7-3.2-10.7-8.2-12.5c2.4,6,4.5,12.1,6.1,18.4C449.9,198.3,450.7,196.3,450.8,194.1z"/>
				<path class="st7" d="M603.9,528.7c-6.8,0-12.3,5.5-12.3,12.4c0,6.8,5.5,12.4,12.3,12.4c6.8,0,12.4-5.5,12.4-12.4
					C616.3,534.3,610.7,528.7,603.9,528.7z"/>
				<path class="st7" d="M697,379.7h-20.6c-6.6,0-12.3,5-12.7,11.5c-0.5,7.2,5.2,13.2,12.3,13.2h56.8c6.6,0,12.3-5,12.7-11.5
					c0.5-7.2-5.2-13.2-12.3-13.2h3.3c-6.8,0-12.4-5.5-12.4-12.4v-0.5c0-6.7,5.4-12.1,12.1-12.1c0.1,0,10.4,0,10.6,0
					c6.4-0.2,11.9-5.1,12.3-11.5c0.5-7.2-5.2-13.2-12.3-13.2h-88.6c-6.6,0-12.3,5-12.7,11.5c-0.5,7.2,5.2,13.2,12.3,13.2H697
					c6.8,0,12.3,5.5,12.3,12.4v0.3C709.4,374.2,703.8,379.7,697,379.7z"/>
				<path class="st7" d="M696.5,429.4c-6.8,0-12.4,5.5-12.4,12.3c0,6.8,5.5,12.4,12.4,12.4h17.4c6.8,0,12.3-5.5,12.3-12.4
					c0-6.8-5.5-12.3-12.3-12.3H696.5z"/>
				<path class="st7" d="M528.6,131.2c-6.8,0-12.4,5.5-12.4,12.4c0,6.8,5.5,12.3,12.4,12.3h9.3c6.8,0,12.4-5.5,12.4-12.3
					c0-6.8-5.5-12.4-12.4-12.4H528.6z"/>
				<path class="st7" d="M551.2,321.6c2.4-2.4,2.4-6.2,0-8.6c-2.4-2.4-6.2-2.4-8.6,0c-2.4,2.4-2.4,6.2,0,8.6
					C545,324,548.8,324,551.2,321.6z"/>
				<path class="st7" d="M542.8,421.4c2.5-2.5,2.5-6.6,0-9.1c-2.5-2.5-6.6-2.5-9.1,0c-2.5,2.5-2.5,6.6,0,9.1
					C536.2,423.9,540.3,423.9,542.8,421.4z"/>
				<path class="st7" d="M513,374.4c3.9-3.9,3.9-10.2,0-14.1c-3.9-3.9-10.2-3.9-14.1,0c-3.9,3.9-3.9,10.2,0,14.1
					C502.9,378.3,509.2,378.3,513,374.4z"/>
				<path class="st7" d="M436.3,441.7c0-6.8-5.5-12.3-12.4-12.3h-34.4c0,0,0,0,0,0h-42.9c-6.5,0-12.3,4.6-13,11.1
					c-0.7,7.4,5,13.6,12.3,13.6h78.1C430.7,454.1,436.3,448.5,436.3,441.7z"/>
				<path class="st7" d="M533.9,652.8c6.8,0,12.4-5.5,12.4-12.4c0-6.8-5.5-12.4-12.4-12.4h-1.2c-6.8,0-12.4,5.5-12.4,12.4
					c0,6.8,5.5,12.4,12.4,12.4H533.9z"/>
				<path class="st7" d="M452.6,255.3h20h163.9c6.5,0,12.3-4.6,13-11.1c0.7-7.4-5-13.6-12.3-13.6H580c-6.8,0-12.4-5.5-12.4-12.4V218
					c0-6.8,5.5-12.4,12.3-12.4h6.9c6.5,0,12.3-4.6,13-11.1c0.7-7.4-5-13.6-12.3-13.6h-108c-6.5,0-12.3,4.6-13,11.1
					c-0.7,7.4,5,13.6,12.3,13.6h61.6c6.8,0,12.4,5.5,12.4,12.4v0.3c0,6.8-5.5,12.4-12.4,12.4h-87.1
					C453.9,239,453.6,247.2,452.6,255.3z"/>
				<path class="st7" d="M649.6,491.4c0,6.8,5.5,12.4,12.4,12.4h31.2c6.8,0,12.4-5.5,12.4-12.4c0-6.8-5.5-12.3-12.4-12.3H662
					C655.2,479.1,649.6,484.6,649.6,491.4z"/>
				<path class="st7" d="M628,541.1c0,6.8,5.5,12.4,12.4,12.4h21c6.8,0,12.4-5.5,12.4-12.4c0-6.8-5.5-12.3-12.4-12.3h-21
					C633.5,528.7,628,534.3,628,541.1z"/>
				<path class="st7" d="M617.7,578.4H608c-6.8,0-12.4,5.5-12.4,12.4c0,6.8,5.5,12.4,12.4,12.4h9.7c6.8,0,12.4-5.5,12.4-12.4
					C630.1,584,624.5,578.4,617.7,578.4z"/>
				<path class="st7" d="M448.6,305h22.3c0,0,0,0,0,0h48c5.2,0,10.4-1.6,14.7-4.5c1.9-1.3,4-2.5,6.2-3.2c2.6-0.9,5.3-1.3,8-1.2
					c5.1,0.2,10.2,2.3,14.1,6.2c7.6,7.6,8.2,19.4,2.1,27.7c-0.6,0.9-1.3,1.7-2.1,2.5c-5.7,5.7-13.9,7.7-21.1,5.4
					c-3-1-5.6-2.3-7.6-3.7c-4.5-3-9.7-4.5-15.1-4.5h-48.9c0,0.1,0,0.2,0,0.3H439c-0.4-0.5-0.8-1.1-1.3-1.6c-3.1-3.1-7-4.9-11.2-5.4
					c-6,8.5-12.9,16.3-20.6,23.4c0.8,3.2,2.4,6.3,5,8.9c3.6,3.6,8.3,5.6,13.4,5.6c5.1,0,9.8-2,13.4-5.6c0.2-0.2,0.3-0.3,0.4-0.5
					h32.4c5.8,0,11.4-2.3,15.5-6.4l0.5-0.5h0c10.8-10.8,28.3-10.8,39.1,0c2.1,2.1,3.8,4.4,5,6.9c5.3,10.4,3.7,23.5-5,32.2
					c-10.8,10.8-28.3,10.8-39.1,0h0c-0.2-0.2-0.3-0.3-0.5-0.5c-4.2-4.4-10-7-16.2-7h-4.9c0,0.1,0,0.2,0,0.3h-91
					c-0.8-1.2-1.7-2.3-2.8-3.4c-1.5-1.5-3.2-2.8-5-3.8c-10.1,4.5-20.8,7.9-32,10c-4.1,8.6-2.7,19.2,4.4,26.3
					c4.4,4.4,10.1,6.7,16.3,6.7c6.2,0,11.9-2.4,16.3-6.7c1.4-1.4,2.4-2.9,3.4-4.5h15h73.4c0,0,0,0.1,0,0.1H514
					c5.1,0,10.2-1.4,14.6-4c2.6-1.5,6.3-2.8,11.1-2.5c5.6,0.4,11.1,3.4,14.6,8.8c3.9,6.1,3.8,14.2-0.1,20.2
					c-3.7,5.6-9.5,8.6-15.4,8.7c-5,0.1-8.4-1-10.6-2.4c-4.2-2.5-8.8-4.1-13.7-4.1l-48.2,0c0,0,0,0.1,0.1,0.1h-2.5
					c-6.5,0-12.3,4.6-13,11.1c-0.7,7.4,5,13.6,12.3,13.6h15.7h8.2c6.5,0,12.3,4.6,13,11.1c0.7,6.5-3.7,12.1-9.7,13.4h-63.7
					c-0.8-1.2-1.7-2.3-2.8-3.4c-4.3-4.3-10.1-6.7-16.3-6.7s-11.9,2.4-16.3,6.7c-9,9-9,23.6,0,32.6c4.4,4.4,10.1,6.7,16.3,6.7
					s11.9-2.4,16.3-6.7c1.2-1.2,2.2-2.5,3.1-4c0.2,0,0.5,0,0.7,0h32c6.8,0,12.4,5.5,12.4,12.4v0.3c0,6.8-5.5,12.4-12.3,12.4h-58.5
					c-6.5,0-12.4,4.6-13,11.1c-0.7,7.4,5,13.6,12.3,13.6h87h25.3c6.5,0,12.3,4.6,13,11.1c0.7,7.4-5,13.6-12.3,13.6h-64.2v0.3l-3.5,0
					c-6.5,0-12.4,4.6-13,11.1c-0.7,7.4,5,13.6,12.3,13.6h123.4c6.8,0,12.3-5.5,12.3-12.4c0-0.1,0-0.3,0-0.4c0,0,0-0.1,0-0.1v-76.8
					c0-7.5,6-13.5,13.5-13.5H622c9.3,0,16.8-7.5,16.8-16.8v-37.7c0-3.7,3-6.7,6.7-6.7h15.3c2,0,3.9-0.6,5.3-2c2.5-2.3,3-5.9,1.6-8.8
					L655,402.6c-7-14.1-12.3-28.9-17-43.9c-14.9-48.1-61.3-81.4-113.3-78.4h-52.1h-24c-0.4,0-0.9,0-1.3,0.1
					c-2.1,7-4.8,13.9-7.9,20.5C441.6,303.4,444.9,305,448.6,305z M430.3,348.3c-3.3,3.3-8.7,3.3-12,0c-3.3-3.3-3.3-8.7,0-12
					c3.3-3.3,8.7-3.3,12,0C433.6,339.7,433.6,345,430.3,348.3z M362.6,400.4c-4.3,4.3-11.3,4.3-15.6,0c-4.3-4.3-4.3-11.3,0-15.6
					c4.3-4.3,11.3-4.3,15.6,0C366.9,389.1,366.9,396.1,362.6,400.4z M415.1,499.2c-4.3,4.3-11.3,4.3-15.6,0
					c-4.3-4.3-4.3-11.3,0-15.6c4.3-4.3,11.3-4.3,15.6,0C419.4,487.9,419.4,494.9,415.1,499.2z"/>
			</g>
			<g>
				<g>
					<path class="st7" d="M531.4,60.2l-143.6,54.6c-30.6-20.4-67.1-28.5-103.7-23c-39,5.9-73.3,26.6-96.8,58.3
						c-23.4,31.7-33.1,70.6-27.2,109.6c4.2,27.7,15.9,53.1,33.7,73.9L69.7,465.9c-6.6,7-6.2,18,0.8,24.6c3.4,3.1,7.6,4.7,11.9,4.7
						c4.6,0,9.3-1.8,12.7-5.5l124.3-132.6c6.6,4.8,13.4,9,20.6,12.5c5.1,20,11.2,40.8,18.2,62c25.2,75.2,58.3,137.9,98.5,187.1
						c25.4,6.1,49,13.1,70.8,21c-76-65.8-120.1-167-145.5-256.4c7.8,1.3,15.8,1.9,23.8,1.9c7.4,0,14.8-0.6,22.3-1.7c2-0.3,4-0.7,6-1
						c11.2-2.2,21.9-5.6,32-10c14.8-6.6,28.2-15.5,39.8-26.2c7.7-7.1,14.6-14.9,20.6-23.4c4.9-7,9.3-14.4,13-22.1
						c3.1-6.6,5.8-13.4,7.9-20.5c2.5-8.1,4.2-16.5,5.3-25.1c1-8.1,1.3-16.3,0.9-24.7c-0.2-4.9-0.7-9.9-1.5-14.9
						c-0.8-5.3-1.9-10.6-3.2-15.7c-1.6-6.3-3.7-12.4-6.1-18.4c-5.9-14.4-13.9-27.7-24-39.5l112.8-42.9l282.1,107.2
						c-6.3,60.7-40.7,312.1-183,435.2c22-8.2,45.8-15.5,71.5-21.8c40.2-49.3,69.2-114,99.6-188c38.2-92.8,48.2-222.2,49.6-236.2
						l0.9-13.5L531.4,60.2z M418.8,236.4c0,4.1-0.1,8.2-0.5,12.2c-1.1,11-3.8,21.7-7.9,31.7c-3.6,8.8-8.3,17.1-13.9,24.6
						c-9.7,13-22.2,24-36.8,31.9c-11.2,6-23.5,10.3-36.8,12.3c-5.5,0.8-11,1.2-16.5,1.3c-11.7,0.1-23.3-1.7-34.4-5.2
						c-11.7-3.7-22.8-9.3-32.9-16.8c-3.7-2.7-7.2-5.7-10.5-8.8c-18.3-17.2-30.2-39.9-34-65.2c-4.5-29.8,2.9-59.5,20.8-83.8
						c17.9-24.2,44.2-40.1,73.9-44.5c5.7-0.9,11.4-1.3,17-1.3c12.9,0,25.6,2.2,37.7,6.6c10.3,3.7,20,8.9,29.1,15.5
						c3.6,2.7,7.1,5.6,10.4,8.6c8.1,7.6,15,16.3,20.4,25.8c4.4,7.6,7.8,15.7,10.4,24.3c1.5,5,2.6,10.1,3.4,15.3
						C418.4,226.1,418.8,231.3,418.8,236.4z"/>
					<path class="st7" d="M578.4,733.7c33.3-22.2,86.4-46.5,170.2-63.3v-32.7c-31,6-58.3,13-82.3,20.7
						c-67.9,21.7-109.6,48.3-134.8,71.2c-25.8-23.4-68.8-50.7-139.5-72.6c-22.9-7.1-48.6-13.6-77.6-19.2l-0.3,1.7v30.9
						c84.1,16.9,137.4,41.2,170.7,63.5c-28.4-9.1-66.7-16-117.6-16c-27.1,0-57.7,2-92.3,6.6v31.9l0,0.4c35.1-4.9,65.7-6.9,92.3-6.9
						c63.8,0,104.9,11.6,129.9,23.1c3.5,1.6,6.6,3.2,9.5,4.7l14.5,10.6l9.9,7.2c0.1,0.2,0.2,0.3,0.3,0.3l0.1-0.1l0.4,0.3
						c0-0.1,0.5-0.6,1.3-1.5l9.1-6.5l14.1-10.2c2.9-1.6,6.2-3.2,9.7-4.9c25.1-11.6,66.2-23.1,130-23.1c26.5,0,57,2,91.9,6.8v-32.3
						c-34.4-4.6-65-6.5-91.9-6.5C645.1,717.6,606.8,724.5,578.4,733.7z"/>
				</g>
			</g>
		</g>
		<g>
			<g>
				<path class="st7" d="M1260.7,566.5h-70l-126.1-215.2v215.2h-65.4V239.6h70L1195.3,455V239.6h65.4V566.5z"/>
				<path class="st7" d="M1581.4,533.4c-15.2,12.9-32.1,22.8-50.8,29.8s-38.1,10.4-58.4,10.4c-15.5,0-30.4-2-44.8-6
					c-14.4-4-27.8-9.7-40.2-17.1c-12.5-7.4-23.9-16.2-34.2-26.4c-10.3-10.3-19.1-21.7-26.4-34.2c-7.3-12.5-13-26-17-40.5
					c-4-14.4-6-29.4-6-44.9s2-30.4,6-44.7c4-14.3,9.7-27.7,17-40.2c7.3-12.5,16.1-23.9,26.4-34.2c10.3-10.3,21.7-19,34.2-26.3
					c12.5-7.3,25.9-13,40.2-17c14.4-4,29.3-6,44.8-6c20.2,0,39.7,3.5,58.4,10.4c18.7,6.9,35.6,16.8,50.8,29.7l-34.2,57
					c-9.9-10-21.3-17.9-34.2-23.6c-12.9-5.7-26.5-8.5-40.8-8.5c-14.3,0-27.7,2.7-40.2,8.2c-12.5,5.5-23.5,12.9-32.9,22.2
					c-9.4,9.3-16.9,20.3-22.3,32.8c-5.5,12.5-8.2,26-8.2,40.2c0,14.4,2.7,28,8.2,40.6c5.5,12.6,12.9,23.6,22.3,33.1
					c9.4,9.4,20.4,16.9,32.9,22.3c12.5,5.5,25.9,8.2,40.2,8.2c8.2,0,16.2-1,23.9-3c7.8-2,15.1-4.7,22.1-8.2v-93h63.1V533.4z"/>
				<path class="st7" d="M1612.7,337.6c0-13.5,2.6-26.2,7.8-38.1c5.2-11.9,12.2-22.2,21.1-31.1c8.9-8.9,19.3-15.9,31.1-21.1
					c11.9-5.2,24.5-7.8,38.1-7.8h150V305h-150c-4.6,0-8.8,0.8-12.8,2.5c-4,1.7-7.4,4-10.4,7c-3,3-5.3,6.4-7,10.4
					c-1.7,4-2.5,8.2-2.5,12.8s0.8,8.9,2.5,12.9c1.7,4,4,7.5,7,10.5c3,3,6.4,5.3,10.4,7c4,1.7,8.2,2.5,12.8,2.5h65.4
					c13.5,0,26.3,2.5,38.2,7.6c11.9,5.1,22.3,12.1,31.2,21c8.9,8.9,15.9,19.3,21,31.2c5.1,11.9,7.6,24.7,7.6,38.2
					c0,13.5-2.5,26.2-7.6,38.1c-5.1,11.9-12.1,22.2-21,31.1c-8.9,8.9-19.3,15.9-31.2,21.1c-11.9,5.2-24.7,7.8-38.2,7.8h-145.2v-65.4
					h145.2c4.6,0,8.8-0.8,12.8-2.5c4-1.7,7.4-4,10.4-7c3-3,5.3-6.4,7-10.4c1.7-4,2.5-8.2,2.5-12.8s-0.8-8.8-2.5-12.8
					c-1.7-4-4-7.4-7-10.4c-3-3-6.4-5.3-10.4-7c-4-1.7-8.2-2.5-12.8-2.5h-65.4c-13.5,0-26.2-2.6-38.1-7.8
					c-11.9-5.2-22.2-12.2-31.1-21.1c-8.9-8.9-15.9-19.3-21.1-31.2C1615.3,363.9,1612.7,351.1,1612.7,337.6z"/>
				<path class="st7" d="M2237.3,404.4c0,15.5-2,30.4-6,44.8c-4,14.4-9.7,27.8-17,40.3s-16.1,24-26.4,34.3
					c-10.3,10.3-21.7,19.2-34.2,26.6c-12.5,7.4-25.9,13.1-40.4,17.1c-14.4,4-29.4,6-44.9,6s-30.4-2-44.8-6
					c-14.4-4-27.8-9.7-40.4-17.1c-12.5-7.4-24-16.2-34.3-26.6c-10.3-10.3-19.2-21.8-26.6-34.3c-7.4-12.5-13.1-26-17.1-40.3
					c-4-14.4-6-29.3-6-44.8s2-30.5,6-44.9c4-14.4,9.7-27.9,17.1-40.3c7.4-12.5,16.2-23.9,26.6-34.2c10.3-10.3,21.8-19.1,34.3-26.4
					c12.5-7.3,26-13,40.4-17c14.4-4,29.3-6,44.8-6s30.5,2,44.9,6c14.4,4,27.9,9.7,40.4,17c12.5,7.3,23.9,16.1,34.2,26.4
					c10.3,10.3,19.1,21.7,26.4,34.2c7.3,12.5,13,25.9,17,40.3C2235.3,373.9,2237.3,388.9,2237.3,404.4z M2172.3,404.4
					c0-14.3-2.7-27.8-8.2-40.5c-5.5-12.7-12.9-23.7-22.2-33.1s-20.4-16.8-33.1-22.2c-12.7-5.5-26.2-8.2-40.5-8.2
					c-14.4,0-28,2.7-40.6,8.2c-12.6,5.5-23.6,12.9-33.1,22.2c-9.4,9.3-16.9,20.4-22.3,33.1c-5.5,12.7-8.2,26.2-8.2,40.5
					c0,14.3,2.7,27.7,8.2,40.2c5.5,12.5,12.9,23.5,22.3,32.9c9.4,9.4,20.4,16.9,33.1,22.3c12.6,5.5,26.1,8.2,40.6,8.2
					c14.3,0,27.8-2.7,40.5-8.2c12.7-5.5,23.7-12.9,33.1-22.3c9.3-9.4,16.8-20.4,22.2-32.9C2169.6,432.1,2172.3,418.7,2172.3,404.4z"
					/>
				<path class="st7" d="M2407.1,566.5h-65.2V305h-98.3v-65.4h261.5V305h-98V566.5z"/>
				<path class="st7" d="M2605.2,566.5h-65.4V239.6h65.4V566.5z"/>
			</g>
		</g>
	</g>
</g>
<g id="Layer_2">
</g>
</svg>
