<?xml version="1.0" encoding="utf-8"?>
<!-- Generator: Adobe Illustrator 28.1.0, SVG Export Plug-In . SVG Version: 6.00 Build 0)  -->
<svg version="1.1" xmlns="http://www.w3.org/2000/svg" xmlns:xlink="http://www.w3.org/1999/xlink" x="0px" y="0px"
	 viewBox="0 0 2670.3 856" style="enable-background:new 0 0 2670.3 856;" xml:space="preserve">
<style type="text/css">
	.st0{display:none;}
	.st1{display:inline;}
	.st2{fill:none;stroke:#000000;stroke-width:0.9157;stroke-miterlimit:10;}
	.st3{fill:#221F20;}
	.st4{opacity:0.6;}
	.st5{opacity:0.3;}
	.st6{opacity:0.3;fill:#221F20;}
	.st7{fill:#FFFFFF;}
	.st8{opacity:0.3;fill:#FFFFFF;}
	.st9{fill:url(#SVGID_1_);}
	.st10{fill:none;}
	.st11{fill:url(#SVGID_00000058585679699745841810000011231166472474257333_);}
	.st12{fill:url(#SVGID_00000070804323473852960330000018408371202932029605_);}
	.st13{fill:url(#SVGID_00000096058345321163152370000014308454446460620989_);}
	.st14{fill:url(#SVGID_00000176022444483545295400000013711452250517523897_);}
	.st15{fill:url(#SVGID_00000069400318342870662930000012003361260851983247_);}
	.st16{fill:url(#SVGID_00000175314154238368778180000016569462911190232995_);}
	.st17{fill:url(#SVGID_00000056389399639964246650000001904718689717716149_);}
	.st18{fill:url(#SVGID_00000101069370758559451660000009047156175316116665_);}
	.st19{fill:url(#SVGID_00000080182926787776103100000000415276181867330209_);}
	.st20{fill:url(#SVGID_00000087372952580587329340000007368999594915488160_);}
	.st21{fill:url(#SVGID_00000017501461519448370580000011393127181654457519_);}
	.st22{fill:url(#SVGID_00000011015870073193151590000009878155960262111136_);}
	.st23{fill:url(#SVGID_00000093856117000896212150000010281640261881135548_);}
	.st24{fill:url(#SVGID_00000031198892342095951650000011522171340993617566_);}
	.st25{fill:url(#SVGID_00000157276025618597772720000005955399942219992217_);}
	.st26{fill:url(#SVGID_00000165925205240323444550000018373254303196271029_);}
	.st27{fill:url(#SVGID_00000164493644783334247640000015878923331189612419_);}
	.st28{fill:url(#SVGID_00000137819195179204936780000002731408478173089188_);}
	.st29{fill:url(#SVGID_00000103959574342634447980000011149593811646295990_);}
	.st30{fill:url(#SVGID_00000145031104392238124170000006217148555338008472_);}
	.st31{fill:url(#SVGID_00000067212354954127243510000006988830653587725982_);}
	.st32{fill:url(#SVGID_00000150089641880876222980000004010398892686190519_);}
	.st33{fill:url(#SVGID_00000131344251776956026030000018259075123251525524_);}
	.st34{fill:url(#SVGID_00000057853647002934745790000002612243357544371625_);}
	.st35{fill:url(#SVGID_00000082336834188298349900000010364769070140580492_);}
	.st36{fill:url(#SVGID_00000139284564273151834230000015967899614538288314_);}
	.st37{fill:url(#SVGID_00000120543549431932670980000004537579415858418065_);}
	.st38{fill:url(#SVGID_00000000901988525847488740000007173325247375492508_);}
	.st39{fill:url(#SVGID_00000095308344956930904690000011533580368372478622_);}
	.st40{fill:url(#SVGID_00000129926261875104607180000000380292044762055328_);}
	.st41{fill:url(#SVGID_00000023999792031935476620000015731263268838297254_);}
	.st42{fill:url(#SVGID_00000008844511753495060790000003701696881312857521_);}
	.st43{fill:url(#SVGID_00000010306954903823447100000000005127901175603617_);}
	.st44{fill:url(#SVGID_00000039841926901933940920000007371904170380082599_);}
	.st45{fill:url(#SVGID_00000142164922575352524970000018407801394396394676_);}
	.st46{fill:url(#SVGID_00000109739407522382538520000001962653220387733405_);}
	.st47{fill:url(#SVGID_00000142870859830408239390000013419049051855373744_);}
	.st48{fill:url(#SVGID_00000078020713571412686220000007714087787521916323_);}
	.st49{fill:url(#SVGID_00000181052672317882122070000014558171745386890148_);}
	.st50{fill:#172B43;}
	.st51{fill:url(#SVGID_00000104664831797782692580000018378377194038925994_);}
	.st52{fill:url(#SVGID_00000145759056244363773670000008264801167887850386_);}
	.st53{fill:url(#SVGID_00000042723648591317982430000003603859819553775798_);}
	.st54{fill:url(#SVGID_00000172412974692094698280000005865499832160735929_);}
	.st55{fill:url(#SVGID_00000057140879404931537860000002144837606624687529_);}
	.st56{fill:url(#SVGID_00000121984986560252676690000014384828211199233454_);}
	.st57{fill:url(#SVGID_00000146460551774348456780000010445336706665810575_);}
	.st58{fill:url(#SVGID_00000176042141959487443350000010517895030676891531_);}
	.st59{fill:url(#SVGID_00000146497031855997126280000010173842493994283945_);}
	.st60{fill:url(#SVGID_00000146458038096632317880000011882215394198674325_);}
	.st61{fill:url(#SVGID_00000183209084335013262150000006129521194746122935_);}
	.st62{fill:url(#SVGID_00000164505944683456791140000014151434581161474750_);}
	.st63{fill:url(#SVGID_00000057133949040386172060000012071821159202097542_);}
	.st64{fill:url(#SVGID_00000005951968032141264770000012731510356789322887_);}
	.st65{fill:url(#SVGID_00000031906110481750883410000016859660277117267087_);}
	.st66{fill:url(#SVGID_00000053545610633272718160000010033469294439249309_);}
	.st67{fill:url(#SVGID_00000085966168056237042090000008605418635702260633_);}
	.st68{fill:url(#SVGID_00000182507256005775747020000010381380705337935033_);}
	.st69{fill:url(#SVGID_00000132062881948386493410000008183870901491252152_);}
	.st70{fill:url(#SVGID_00000175317319311732531190000015780080293923682476_);}
	.st71{fill:url(#SVGID_00000166675558811930264910000004523024675571199163_);}
	.st72{fill:url(#SVGID_00000046308366452636735400000006074352212129028505_);}
	.st73{fill:url(#SVGID_00000044871298375414650560000011957753717682623917_);}
	.st74{fill:url(#SVGID_00000063602960683211389690000011831546974939168417_);}
	.st75{fill:url(#SVGID_00000049184387784655395830000005268635912499589043_);}
	.st76{fill:url(#SVGID_00000106139046436875715380000014636882585064183205_);}
	.st77{fill:url(#SVGID_00000102502360857496187550000001067217291256447394_);}
	.st78{fill:url(#SVGID_00000121966645931430572150000015191240373880316342_);}
	.st79{fill:url(#SVGID_00000183216052363447542310000002237740996011498115_);}
	.st80{fill:url(#SVGID_00000005244561662819814010000004957594962670666112_);}
	.st81{fill:url(#SVGID_00000093882516363268302190000003779493821566208139_);}
	.st82{fill:url(#SVGID_00000102543046798318871520000014141262049413360540_);}
	.st83{fill:url(#SVGID_00000101100860021363013730000015375816648603416227_);}
	.st84{fill:url(#SVGID_00000043454058788715700470000016687080792709502093_);}
	.st85{fill:url(#SVGID_00000093884398549965203590000004666783195239883701_);}
	.st86{fill:url(#SVGID_00000175293241011647995830000001940383689390306439_);}
	.st87{fill:url(#SVGID_00000139286274070175700240000004402235419537002131_);}
	.st88{fill:url(#SVGID_00000091713487475383487630000017775399353862180480_);}
	.st89{fill:url(#SVGID_00000049217713970979749390000012699928267733253524_);}
	.st90{fill:url(#SVGID_00000086672252396135045390000013773627432059042706_);}
	.st91{fill:url(#SVGID_00000044862907634004945140000015801601496805539974_);}
	.st92{fill:url(#SVGID_00000036230441493060984780000007820679259568238775_);}
	.st93{fill:url(#SVGID_00000011001917116721080740000015932273550391620234_);}
	.st94{fill:url(#SVGID_00000020372419557850068460000012728032335372407989_);}
	.st95{fill:url(#SVGID_00000155831164626475220560000018098819336719793045_);}
	.st96{fill:url(#SVGID_00000081633033256274424270000018066345134653503410_);}
	.st97{fill:url(#SVGID_00000156581787458728362720000007564556140590952576_);}
	.st98{fill:url(#SVGID_00000057848251111612549630000000705176844385815479_);}
	.st99{fill:url(#SVGID_00000178926996393355836340000010947989350411753904_);}
	.st100{fill:url(#SVGID_00000111902036997322221470000010471407619535831218_);}
	.st101{fill:url(#SVGID_00000028305937074974426150000015562520021991955894_);}
	.st102{fill:url(#SVGID_00000014622522822377945760000009825232947595380415_);}
	.st103{fill:url(#SVGID_00000103973772382362414410000016287028797324577420_);}
	.st104{fill:url(#SVGID_00000134229361941051782330000000483255997570113411_);}
	.st105{fill:url(#SVGID_00000010311509426855779730000003693611781795630748_);}
	.st106{fill:url(#SVGID_00000119075850165415672910000016009909698883472272_);}
	.st107{fill:url(#SVGID_00000070839277499558878950000016069025144768452740_);}
	.st108{fill:url(#SVGID_00000104672566934686927180000014530124480754921900_);}
	.st109{fill:url(#SVGID_00000108999437032085991850000015024299959819073971_);}
	.st110{fill:url(#SVGID_00000125600689080522521140000011220537822325407385_);}
	.st111{fill:url(#SVGID_00000023972069337848254580000009798235511378867075_);}
	.st112{fill:url(#SVGID_00000033348606512467803800000004097504272595977634_);}
	.st113{fill:url(#SVGID_00000152239389879578739710000009682124536557140155_);}
	.st114{fill:url(#SVGID_00000137841650989833444400000011101102892614679433_);}
	.st115{fill:url(#SVGID_00000026873056701208594810000014313120971440522645_);}
	.st116{fill:url(#SVGID_00000159430666136832395560000010019009597205751196_);}
	.st117{fill:url(#SVGID_00000163059016752374841320000011154563869304169129_);}
	.st118{fill:url(#SVGID_00000106113254930194973510000004978478185596705206_);}
	.st119{fill:url(#SVGID_00000003064624173237035400000017641276203456407450_);}
	.st120{fill:url(#SVGID_00000048488493789549708680000007652892098913754785_);}
	.st121{fill:url(#SVGID_00000141429469394238768450000000583382010881016470_);}
	.st122{fill:url(#SVGID_00000048459314264707333600000003027538078688659085_);}
	.st123{fill:url(#SVGID_00000060027887530528784020000001508064480606295698_);}
	.st124{fill:url(#SVGID_00000002346675042938930600000010118362168664444826_);}
	.st125{fill:url(#SVGID_00000155106415346755069640000015207665675830678450_);}
	.st126{fill:url(#SVGID_00000072970109530478135770000001300146656520199314_);}
	.st127{fill:url(#SVGID_00000044154039416546362500000014055442616409206694_);}
	.st128{fill:url(#SVGID_00000073716880576009676240000016963165620057616287_);}
	.st129{fill:url(#SVGID_00000168099129596123795330000011961904573068432016_);}
	.st130{fill:url(#SVGID_00000175283429747954975820000009131249133715311233_);}
	.st131{fill:url(#SVGID_00000013150777509053522040000009879544140197964433_);}
	.st132{fill:url(#SVGID_00000163036248178805144520000014092221649022572952_);}
	.st133{fill:url(#SVGID_00000086690812211543745580000004077560452639554946_);}
	.st134{fill:url(#SVGID_00000139980274084043976250000009200841710085886106_);}
	.st135{fill:url(#SVGID_00000057129854643995634250000013328740046676873636_);}
	.st136{fill:url(#SVGID_00000104706877715904632620000001227258367015771307_);}
	.st137{fill:url(#SVGID_00000183930409623965893930000003682542416247374768_);}
	.st138{fill:url(#SVGID_00000169524142680294023150000015130219925719625863_);}
	.st139{fill:url(#SVGID_00000171700671623922134550000003842166496853695927_);}
	.st140{fill:url(#SVGID_00000021107652840920288340000001265042282602137737_);}
	.st141{fill:url(#SVGID_00000025434513618757637600000010372324422351969676_);}
	.st142{fill:url(#SVGID_00000129182465256225555450000002430517229418599595_);}
	.st143{fill:url(#SVGID_00000111152195511185938740000009131290002688994453_);}
	.st144{fill:url(#SVGID_00000092426155999611106590000005642468687093178779_);}
	.st145{fill:url(#SVGID_00000181075400532347080480000013603273690619366019_);}
	.st146{fill:url(#SVGID_00000147911679054197073900000007301114255491704759_);}
	.st147{fill:url(#SVGID_00000111187448428027378990000009059126967680273083_);}
	.st148{fill:url(#SVGID_00000120528966633340149310000000056354288605214635_);}
	.st149{fill:url(#SVGID_00000170263628962820131860000014237526121990740611_);}
	.st150{fill:url(#SVGID_00000172436190944797563850000002792185332889478291_);}
	.st151{fill:url(#SVGID_00000163050456292150419800000005669289815399423388_);}
	.st152{fill:url(#SVGID_00000168106731968189510750000009848183267885700273_);}
	.st153{fill:url(#SVGID_00000085239931707687419390000003804602967012395181_);}
	.st154{fill:url(#SVGID_00000103981022449425644290000008742770017437936052_);}
	.st155{fill:url(#SVGID_00000002351227896413883640000005345532899141557917_);}
	.st156{fill:url(#SVGID_00000146495993857079395640000014187244720881259661_);}
	.st157{fill:url(#SVGID_00000049923708874561943280000010544175897457535893_);}
	.st158{fill:url(#SVGID_00000134933005485193681900000013178006722584272263_);}
	.st159{fill:url(#SVGID_00000098217596733864652570000007212517752127430047_);}
	.st160{fill:url(#SVGID_00000026857027227537771900000015630002861363875236_);}
	.st161{fill:url(#SVGID_00000029044329002289727940000009953924281141005739_);}
	.st162{fill:url(#SVGID_00000014602984886962825860000008419014428588086657_);}
	.st163{fill:url(#SVGID_00000149374906125647793360000008070822480345876903_);}
	.st164{fill:url(#SVGID_00000021095707815085124510000004954365722683545269_);}
	.st165{fill:url(#SVGID_00000115507133372718412320000015812025080036441786_);}
	.st166{fill:url(#SVGID_00000073696657406314120610000017655744871393333380_);}
	.st167{fill:url(#SVGID_00000031195018286474753040000009606465278352321443_);}
	.st168{fill:url(#SVGID_00000043454063413427164260000009137489477564395190_);}
	.st169{fill:url(#SVGID_00000096747232936703625390000014466211211765530035_);}
	.st170{fill:url(#SVGID_00000067927607924031860790000001059876029034121377_);}
</style>
<g id="Layer_1">
	<g>
		<g>
			<g>
				<g>
					<path class="st3" d="M317.6,326.5c-3.9,0-7,3.1-7,7c0,3.9,3.1,7,7,7c3.9,0,7-3.1,7-7C324.6,329.7,321.5,326.5,317.6,326.5z"/>
				</g>
				<g>
					<path class="st3" d="M278.7,188.8h-2.5v-7h0c0-4.9-4.1-8.9-9-8.9c-5,0-9,4-9,8.9h0v7h-2.5c-0.5,0-1,0.5-1,1v14c0,0.5,0.5,1,1,1
						h23c0.6,0,1-0.5,1-1v-14C279.7,189.2,279.3,188.8,278.7,188.8z M261.7,181.8C261.7,181.8,261.7,181.8,261.7,181.8
						c0-3,2.5-5.4,5.5-5.4s5.5,2.4,5.5,5.5c0,0,0,0,0,0v7h-11V181.8z M269.1,199.3h-3.8l1.2-3.5c-0.8-0.3-1.3-1-1.3-1.9
						c0-1.1,0.9-2,2-2s2,0.9,2,2c0,0.9-0.6,1.6-1.3,1.9L269.1,199.3z"/>
				</g>
			</g>
			<g class="st4">
				<g>
					<path class="st3" d="M362.8,301.5c0.2,2.8,2.5,5.1,5.3,5.1c3,0,5.4-2.4,5.4-5.4s-2.4-5.4-5.4-5.4c-2.5,0-4.5,1.7-5.2,4h-68.8
						c-0.4-3.6-3.4-6.4-7.1-6.4c-4,0-7.2,3.2-7.2,7.2c0,4,3.2,7.2,7.2,7.2c3.7,0,6.7-2.8,7.1-6.4H362.8z"/>
					<path class="st3" d="M209.3,198.8c-3,0-5.4,2.4-5.4,5.4c0,3,2.4,5.4,5.4,5.4c3,0,5.4-2.4,5.4-5.4
						C214.7,201.2,212.3,198.8,209.3,198.8z"/>
				</g>
				<g>
					<path class="st3" d="M332.5,291.7H331v-3.9h0c0-2.8-2.3-5-5.1-5c-2.8,0-5,2.2-5.1,5h0v3.9h-1.4c-0.3,0-0.6,0.3-0.6,0.6v7.9
						c0,0.3,0.3,0.6,0.6,0.6h13c0.3,0,0.6-0.3,0.6-0.6v-7.9C333,291.9,332.8,291.7,332.5,291.7z M322.9,287.7
						C322.9,287.7,322.9,287.7,322.9,287.7c0-1.7,1.4-3.1,3.1-3.1c1.7,0,3.1,1.4,3.1,3.1c0,0,0,0,0,0v3.9h-6.2V287.7z M327,297.6
						h-2.1l0.7-2c-0.4-0.2-0.7-0.6-0.7-1.1c0-0.6,0.5-1.1,1.1-1.1c0.6,0,1.1,0.5,1.1,1.1c0,0.5-0.3,0.9-0.7,1.1L327,297.6z"/>
					<path class="st3" d="M347.4,174.5h-1.9v-5.4h0c0-3.8-3.1-6.8-6.9-6.8c-3.8,0-6.9,3.1-6.9,6.8h0v5.4h-1.9
						c-0.4,0-0.8,0.3-0.8,0.8V186c0,0.4,0.3,0.8,0.8,0.8h17.6c0.4,0,0.8-0.3,0.8-0.8v-10.7C348.2,174.8,347.8,174.5,347.4,174.5z
						 M334.4,169.1C334.4,169.1,334.4,169.1,334.4,169.1c0-2.3,1.9-4.2,4.2-4.2c2.3,0,4.2,1.9,4.2,4.2c0,0,0,0,0,0v5.4h-8.4V169.1z
						 M340,182.6h-2.9l0.9-2.7c-0.6-0.2-1-0.8-1-1.4c0-0.8,0.7-1.5,1.5-1.5c0.8,0,1.5,0.7,1.5,1.5c0,0.7-0.4,1.2-1,1.4L340,182.6z"
						/>
				</g>
			</g>
			<g class="st5">
				<path class="st3" d="M382,186.6h-78.7v-68.1c-0.6,0-1.1,0-1.7,0.1v68.1h-2v1.7h2v62.6h-45.3v75.7c-2.6,0.4-4.5,2.6-4.5,5.3
					c0,3,2.4,5.4,5.4,5.4c3,0,5.4-2.4,5.4-5.4c0-2.7-2-4.9-4.5-5.3v-74h45.3v-64.3h80.4v-42.6c-0.6-0.4-1.1-0.9-1.7-1.3V186.6z"/>
			</g>
			<g>
				<path class="st6" d="M341.3,312.8v-68h58.2v-66.5h12.9c-0.5-0.7-0.9-1.5-1.4-2.2h-13.7v66.5h-56V123.9h-2.2v118.7h-44.5v-39.9
					h-69.1c-0.1-19.7-0.1-39.1-0.1-54.5c-0.7,0.6-1.5,1.3-2.2,1.9c0,15.2,0,33.9,0.1,52.6h-35c-0.3,0.7-0.5,1.5-0.7,2.2h35.8
					c0.1,29,0.4,57.6,0.5,73.2h-37.2c0.2,0.7,0.4,1.5,0.7,2.2H226l0-1.1c-0.2-17.4-0.4-45.9-0.5-74.3h66.9v39.9h46.8v65.8h-85.5
					v45.3c0.7,0.3,1.5,0.7,2.2,1v-44.1H341.3z"/>
				<path class="st6" d="M384.7,310.6c-0.6-4.7-4.5-8.3-9.3-8.3c-5.2,0-9.4,4.2-9.4,9.4c0,5.2,4.2,9.4,9.4,9.4
					c4.8,0,8.8-3.6,9.3-8.3h24.5c0.5-0.7,1-1.5,1.5-2.2H384.7z"/>
			</g>
			<g>
				<path class="st3" d="M317.6,340.6h-1.1v26.5c0.7-0.1,1.5-0.1,2.2-0.2v-26.3H317.6z"/>
				<path class="st3" d="M210.1,267v-57.5h-0.9h-0.8v55.8h-22.3v11.2c0.5,1.9,1.1,3.7,1.7,5.6V267H210.1z"/>
				<path class="st3" d="M358.8,324.2h37.4v-81h-52.3c-0.4-2.6-2.6-4.5-5.3-4.5c-3,0-5.4,2.4-5.4,5.4c0,3,2.4,5.4,5.4,5.4
					c2.7,0,4.9-2,5.3-4.5h50.6v77.6h-37.4v34.1c0.6-0.3,1.1-0.5,1.7-0.8V324.2z"/>
			</g>
			<g>
				<path class="st3" d="M612.9,291.8c-0.5,7.2,5.2,13.2,12.3,13.2h61.3c6.6,0,12.3-5,12.7-11.5c0.5-7.2-5.2-13.2-12.3-13.2h-61.3
					C619.1,280.3,613.3,285.3,612.9,291.8z"/>
				<path class="st3" d="M775.5,243.8c0.5-7.2-5.2-13.2-12.3-13.2h-85c-6.6,0-12.3,5-12.7,11.5c-0.5,7.2,5.2,13.2,12.3,13.2h85
					C769.4,255.3,775.1,250.4,775.5,243.8z"/>
				<path class="st3" d="M728.7,280.3c-6.6,0-12.3,5-12.7,11.5c-0.5,7.2,5.2,13.2,12.3,13.2h28.1c6.6,0,12.3-5,12.7-11.5
					c0.5-7.2-5.2-13.2-12.3-13.2H728.7z"/>
				<path class="st3" d="M656.1,180.9H628c-6.6,0-12.3,5-12.7,11.5c-0.5,7.2,5.2,13.2,12.3,13.2h28.1c6.6,0,12.3-5,12.7-11.5
					C668.9,186.9,663.2,180.9,656.1,180.9z"/>
				<path class="st3" d="M450.8,194.1c0.4-5.7-3.2-10.7-8.2-12.5c2.4,6,4.5,12.1,6.1,18.4C449.9,198.3,450.7,196.3,450.8,194.1z"/>
				<path class="st3" d="M603.9,528.7c-6.8,0-12.3,5.5-12.3,12.4c0,6.8,5.5,12.4,12.3,12.4c6.8,0,12.4-5.5,12.4-12.4
					C616.3,534.3,610.7,528.7,603.9,528.7z"/>
				<path class="st3" d="M697,379.7h-20.6c-6.6,0-12.3,5-12.7,11.5c-0.5,7.2,5.2,13.2,12.3,13.2h56.8c6.6,0,12.3-5,12.7-11.5
					c0.5-7.2-5.2-13.2-12.3-13.2h3.3c-6.8,0-12.4-5.5-12.4-12.4v-0.5c0-6.7,5.4-12.1,12.1-12.1c0.1,0,10.4,0,10.6,0
					c6.4-0.2,11.9-5.1,12.3-11.5c0.5-7.2-5.2-13.2-12.3-13.2h-88.6c-6.6,0-12.3,5-12.7,11.5c-0.5,7.2,5.2,13.2,12.3,13.2H697
					c6.8,0,12.3,5.5,12.3,12.4v0.3C709.4,374.2,703.8,379.7,697,379.7z"/>
				<path class="st3" d="M696.5,429.4c-6.8,0-12.4,5.5-12.4,12.3c0,6.8,5.5,12.4,12.4,12.4h17.4c6.8,0,12.3-5.5,12.3-12.4
					c0-6.8-5.5-12.3-12.3-12.3H696.5z"/>
				<path class="st3" d="M528.6,131.2c-6.8,0-12.4,5.5-12.4,12.4c0,6.8,5.5,12.3,12.4,12.3h9.3c6.8,0,12.4-5.5,12.4-12.3
					c0-6.8-5.5-12.4-12.4-12.4H528.6z"/>
				<path class="st3" d="M551.2,321.6c2.4-2.4,2.4-6.2,0-8.6c-2.4-2.4-6.2-2.4-8.6,0c-2.4,2.4-2.4,6.2,0,8.6
					C545,324,548.8,324,551.2,321.6z"/>
				<path class="st3" d="M542.8,421.4c2.5-2.5,2.5-6.6,0-9.1c-2.5-2.5-6.6-2.5-9.1,0c-2.5,2.5-2.5,6.6,0,9.1
					C536.2,423.9,540.3,423.9,542.8,421.4z"/>
				<path class="st3" d="M513,374.4c3.9-3.9,3.9-10.2,0-14.1c-3.9-3.9-10.2-3.9-14.1,0c-3.9,3.9-3.9,10.2,0,14.1
					C502.9,378.3,509.2,378.3,513,374.4z"/>
				<path class="st3" d="M436.3,441.7c0-6.8-5.5-12.3-12.4-12.3h-34.4c0,0,0,0,0,0h-42.9c-6.5,0-12.3,4.6-13,11.1
					c-0.7,7.4,5,13.6,12.3,13.6h78.1C430.7,454.1,436.3,448.5,436.3,441.7z"/>
				<path class="st3" d="M533.9,652.8c6.8,0,12.4-5.5,12.4-12.4c0-6.8-5.5-12.4-12.4-12.4h-1.2c-6.8,0-12.4,5.5-12.4,12.4
					c0,6.8,5.5,12.4,12.4,12.4H533.9z"/>
				<path class="st3" d="M452.6,255.3h20h163.9c6.5,0,12.3-4.6,13-11.1c0.7-7.4-5-13.6-12.3-13.6H580c-6.8,0-12.4-5.5-12.4-12.4V218
					c0-6.8,5.5-12.4,12.3-12.4h6.9c6.5,0,12.3-4.6,13-11.1c0.7-7.4-5-13.6-12.3-13.6h-108c-6.5,0-12.3,4.6-13,11.1
					c-0.7,7.4,5,13.6,12.3,13.6h61.6c6.8,0,12.4,5.5,12.4,12.4v0.3c0,6.8-5.5,12.4-12.4,12.4h-87.1
					C453.9,239,453.6,247.2,452.6,255.3z"/>
				<path class="st3" d="M649.6,491.4c0,6.8,5.5,12.4,12.4,12.4h31.2c6.8,0,12.4-5.5,12.4-12.4c0-6.8-5.5-12.3-12.4-12.3H662
					C655.2,479.1,649.6,484.6,649.6,491.4z"/>
				<path class="st3" d="M628,541.1c0,6.8,5.5,12.4,12.4,12.4h21c6.8,0,12.4-5.5,12.4-12.4c0-6.8-5.5-12.3-12.4-12.3h-21
					C633.5,528.7,628,534.3,628,541.1z"/>
				<path class="st3" d="M617.7,578.4H608c-6.8,0-12.4,5.5-12.4,12.4c0,6.8,5.5,12.4,12.4,12.4h9.7c6.8,0,12.4-5.5,12.4-12.4
					C630.1,584,624.5,578.4,617.7,578.4z"/>
				<path class="st3" d="M448.6,305h22.3c0,0,0,0,0,0h48c5.2,0,10.4-1.6,14.7-4.5c1.9-1.3,4-2.5,6.2-3.2c2.6-0.9,5.3-1.3,8-1.2
					c5.1,0.2,10.2,2.3,14.1,6.2c7.6,7.6,8.2,19.4,2.1,27.7c-0.6,0.9-1.3,1.7-2.1,2.5c-5.7,5.7-13.9,7.7-21.1,5.4
					c-3-1-5.6-2.3-7.6-3.7c-4.5-3-9.7-4.5-15.1-4.5h-48.9c0,0.1,0,0.2,0,0.3H439c-0.4-0.5-0.8-1.1-1.3-1.6c-3.1-3.1-7-4.9-11.2-5.4
					c-6,8.5-12.9,16.3-20.6,23.4c0.8,3.2,2.4,6.3,5,8.9c3.6,3.6,8.3,5.6,13.4,5.6c5.1,0,9.8-2,13.4-5.6c0.2-0.2,0.3-0.3,0.4-0.5
					h32.4c5.8,0,11.4-2.3,15.5-6.4l0.5-0.5h0c10.8-10.8,28.3-10.8,39.1,0c2.1,2.1,3.8,4.4,5,6.9c5.3,10.4,3.7,23.5-5,32.2
					c-10.8,10.8-28.3,10.8-39.1,0h0c-0.2-0.2-0.3-0.3-0.5-0.5c-4.2-4.4-10-7-16.2-7h-4.9c0,0.1,0,0.2,0,0.3h-91
					c-0.8-1.2-1.7-2.3-2.8-3.4c-1.5-1.5-3.2-2.8-5-3.8c-10.1,4.5-20.8,7.9-32,10c-4.1,8.6-2.7,19.2,4.4,26.3
					c4.4,4.4,10.1,6.7,16.3,6.7c6.2,0,11.9-2.4,16.3-6.7c1.4-1.4,2.4-2.9,3.4-4.5h15h73.4c0,0,0,0.1,0,0.1H514
					c5.1,0,10.2-1.4,14.6-4c2.6-1.5,6.3-2.8,11.1-2.5c5.6,0.4,11.1,3.4,14.6,8.8c3.9,6.1,3.8,14.2-0.1,20.2
					c-3.7,5.6-9.5,8.6-15.4,8.7c-5,0.1-8.4-1-10.6-2.4c-4.2-2.5-8.8-4.1-13.7-4.1l-48.2,0c0,0,0,0.1,0.1,0.1h-2.5
					c-6.5,0-12.3,4.6-13,11.1c-0.7,7.4,5,13.6,12.3,13.6h15.7h8.2c6.5,0,12.3,4.6,13,11.1c0.7,6.5-3.7,12.1-9.7,13.4h-63.7
					c-0.8-1.2-1.7-2.3-2.8-3.4c-4.3-4.3-10.1-6.7-16.3-6.7s-11.9,2.4-16.3,6.7c-9,9-9,23.6,0,32.6c4.4,4.4,10.1,6.7,16.3,6.7
					s11.9-2.4,16.3-6.7c1.2-1.2,2.2-2.5,3.1-4c0.2,0,0.5,0,0.7,0h32c6.8,0,12.4,5.5,12.4,12.4v0.3c0,6.8-5.5,12.4-12.3,12.4h-58.5
					c-6.5,0-12.4,4.6-13,11.1c-0.7,7.4,5,13.6,12.3,13.6h87h25.3c6.5,0,12.3,4.6,13,11.1c0.7,7.4-5,13.6-12.3,13.6h-64.2v0.3l-3.5,0
					c-6.5,0-12.4,4.6-13,11.1c-0.7,7.4,5,13.6,12.3,13.6h123.4c6.8,0,12.3-5.5,12.3-12.4c0-0.1,0-0.3,0-0.4c0,0,0-0.1,0-0.1v-76.8
					c0-7.5,6-13.5,13.5-13.5H622c9.3,0,16.8-7.5,16.8-16.8v-37.7c0-3.7,3-6.7,6.7-6.7h15.3c2,0,3.9-0.6,5.3-2c2.5-2.3,3-5.9,1.6-8.8
					L655,402.6c-7-14.1-12.3-28.9-17-43.9c-14.9-48.1-61.3-81.4-113.3-78.4h-52.1h-24c-0.4,0-0.9,0-1.3,0.1
					c-2.1,7-4.8,13.9-7.9,20.5C441.6,303.4,444.9,305,448.6,305z M430.3,348.3c-3.3,3.3-8.7,3.3-12,0c-3.3-3.3-3.3-8.7,0-12
					c3.3-3.3,8.7-3.3,12,0C433.6,339.7,433.6,345,430.3,348.3z M362.6,400.4c-4.3,4.3-11.3,4.3-15.6,0c-4.3-4.3-4.3-11.3,0-15.6
					c4.3-4.3,11.3-4.3,15.6,0C366.9,389.1,366.9,396.1,362.6,400.4z M415.1,499.2c-4.3,4.3-11.3,4.3-15.6,0
					c-4.3-4.3-4.3-11.3,0-15.6c4.3-4.3,11.3-4.3,15.6,0C419.4,487.9,419.4,494.9,415.1,499.2z"/>
			</g>
			<g>
				<g>
					<path class="st3" d="M531.4,60.2l-143.6,54.6c-30.6-20.4-67.1-28.5-103.7-23c-39,5.9-73.3,26.6-96.8,58.3
						c-23.4,31.7-33.1,70.6-27.2,109.6c4.2,27.7,15.9,53.1,33.7,73.9L69.7,465.9c-6.6,7-6.2,18,0.8,24.6c3.4,3.1,7.6,4.7,11.9,4.7
						c4.6,0,9.3-1.8,12.7-5.5l124.3-132.6c6.6,4.8,13.4,9,20.6,12.5c5.1,20,11.2,40.8,18.2,62c25.2,75.2,58.3,137.9,98.5,187.1
						c25.4,6.1,49,13.1,70.8,21c-76-65.8-120.1-167-145.5-256.4c7.8,1.3,15.8,1.9,23.8,1.9c7.4,0,14.8-0.6,22.3-1.7c2-0.3,4-0.7,6-1
						c11.2-2.2,21.9-5.6,32-10c14.8-6.6,28.2-15.5,39.8-26.2c7.7-7.1,14.6-14.9,20.6-23.4c4.9-7,9.3-14.4,13-22.1
						c3.1-6.6,5.8-13.4,7.9-20.5c2.5-8.1,4.2-16.5,5.3-25.1c1-8.1,1.3-16.3,0.9-24.7c-0.2-4.9-0.7-9.9-1.5-14.9
						c-0.8-5.3-1.9-10.6-3.2-15.7c-1.6-6.3-3.7-12.4-6.1-18.4c-5.9-14.4-13.9-27.7-24-39.5l112.8-42.9l282.1,107.2
						c-6.3,60.7-40.7,312.1-183,435.2c22-8.2,45.8-15.5,71.5-21.8c40.2-49.3,69.2-114,99.6-188c38.2-92.8,48.2-222.2,49.6-236.2
						l0.9-13.5L531.4,60.2z M418.8,236.4c0,4.1-0.1,8.2-0.5,12.2c-1.1,11-3.8,21.7-7.9,31.7c-3.6,8.8-8.3,17.1-13.9,24.6
						c-9.7,13-22.2,24-36.8,31.9c-11.2,6-23.5,10.3-36.8,12.3c-5.5,0.8-11,1.2-16.5,1.3c-11.7,0.1-23.3-1.7-34.4-5.2
						c-11.7-3.7-22.8-9.3-32.9-16.8c-3.7-2.7-7.2-5.7-10.5-8.8c-18.3-17.2-30.2-39.9-34-65.2c-4.5-29.8,2.9-59.5,20.8-83.8
						c17.9-24.2,44.2-40.1,73.9-44.5c5.7-0.9,11.4-1.3,17-1.3c12.9,0,25.6,2.2,37.7,6.6c10.3,3.7,20,8.9,29.1,15.5
						c3.6,2.7,7.1,5.6,10.4,8.6c8.1,7.6,15,16.3,20.4,25.8c4.4,7.6,7.8,15.7,10.4,24.3c1.5,5,2.6,10.1,3.4,15.3
						C418.4,226.1,418.8,231.3,418.8,236.4z"/>
					<path class="st3" d="M578.4,733.7c33.3-22.2,86.4-46.5,170.2-63.3v-32.7c-31,6-58.3,13-82.3,20.7
						c-67.9,21.7-109.6,48.3-134.8,71.2c-25.8-23.4-68.8-50.7-139.5-72.6c-22.9-7.1-48.6-13.6-77.6-19.2l-0.3,1.7v30.9
						c84.1,16.9,137.4,41.2,170.7,63.5c-28.4-9.1-66.7-16-117.6-16c-27.1,0-57.7,2-92.3,6.6v31.9l0,0.4c35.1-4.9,65.7-6.9,92.3-6.9
						c63.8,0,104.9,11.6,129.9,23.1c3.5,1.6,6.6,3.2,9.5,4.7l14.5,10.6l9.9,7.2c0.1,0.2,0.2,0.3,0.3,0.3l0.1-0.1l0.4,0.3
						c0-0.1,0.5-0.6,1.3-1.5l9.1-6.5l14.1-10.2c2.9-1.6,6.2-3.2,9.7-4.9c25.1-11.6,66.2-23.1,130-23.1c26.5,0,57,2,91.9,6.8v-32.3
						c-34.4-4.6-65-6.5-91.9-6.5C645.1,717.6,606.8,724.5,578.4,733.7z"/>
				</g>
			</g>
		</g>
		<g>
			<g>
				<path class="st3" d="M1260.7,566.5h-70l-126.1-215.2v215.2h-65.4V239.6h70L1195.3,455V239.6h65.4V566.5z"/>
				<path class="st3" d="M1581.4,533.4c-15.2,12.9-32.1,22.8-50.8,29.8s-38.1,10.4-58.4,10.4c-15.5,0-30.4-2-44.8-6
					c-14.4-4-27.8-9.7-40.2-17.1c-12.5-7.4-23.9-16.2-34.2-26.4c-10.3-10.3-19.1-21.7-26.4-34.2c-7.3-12.5-13-26-17-40.5
					c-4-14.4-6-29.4-6-44.9s2-30.4,6-44.7c4-14.3,9.7-27.7,17-40.2c7.3-12.5,16.1-23.9,26.4-34.2c10.3-10.3,21.7-19,34.2-26.3
					c12.5-7.3,25.9-13,40.2-17c14.4-4,29.3-6,44.8-6c20.2,0,39.7,3.5,58.4,10.4c18.7,6.9,35.6,16.8,50.8,29.7l-34.2,57
					c-9.9-10-21.3-17.9-34.2-23.6c-12.9-5.7-26.5-8.5-40.8-8.5c-14.3,0-27.7,2.7-40.2,8.2c-12.5,5.5-23.5,12.9-32.9,22.2
					c-9.4,9.3-16.9,20.3-22.3,32.8c-5.5,12.5-8.2,26-8.2,40.2c0,14.4,2.7,28,8.2,40.6c5.5,12.6,12.9,23.6,22.3,33.1
					c9.4,9.4,20.4,16.9,32.9,22.3c12.5,5.5,25.9,8.2,40.2,8.2c8.2,0,16.2-1,23.9-3c7.8-2,15.1-4.7,22.1-8.2v-93h63.1V533.4z"/>
				<path class="st3" d="M1612.7,337.6c0-13.5,2.6-26.2,7.8-38.1c5.2-11.9,12.2-22.2,21.1-31.1c8.9-8.9,19.3-15.9,31.1-21.1
					c11.9-5.2,24.5-7.8,38.1-7.8h150V305h-150c-4.6,0-8.8,0.8-12.8,2.5c-4,1.7-7.4,4-10.4,7c-3,3-5.3,6.4-7,10.4
					c-1.7,4-2.5,8.2-2.5,12.8s0.8,8.9,2.5,12.9c1.7,4,4,7.5,7,10.5c3,3,6.4,5.3,10.4,7c4,1.7,8.2,2.5,12.8,2.5h65.4
					c13.5,0,26.3,2.5,38.2,7.6c11.9,5.1,22.3,12.1,31.2,21c8.9,8.9,15.9,19.3,21,31.2c5.1,11.9,7.6,24.7,7.6,38.2
					c0,13.5-2.5,26.2-7.6,38.1c-5.1,11.9-12.1,22.2-21,31.1c-8.9,8.9-19.3,15.9-31.2,21.1c-11.9,5.2-24.7,7.8-38.2,7.8h-145.2v-65.4
					h145.2c4.6,0,8.8-0.8,12.8-2.5c4-1.7,7.4-4,10.4-7c3-3,5.3-6.4,7-10.4c1.7-4,2.5-8.2,2.5-12.8s-0.8-8.8-2.5-12.8
					c-1.7-4-4-7.4-7-10.4c-3-3-6.4-5.3-10.4-7c-4-1.7-8.2-2.5-12.8-2.5h-65.4c-13.5,0-26.2-2.6-38.1-7.8
					c-11.9-5.2-22.2-12.2-31.1-21.1c-8.9-8.9-15.9-19.3-21.1-31.2C1615.3,363.9,1612.7,351.1,1612.7,337.6z"/>
				<path class="st3" d="M2237.3,404.4c0,15.5-2,30.4-6,44.8c-4,14.4-9.7,27.8-17,40.3s-16.1,24-26.4,34.3
					c-10.3,10.3-21.7,19.2-34.2,26.6c-12.5,7.4-25.9,13.1-40.4,17.1c-14.4,4-29.4,6-44.9,6s-30.4-2-44.8-6
					c-14.4-4-27.8-9.7-40.4-17.1c-12.5-7.4-24-16.2-34.3-26.6c-10.3-10.3-19.2-21.8-26.6-34.3c-7.4-12.5-13.1-26-17.1-40.3
					c-4-14.4-6-29.3-6-44.8s2-30.5,6-44.9c4-14.4,9.7-27.9,17.1-40.3c7.4-12.5,16.2-23.9,26.6-34.2c10.3-10.3,21.8-19.1,34.3-26.4
					c12.5-7.3,26-13,40.4-17c14.4-4,29.3-6,44.8-6s30.5,2,44.9,6c14.4,4,27.9,9.7,40.4,17c12.5,7.3,23.9,16.1,34.2,26.4
					c10.3,10.3,19.1,21.7,26.4,34.2c7.3,12.5,13,25.9,17,40.3C2235.3,373.9,2237.3,388.9,2237.3,404.4z M2172.3,404.4
					c0-14.3-2.7-27.8-8.2-40.5c-5.5-12.7-12.9-23.7-22.2-33.1s-20.4-16.8-33.1-22.2c-12.7-5.5-26.2-8.2-40.5-8.2
					c-14.4,0-28,2.7-40.6,8.2c-12.6,5.5-23.6,12.9-33.1,22.2c-9.4,9.3-16.9,20.4-22.3,33.1c-5.5,12.7-8.2,26.2-8.2,40.5
					c0,14.3,2.7,27.7,8.2,40.2c5.5,12.5,12.9,23.5,22.3,32.9c9.4,9.4,20.4,16.9,33.1,22.3c12.6,5.5,26.1,8.2,40.6,8.2
					c14.3,0,27.8-2.7,40.5-8.2c12.7-5.5,23.7-12.9,33.1-22.3c9.3-9.4,16.8-20.4,22.2-32.9C2169.6,432.1,2172.3,418.7,2172.3,404.4z"
					/>
				<path class="st3" d="M2407.1,566.5h-65.2V305h-98.3v-65.4h261.5V305h-98V566.5z"/>
				<path class="st3" d="M2605.2,566.5h-65.4V239.6h65.4V566.5z"/>
			</g>
		</g>
	</g>
</g>
<g id="Layer_2">
</g>
</svg>
