<?xml version="1.0" encoding="utf-8"?>
<!-- Generator: Adobe Illustrator 28.1.0, SVG Export Plug-In . SVG Version: 6.00 Build 0)  -->
<svg version="1.1" xmlns="http://www.w3.org/2000/svg" xmlns:xlink="http://www.w3.org/1999/xlink" x="0px" y="0px"
	 viewBox="0 0 1509.5 1236.8" style="enable-background:new 0 0 1509.5 1236.8;" xml:space="preserve">
<style type="text/css">
	.st0{display:none;}
	.st1{display:inline;}
	.st2{fill:none;stroke:#000000;stroke-width:0.9157;stroke-miterlimit:10;}
	.st3{fill:#221F20;}
	.st4{opacity:0.6;}
	.st5{opacity:0.3;}
	.st6{opacity:0.3;fill:#221F20;}
	.st7{fill:#FFFFFF;}
	.st8{opacity:0.3;fill:#FFFFFF;}
	.st9{fill:url(#SVGID_1_);}
	.st10{fill:none;}
	.st11{fill:url(#SVGID_00000141455698720283763040000009257686989877395364_);}
	.st12{fill:url(#SVGID_00000100351427914668669910000015781999846502486145_);}
	.st13{fill:url(#SVGID_00000008118575856001852090000007733686139989611165_);}
	.st14{fill:url(#SVGID_00000117673860541939545280000003740556475154962859_);}
	.st15{fill:url(#SVGID_00000002375869741784135610000006692676502508094092_);}
	.st16{fill:url(#SVGID_00000090260586632008336420000006339689954421934476_);}
	.st17{fill:url(#SVGID_00000036937198812087311190000012338652297517272980_);}
	.st18{fill:url(#SVGID_00000069362934572099319220000002502634732725529020_);}
	.st19{fill:url(#SVGID_00000042017020860625727220000011280369808588726189_);}
	.st20{fill:url(#SVGID_00000024687265703174209440000011232295406196586881_);}
	.st21{fill:url(#SVGID_00000040558815767426251270000014122568740586355631_);}
	.st22{fill:url(#SVGID_00000119801462782160015150000003586002746949906819_);}
	.st23{fill:url(#SVGID_00000119830235420168649390000007938213502918204078_);}
	.st24{fill:url(#SVGID_00000075139170718453057080000016490642357639195322_);}
	.st25{fill:url(#SVGID_00000082358441200635424300000002087786715766304928_);}
	.st26{fill:url(#SVGID_00000107549093750586844000000010194476663649365677_);}
	.st27{fill:url(#SVGID_00000164495613505519468970000008463568127287876758_);}
	.st28{fill:url(#SVGID_00000139276211616077037840000014348776853227475376_);}
	.st29{fill:url(#SVGID_00000057112282739884643460000004949424452244418177_);}
	.st30{fill:url(#SVGID_00000024001312582550904310000014702794519398906294_);}
	.st31{fill:url(#SVGID_00000137843715260390532950000010062438522548473474_);}
	.st32{fill:url(#SVGID_00000096055423222984132880000015776801566787233934_);}
	.st33{fill:url(#SVGID_00000047781788893695133000000009398376873212241024_);}
	.st34{fill:url(#SVGID_00000173161622137755785260000002250024691448837537_);}
	.st35{fill:url(#SVGID_00000170273378721162957460000004223192952329986454_);}
	.st36{fill:url(#SVGID_00000055673445106258248390000000259664786736378771_);}
	.st37{fill:url(#SVGID_00000095329469969983808510000008263621504765541562_);}
	.st38{fill:url(#SVGID_00000007413776010070932210000009674260438178889097_);}
	.st39{fill:url(#SVGID_00000057847530445066871680000007024548352751250584_);}
	.st40{fill:url(#SVGID_00000156561220923083972450000003077773232815886523_);}
	.st41{fill:url(#SVGID_00000000202850959079762140000008787427154393397385_);}
	.st42{fill:url(#SVGID_00000065066262972410192320000009575359375456929438_);}
	.st43{fill:url(#SVGID_00000134948912899304742200000000622872386062154687_);}
	.st44{fill:url(#SVGID_00000098935777375052289130000014704667361408152455_);}
	.st45{fill:url(#SVGID_00000033353791130783751220000009877273674031149457_);}
	.st46{fill:url(#SVGID_00000113348163375277345510000017568548787425546412_);}
	.st47{fill:url(#SVGID_00000021824598201527229410000009808725690062356905_);}
	.st48{fill:url(#SVGID_00000036225808613018356900000002148384180843596199_);}
	.st49{fill:url(#SVGID_00000083784218128567709540000013390544195672834733_);}
	.st50{fill:#172B43;}
	.st51{fill:url(#SVGID_00000034775367658523524220000003268039092659198625_);}
	.st52{fill:url(#SVGID_00000139257731899963661690000009493199039768796593_);}
	.st53{fill:url(#SVGID_00000147184824767716629470000009721031788824679609_);}
	.st54{fill:url(#SVGID_00000062880885108539723820000011273445767816134330_);}
	.st55{fill:url(#SVGID_00000093880839834360574160000016371538410027662237_);}
	.st56{fill:url(#SVGID_00000180351817309337364660000007613890896933962928_);}
	.st57{fill:url(#SVGID_00000030451563021719827970000003627502000298907324_);}
	.st58{fill:url(#SVGID_00000044887053482152937830000008006532047267305627_);}
	.st59{fill:url(#SVGID_00000052792231428066055100000008212636090271760315_);}
	.st60{fill:url(#SVGID_00000021802313828730280140000016749346534687889024_);}
	.st61{fill:url(#SVGID_00000103976288610155209500000011098575834259607972_);}
	.st62{fill:url(#SVGID_00000040562513557257971320000010476953148308372627_);}
	.st63{fill:url(#SVGID_00000044893581343686733940000012204462643766887850_);}
	.st64{fill:url(#SVGID_00000133487565146245962330000010165044196479579271_);}
	.st65{fill:url(#SVGID_00000096744435103622759990000000850565111289745080_);}
	.st66{fill:url(#SVGID_00000112601561181907131320000007269754346109145521_);}
	.st67{fill:url(#SVGID_00000061474014852977408620000007551275675011738290_);}
	.st68{fill:url(#SVGID_00000034079593374525150380000015541707264893776048_);}
	.st69{fill:url(#SVGID_00000005229494081852599330000004465383929424022924_);}
	.st70{fill:url(#SVGID_00000105407476503651654120000009915553376795055492_);}
	.st71{fill:url(#SVGID_00000127022852020827846490000011410280949145618853_);}
	.st72{fill:url(#SVGID_00000125577870645114642750000003874949925015359639_);}
	.st73{fill:url(#SVGID_00000132810915712320944830000006856209404826281398_);}
	.st74{fill:url(#SVGID_00000068644278916518065030000006863090575328654515_);}
	.st75{fill:url(#SVGID_00000063610547056459274610000013415746009338295467_);}
	.st76{fill:url(#SVGID_00000175283118223779986590000017393298966594719931_);}
	.st77{fill:url(#SVGID_00000131331166473956465350000012840965560826481558_);}
	.st78{fill:url(#SVGID_00000074420761136303842350000012536059937721356726_);}
	.st79{fill:url(#SVGID_00000143588720400115294570000011233332019404445598_);}
	.st80{fill:url(#SVGID_00000163039380018787845980000008067390051354080148_);}
	.st81{fill:url(#SVGID_00000092449664359701447310000014892370720698173837_);}
	.st82{fill:url(#SVGID_00000006665715486097815470000006090703864898272918_);}
	.st83{fill:url(#SVGID_00000152953608483365798580000007824661758240530841_);}
	.st84{fill:url(#SVGID_00000059278801922284635480000006690167728878572473_);}
	.st85{fill:url(#SVGID_00000106864446442326368030000013491967152018572440_);}
	.st86{fill:url(#SVGID_00000047778926258088795870000002201758433331149728_);}
	.st87{fill:url(#SVGID_00000062905258989213597090000012403209882430101405_);}
	.st88{fill:url(#SVGID_00000089535523294699044070000006561524080965756550_);}
	.st89{fill:url(#SVGID_00000177481627250573759630000002784296188343792008_);}
	.st90{fill:url(#SVGID_00000069374414809891956320000013252513963963976108_);}
	.st91{fill:url(#SVGID_00000114069604288731043250000001307967003064138124_);}
	.st92{fill:url(#SVGID_00000064315584375327406110000016754443856526367396_);}
	.st93{fill:url(#SVGID_00000097484623204174724400000001518473685034393742_);}
	.st94{fill:url(#SVGID_00000079472841635393204770000005752579634922252715_);}
	.st95{fill:url(#SVGID_00000159435750671012815600000011131364582011588753_);}
	.st96{fill:url(#SVGID_00000155848918715293436820000000767272703287441554_);}
	.st97{fill:url(#SVGID_00000080169952432245331240000013464527724509892286_);}
	.st98{fill:url(#SVGID_00000132801855735192746830000016226131570018146464_);}
	.st99{fill:url(#SVGID_00000017499897300406665710000006612281520606638253_);}
	.st100{fill:url(#SVGID_00000098911312099375366800000014244751873208421280_);}
	.st101{fill:url(#SVGID_00000155138381771192692800000012982659878571654274_);}
	.st102{fill:url(#SVGID_00000078728504185659566660000007184208303458143165_);}
	.st103{fill:url(#SVGID_00000178168936523168398560000000808939978869417639_);}
	.st104{fill:url(#SVGID_00000098215909352346521850000015165861539665865618_);}
	.st105{fill:url(#SVGID_00000008125801902837305310000011318138049025402015_);}
	.st106{fill:url(#SVGID_00000088815104875896765770000006945929641819897528_);}
	.st107{fill:url(#SVGID_00000119097357353028317120000007214526935612285358_);}
	.st108{fill:url(#SVGID_00000125583267253321314330000009622625436751771557_);}
	.st109{fill:url(#SVGID_00000025417466018441578380000014877664266734393749_);}
	.st110{fill:url(#SVGID_00000133487535858192219090000017449312810281929106_);}
	.st111{fill:url(#SVGID_00000114790389527623245020000002168202216036753293_);}
	.st112{fill:url(#SVGID_00000146480023280025236460000015379025721251362213_);}
	.st113{fill:url(#SVGID_00000065788747240956861590000008466640316003227806_);}
	.st114{fill:url(#SVGID_00000144307535236502008820000000578187897135966120_);}
	.st115{fill:url(#SVGID_00000099630547385317724300000009695202874874722743_);}
	.st116{fill:url(#SVGID_00000003075855491763576970000001132426591579220134_);}
	.st117{fill:url(#SVGID_00000054957922243743824640000016605180176894080437_);}
	.st118{fill:url(#SVGID_00000161605792178236653610000015057116127270189201_);}
	.st119{fill:url(#SVGID_00000023990748667200224850000018233641961546066578_);}
	.st120{fill:url(#SVGID_00000144305588000287655500000013051534593718852736_);}
	.st121{fill:url(#SVGID_00000056408948510153224720000015714323039141500822_);}
	.st122{fill:url(#SVGID_00000162346747761363358070000012294360165576477081_);}
	.st123{fill:url(#SVGID_00000084500067011359630780000006019029189874519195_);}
	.st124{fill:url(#SVGID_00000118385381664728526030000006102098896197304759_);}
	.st125{fill:url(#SVGID_00000129922968989349246440000010870944778911635097_);}
	.st126{fill:url(#SVGID_00000145056139205645869140000013013256959884809369_);}
	.st127{fill:url(#SVGID_00000170269896769581210480000000041839712692275346_);}
	.st128{fill:url(#SVGID_00000034068677363887086400000015476152094661034632_);}
	.st129{fill:url(#SVGID_00000072276017725477692260000016155320609031732365_);}
	.st130{fill:url(#SVGID_00000129176198575977399100000013019743830790796190_);}
	.st131{fill:url(#SVGID_00000083082445705644382960000007480244667508894852_);}
	.st132{fill:url(#SVGID_00000036943967479109887520000010818989648268916146_);}
	.st133{fill:url(#SVGID_00000153683604772260389800000001362095911351580594_);}
	.st134{fill:url(#SVGID_00000085936702297471357880000017244735155118872717_);}
	.st135{fill:url(#SVGID_00000070105721999986914190000008863631282614640527_);}
	.st136{fill:url(#SVGID_00000124152546695205988340000011843416682571827093_);}
	.st137{fill:url(#SVGID_00000138535450965861233590000002594009893830081191_);}
	.st138{fill:url(#SVGID_00000170263996355556206420000002753033838583135125_);}
	.st139{fill:url(#SVGID_00000165221656413325368170000004292008819275785121_);}
	.st140{fill:url(#SVGID_00000096018041691383080800000009473904687001439637_);}
	.st141{fill:url(#SVGID_00000117662944172093390920000009976059775194804619_);}
	.st142{fill:url(#SVGID_00000121281236820820764670000016523678649182863807_);}
	.st143{fill:url(#SVGID_00000132071254274773918170000006623475923034439585_);}
	.st144{fill:url(#SVGID_00000034794950504680485250000007345637413385103488_);}
	.st145{fill:url(#SVGID_00000098929146864161317890000012098406326696236712_);}
	.st146{fill:url(#SVGID_00000159469813772861965820000008289405338586202756_);}
	.st147{fill:url(#SVGID_00000151513543770240391750000009473495735325092493_);}
	.st148{fill:url(#SVGID_00000060720865573959167830000017903894259395795627_);}
	.st149{fill:url(#SVGID_00000045585429974143502630000012215091003694850202_);}
	.st150{fill:url(#SVGID_00000030465114642207873230000013039097516229577395_);}
	.st151{fill:url(#SVGID_00000011728984997158190350000009844166361611582380_);}
	.st152{fill:url(#SVGID_00000074437125668484035280000017759795708146659774_);}
	.st153{fill:url(#SVGID_00000164490534843014721990000016627817631032626337_);}
	.st154{fill:url(#SVGID_00000102536642299422238390000017605715461228096149_);}
	.st155{fill:url(#SVGID_00000114038895329339951920000013436233475805085614_);}
	.st156{fill:url(#SVGID_00000044174534212202390000000007747171820283099305_);}
	.st157{fill:url(#SVGID_00000030485583731288520170000000690041009746283150_);}
	.st158{fill:url(#SVGID_00000098215632253306455030000016376521430146183041_);}
	.st159{fill:url(#SVGID_00000181797347181096331910000001591145038950197425_);}
	.st160{fill:url(#SVGID_00000000187744902276046370000008568359623900652170_);}
	.st161{fill:url(#SVGID_00000049223037010908604840000006661280748060855985_);}
	.st162{fill:url(#SVGID_00000163794453374212833380000011394982283496848302_);}
	.st163{fill:url(#SVGID_00000131327171392610323300000015042783955747420034_);}
	.st164{fill:url(#SVGID_00000157302048384882568430000009485101380432112021_);}
	.st165{fill:url(#SVGID_00000153686188696556094980000018126292616971851196_);}
	.st166{fill:url(#SVGID_00000045578229943357500740000010723229428876956840_);}
	.st167{fill:url(#SVGID_00000162336933393391994620000011530407290083562939_);}
	.st168{fill:url(#SVGID_00000061458360417186000060000016716819754905932684_);}
	.st169{fill:url(#SVGID_00000145034368076785890380000012607072938512246702_);}
	.st170{fill:url(#SVGID_00000129183246372617331210000002074093952607054726_);}
</style>
<g id="Layer_1">
	<g>
		<g>
			<path class="st3" d="M306.8,1160.2h-57.9l-104.3-178v178H90.4V889.7h57.9l104.3,178.2V889.7h54.1V1160.2z"/>
			<path class="st3" d="M572.1,1132.8c-12.6,10.7-26.6,18.9-42.1,24.6s-31.6,8.6-48.3,8.6c-12.8,0-25.2-1.7-37.1-5
				c-11.9-3.3-23-8-33.3-14.1c-10.3-6.1-19.7-13.4-28.3-21.9c-8.6-8.5-15.8-17.9-21.9-28.3c-6-10.4-10.7-21.5-14.1-33.5
				c-3.3-11.9-5-24.3-5-37.2c0-12.8,1.7-25.1,5-37c3.3-11.8,8-22.9,14.1-33.3c6-10.4,13.3-19.8,21.9-28.3c8.5-8.5,18-15.7,28.3-21.8
				c10.3-6,21.4-10.7,33.3-14.1c11.9-3.3,24.2-5,37.1-5c16.7,0,32.8,2.9,48.3,8.6c15.5,5.7,29.5,13.9,42.1,24.6L543.8,967
				c-8.2-8.3-17.6-14.8-28.3-19.5c-10.7-4.7-21.9-7.1-33.8-7.1c-11.8,0-22.9,2.3-33.3,6.8c-10.4,4.5-19.5,10.7-27.3,18.4
				c-7.8,7.7-14,16.8-18.5,27.2c-4.5,10.4-6.8,21.5-6.8,33.3c0,11.9,2.3,23.1,6.8,33.6c4.5,10.4,10.7,19.6,18.5,27.3
				c7.8,7.8,16.9,14,27.3,18.5c10.4,4.5,21.5,6.8,33.3,6.8c6.8,0,13.4-0.8,19.8-2.5c6.4-1.6,12.5-3.9,18.3-6.8v-76.9h52.2V1132.8z"
				/>
			<path class="st3" d="M597.9,970.8c0-11.2,2.1-21.7,6.4-31.5c4.3-9.8,10.1-18.4,17.4-25.7c7.4-7.4,15.9-13.2,25.7-17.4
				c9.8-4.3,20.3-6.4,31.5-6.4h124.1v54.1H679c-3.8,0-7.3,0.7-10.6,2.1c-3.3,1.4-6.1,3.3-8.6,5.8c-2.5,2.5-4.4,5.3-5.8,8.6
				c-1.4,3.3-2.1,6.8-2.1,10.6c0,3.8,0.7,7.3,2.1,10.7c1.4,3.3,3.3,6.2,5.8,8.7c2.5,2.5,5.3,4.4,8.6,5.8c3.3,1.4,6.8,2.1,10.6,2.1
				h54.1c11.2,0,21.7,2.1,31.6,6.3c9.9,4.2,18.5,10,25.8,17.4c7.4,7.4,13.1,16,17.4,25.8c4.2,9.9,6.3,20.4,6.3,31.6
				c0,11.2-2.1,21.7-6.3,31.5c-4.2,9.8-10,18.4-17.4,25.7c-7.4,7.4-16,13.2-25.8,17.4c-9.9,4.3-20.4,6.4-31.6,6.4H613V1106h120.1
				c3.8,0,7.3-0.7,10.6-2.1c3.3-1.4,6.1-3.3,8.6-5.8c2.5-2.5,4.4-5.3,5.8-8.6c1.4-3.3,2.1-6.8,2.1-10.6c0-3.8-0.7-7.3-2.1-10.6
				c-1.4-3.3-3.3-6.1-5.8-8.6c-2.5-2.5-5.3-4.4-8.6-5.8c-3.3-1.4-6.8-2.1-10.6-2.1H679c-11.2,0-21.7-2.1-31.5-6.4
				c-9.8-4.3-18.4-10.1-25.7-17.4c-7.4-7.4-13.2-16-17.4-25.8C600.1,992.5,597.9,982,597.9,970.8z"/>
			<path class="st3" d="M1114.7,1026.1c0,12.8-1.7,25.2-5,37.1c-3.3,11.9-8,23-14,33.4c-6,10.4-13.3,19.8-21.9,28.4
				c-8.6,8.6-18,15.9-28.3,22c-10.3,6.1-21.4,10.8-33.4,14.1c-11.9,3.3-24.3,5-37.2,5s-25.2-1.7-37.1-5c-11.9-3.3-23-8-33.4-14.1
				c-10.4-6.1-19.8-13.4-28.4-22c-8.6-8.5-15.9-18-22-28.4c-6.1-10.4-10.8-21.5-14.1-33.4c-3.3-11.9-5-24.2-5-37.1
				c0-12.8,1.7-25.2,5-37.2c3.3-11.9,8-23.1,14.1-33.4c6.1-10.3,13.4-19.7,22-28.3c8.5-8.5,18-15.8,28.4-21.9
				c10.4-6,21.5-10.7,33.4-14c11.9-3.3,24.2-5,37.1-5s25.2,1.7,37.2,5c11.9,3.3,23.1,8,33.4,14c10.3,6,19.7,13.3,28.3,21.9
				c8.5,8.6,15.8,18,21.9,28.3c6,10.3,10.7,21.4,14,33.4C1113,1000.9,1114.7,1013.3,1114.7,1026.1z M1060.9,1026.1
				c0-11.8-2.3-23-6.8-33.5c-4.5-10.5-10.7-19.6-18.4-27.3c-7.7-7.7-16.8-13.9-27.3-18.4c-10.5-4.5-21.7-6.8-33.5-6.8
				c-11.9,0-23.1,2.3-33.6,6.8c-10.4,4.5-19.6,10.7-27.3,18.4c-7.8,7.7-14,16.8-18.5,27.3c-4.5,10.5-6.8,21.7-6.8,33.5
				c0,11.8,2.3,22.9,6.8,33.3c4.5,10.4,10.7,19.5,18.5,27.3c7.8,7.8,16.9,14,27.3,18.5c10.4,4.5,21.6,6.8,33.6,6.8
				c11.8,0,23-2.3,33.5-6.8c10.5-4.5,19.6-10.7,27.3-18.5c7.7-7.8,13.9-16.9,18.4-27.3C1058.7,1049,1060.9,1037.9,1060.9,1026.1z"/>
			<path class="st3" d="M1255.2,1160.2h-53.9V943.9H1120v-54.1h216.3v54.1h-81.1V1160.2z"/>
			<path class="st3" d="M1419.1,1160.2H1365V889.7h54.1V1160.2z"/>
		</g>
		<g>
			<g>
				<path class="st3" d="M613.8,337.2c-3.9,0-7,3.1-7,7c0,3.9,3.1,7,7,7c3.9,0,7-3.1,7-7C620.8,340.3,617.7,337.2,613.8,337.2z"/>
			</g>
			<g>
				<path class="st3" d="M574.9,199.4h-2.5v-7h0c0-4.9-4.1-8.9-9-8.9c-5,0-9,4-9,8.9h0v7h-2.5c-0.5,0-1,0.5-1,1v14c0,0.5,0.5,1,1,1
					h23c0.6,0,1-0.5,1-1v-14C575.9,199.9,575.5,199.4,574.9,199.4z M557.9,192.4C557.9,192.4,557.9,192.4,557.9,192.4
					c0-3,2.5-5.4,5.5-5.4s5.5,2.4,5.5,5.5c0,0,0,0,0,0v7h-11V192.4z M565.3,210h-3.8l1.2-3.5c-0.8-0.3-1.3-1-1.3-1.9
					c0-1.1,0.9-2,2-2c1.1,0,2,0.9,2,2c0,0.9-0.6,1.6-1.3,1.9L565.3,210z"/>
			</g>
		</g>
		<g class="st4">
			<g>
				<path class="st3" d="M659,312.2c0.2,2.8,2.5,5.1,5.3,5.1c3,0,5.4-2.4,5.4-5.4s-2.4-5.4-5.4-5.4c-2.5,0-4.5,1.7-5.2,4h-68.8
					c-0.4-3.6-3.4-6.4-7.1-6.4c-4,0-7.2,3.2-7.2,7.2c0,4,3.2,7.2,7.2,7.2c3.7,0,6.7-2.8,7.1-6.4H659z"/>
				<path class="st3" d="M505.5,209.4c-3,0-5.4,2.4-5.4,5.4c0,3,2.4,5.4,5.4,5.4c3,0,5.4-2.4,5.4-5.4
					C510.9,211.8,508.5,209.4,505.5,209.4z"/>
			</g>
			<g>
				<path class="st3" d="M628.6,302.3h-1.4v-3.9h0c0-2.8-2.3-5-5.1-5c-2.8,0-5,2.2-5.1,5h0v3.9h-1.4c-0.3,0-0.6,0.3-0.6,0.6v7.9
					c0,0.3,0.3,0.6,0.6,0.6h13c0.3,0,0.6-0.3,0.6-0.6v-7.9C629.2,302.6,629,302.3,628.6,302.3z M619.1,298.4
					C619.1,298.4,619.1,298.4,619.1,298.4c0-1.7,1.4-3.1,3.1-3.1c1.7,0,3.1,1.4,3.1,3.1c0,0,0,0,0,0v3.9h-6.2V298.4z M623.2,308.3
					h-2.1l0.7-2c-0.4-0.2-0.7-0.6-0.7-1.1c0-0.6,0.5-1.1,1.1-1.1c0.6,0,1.1,0.5,1.1,1.1c0,0.5-0.3,0.9-0.7,1.1L623.2,308.3z"/>
				<path class="st3" d="M643.6,185.1h-1.9v-5.4h0c0-3.8-3.1-6.8-6.9-6.8c-3.8,0-6.9,3.1-6.9,6.8h0v5.4H626c-0.4,0-0.8,0.3-0.8,0.8
					v10.7c0,0.4,0.3,0.8,0.8,0.8h17.6c0.4,0,0.8-0.3,0.8-0.8v-10.7C644.3,185.5,644,185.1,643.6,185.1z M630.6,179.8
					C630.6,179.8,630.6,179.8,630.6,179.8c0-2.3,1.9-4.2,4.2-4.2c2.3,0,4.2,1.9,4.2,4.2c0,0,0,0,0,0v5.4h-8.4V179.8z M636.2,193.2
					h-2.9l0.9-2.7c-0.6-0.2-1-0.8-1-1.4c0-0.8,0.7-1.5,1.5-1.5c0.8,0,1.5,0.7,1.5,1.5c0,0.7-0.4,1.2-1,1.4L636.2,193.2z"/>
			</g>
		</g>
		<g class="st5">
			<path class="st3" d="M678.2,197.2h-78.7v-68.1c-0.6,0-1.1,0-1.7,0.1v68.1h-2v1.7h2v62.6h-45.3v75.7c-2.6,0.4-4.5,2.6-4.5,5.3
				c0,3,2.4,5.4,5.4,5.4c3,0,5.4-2.4,5.4-5.4c0-2.7-2-4.9-4.5-5.3v-74h45.3v-64.3h80.4v-42.6c-0.6-0.4-1.1-0.9-1.7-1.3V197.2z"/>
		</g>
		<g>
			<path class="st6" d="M637.5,323.5v-68h58.2v-66.5h12.9c-0.5-0.7-0.9-1.5-1.4-2.2h-13.7v66.5h-56V134.6h-2.2v118.7h-44.5v-39.9
				h-69.1c-0.1-19.7-0.1-39.1-0.1-54.5c-0.7,0.6-1.5,1.3-2.2,1.9c0,15.2,0,33.9,0.1,52.6h-35c-0.3,0.7-0.5,1.5-0.7,2.2h35.8
				c0.1,29,0.4,57.6,0.5,73.2h-37.2c0.2,0.7,0.4,1.5,0.7,2.2h38.8l0-1.1c-0.2-17.4-0.4-45.9-0.5-74.3h66.9v39.9h46.8v65.8h-85.5
				v45.3c0.7,0.3,1.5,0.7,2.2,1v-44.1H637.5z"/>
			<path class="st6" d="M680.9,321.3c-0.6-4.7-4.5-8.3-9.3-8.3c-5.2,0-9.4,4.2-9.4,9.4c0,5.2,4.2,9.4,9.4,9.4c4.8,0,8.8-3.6,9.3-8.3
				h24.5c0.5-0.7,1-1.5,1.5-2.2H680.9z"/>
		</g>
		<g>
			<path class="st3" d="M613.8,351.2h-1.1v26.5c0.7-0.1,1.5-0.1,2.2-0.2v-26.3H613.8z"/>
			<path class="st3" d="M506.3,277.7v-57.5h-0.9h-0.8V276h-22.3v11.2c0.5,1.9,1.1,3.7,1.7,5.6v-15.1H506.3z"/>
			<path class="st3" d="M655,334.8h37.4v-81h-52.3c-0.4-2.6-2.6-4.5-5.3-4.5c-3,0-5.4,2.4-5.4,5.4c0,3,2.4,5.4,5.4,5.4
				c2.7,0,4.9-2,5.3-4.5h50.6v77.6h-37.4v34.1c0.6-0.3,1.1-0.5,1.7-0.8V334.8z"/>
		</g>
		<g>
			<path class="st3" d="M909.1,302.5c-0.5,7.2,5.2,13.2,12.3,13.2h61.3c6.6,0,12.3-5,12.7-11.5c0.5-7.2-5.2-13.2-12.3-13.2h-61.3
				C915.3,291,909.5,295.9,909.1,302.5z"/>
			<path class="st3" d="M1071.7,254.4c0.5-7.2-5.2-13.2-12.3-13.2h-85c-6.6,0-12.3,5-12.7,11.5c-0.5,7.2,5.2,13.2,12.3,13.2h85
				C1065.6,266,1071.3,261,1071.7,254.4z"/>
			<path class="st3" d="M1024.9,291c-6.6,0-12.3,5-12.7,11.5c-0.5,7.2,5.2,13.2,12.3,13.2h28.1c6.6,0,12.3-5,12.7-11.5
				c0.5-7.2-5.2-13.2-12.3-13.2H1024.9z"/>
			<path class="st3" d="M952.3,191.6h-28.1c-6.6,0-12.3,5-12.7,11.5c-0.5,7.2,5.2,13.2,12.3,13.2h28.1c6.6,0,12.3-5,12.7-11.5
				C965.1,197.6,959.4,191.6,952.3,191.6z"/>
			<path class="st3" d="M747,204.8c0.4-5.7-3.2-10.7-8.2-12.5c2.4,6,4.5,12.1,6.1,18.4C746.1,209,746.9,207,747,204.8z"/>
			<path class="st3" d="M900.1,539.4c-6.8,0-12.3,5.5-12.3,12.4c0,6.8,5.5,12.4,12.3,12.4c6.8,0,12.4-5.5,12.4-12.4
				C912.5,544.9,906.9,539.4,900.1,539.4z"/>
			<path class="st3" d="M993.2,390.3h-20.6c-6.6,0-12.3,5-12.7,11.5c-0.5,7.2,5.2,13.2,12.3,13.2h56.8c6.6,0,12.3-5,12.7-11.5
				c0.5-7.2-5.2-13.2-12.3-13.2h3.3c-6.8,0-12.4-5.5-12.4-12.4v-0.5c0-6.7,5.4-12.1,12.1-12.1c0.1,0,10.4,0,10.6,0
				c6.4-0.2,11.9-5.1,12.3-11.5c0.5-7.2-5.2-13.2-12.3-13.2h-88.6c-6.6,0-12.3,5-12.7,11.5c-0.5,7.2,5.2,13.2,12.3,13.2h39.2
				c6.8,0,12.3,5.5,12.3,12.4v0.3C1005.5,384.8,1000,390.3,993.2,390.3z"/>
			<path class="st3" d="M992.7,440c-6.8,0-12.4,5.5-12.4,12.3c0,6.8,5.5,12.4,12.4,12.4h17.4c6.8,0,12.3-5.5,12.3-12.4
				c0-6.8-5.5-12.3-12.3-12.3H992.7z"/>
			<path class="st3" d="M824.8,141.9c-6.8,0-12.4,5.5-12.4,12.4c0,6.8,5.5,12.3,12.4,12.3h9.3c6.8,0,12.4-5.5,12.4-12.3
				c0-6.8-5.5-12.4-12.4-12.4H824.8z"/>
			<path class="st3" d="M847.4,332.3c2.4-2.4,2.4-6.2,0-8.6c-2.4-2.4-6.2-2.4-8.6,0c-2.4,2.4-2.4,6.2,0,8.6
				C841.2,334.7,845,334.7,847.4,332.3z"/>
			<path class="st3" d="M839,432.1c2.5-2.5,2.5-6.6,0-9.1c-2.5-2.5-6.6-2.5-9.1,0c-2.5,2.5-2.5,6.6,0,9.1
				C832.4,434.6,836.5,434.6,839,432.1z"/>
			<path class="st3" d="M809.2,385c3.9-3.9,3.9-10.2,0-14.1c-3.9-3.9-10.2-3.9-14.1,0c-3.9,3.9-3.9,10.2,0,14.1
				C799,388.9,805.3,388.9,809.2,385z"/>
			<path class="st3" d="M732.5,452.4c0-6.8-5.5-12.3-12.4-12.3h-34.4c0,0,0,0,0,0h-42.9c-6.5,0-12.3,4.6-13,11.1
				c-0.7,7.4,5,13.6,12.3,13.6h78.1C726.9,464.7,732.5,459.2,732.5,452.4z"/>
			<path class="st3" d="M830.1,663.5c6.8,0,12.4-5.5,12.4-12.4c0-6.8-5.5-12.4-12.4-12.4h-1.2c-6.8,0-12.4,5.5-12.4,12.4
				c0,6.8,5.5,12.4,12.4,12.4H830.1z"/>
			<path class="st3" d="M748.8,266h20h163.9c6.5,0,12.3-4.6,13-11.1c0.7-7.4-5-13.6-12.3-13.6h-57.2c-6.8,0-12.4-5.5-12.4-12.4v-0.3
				c0-6.8,5.5-12.4,12.3-12.4h6.9c6.5,0,12.3-4.6,13-11.1c0.7-7.4-5-13.6-12.3-13.6h-108c-6.5,0-12.3,4.6-13,11.1
				c-0.7,7.4,5,13.6,12.3,13.6h61.6c6.8,0,12.4,5.5,12.4,12.4v0.3c0,6.8-5.5,12.4-12.4,12.4h-87.1
				C750.1,249.6,749.8,257.9,748.8,266z"/>
			<path class="st3" d="M945.8,502.1c0,6.8,5.5,12.4,12.4,12.4h31.2c6.8,0,12.4-5.5,12.4-12.4c0-6.8-5.5-12.3-12.4-12.3h-31.2
				C951.4,489.7,945.8,495.2,945.8,502.1z"/>
			<path class="st3" d="M924.2,551.8c0,6.8,5.5,12.4,12.4,12.4h21c6.8,0,12.4-5.5,12.4-12.4c0-6.8-5.5-12.3-12.4-12.3h-21
				C929.7,539.4,924.2,544.9,924.2,551.8z"/>
			<path class="st3" d="M913.9,589.1h-9.7c-6.8,0-12.4,5.5-12.4,12.4c0,6.8,5.5,12.4,12.4,12.4h9.7c6.8,0,12.4-5.5,12.4-12.4
				C926.3,594.6,920.7,589.1,913.9,589.1z"/>
			<path class="st3" d="M744.8,315.7h22.3c0,0,0,0,0,0h48c5.2,0,10.4-1.6,14.7-4.5c1.9-1.3,4-2.5,6.2-3.2c2.6-0.9,5.3-1.3,8-1.2
				c5.1,0.2,10.2,2.3,14.1,6.2c7.6,7.6,8.2,19.4,2.1,27.7c-0.6,0.9-1.3,1.7-2.1,2.5c-5.7,5.7-13.9,7.7-21.1,5.4
				c-3-1-5.6-2.3-7.6-3.7c-4.5-3-9.7-4.5-15.1-4.5h-48.9c0,0.1,0,0.2,0,0.3h-30.3c-0.4-0.5-0.8-1.1-1.3-1.6c-3.1-3.1-7-4.9-11.2-5.4
				c-6,8.5-12.9,16.3-20.6,23.4c0.8,3.2,2.4,6.3,5,8.9c3.6,3.6,8.3,5.6,13.4,5.6c5.1,0,9.8-2,13.4-5.6c0.2-0.2,0.3-0.3,0.4-0.5h32.4
				c5.8,0,11.4-2.3,15.5-6.4l0.5-0.5h0c10.8-10.8,28.3-10.8,39.1,0c2.1,2.1,3.8,4.4,5,6.9c5.3,10.4,3.7,23.5-5,32.2
				c-10.8,10.8-28.3,10.8-39.1,0h0c-0.2-0.2-0.3-0.3-0.5-0.5c-4.2-4.4-10-7-16.2-7h-4.9c0,0.1,0,0.2,0,0.3h-91
				c-0.8-1.2-1.7-2.3-2.8-3.4c-1.5-1.5-3.2-2.8-5-3.8c-10.1,4.5-20.8,7.9-32,10c-4.1,8.6-2.7,19.2,4.4,26.3
				c4.4,4.4,10.1,6.7,16.3,6.7c6.2,0,11.9-2.4,16.3-6.7c1.4-1.4,2.4-2.9,3.4-4.5h15h73.4c0,0,0,0.1,0,0.1h51.1
				c5.1,0,10.2-1.4,14.6-4c2.6-1.5,6.3-2.8,11.1-2.5c5.6,0.4,11.1,3.4,14.6,8.8c3.9,6.1,3.8,14.2-0.1,20.2
				c-3.7,5.6-9.5,8.6-15.4,8.7c-5,0.1-8.4-1-10.6-2.4c-4.2-2.5-8.8-4.1-13.7-4.1l-48.2,0c0,0,0,0.1,0.1,0.1h-2.5
				c-6.5,0-12.3,4.6-13,11.1c-0.7,7.4,5,13.6,12.3,13.6h15.7h8.2c6.5,0,12.3,4.6,13,11.1c0.7,6.5-3.7,12.1-9.7,13.4h-63.7
				c-0.8-1.2-1.7-2.3-2.8-3.4c-4.3-4.3-10.1-6.7-16.3-6.7s-11.9,2.4-16.3,6.7c-9,9-9,23.6,0,32.6c4.4,4.4,10.1,6.7,16.3,6.7
				s11.9-2.4,16.3-6.7c1.2-1.2,2.2-2.5,3.1-4c0.2,0,0.5,0,0.7,0h32c6.8,0,12.4,5.5,12.4,12.4v0.3c0,6.8-5.5,12.4-12.3,12.4h-58.5
				c-6.5,0-12.4,4.6-13,11.1c-0.7,7.4,5,13.6,12.3,13.6h87h25.3c6.5,0,12.3,4.6,13,11.1c0.7,7.4-5,13.6-12.3,13.6h-64.2v0.3l-3.5,0
				c-6.5,0-12.4,4.6-13,11.1c-0.7,7.4,5,13.6,12.3,13.6h123.4c6.8,0,12.3-5.5,12.3-12.4c0-0.1,0-0.3,0-0.4c0,0,0-0.1,0-0.1v-76.8
				c0-7.5,6-13.5,13.5-13.5h27.9c9.3,0,16.8-7.5,16.8-16.8v-37.7c0-3.7,3-6.7,6.7-6.7H957c2,0,3.9-0.6,5.3-2c2.5-2.3,3-5.9,1.6-8.8
				l-12.7-25.4c-7-14.1-12.3-28.9-17-43.9C919.3,321.3,872.9,288,821,291h-52.1h-24c-0.4,0-0.9,0-1.3,0.1c-2.1,7-4.8,13.9-7.9,20.5
				C737.8,314,741.1,315.7,744.8,315.7z M726.4,359c-3.3,3.3-8.7,3.3-12,0c-3.3-3.3-3.3-8.7,0-12c3.3-3.3,8.7-3.3,12,0
				C729.8,350.3,729.8,355.7,726.4,359z M658.7,411c-4.3,4.3-11.3,4.3-15.6,0c-4.3-4.3-4.3-11.3,0-15.6c4.3-4.3,11.3-4.3,15.6,0
				C663.1,399.8,663.1,406.7,658.7,411z M711.3,509.9c-4.3,4.3-11.3,4.3-15.6,0c-4.3-4.3-4.3-11.3,0-15.6c4.3-4.3,11.3-4.3,15.6,0
				C715.6,498.6,715.6,505.6,711.3,509.9z"/>
		</g>
		<g>
			<path class="st3" d="M827.6,70.8L684,125.4c-30.6-20.4-67.1-28.5-103.7-23c-39,5.9-73.3,26.6-96.8,58.3
				c-23.4,31.7-33.1,70.6-27.2,109.6c4.2,27.7,15.9,53.1,33.7,73.9L365.9,476.6c-6.6,7-6.2,18,0.8,24.6c3.4,3.1,7.6,4.7,11.9,4.7
				c4.6,0,9.3-1.8,12.7-5.5l124.3-132.6c6.6,4.8,13.4,9,20.6,12.5c5.1,20,11.2,40.8,18.2,62c25.2,75.2,58.3,137.9,98.5,187.1
				c25.4,6.1,49,13.1,70.8,21c-76-65.8-120.1-167-145.5-256.4c7.8,1.3,15.8,1.9,23.8,1.9c7.4,0,14.8-0.6,22.3-1.7c2-0.3,4-0.7,6-1
				c11.2-2.2,21.9-5.6,32-10c14.8-6.6,28.2-15.5,39.8-26.2c7.7-7.1,14.6-14.9,20.6-23.4c4.9-7,9.3-14.4,13-22.1
				c3.1-6.6,5.8-13.4,7.9-20.5c2.5-8.1,4.2-16.5,5.3-25.1c1-8.1,1.3-16.3,0.9-24.7c-0.2-4.9-0.7-9.9-1.5-14.9
				c-0.8-5.3-1.9-10.6-3.2-15.7c-1.6-6.3-3.7-12.4-6.1-18.4c-5.9-14.4-13.9-27.7-24-39.5L827.6,110l282.1,107.2
				c-6.3,60.7-40.7,312.1-183,435.2c22-8.2,45.8-15.5,71.5-21.8c40.2-49.3,69.2-114,99.6-188c38.2-92.8,48.2-222.2,49.6-236.2
				l0.9-13.5L827.6,70.8z M715,247.1c0,4.1-0.1,8.2-0.5,12.2c-1.1,11-3.8,21.7-7.9,31.7c-3.6,8.8-8.3,17.1-13.9,24.6
				c-9.7,13-22.2,24-36.8,31.9c-11.2,6-23.5,10.3-36.8,12.3c-5.5,0.8-11,1.2-16.5,1.3c-11.7,0.1-23.3-1.7-34.4-5.2
				c-11.7-3.7-22.8-9.3-32.9-16.8c-3.7-2.7-7.2-5.7-10.5-8.8c-18.3-17.2-30.2-39.9-34-65.2c-4.5-29.8,2.9-59.5,20.8-83.8
				c17.9-24.2,44.2-40.1,73.9-44.5c5.7-0.9,11.4-1.3,17-1.3c12.9,0,25.6,2.2,37.7,6.6c10.3,3.7,20,8.9,29.1,15.5
				c3.6,2.7,7.1,5.6,10.4,8.6c8.1,7.6,15,16.3,20.4,25.8c4.4,7.6,7.8,15.7,10.4,24.3c1.5,5,2.6,10.1,3.4,15.3
				C714.6,236.8,715,242,715,247.1z"/>
			<path class="st3" d="M874.6,744.3c33.3-22.2,86.4-46.5,170.2-63.3v-32.7c-31,6-58.3,13-82.3,20.7
				c-67.9,21.7-109.6,48.3-134.8,71.2c-25.8-23.4-68.8-50.7-139.5-72.6c-22.9-7.1-48.6-13.6-77.6-19.2l-0.3,1.7v30.9
				c84.1,16.9,137.4,41.2,170.7,63.5c-28.4-9.1-66.7-16-117.6-16c-27.1,0-57.7,2-92.3,6.6v31.9l0,0.4c35.1-4.9,65.7-6.9,92.3-6.9
				c63.8,0,104.9,11.6,129.9,23.1c3.5,1.6,6.6,3.2,9.5,4.7l14.5,10.6l9.9,7.2c0.1,0.2,0.2,0.3,0.3,0.3l0.1-0.1l0.4,0.3
				c0-0.1,0.5-0.6,1.3-1.5l9.1-6.5l14.1-10.2c2.9-1.6,6.2-3.2,9.7-4.9c25.1-11.6,66.2-23.1,130-23.1c26.5,0,57,2,91.9,6.8v-32.3
				c-34.4-4.6-65-6.5-91.9-6.5C941.3,728.3,903,735.2,874.6,744.3z"/>
		</g>
	</g>
</g>
<g id="Layer_2">
</g>
</svg>
