<?xml version="1.0" encoding="utf-8"?>
<!-- Generator: Adobe Illustrator 28.1.0, SVG Export Plug-In . SVG Version: 6.00 Build 0)  -->
<svg version="1.1" xmlns="http://www.w3.org/2000/svg" xmlns:xlink="http://www.w3.org/1999/xlink" x="0px" y="0px"
	 viewBox="0 0 1509.5 1236.8" style="enable-background:new 0 0 1509.5 1236.8;" xml:space="preserve">
<style type="text/css">
	.st0{display:none;}
	.st1{display:inline;}
	.st2{fill:none;stroke:#000000;stroke-width:0.9157;stroke-miterlimit:10;}
	.st3{fill:#221F20;}
	.st4{opacity:0.6;}
	.st5{opacity:0.3;}
	.st6{opacity:0.3;fill:#221F20;}
	.st7{fill:#FFFFFF;}
	.st8{opacity:0.3;fill:#FFFFFF;}
	.st9{fill:url(#SVGID_1_);}
	.st10{fill:none;}
	.st11{fill:url(#SVGID_00000116235109818541084320000003442732512891559097_);}
	.st12{fill:url(#SVGID_00000061432028269396665840000013620029550616438912_);}
	.st13{fill:url(#SVGID_00000139976951743286919790000013332155930951216038_);}
	.st14{fill:url(#SVGID_00000173118566908582781190000015841327324165138595_);}
	.st15{fill:url(#SVGID_00000042010177745855485760000013633106530100120997_);}
	.st16{fill:url(#SVGID_00000137839816068090584940000018044886791636683443_);}
	.st17{fill:url(#SVGID_00000039836047809209297280000001109090146314848904_);}
	.st18{fill:url(#SVGID_00000165223846189548998140000014933468477153829557_);}
	.st19{fill:url(#SVGID_00000078754476550012601040000008222843918160855210_);}
	.st20{fill:url(#SVGID_00000050622395712887520300000009217167854963670205_);}
	.st21{fill:url(#SVGID_00000044873047031411596870000009849938706079523713_);}
	.st22{fill:url(#SVGID_00000104669882873647992270000006146040540309198254_);}
	.st23{fill:url(#SVGID_00000137113237985151803120000004368251041533797028_);}
	.st24{fill:url(#SVGID_00000162331541301732789790000014151505667130465970_);}
	.st25{fill:url(#SVGID_00000080171202765554752300000012836218794278740872_);}
	.st26{fill:url(#SVGID_00000041979887602899046110000013726919159167756178_);}
	.st27{fill:url(#SVGID_00000088834332410377189080000001301618570812652672_);}
	.st28{fill:url(#SVGID_00000107569950330255235520000008018762909057943444_);}
	.st29{fill:url(#SVGID_00000074440515068226696760000009928382764357022094_);}
	.st30{fill:url(#SVGID_00000049205221110493013960000000970769975930212765_);}
	.st31{fill:url(#SVGID_00000158711081310923813910000015027887905904592287_);}
	.st32{fill:url(#SVGID_00000031192676445260522390000001169655790829665951_);}
	.st33{fill:url(#SVGID_00000090998990735716061890000003179561487948060591_);}
	.st34{fill:url(#SVGID_00000133513976420766410410000002966500410975351201_);}
	.st35{fill:url(#SVGID_00000147218757170911688550000015250281950085487266_);}
	.st36{fill:url(#SVGID_00000101792779653600955830000017622368706225110458_);}
	.st37{fill:url(#SVGID_00000033360069287698563900000017726604434751898790_);}
	.st38{fill:url(#SVGID_00000131350420417625508450000012507542581007118219_);}
	.st39{fill:url(#SVGID_00000135676075544476943380000013348463743471766682_);}
	.st40{fill:url(#SVGID_00000030469511146437766060000018179046175034442122_);}
	.st41{fill:url(#SVGID_00000130648437873280460600000004696516937950373039_);}
	.st42{fill:url(#SVGID_00000129890534605921094180000006099673842866065543_);}
	.st43{fill:url(#SVGID_00000032623471573621643190000011174227118188650628_);}
	.st44{fill:url(#SVGID_00000052815473860409389010000000117221733370859963_);}
	.st45{fill:url(#SVGID_00000072279924374174080360000003714595402177980605_);}
	.st46{fill:url(#SVGID_00000065797523838114227090000002548725260208954276_);}
	.st47{fill:url(#SVGID_00000016773701359374422150000017732553167631362186_);}
	.st48{fill:url(#SVGID_00000024719567429723144160000000469175680026094991_);}
	.st49{fill:url(#SVGID_00000133528545421520440970000004615116616607997084_);}
	.st50{fill:#172B43;}
	.st51{fill:url(#SVGID_00000086655083093632676990000016361136590785949341_);}
	.st52{fill:url(#SVGID_00000052817491522481844410000012868852627294565012_);}
	.st53{fill:url(#SVGID_00000163751539901288234700000002308972626076022193_);}
	.st54{fill:url(#SVGID_00000093894818603367507490000007529641406464531353_);}
	.st55{fill:url(#SVGID_00000152970263123139153840000005383429443935415181_);}
	.st56{fill:url(#SVGID_00000139285003775858118100000007924755430959137210_);}
	.st57{fill:url(#SVGID_00000091720527950752395510000002796376631270603392_);}
	.st58{fill:url(#SVGID_00000170964897580303397250000004946027568710715551_);}
	.st59{fill:url(#SVGID_00000041992679304964186110000000992002415552443528_);}
	.st60{fill:url(#SVGID_00000173857704011474137340000013647991100130540457_);}
	.st61{fill:url(#SVGID_00000133494553047783750090000002813847195627719316_);}
	.st62{fill:url(#SVGID_00000090281693079873368450000002594097767517423033_);}
	.st63{fill:url(#SVGID_00000122714484418441511290000006784350554079562396_);}
	.st64{fill:url(#SVGID_00000112622519497001254530000003124662387406448292_);}
	.st65{fill:url(#SVGID_00000106869563584709046510000004863708615254140054_);}
	.st66{fill:url(#SVGID_00000125596442521098764060000008452513757443507119_);}
	.st67{fill:url(#SVGID_00000182524015134629249040000014527755972926336158_);}
	.st68{fill:url(#SVGID_00000003806199035366591420000009131839659209375646_);}
	.st69{fill:url(#SVGID_00000135667661769828020210000013849515854212493188_);}
	.st70{fill:url(#SVGID_00000075867171183234016930000013064623049615782295_);}
	.st71{fill:url(#SVGID_00000083065813375920074800000007596588142386427533_);}
	.st72{fill:url(#SVGID_00000016047968777403832900000007307032076352531107_);}
	.st73{fill:url(#SVGID_00000147178704299220508400000016649290131953482655_);}
	.st74{fill:url(#SVGID_00000065059238716958431630000002644164230200218037_);}
	.st75{fill:url(#SVGID_00000080901337794383270600000008766797846652940686_);}
	.st76{fill:url(#SVGID_00000129170512029567280420000016162227301223903146_);}
	.st77{fill:url(#SVGID_00000139295747534295551510000007839235678375967667_);}
	.st78{fill:url(#SVGID_00000115513089365082355190000016962721284694901946_);}
	.st79{fill:url(#SVGID_00000118395696595502644590000003889516583267514765_);}
	.st80{fill:url(#SVGID_00000103236316910528116000000017910308562078592150_);}
	.st81{fill:url(#SVGID_00000074417877004095064160000007406286895762286980_);}
	.st82{fill:url(#SVGID_00000021811904341889826020000017656124241500669603_);}
	.st83{fill:url(#SVGID_00000120546182128988174840000018361774659971084721_);}
	.st84{fill:url(#SVGID_00000160881314030833793830000009884156056967416724_);}
	.st85{fill:url(#SVGID_00000085970252940691480860000013039694004779869067_);}
	.st86{fill:url(#SVGID_00000080176543128261587840000006271388091848031906_);}
	.st87{fill:url(#SVGID_00000145029690664296951480000016315037075405580710_);}
	.st88{fill:url(#SVGID_00000118376234568028806390000012060360104100437175_);}
	.st89{fill:url(#SVGID_00000091723184587133514950000016163821370198415795_);}
	.st90{fill:url(#SVGID_00000056423656784509406030000014894917111508460968_);}
	.st91{fill:url(#SVGID_00000167359836599905134560000006839178428920671669_);}
	.st92{fill:url(#SVGID_00000155126950081511599140000006141128089287768725_);}
	.st93{fill:url(#SVGID_00000150786908306856388560000013550271184711507851_);}
	.st94{fill:url(#SVGID_00000031904456735647816960000012145501845614186148_);}
	.st95{fill:url(#SVGID_00000082326262218265588700000015159560436499032735_);}
	.st96{fill:url(#SVGID_00000130616213541538568950000014233189129442467973_);}
	.st97{fill:url(#SVGID_00000094614574221032252250000012710524320039358629_);}
	.st98{fill:url(#SVGID_00000134231433029513739400000016245084525188065724_);}
	.st99{fill:url(#SVGID_00000022542159353286391470000010302306784470150542_);}
	.st100{fill:url(#SVGID_00000054951686851401662450000006789510889532988314_);}
	.st101{fill:url(#SVGID_00000081645089241802314410000008890069793845195398_);}
	.st102{fill:url(#SVGID_00000049936731412174632340000009751880716477999238_);}
	.st103{fill:url(#SVGID_00000006671951325273389410000018389327966090863547_);}
	.st104{fill:url(#SVGID_00000136410724574490142500000002727031322913590206_);}
	.st105{fill:url(#SVGID_00000158719430501553514310000017966657485707732637_);}
	.st106{fill:url(#SVGID_00000121988388411167553190000003428939419740821404_);}
	.st107{fill:url(#SVGID_00000028287740009332116780000012883548731742866867_);}
	.st108{fill:url(#SVGID_00000082328219566893669570000010109949544031500726_);}
	.st109{fill:url(#SVGID_00000119111337454845288750000010801991813478159520_);}
	.st110{fill:url(#SVGID_00000170274075464804860760000010471896068628803210_);}
	.st111{fill:url(#SVGID_00000127012540410708099210000006719519170728160696_);}
	.st112{fill:url(#SVGID_00000155126378666357399720000001204012712376228784_);}
	.st113{fill:url(#SVGID_00000151510986003147030990000017793613502078990997_);}
	.st114{fill:url(#SVGID_00000074430199238266901150000004481731332414441904_);}
	.st115{fill:url(#SVGID_00000016757100363464719640000006845317316469657245_);}
	.st116{fill:url(#SVGID_00000101097585986447415460000004843608464162767261_);}
	.st117{fill:url(#SVGID_00000176027409765479336070000008938690653165639834_);}
	.st118{fill:url(#SVGID_00000179641118372620928040000003166562682535604904_);}
	.st119{fill:url(#SVGID_00000063621876026123046980000012728240993619012260_);}
	.st120{fill:url(#SVGID_00000049213968433204311550000017388428028690924726_);}
	.st121{fill:url(#SVGID_00000150800411224693152850000011973364443787711409_);}
	.st122{fill:url(#SVGID_00000173839951571062686640000015254991707263778215_);}
	.st123{fill:url(#SVGID_00000118380598932788686440000006047459800533309841_);}
	.st124{fill:url(#SVGID_00000057131637877916444210000013292623694752296833_);}
	.st125{fill:url(#SVGID_00000016794880349666283690000012160730027572089775_);}
	.st126{fill:url(#SVGID_00000134241500032507322710000018243127994632570514_);}
	.st127{fill:url(#SVGID_00000076573467044045896800000005587233621663864997_);}
	.st128{fill:url(#SVGID_00000124845382288677538360000002215106936634205604_);}
	.st129{fill:url(#SVGID_00000120550203254640689240000008346375895729293752_);}
	.st130{fill:url(#SVGID_00000111880607987766735690000003821508923763601293_);}
	.st131{fill:url(#SVGID_00000181774612781316123940000013351159026253084585_);}
	.st132{fill:url(#SVGID_00000147180566227445244500000003066166183934254731_);}
	.st133{fill:url(#SVGID_00000011015371045349039530000006011431481570033819_);}
	.st134{fill:url(#SVGID_00000092455228672961911710000010801024014426468532_);}
	.st135{fill:url(#SVGID_00000088092604861357237150000016153276631553897913_);}
	.st136{fill:url(#SVGID_00000140714400210642141120000017099181957728464280_);}
	.st137{fill:url(#SVGID_00000116212788755253562210000000866265862207922835_);}
	.st138{fill:url(#SVGID_00000124860168416805753280000000200831664113046425_);}
	.st139{fill:url(#SVGID_00000001655978154135275630000002481530163652151960_);}
	.st140{fill:url(#SVGID_00000170986367186410227970000001966869873335924883_);}
	.st141{fill:url(#SVGID_00000039110462136315841540000017791542370183544460_);}
	.st142{fill:url(#SVGID_00000042711850490427029450000000202382080596087487_);}
	.st143{fill:url(#SVGID_00000050628474008528066230000006881062246335253148_);}
	.st144{fill:url(#SVGID_00000138536660555944570800000003381551351734878379_);}
	.st145{fill:url(#SVGID_00000059288968001715507800000016046699223059229624_);}
	.st146{fill:url(#SVGID_00000082364738308074887900000015348144459453834638_);}
	.st147{fill:url(#SVGID_00000096765305448502965460000005125246192396464799_);}
	.st148{fill:url(#SVGID_00000015336780757441150290000006693433320534623875_);}
	.st149{fill:url(#SVGID_00000080904292702769946970000001083532549347702663_);}
	.st150{fill:url(#SVGID_00000144311935884909618150000015956499236582120374_);}
	.st151{fill:url(#SVGID_00000008836719980017357560000018061982777639125644_);}
	.st152{fill:url(#SVGID_00000024685239693104636430000011920349063741114760_);}
	.st153{fill:url(#SVGID_00000168836551750794085070000010876784645375225254_);}
	.st154{fill:url(#SVGID_00000177447703280541504470000013560464900226438789_);}
	.st155{fill:url(#SVGID_00000091704077278531809370000006996036767894386346_);}
	.st156{fill:url(#SVGID_00000118365096760279915790000013474316558631312780_);}
	.st157{fill:url(#SVGID_00000005248939711322028550000010513497372661302912_);}
	.st158{fill:url(#SVGID_00000181765817102954857910000009371638357098578060_);}
	.st159{fill:url(#SVGID_00000107583295214964169290000006524279336749900183_);}
	.st160{fill:url(#SVGID_00000173844624504436227880000009407540626575497613_);}
	.st161{fill:url(#SVGID_00000140718600393900671140000012855405872215606183_);}
	.st162{fill:url(#SVGID_00000034087477797521180980000006836731097702597549_);}
	.st163{fill:url(#SVGID_00000112608724236212876370000006504793536996455827_);}
	.st164{fill:url(#SVGID_00000062913365658499326400000006644813611597717422_);}
	.st165{fill:url(#SVGID_00000145018774998124264070000003736690898892259725_);}
	.st166{fill:url(#SVGID_00000036249939458995886660000007320507265814685347_);}
	.st167{fill:url(#SVGID_00000117639205143720766170000005911038684964005822_);}
	.st168{fill:url(#SVGID_00000139278432988700719410000007965561390442183356_);}
	.st169{fill:url(#SVGID_00000085210540272623248560000011168795238754834356_);}
	.st170{fill:url(#SVGID_00000012441914413337975760000000591501472497846146_);}
</style>
<g id="Layer_1">
	<g>
		<g>
			<path class="st7" d="M306.8,1160.2h-57.9l-104.3-178v178H90.4V889.7h57.9l104.3,178.2V889.7h54.1V1160.2z"/>
			<path class="st7" d="M572.1,1132.8c-12.6,10.7-26.6,18.9-42.1,24.6s-31.6,8.6-48.3,8.6c-12.8,0-25.2-1.7-37.1-5
				c-11.9-3.3-23-8-33.3-14.1c-10.3-6.1-19.7-13.4-28.3-21.9c-8.6-8.5-15.8-17.9-21.9-28.3c-6-10.4-10.7-21.5-14.1-33.5
				c-3.3-11.9-5-24.3-5-37.2c0-12.8,1.7-25.1,5-37c3.3-11.8,8-22.9,14.1-33.3c6-10.4,13.3-19.8,21.9-28.3c8.5-8.5,18-15.7,28.3-21.8
				c10.3-6,21.4-10.7,33.3-14.1c11.9-3.3,24.2-5,37.1-5c16.7,0,32.8,2.9,48.3,8.6c15.5,5.7,29.5,13.9,42.1,24.6L543.8,967
				c-8.2-8.3-17.6-14.8-28.3-19.5c-10.7-4.7-21.9-7.1-33.8-7.1c-11.8,0-22.9,2.3-33.3,6.8c-10.4,4.5-19.5,10.7-27.3,18.4
				c-7.8,7.7-14,16.8-18.5,27.2c-4.5,10.4-6.8,21.5-6.8,33.3c0,11.9,2.3,23.1,6.8,33.6c4.5,10.4,10.7,19.6,18.5,27.3
				c7.8,7.8,16.9,14,27.3,18.5c10.4,4.5,21.5,6.8,33.3,6.8c6.8,0,13.4-0.8,19.8-2.5c6.4-1.6,12.5-3.9,18.3-6.8v-76.9h52.2V1132.8z"
				/>
			<path class="st7" d="M597.9,970.8c0-11.2,2.1-21.7,6.4-31.5c4.3-9.8,10.1-18.4,17.4-25.7c7.4-7.4,15.9-13.2,25.7-17.4
				c9.8-4.3,20.3-6.4,31.5-6.4h124.1v54.1H679c-3.8,0-7.3,0.7-10.6,2.1c-3.3,1.4-6.1,3.3-8.6,5.8c-2.5,2.5-4.4,5.3-5.8,8.6
				c-1.4,3.3-2.1,6.8-2.1,10.6c0,3.8,0.7,7.3,2.1,10.7c1.4,3.3,3.3,6.2,5.8,8.7c2.5,2.5,5.3,4.4,8.6,5.8c3.3,1.4,6.8,2.1,10.6,2.1
				h54.1c11.2,0,21.7,2.1,31.6,6.3c9.9,4.2,18.5,10,25.8,17.4c7.4,7.4,13.1,16,17.4,25.8c4.2,9.9,6.3,20.4,6.3,31.6
				c0,11.2-2.1,21.7-6.3,31.5c-4.2,9.8-10,18.4-17.4,25.7c-7.4,7.4-16,13.2-25.8,17.4c-9.9,4.3-20.4,6.4-31.6,6.4H613V1106h120.1
				c3.8,0,7.3-0.7,10.6-2.1c3.3-1.4,6.1-3.3,8.6-5.8c2.5-2.5,4.4-5.3,5.8-8.6c1.4-3.3,2.1-6.8,2.1-10.6c0-3.8-0.7-7.3-2.1-10.6
				c-1.4-3.3-3.3-6.1-5.8-8.6c-2.5-2.5-5.3-4.4-8.6-5.8c-3.3-1.4-6.8-2.1-10.6-2.1H679c-11.2,0-21.7-2.1-31.5-6.4
				c-9.8-4.3-18.4-10.1-25.7-17.4c-7.4-7.4-13.2-16-17.4-25.8C600.1,992.5,597.9,982,597.9,970.8z"/>
			<path class="st7" d="M1114.7,1026.1c0,12.8-1.7,25.2-5,37.1c-3.3,11.9-8,23-14,33.4c-6,10.4-13.3,19.8-21.9,28.4
				c-8.6,8.6-18,15.9-28.3,22c-10.3,6.1-21.4,10.8-33.4,14.1c-11.9,3.3-24.3,5-37.2,5s-25.2-1.7-37.1-5c-11.9-3.3-23-8-33.4-14.1
				c-10.4-6.1-19.8-13.4-28.4-22c-8.6-8.5-15.9-18-22-28.4c-6.1-10.4-10.8-21.5-14.1-33.4c-3.3-11.9-5-24.2-5-37.1
				c0-12.8,1.7-25.2,5-37.2c3.3-11.9,8-23.1,14.1-33.4c6.1-10.3,13.4-19.7,22-28.3c8.5-8.5,18-15.8,28.4-21.9
				c10.4-6,21.5-10.7,33.4-14c11.9-3.3,24.2-5,37.1-5s25.2,1.7,37.2,5c11.9,3.3,23.1,8,33.4,14c10.3,6,19.7,13.3,28.3,21.9
				c8.5,8.6,15.8,18,21.9,28.3c6,10.3,10.7,21.4,14,33.4C1113,1000.9,1114.7,1013.3,1114.7,1026.1z M1060.9,1026.1
				c0-11.8-2.3-23-6.8-33.5c-4.5-10.5-10.7-19.6-18.4-27.3c-7.7-7.7-16.8-13.9-27.3-18.4c-10.5-4.5-21.7-6.8-33.5-6.8
				c-11.9,0-23.1,2.3-33.6,6.8c-10.4,4.5-19.6,10.7-27.3,18.4c-7.8,7.7-14,16.8-18.5,27.3c-4.5,10.5-6.8,21.7-6.8,33.5
				c0,11.8,2.3,22.9,6.8,33.3c4.5,10.4,10.7,19.5,18.5,27.3c7.8,7.8,16.9,14,27.3,18.5c10.4,4.5,21.6,6.8,33.6,6.8
				c11.8,0,23-2.3,33.5-6.8c10.5-4.5,19.6-10.7,27.3-18.5c7.7-7.8,13.9-16.9,18.4-27.3C1058.7,1049,1060.9,1037.9,1060.9,1026.1z"/>
			<path class="st7" d="M1255.2,1160.2h-53.9V943.9H1120v-54.1h216.3v54.1h-81.1V1160.2z"/>
			<path class="st7" d="M1419.1,1160.2H1365V889.7h54.1V1160.2z"/>
		</g>
		<g>
			<g>
				<path class="st7" d="M613.8,337.2c-3.9,0-7,3.1-7,7c0,3.9,3.1,7,7,7c3.9,0,7-3.1,7-7C620.8,340.3,617.7,337.2,613.8,337.2z"/>
			</g>
			<g>
				<path class="st7" d="M574.9,199.4h-2.5v-7h0c0-4.9-4.1-8.9-9-8.9c-5,0-9,4-9,8.9h0v7h-2.5c-0.5,0-1,0.5-1,1v14c0,0.5,0.5,1,1,1
					h23c0.6,0,1-0.5,1-1v-14C575.9,199.9,575.5,199.4,574.9,199.4z M557.9,192.4C557.9,192.4,557.9,192.4,557.9,192.4
					c0-3,2.5-5.4,5.5-5.4s5.5,2.4,5.5,5.5c0,0,0,0,0,0v7h-11V192.4z M565.3,210h-3.8l1.2-3.5c-0.8-0.3-1.3-1-1.3-1.9
					c0-1.1,0.9-2,2-2c1.1,0,2,0.9,2,2c0,0.9-0.6,1.6-1.3,1.9L565.3,210z"/>
			</g>
		</g>
		<g class="st4">
			<g>
				<path class="st7" d="M659,312.2c0.2,2.8,2.5,5.1,5.3,5.1c3,0,5.4-2.4,5.4-5.4s-2.4-5.4-5.4-5.4c-2.5,0-4.5,1.7-5.2,4h-68.8
					c-0.4-3.6-3.4-6.4-7.1-6.4c-4,0-7.2,3.2-7.2,7.2c0,4,3.2,7.2,7.2,7.2c3.7,0,6.7-2.8,7.1-6.4H659z"/>
				<path class="st7" d="M505.5,209.4c-3,0-5.4,2.4-5.4,5.4c0,3,2.4,5.4,5.4,5.4c3,0,5.4-2.4,5.4-5.4
					C510.9,211.8,508.5,209.4,505.5,209.4z"/>
			</g>
			<g>
				<path class="st7" d="M628.6,302.3h-1.4v-3.9h0c0-2.8-2.3-5-5.1-5c-2.8,0-5,2.2-5.1,5h0v3.9h-1.4c-0.3,0-0.6,0.3-0.6,0.6v7.9
					c0,0.3,0.3,0.6,0.6,0.6h13c0.3,0,0.6-0.3,0.6-0.6v-7.9C629.2,302.6,629,302.3,628.6,302.3z M619.1,298.4
					C619.1,298.4,619.1,298.4,619.1,298.4c0-1.7,1.4-3.1,3.1-3.1c1.7,0,3.1,1.4,3.1,3.1c0,0,0,0,0,0v3.9h-6.2V298.4z M623.2,308.3
					h-2.1l0.7-2c-0.4-0.2-0.7-0.6-0.7-1.1c0-0.6,0.5-1.1,1.1-1.1c0.6,0,1.1,0.5,1.1,1.1c0,0.5-0.3,0.9-0.7,1.1L623.2,308.3z"/>
				<path class="st7" d="M643.6,185.1h-1.9v-5.4h0c0-3.8-3.1-6.8-6.9-6.8c-3.8,0-6.9,3.1-6.9,6.8h0v5.4H626c-0.4,0-0.8,0.3-0.8,0.8
					v10.7c0,0.4,0.3,0.8,0.8,0.8h17.6c0.4,0,0.8-0.3,0.8-0.8v-10.7C644.3,185.5,644,185.1,643.6,185.1z M630.6,179.8
					C630.6,179.8,630.6,179.8,630.6,179.8c0-2.3,1.9-4.2,4.2-4.2c2.3,0,4.2,1.9,4.2,4.2c0,0,0,0,0,0v5.4h-8.4V179.8z M636.2,193.2
					h-2.9l0.9-2.7c-0.6-0.2-1-0.8-1-1.4c0-0.8,0.7-1.5,1.5-1.5c0.8,0,1.5,0.7,1.5,1.5c0,0.7-0.4,1.2-1,1.4L636.2,193.2z"/>
			</g>
		</g>
		<g class="st5">
			<path class="st7" d="M678.2,197.2h-78.7v-68.1c-0.6,0-1.1,0-1.7,0.1v68.1h-2v1.7h2v62.6h-45.3v75.7c-2.6,0.4-4.5,2.6-4.5,5.3
				c0,3,2.4,5.4,5.4,5.4c3,0,5.4-2.4,5.4-5.4c0-2.7-2-4.9-4.5-5.3v-74h45.3v-64.3h80.4v-42.6c-0.6-0.4-1.1-0.9-1.7-1.3V197.2z"/>
		</g>
		<g>
			<path class="st8" d="M637.5,323.5v-68h58.2v-66.5h12.9c-0.5-0.7-0.9-1.5-1.4-2.2h-13.7v66.5h-56V134.6h-2.2v118.7h-44.5v-39.9
				h-69.1c-0.1-19.7-0.1-39.1-0.1-54.5c-0.7,0.6-1.5,1.3-2.2,1.9c0,15.2,0,33.9,0.1,52.6h-35c-0.3,0.7-0.5,1.5-0.7,2.2h35.8
				c0.1,29,0.4,57.6,0.5,73.2h-37.2c0.2,0.7,0.4,1.5,0.7,2.2h38.8l0-1.1c-0.2-17.4-0.4-45.9-0.5-74.3h66.9v39.9h46.8v65.8h-85.5
				v45.3c0.7,0.3,1.5,0.7,2.2,1v-44.1H637.5z"/>
			<path class="st8" d="M680.9,321.3c-0.6-4.7-4.5-8.3-9.3-8.3c-5.2,0-9.4,4.2-9.4,9.4c0,5.2,4.2,9.4,9.4,9.4c4.8,0,8.8-3.6,9.3-8.3
				h24.5c0.5-0.7,1-1.5,1.5-2.2H680.9z"/>
		</g>
		<g>
			<path class="st7" d="M613.8,351.2h-1.1v26.5c0.7-0.1,1.5-0.1,2.2-0.2v-26.3H613.8z"/>
			<path class="st7" d="M506.3,277.7v-57.5h-0.9h-0.8V276h-22.3v11.2c0.5,1.9,1.1,3.7,1.7,5.6v-15.1H506.3z"/>
			<path class="st7" d="M655,334.8h37.4v-81h-52.3c-0.4-2.6-2.6-4.5-5.3-4.5c-3,0-5.4,2.4-5.4,5.4c0,3,2.4,5.4,5.4,5.4
				c2.7,0,4.9-2,5.3-4.5h50.6v77.6h-37.4v34.1c0.6-0.3,1.1-0.5,1.7-0.8V334.8z"/>
		</g>
		<g>
			<path class="st7" d="M909.1,302.5c-0.5,7.2,5.2,13.2,12.3,13.2h61.3c6.6,0,12.3-5,12.7-11.5c0.5-7.2-5.2-13.2-12.3-13.2h-61.3
				C915.3,291,909.5,295.9,909.1,302.5z"/>
			<path class="st7" d="M1071.7,254.4c0.5-7.2-5.2-13.2-12.3-13.2h-85c-6.6,0-12.3,5-12.7,11.5c-0.5,7.2,5.2,13.2,12.3,13.2h85
				C1065.6,266,1071.3,261,1071.7,254.4z"/>
			<path class="st7" d="M1024.9,291c-6.6,0-12.3,5-12.7,11.5c-0.5,7.2,5.2,13.2,12.3,13.2h28.1c6.6,0,12.3-5,12.7-11.5
				c0.5-7.2-5.2-13.2-12.3-13.2H1024.9z"/>
			<path class="st7" d="M952.3,191.6h-28.1c-6.6,0-12.3,5-12.7,11.5c-0.5,7.2,5.2,13.2,12.3,13.2h28.1c6.6,0,12.3-5,12.7-11.5
				C965.1,197.6,959.4,191.6,952.3,191.6z"/>
			<path class="st7" d="M747,204.8c0.4-5.7-3.2-10.7-8.2-12.5c2.4,6,4.5,12.1,6.1,18.4C746.1,209,746.9,207,747,204.8z"/>
			<path class="st7" d="M900.1,539.4c-6.8,0-12.3,5.5-12.3,12.4c0,6.8,5.5,12.4,12.3,12.4c6.8,0,12.4-5.5,12.4-12.4
				C912.5,544.9,906.9,539.4,900.1,539.4z"/>
			<path class="st7" d="M993.2,390.3h-20.6c-6.6,0-12.3,5-12.7,11.5c-0.5,7.2,5.2,13.2,12.3,13.2h56.8c6.6,0,12.3-5,12.7-11.5
				c0.5-7.2-5.2-13.2-12.3-13.2h3.3c-6.8,0-12.4-5.5-12.4-12.4v-0.5c0-6.7,5.4-12.1,12.1-12.1c0.1,0,10.4,0,10.6,0
				c6.4-0.2,11.9-5.1,12.3-11.5c0.5-7.2-5.2-13.2-12.3-13.2h-88.6c-6.6,0-12.3,5-12.7,11.5c-0.5,7.2,5.2,13.2,12.3,13.2h39.2
				c6.8,0,12.3,5.5,12.3,12.4v0.3C1005.5,384.8,1000,390.3,993.2,390.3z"/>
			<path class="st7" d="M992.7,440c-6.8,0-12.4,5.5-12.4,12.3c0,6.8,5.5,12.4,12.4,12.4h17.4c6.8,0,12.3-5.5,12.3-12.4
				c0-6.8-5.5-12.3-12.3-12.3H992.7z"/>
			<path class="st7" d="M824.8,141.9c-6.8,0-12.4,5.5-12.4,12.4c0,6.8,5.5,12.3,12.4,12.3h9.3c6.8,0,12.4-5.5,12.4-12.3
				c0-6.8-5.5-12.4-12.4-12.4H824.8z"/>
			<path class="st7" d="M847.4,332.3c2.4-2.4,2.4-6.2,0-8.6c-2.4-2.4-6.2-2.4-8.6,0c-2.4,2.4-2.4,6.2,0,8.6
				C841.2,334.7,845,334.7,847.4,332.3z"/>
			<path class="st7" d="M839,432.1c2.5-2.5,2.5-6.6,0-9.1c-2.5-2.5-6.6-2.5-9.1,0c-2.5,2.5-2.5,6.6,0,9.1
				C832.4,434.6,836.5,434.6,839,432.1z"/>
			<path class="st7" d="M809.2,385c3.9-3.9,3.9-10.2,0-14.1c-3.9-3.9-10.2-3.9-14.1,0c-3.9,3.9-3.9,10.2,0,14.1
				C799,388.9,805.3,388.9,809.2,385z"/>
			<path class="st7" d="M732.5,452.4c0-6.8-5.5-12.3-12.4-12.3h-34.4c0,0,0,0,0,0h-42.9c-6.5,0-12.3,4.6-13,11.1
				c-0.7,7.4,5,13.6,12.3,13.6h78.1C726.9,464.7,732.5,459.2,732.5,452.4z"/>
			<path class="st7" d="M830.1,663.5c6.8,0,12.4-5.5,12.4-12.4c0-6.8-5.5-12.4-12.4-12.4h-1.2c-6.8,0-12.4,5.5-12.4,12.4
				c0,6.8,5.5,12.4,12.4,12.4H830.1z"/>
			<path class="st7" d="M748.8,266h20h163.9c6.5,0,12.3-4.6,13-11.1c0.7-7.4-5-13.6-12.3-13.6h-57.2c-6.8,0-12.4-5.5-12.4-12.4v-0.3
				c0-6.8,5.5-12.4,12.3-12.4h6.9c6.5,0,12.3-4.6,13-11.1c0.7-7.4-5-13.6-12.3-13.6h-108c-6.5,0-12.3,4.6-13,11.1
				c-0.7,7.4,5,13.6,12.3,13.6h61.6c6.8,0,12.4,5.5,12.4,12.4v0.3c0,6.8-5.5,12.4-12.4,12.4h-87.1
				C750.1,249.6,749.8,257.9,748.8,266z"/>
			<path class="st7" d="M945.8,502.1c0,6.8,5.5,12.4,12.4,12.4h31.2c6.8,0,12.4-5.5,12.4-12.4c0-6.8-5.5-12.3-12.4-12.3h-31.2
				C951.4,489.7,945.8,495.2,945.8,502.1z"/>
			<path class="st7" d="M924.2,551.8c0,6.8,5.5,12.4,12.4,12.4h21c6.8,0,12.4-5.5,12.4-12.4c0-6.8-5.5-12.3-12.4-12.3h-21
				C929.7,539.4,924.2,544.9,924.2,551.8z"/>
			<path class="st7" d="M913.9,589.1h-9.7c-6.8,0-12.4,5.5-12.4,12.4c0,6.8,5.5,12.4,12.4,12.4h9.7c6.8,0,12.4-5.5,12.4-12.4
				C926.3,594.6,920.7,589.1,913.9,589.1z"/>
			<path class="st7" d="M744.8,315.7h22.3c0,0,0,0,0,0h48c5.2,0,10.4-1.6,14.7-4.5c1.9-1.3,4-2.5,6.2-3.2c2.6-0.9,5.3-1.3,8-1.2
				c5.1,0.2,10.2,2.3,14.1,6.2c7.6,7.6,8.2,19.4,2.1,27.7c-0.6,0.9-1.3,1.7-2.1,2.5c-5.7,5.7-13.9,7.7-21.1,5.4
				c-3-1-5.6-2.3-7.6-3.7c-4.5-3-9.7-4.5-15.1-4.5h-48.9c0,0.1,0,0.2,0,0.3h-30.3c-0.4-0.5-0.8-1.1-1.3-1.6c-3.1-3.1-7-4.9-11.2-5.4
				c-6,8.5-12.9,16.3-20.6,23.4c0.8,3.2,2.4,6.3,5,8.9c3.6,3.6,8.3,5.6,13.4,5.6c5.1,0,9.8-2,13.4-5.6c0.2-0.2,0.3-0.3,0.4-0.5h32.4
				c5.8,0,11.4-2.3,15.5-6.4l0.5-0.5h0c10.8-10.8,28.3-10.8,39.1,0c2.1,2.1,3.8,4.4,5,6.9c5.3,10.4,3.7,23.5-5,32.2
				c-10.8,10.8-28.3,10.8-39.1,0h0c-0.2-0.2-0.3-0.3-0.5-0.5c-4.2-4.4-10-7-16.2-7h-4.9c0,0.1,0,0.2,0,0.3h-91
				c-0.8-1.2-1.7-2.3-2.8-3.4c-1.5-1.5-3.2-2.8-5-3.8c-10.1,4.5-20.8,7.9-32,10c-4.1,8.6-2.7,19.2,4.4,26.3
				c4.4,4.4,10.1,6.7,16.3,6.7c6.2,0,11.9-2.4,16.3-6.7c1.4-1.4,2.4-2.9,3.4-4.5h15h73.4c0,0,0,0.1,0,0.1h51.1
				c5.1,0,10.2-1.4,14.6-4c2.6-1.5,6.3-2.8,11.1-2.5c5.6,0.4,11.1,3.4,14.6,8.8c3.9,6.1,3.8,14.2-0.1,20.2
				c-3.7,5.6-9.5,8.6-15.4,8.7c-5,0.1-8.4-1-10.6-2.4c-4.2-2.5-8.8-4.1-13.7-4.1l-48.2,0c0,0,0,0.1,0.1,0.1h-2.5
				c-6.5,0-12.3,4.6-13,11.1c-0.7,7.4,5,13.6,12.3,13.6h15.7h8.2c6.5,0,12.3,4.6,13,11.1c0.7,6.5-3.7,12.1-9.7,13.4h-63.7
				c-0.8-1.2-1.7-2.3-2.8-3.4c-4.3-4.3-10.1-6.7-16.3-6.7s-11.9,2.4-16.3,6.7c-9,9-9,23.6,0,32.6c4.4,4.4,10.1,6.7,16.3,6.7
				s11.9-2.4,16.3-6.7c1.2-1.2,2.2-2.5,3.1-4c0.2,0,0.5,0,0.7,0h32c6.8,0,12.4,5.5,12.4,12.4v0.3c0,6.8-5.5,12.4-12.3,12.4h-58.5
				c-6.5,0-12.4,4.6-13,11.1c-0.7,7.4,5,13.6,12.3,13.6h87h25.3c6.5,0,12.3,4.6,13,11.1c0.7,7.4-5,13.6-12.3,13.6h-64.2v0.3l-3.5,0
				c-6.5,0-12.4,4.6-13,11.1c-0.7,7.4,5,13.6,12.3,13.6h123.4c6.8,0,12.3-5.5,12.3-12.4c0-0.1,0-0.3,0-0.4c0,0,0-0.1,0-0.1v-76.8
				c0-7.5,6-13.5,13.5-13.5h27.9c9.3,0,16.8-7.5,16.8-16.8v-37.7c0-3.7,3-6.7,6.7-6.7H957c2,0,3.9-0.6,5.3-2c2.5-2.3,3-5.9,1.6-8.8
				l-12.7-25.4c-7-14.1-12.3-28.9-17-43.9C919.3,321.3,872.9,288,821,291h-52.1h-24c-0.4,0-0.9,0-1.3,0.1c-2.1,7-4.8,13.9-7.9,20.5
				C737.8,314,741.1,315.7,744.8,315.7z M726.4,359c-3.3,3.3-8.7,3.3-12,0c-3.3-3.3-3.3-8.7,0-12c3.3-3.3,8.7-3.3,12,0
				C729.8,350.3,729.8,355.7,726.4,359z M658.7,411c-4.3,4.3-11.3,4.3-15.6,0c-4.3-4.3-4.3-11.3,0-15.6c4.3-4.3,11.3-4.3,15.6,0
				C663.1,399.8,663.1,406.7,658.7,411z M711.3,509.9c-4.3,4.3-11.3,4.3-15.6,0c-4.3-4.3-4.3-11.3,0-15.6c4.3-4.3,11.3-4.3,15.6,0
				C715.6,498.6,715.6,505.6,711.3,509.9z"/>
		</g>
		<g>
			<path class="st7" d="M827.6,70.8L684,125.4c-30.6-20.4-67.1-28.5-103.7-23c-39,5.9-73.3,26.6-96.8,58.3
				c-23.4,31.7-33.1,70.6-27.2,109.6c4.2,27.7,15.9,53.1,33.7,73.9L365.9,476.6c-6.6,7-6.2,18,0.8,24.6c3.4,3.1,7.6,4.7,11.9,4.7
				c4.6,0,9.3-1.8,12.7-5.5l124.3-132.6c6.6,4.8,13.4,9,20.6,12.5c5.1,20,11.2,40.8,18.2,62c25.2,75.2,58.3,137.9,98.5,187.1
				c25.4,6.1,49,13.1,70.8,21c-76-65.8-120.1-167-145.5-256.4c7.8,1.3,15.8,1.9,23.8,1.9c7.4,0,14.8-0.6,22.3-1.7c2-0.3,4-0.7,6-1
				c11.2-2.2,21.9-5.6,32-10c14.8-6.6,28.2-15.5,39.8-26.2c7.7-7.1,14.6-14.9,20.6-23.4c4.9-7,9.3-14.4,13-22.1
				c3.1-6.6,5.8-13.4,7.9-20.5c2.5-8.1,4.2-16.5,5.3-25.1c1-8.1,1.3-16.3,0.9-24.7c-0.2-4.9-0.7-9.9-1.5-14.9
				c-0.8-5.3-1.9-10.6-3.2-15.7c-1.6-6.3-3.7-12.4-6.1-18.4c-5.9-14.4-13.9-27.7-24-39.5L827.6,110l282.1,107.2
				c-6.3,60.7-40.7,312.1-183,435.2c22-8.2,45.8-15.5,71.5-21.8c40.2-49.3,69.2-114,99.6-188c38.2-92.8,48.2-222.2,49.6-236.2
				l0.9-13.5L827.6,70.8z M715,247.1c0,4.1-0.1,8.2-0.5,12.2c-1.1,11-3.8,21.7-7.9,31.7c-3.6,8.8-8.3,17.1-13.9,24.6
				c-9.7,13-22.2,24-36.8,31.9c-11.2,6-23.5,10.3-36.8,12.3c-5.5,0.8-11,1.2-16.5,1.3c-11.7,0.1-23.3-1.7-34.4-5.2
				c-11.7-3.7-22.8-9.3-32.9-16.8c-3.7-2.7-7.2-5.7-10.5-8.8c-18.3-17.2-30.2-39.9-34-65.2c-4.5-29.8,2.9-59.5,20.8-83.8
				c17.9-24.2,44.2-40.1,73.9-44.5c5.7-0.9,11.4-1.3,17-1.3c12.9,0,25.6,2.2,37.7,6.6c10.3,3.7,20,8.9,29.1,15.5
				c3.6,2.7,7.1,5.6,10.4,8.6c8.1,7.6,15,16.3,20.4,25.8c4.4,7.6,7.8,15.7,10.4,24.3c1.5,5,2.6,10.1,3.4,15.3
				C714.6,236.8,715,242,715,247.1z"/>
			<path class="st7" d="M874.6,744.3c33.3-22.2,86.4-46.5,170.2-63.3v-32.7c-31,6-58.3,13-82.3,20.7
				c-67.9,21.7-109.6,48.3-134.8,71.2c-25.8-23.4-68.8-50.7-139.5-72.6c-22.9-7.1-48.6-13.6-77.6-19.2l-0.3,1.7v30.9
				c84.1,16.9,137.4,41.2,170.7,63.5c-28.4-9.1-66.7-16-117.6-16c-27.1,0-57.7,2-92.3,6.6v31.9l0,0.4c35.1-4.9,65.7-6.9,92.3-6.9
				c63.8,0,104.9,11.6,129.9,23.1c3.5,1.6,6.6,3.2,9.5,4.7l14.5,10.6l9.9,7.2c0.1,0.2,0.2,0.3,0.3,0.3l0.1-0.1l0.4,0.3
				c0-0.1,0.5-0.6,1.3-1.5l9.1-6.5l14.1-10.2c2.9-1.6,6.2-3.2,9.7-4.9c25.1-11.6,66.2-23.1,130-23.1c26.5,0,57,2,91.9,6.8v-32.3
				c-34.4-4.6-65-6.5-91.9-6.5C941.3,728.3,903,735.2,874.6,744.3z"/>
		</g>
	</g>
</g>
<g id="Layer_2">
</g>
</svg>
