<?xml version="1.0" encoding="utf-8"?>
<!-- Generator: Adobe Illustrator 28.1.0, SVG Export Plug-In . SVG Version: 6.00 Build 0)  -->
<svg version="1.1" xmlns="http://www.w3.org/2000/svg" xmlns:xlink="http://www.w3.org/1999/xlink" x="0px" y="0px"
	 viewBox="0 0 1509.5 1236.8" style="enable-background:new 0 0 1509.5 1236.8;" xml:space="preserve">
<style type="text/css">
	.st0{display:none;}
	.st1{display:inline;}
	.st2{fill:none;stroke:#000000;stroke-width:0.9157;stroke-miterlimit:10;}
	.st3{fill:#221F20;}
	.st4{opacity:0.6;}
	.st5{opacity:0.3;}
	.st6{opacity:0.3;fill:#221F20;}
	.st7{fill:#FFFFFF;}
	.st8{opacity:0.3;fill:#FFFFFF;}
	.st9{fill:url(#SVGID_1_);}
	.st10{fill:none;}
	.st11{fill:url(#SVGID_00000047036298821847399570000006701102873048531617_);}
	.st12{fill:url(#SVGID_00000028324374518416044030000003613880841383831693_);}
	.st13{fill:url(#SVGID_00000102537557404773256190000009727798110163481997_);}
	.st14{fill:url(#SVGID_00000082345304633823165320000013005940345735760568_);}
	.st15{fill:url(#SVGID_00000139992738614107792510000005821655974127356550_);}
	.st16{fill:url(#SVGID_00000017509418540755982650000016018732130084293035_);}
	.st17{fill:url(#SVGID_00000086693472178572842520000010483637788116169628_);}
	.st18{fill:url(#SVGID_00000138531966310491571990000005872308462613959333_);}
	.st19{fill:url(#SVGID_00000181770125706119886360000017591299474723879324_);}
	.st20{fill:url(#SVGID_00000165923330286987013420000018308392530071624876_);}
	.st21{fill:url(#SVGID_00000181067544422421046510000012896495669812932749_);}
	.st22{fill:url(#SVGID_00000081631474107734856660000004161804326692550057_);}
	.st23{fill:url(#SVGID_00000108291824765340867230000012186744809031832449_);}
	.st24{fill:url(#SVGID_00000160152951965992686430000011629576692201144226_);}
	.st25{fill:url(#SVGID_00000019658759273625888680000010760470688724499887_);}
	.st26{fill:url(#SVGID_00000158011423533419131730000012852853770802332048_);}
	.st27{fill:url(#SVGID_00000029731026284335348260000018068516964597075107_);}
	.st28{fill:url(#SVGID_00000169542927653065296670000011867441474361713330_);}
	.st29{fill:url(#SVGID_00000151508158694160274870000010609870698000660117_);}
	.st30{fill:url(#SVGID_00000070840147209621034060000010149346731417555356_);}
	.st31{fill:url(#SVGID_00000138550085971950682480000006063005697995899805_);}
	.st32{fill:url(#SVGID_00000070821588245590103000000004392502809198592149_);}
	.st33{fill:url(#SVGID_00000145772613767241405430000005734316570342265788_);}
	.st34{fill:url(#SVGID_00000044144301043025018540000008866712180294351016_);}
	.st35{fill:url(#SVGID_00000054966607203644857260000007782136184916324021_);}
	.st36{fill:url(#SVGID_00000167361190964596419500000011638991507210452409_);}
	.st37{fill:url(#SVGID_00000080193213806774613690000008880658116210871180_);}
	.st38{fill:url(#SVGID_00000155850667631883446460000011172933341814777746_);}
	.st39{fill:url(#SVGID_00000163057547632746733160000011365959367270883226_);}
	.st40{fill:url(#SVGID_00000180325329793836867530000006604535199997470644_);}
	.st41{fill:url(#SVGID_00000088835246415723955880000015594861155786471053_);}
	.st42{fill:url(#SVGID_00000009563177622952934190000003415166023647356050_);}
	.st43{fill:url(#SVGID_00000075858175840972456980000010882105116468322450_);}
	.st44{fill:url(#SVGID_00000104677462966537747870000018373339676133082292_);}
	.st45{fill:url(#SVGID_00000065795471560856586650000011297950616730999204_);}
	.st46{fill:url(#SVGID_00000034089933670873400020000002666833550475228841_);}
	.st47{fill:url(#SVGID_00000107548618175223753820000003706676554974245809_);}
	.st48{fill:url(#SVGID_00000045587513983517379880000007068205089159480975_);}
	.st49{fill:url(#SVGID_00000083071801310181664060000004465836576821266593_);}
	.st50{fill:#172B43;}
	.st51{fill:url(#SVGID_00000047742823500387972840000012054676866841914806_);}
	.st52{fill:url(#SVGID_00000087401039024060466370000000037681321671943096_);}
	.st53{fill:url(#SVGID_00000079444297093970800390000001585220379572035722_);}
	.st54{fill:url(#SVGID_00000028301269872867190510000007405583549881079989_);}
	.st55{fill:url(#SVGID_00000095332222723701943390000004664277354956844433_);}
	.st56{fill:url(#SVGID_00000090975446595371640450000008138223356232416690_);}
	.st57{fill:url(#SVGID_00000040572018930835949060000004865537207127524224_);}
	.st58{fill:url(#SVGID_00000100361300807748758690000012237019318158760071_);}
	.st59{fill:url(#SVGID_00000057109414125244595790000002151905650151298730_);}
	.st60{fill:url(#SVGID_00000158721440929573534780000018425444282900652172_);}
	.st61{fill:url(#SVGID_00000178911355702169516170000014653142926527978682_);}
	.st62{fill:url(#SVGID_00000183945963336562413350000000543045992994448786_);}
	.st63{fill:url(#SVGID_00000029009950906778372440000003180393182245278341_);}
	.st64{fill:url(#SVGID_00000000219537006092260610000017856461708063139003_);}
	.st65{fill:url(#SVGID_00000143577474294879522850000016691976506999281812_);}
	.st66{fill:url(#SVGID_00000044881651289741617300000003215112925158272902_);}
	.st67{fill:url(#SVGID_00000038409770378266080810000009747408259779856799_);}
	.st68{fill:url(#SVGID_00000140717543407911039930000009680132846307864214_);}
	.st69{fill:url(#SVGID_00000092421075940099639760000004513180868179882671_);}
	.st70{fill:url(#SVGID_00000112631190341832944730000017942963910037243525_);}
	.st71{fill:url(#SVGID_00000150096348046841729980000001511014234860040107_);}
	.st72{fill:url(#SVGID_00000142172288976702886990000005873077440165090966_);}
	.st73{fill:url(#SVGID_00000016047213542253885880000008802960036232847550_);}
	.st74{fill:url(#SVGID_00000139277004793823507270000014704679574429468093_);}
	.st75{fill:url(#SVGID_00000162327049833496153730000002075755643949476005_);}
	.st76{fill:url(#SVGID_00000001659293580679762910000004761683967338702211_);}
	.st77{fill:url(#SVGID_00000137123211307599434080000007086303711756051082_);}
	.st78{fill:url(#SVGID_00000148649965033976280790000002774693588184109198_);}
	.st79{fill:url(#SVGID_00000063613152413904375460000011604425658413594808_);}
	.st80{fill:url(#SVGID_00000062875304641001851950000016949572514229950115_);}
	.st81{fill:url(#SVGID_00000098216379753351530820000012674306311336065686_);}
	.st82{fill:url(#SVGID_00000059993477543009277250000004128993262165628337_);}
	.st83{fill:url(#SVGID_00000097464980599450048440000001554375027485415867_);}
	.st84{fill:url(#SVGID_00000026880002687948181060000016643282207308200077_);}
	.st85{fill:url(#SVGID_00000134234184120655022940000009938734429576243840_);}
	.st86{fill:url(#SVGID_00000017486729752289449550000017307413133610294663_);}
	.st87{fill:url(#SVGID_00000061461491236649998030000016559699412745339317_);}
	.st88{fill:url(#SVGID_00000002374876422083902640000007807093111858032551_);}
	.st89{fill:url(#SVGID_00000077296740911665069000000017560427535551864492_);}
	.st90{fill:url(#SVGID_00000055676744170002707080000003690093482414348419_);}
	.st91{fill:url(#SVGID_00000118367684326297072220000005337255774263954845_);}
	.st92{fill:url(#SVGID_00000176742569184727879080000015731367173050331535_);}
	.st93{fill:url(#SVGID_00000130641379010792122380000005129187800110080657_);}
	.st94{fill:url(#SVGID_00000036955148428175962400000005566378726269757102_);}
	.st95{fill:url(#SVGID_00000108294999741016938390000009788404629494362790_);}
	.st96{fill:url(#SVGID_00000102533951459443885400000018240336856173648264_);}
	.st97{fill:url(#SVGID_00000181049885440259991380000009385830065032939153_);}
	.st98{fill:url(#SVGID_00000038371145855287219090000013692720080853185973_);}
	.st99{fill:url(#SVGID_00000105405202069096598360000009954490425021124227_);}
	.st100{fill:url(#SVGID_00000077297401647787104230000008757249352868169114_);}
	.st101{fill:url(#SVGID_00000039100425561700769970000011584898774949038249_);}
	.st102{fill:url(#SVGID_00000159448612872649879800000014291350568908074931_);}
	.st103{fill:url(#SVGID_00000113346507218345517800000017330536356486417567_);}
	.st104{fill:url(#SVGID_00000070111328794704149370000013690785320028588443_);}
	.st105{fill:url(#SVGID_00000029724309488652753130000008366602582473416096_);}
	.st106{fill:url(#SVGID_00000180338274776104293960000013800631556620557976_);}
	.st107{fill:url(#SVGID_00000077293700223533170290000012656937959153189266_);}
	.st108{fill:url(#SVGID_00000068667103009679574270000002532107346547800510_);}
	.st109{fill:url(#SVGID_00000059993013518359146850000016169010771405041030_);}
	.st110{fill:url(#SVGID_00000119830990984449008930000002626584272961907125_);}
	.st111{fill:url(#SVGID_00000032616273045634779460000011825271384964050856_);}
	.st112{fill:url(#SVGID_00000095305574053611940670000011744514162111844757_);}
	.st113{fill:url(#SVGID_00000021100411214931691610000014183094820318295713_);}
	.st114{fill:url(#SVGID_00000065788680351391443940000015861621264207181458_);}
	.st115{fill:url(#SVGID_00000093879486820317630270000015427094643376166548_);}
	.st116{fill:url(#SVGID_00000156549525673137666820000010262740763695886733_);}
	.st117{fill:url(#SVGID_00000018209796586161993810000006068514868170081716_);}
	.st118{fill:url(#SVGID_00000045610893167264458410000002587014201453209499_);}
	.st119{fill:url(#SVGID_00000125586189490866226290000012850822099419338159_);}
	.st120{fill:url(#SVGID_00000062153506325883406180000016398435326024171691_);}
	.st121{fill:url(#SVGID_00000071545688879264649180000012611865745220642441_);}
	.st122{fill:url(#SVGID_00000129166061502268720410000016763860341289742730_);}
	.st123{fill:url(#SVGID_00000021813074889663673490000003280318170374866067_);}
	.st124{fill:url(#SVGID_00000021826344180082190580000014235438172856009642_);}
	.st125{fill:url(#SVGID_00000160870556637911021130000009699786639718090376_);}
	.st126{fill:url(#SVGID_00000078039727822379725380000001803280959239208606_);}
	.st127{fill:url(#SVGID_00000111908869845564395200000016532425327215201457_);}
	.st128{fill:url(#SVGID_00000143606512664341464630000008977322998204527254_);}
	.st129{fill:url(#SVGID_00000003820051803548882700000005672559401890370751_);}
	.st130{fill:url(#SVGID_00000124844561790866087460000007953531127501231008_);}
	.st131{fill:url(#SVGID_00000011736596149588782070000008712400117393468568_);}
	.st132{fill:url(#SVGID_00000091716430337398483320000003568580203529812635_);}
	.st133{fill:url(#SVGID_00000002353653310956377530000017386139538215370643_);}
	.st134{fill:url(#SVGID_00000029755358341596562170000005538398952466357922_);}
	.st135{fill:url(#SVGID_00000155842614823231468560000015051270109638439819_);}
	.st136{fill:url(#SVGID_00000128477750795548752130000006676455762837458337_);}
	.st137{fill:url(#SVGID_00000174576109492324880920000012134394604251561646_);}
	.st138{fill:url(#SVGID_00000112614912374338396900000001114034359909343416_);}
	.st139{fill:url(#SVGID_00000060752072821884144050000017087856766579340471_);}
	.st140{fill:url(#SVGID_00000074422005574816419210000013555458119005108397_);}
	.st141{fill:url(#SVGID_00000080898535213376901870000000643229443277438365_);}
	.st142{fill:url(#SVGID_00000078751405227622596700000018370038467868413843_);}
	.st143{fill:url(#SVGID_00000045583772593437466020000015965793584939299713_);}
	.st144{fill:url(#SVGID_00000026148892662409108910000011208399099765659536_);}
	.st145{fill:url(#SVGID_00000055697333540129974570000011502598792500134553_);}
	.st146{fill:url(#SVGID_00000158006160434884780190000005803167793432248965_);}
	.st147{fill:url(#SVGID_00000111882490687906029610000002628502926014118323_);}
	.st148{fill:url(#SVGID_00000021088967772287578500000017882709351719544728_);}
	.st149{fill:url(#SVGID_00000140733317092302904560000009768388779152101785_);}
	.st150{fill:url(#SVGID_00000034047341409691845500000017794385716081196963_);}
	.st151{fill:url(#SVGID_00000006709104127092817790000003196576932400806799_);}
	.st152{fill:url(#SVGID_00000157288972484894962760000011199390739180139141_);}
	.st153{fill:url(#SVGID_00000124866483342775395600000003789204729657096363_);}
	.st154{fill:url(#SVGID_00000041291557165176688900000013097575966415123376_);}
	.st155{fill:url(#SVGID_00000021814024500372545900000008199704801325913790_);}
	.st156{fill:url(#SVGID_00000067957528219657826910000010658244234486077831_);}
	.st157{fill:url(#SVGID_00000151522232341141482310000010016381107834342019_);}
	.st158{fill:url(#SVGID_00000063627819877210967510000013200227027103169927_);}
	.st159{fill:url(#SVGID_00000158707605044857651220000002067596342626514071_);}
	.st160{fill:url(#SVGID_00000133488622309824397950000007481251111720105875_);}
	.st161{fill:url(#SVGID_00000079481673478674922410000016766558905272548482_);}
	.st162{fill:url(#SVGID_00000015329505885100797710000013344150258139544716_);}
	.st163{fill:url(#SVGID_00000003101703773811947580000005413721547302779537_);}
	.st164{fill:url(#SVGID_00000114753291528240157110000017164648646294680989_);}
	.st165{fill:url(#SVGID_00000103950097349823308730000015580037750637372329_);}
	.st166{fill:url(#SVGID_00000026144471993184664370000000226945173536488599_);}
	.st167{fill:url(#SVGID_00000145740547537146867290000009111729864548837268_);}
	.st168{fill:url(#SVGID_00000151510570202955466930000007462870946888021926_);}
	.st169{fill:url(#SVGID_00000061468127467547725650000000338662182739523985_);}
	.st170{fill:url(#SVGID_00000130636944526869689290000012869933390614114212_);}
</style>
<g id="Layer_1">
	
		<image style="display:none;overflow:visible;" width="260" height="280" xlink:href="5BFB49C131963809.jpg"  transform="matrix(1 0 0 1 318.6612 1142.3746)">
	</image>
	<g class="st0">
		<g class="st1">
			<circle class="st2" cx="445.8" cy="1226.4" r="96.7"/>
		</g>
		<g class="st1">
			<line class="st2" x1="445.8" y1="1226.4" x2="445.8" y2="1323.1"/>
			<line class="st2" x1="445.8" y1="1226.4" x2="514.2" y2="1294.8"/>
			<line class="st2" x1="445.8" y1="1226.4" x2="542.5" y2="1226.4"/>
			<line class="st2" x1="445.8" y1="1226.4" x2="514.2" y2="1158"/>
			<line class="st2" x1="445.8" y1="1226.4" x2="445.8" y2="1129.7"/>
			<line class="st2" x1="445.8" y1="1226.4" x2="377.5" y2="1158"/>
			<line class="st2" x1="445.8" y1="1226.4" x2="349.1" y2="1226.4"/>
			<line class="st2" x1="445.8" y1="1226.4" x2="377.5" y2="1294.8"/>
		</g>
	</g>
	<g>
		<g>
			<path class="st7" d="M306.8,1160.2h-57.9l-104.3-178v178H90.4V889.7h57.9l104.3,178.2V889.7h54.1V1160.2z"/>
			<path class="st7" d="M572.1,1132.8c-12.6,10.7-26.6,18.9-42.1,24.6s-31.6,8.6-48.3,8.6c-12.8,0-25.2-1.7-37.1-5
				c-11.9-3.3-23-8-33.3-14.1c-10.3-6.1-19.7-13.4-28.3-21.9c-8.6-8.5-15.8-17.9-21.9-28.3c-6-10.4-10.7-21.5-14.1-33.5
				c-3.3-11.9-5-24.3-5-37.2c0-12.8,1.7-25.1,5-37c3.3-11.8,8-22.9,14.1-33.3c6-10.4,13.3-19.8,21.9-28.3c8.5-8.5,18-15.7,28.3-21.8
				c10.3-6,21.4-10.7,33.3-14.1c11.9-3.3,24.2-5,37.1-5c16.7,0,32.8,2.9,48.3,8.6c15.5,5.7,29.5,13.9,42.1,24.6L543.8,967
				c-8.2-8.3-17.6-14.8-28.3-19.5c-10.7-4.7-21.9-7.1-33.8-7.1c-11.8,0-22.9,2.3-33.3,6.8c-10.4,4.5-19.5,10.7-27.3,18.4
				c-7.8,7.7-14,16.8-18.5,27.2c-4.5,10.4-6.8,21.5-6.8,33.3c0,11.9,2.3,23.1,6.8,33.6c4.5,10.4,10.7,19.6,18.5,27.3
				c7.8,7.8,16.9,14,27.3,18.5c10.4,4.5,21.5,6.8,33.3,6.8c6.8,0,13.4-0.8,19.8-2.5c6.4-1.6,12.5-3.9,18.3-6.8v-76.9h52.2V1132.8z"
				/>
			<path class="st7" d="M597.9,970.8c0-11.2,2.1-21.7,6.4-31.5c4.3-9.8,10.1-18.4,17.4-25.7c7.4-7.4,15.9-13.2,25.7-17.4
				c9.8-4.3,20.3-6.4,31.5-6.4h124.1v54.1H679c-3.8,0-7.3,0.7-10.6,2.1c-3.3,1.4-6.1,3.3-8.6,5.8c-2.5,2.5-4.4,5.3-5.8,8.6
				c-1.4,3.3-2.1,6.8-2.1,10.6c0,3.8,0.7,7.3,2.1,10.7c1.4,3.3,3.3,6.2,5.8,8.7c2.5,2.5,5.3,4.4,8.6,5.8c3.3,1.4,6.8,2.1,10.6,2.1
				h54.1c11.2,0,21.7,2.1,31.6,6.3c9.9,4.2,18.5,10,25.8,17.4c7.4,7.4,13.1,16,17.4,25.8c4.2,9.9,6.3,20.4,6.3,31.6
				c0,11.2-2.1,21.7-6.3,31.5c-4.2,9.8-10,18.4-17.4,25.7c-7.4,7.4-16,13.2-25.8,17.4c-9.9,4.3-20.4,6.4-31.6,6.4H613V1106h120.1
				c3.8,0,7.3-0.7,10.6-2.1c3.3-1.4,6.1-3.3,8.6-5.8c2.5-2.5,4.4-5.3,5.8-8.6c1.4-3.3,2.1-6.8,2.1-10.6c0-3.8-0.7-7.3-2.1-10.6
				c-1.4-3.3-3.3-6.1-5.8-8.6c-2.5-2.5-5.3-4.4-8.6-5.8c-3.3-1.4-6.8-2.1-10.6-2.1H679c-11.2,0-21.7-2.1-31.5-6.4
				c-9.8-4.3-18.4-10.1-25.7-17.4c-7.4-7.4-13.2-16-17.4-25.8C600.1,992.5,597.9,982,597.9,970.8z"/>
			<path class="st7" d="M1114.7,1026.1c0,12.8-1.7,25.2-5,37.1c-3.3,11.9-8,23-14,33.4c-6,10.4-13.3,19.8-21.9,28.4
				c-8.6,8.6-18,15.9-28.3,22c-10.3,6.1-21.4,10.8-33.4,14.1c-11.9,3.3-24.3,5-37.2,5s-25.2-1.7-37.1-5c-11.9-3.3-23-8-33.4-14.1
				c-10.4-6.1-19.8-13.4-28.4-22c-8.6-8.5-15.9-18-22-28.4c-6.1-10.4-10.8-21.5-14.1-33.4c-3.3-11.9-5-24.2-5-37.1
				c0-12.8,1.7-25.2,5-37.2c3.3-11.9,8-23.1,14.1-33.4c6.1-10.3,13.4-19.7,22-28.3c8.5-8.5,18-15.8,28.4-21.9
				c10.4-6,21.5-10.7,33.4-14c11.9-3.3,24.2-5,37.1-5s25.2,1.7,37.2,5c11.9,3.3,23.1,8,33.4,14c10.3,6,19.7,13.3,28.3,21.9
				c8.5,8.6,15.8,18,21.9,28.3c6,10.3,10.7,21.4,14,33.4C1113,1000.9,1114.7,1013.3,1114.7,1026.1z M1060.9,1026.1
				c0-11.8-2.3-23-6.8-33.5c-4.5-10.5-10.7-19.6-18.4-27.3c-7.7-7.7-16.8-13.9-27.3-18.4c-10.5-4.5-21.7-6.8-33.5-6.8
				c-11.9,0-23.1,2.3-33.6,6.8c-10.4,4.5-19.6,10.7-27.3,18.4c-7.8,7.7-14,16.8-18.5,27.3c-4.5,10.5-6.8,21.7-6.8,33.5
				c0,11.8,2.3,22.9,6.8,33.3c4.5,10.4,10.7,19.5,18.5,27.3c7.8,7.8,16.9,14,27.3,18.5c10.4,4.5,21.6,6.8,33.6,6.8
				c11.8,0,23-2.3,33.5-6.8c10.5-4.5,19.6-10.7,27.3-18.5c7.7-7.8,13.9-16.9,18.4-27.3C1058.7,1049,1060.9,1037.9,1060.9,1026.1z"/>
			<path class="st7" d="M1255.2,1160.2h-53.9V943.9H1120v-54.1h216.3v54.1h-81.1V1160.2z"/>
			<path class="st7" d="M1419.1,1160.2H1365V889.7h54.1V1160.2z"/>
		</g>
		<linearGradient id="SVGID_1_" gradientUnits="userSpaceOnUse" x1="371.9267" y1="253.6192" x2="889.3708" y2="253.6192">
			<stop  offset="4.753638e-04" style="stop-color:#46978F"/>
			<stop  offset="1" style="stop-color:#7CDBC7"/>
		</linearGradient>
		<circle class="st9" cx="602.2" cy="253.6" r="124.5"/>
		<g>
			<g>
				<path class="st7" d="M613.8,337.2c-3.9,0-7,3.1-7,7c0,3.9,3.1,7,7,7c3.9,0,7-3.1,7-7C620.8,340.3,617.7,337.2,613.8,337.2z"/>
			</g>
			<g>
				<path class="st7" d="M574.9,199.4h-2.5v-7h0c0-4.9-4.1-8.9-9-8.9c-5,0-9,4-9,8.9h0v7h-2.5c-0.5,0-1,0.5-1,1v14c0,0.5,0.5,1,1,1
					h23c0.6,0,1-0.5,1-1v-14C575.9,199.9,575.5,199.4,574.9,199.4z M557.9,192.4C557.9,192.4,557.9,192.4,557.9,192.4
					c0-3,2.5-5.4,5.5-5.4s5.5,2.4,5.5,5.5c0,0,0,0,0,0v7h-11V192.4z M565.3,210h-3.8l1.2-3.5c-0.8-0.3-1.3-1-1.3-1.9
					c0-1.1,0.9-2,2-2c1.1,0,2,0.9,2,2c0,0.9-0.6,1.6-1.3,1.9L565.3,210z"/>
			</g>
		</g>
		<g class="st4">
			<g>
				<path class="st7" d="M659,312.2c0.2,2.8,2.5,5.1,5.3,5.1c3,0,5.4-2.4,5.4-5.4s-2.4-5.4-5.4-5.4c-2.5,0-4.5,1.7-5.2,4h-68.8
					c-0.4-3.6-3.4-6.4-7.1-6.4c-4,0-7.2,3.2-7.2,7.2c0,4,3.2,7.2,7.2,7.2c3.7,0,6.7-2.8,7.1-6.4H659z"/>
				<path class="st7" d="M505.5,209.4c-3,0-5.4,2.4-5.4,5.4c0,3,2.4,5.4,5.4,5.4c3,0,5.4-2.4,5.4-5.4
					C510.9,211.8,508.5,209.4,505.5,209.4z"/>
			</g>
			<g>
				<path class="st7" d="M628.6,302.3h-1.4v-3.9h0c0-2.8-2.3-5-5.1-5c-2.8,0-5,2.2-5.1,5h0v3.9h-1.4c-0.3,0-0.6,0.3-0.6,0.6v7.9
					c0,0.3,0.3,0.6,0.6,0.6h13c0.3,0,0.6-0.3,0.6-0.6v-7.9C629.2,302.6,629,302.3,628.6,302.3z M619.1,298.4
					C619.1,298.4,619.1,298.4,619.1,298.4c0-1.7,1.4-3.1,3.1-3.1c1.7,0,3.1,1.4,3.1,3.1c0,0,0,0,0,0v3.9h-6.2V298.4z M623.2,308.3
					h-2.1l0.7-2c-0.4-0.2-0.7-0.6-0.7-1.1c0-0.6,0.5-1.1,1.1-1.1c0.6,0,1.1,0.5,1.1,1.1c0,0.5-0.3,0.9-0.7,1.1L623.2,308.3z"/>
				<path class="st7" d="M643.6,185.1h-1.9v-5.4h0c0-3.8-3.1-6.8-6.9-6.8c-3.8,0-6.9,3.1-6.9,6.8h0v5.4H626c-0.4,0-0.8,0.3-0.8,0.8
					v10.7c0,0.4,0.3,0.8,0.8,0.8h17.6c0.4,0,0.8-0.3,0.8-0.8v-10.7C644.3,185.5,644,185.1,643.6,185.1z M630.6,179.8
					C630.6,179.8,630.6,179.8,630.6,179.8c0-2.3,1.9-4.2,4.2-4.2c2.3,0,4.2,1.9,4.2,4.2c0,0,0,0,0,0v5.4h-8.4V179.8z M636.2,193.2
					h-2.9l0.9-2.7c-0.6-0.2-1-0.8-1-1.4c0-0.8,0.7-1.5,1.5-1.5c0.8,0,1.5,0.7,1.5,1.5c0,0.7-0.4,1.2-1,1.4L636.2,193.2z"/>
			</g>
		</g>
		<g class="st5">
			<path class="st10" d="M678.2,197.2V155c-21-16.2-47.4-25.9-76-25.9c-0.9,0-1.8,0-2.7,0v68.1H678.2z"/>
			<path class="st10" d="M599.5,198.9v64.3h-45.3v74c2.6,0.4,4.5,2.6,4.5,5.3c0,3-2.4,5.4-5.4,5.4c-3,0-5.4-2.4-5.4-5.4
				c0-2.7,2-4.9,4.5-5.3v-75.7h45.3v-62.6h-2v-1.7h2v-68.1c-66.7,2.3-120.1,57.1-120.1,124.4c0,68.8,55.8,124.5,124.5,124.5
				s124.5-55.8,124.5-124.5c0-39.4-18.3-74.5-46.8-97.3v42.6H599.5z"/>
			<path class="st7" d="M678.2,197.2h-78.7v-68.1c-0.6,0-1.1,0-1.7,0.1v68.1h-2v1.7h2v62.6h-45.3v75.7c-2.6,0.4-4.5,2.6-4.5,5.3
				c0,3,2.4,5.4,5.4,5.4c3,0,5.4-2.4,5.4-5.4c0-2.7-2-4.9-4.5-5.3v-74h45.3v-64.3h80.4v-42.6c-0.6-0.4-1.1-0.9-1.7-1.3V197.2z"/>
		</g>
		<g>
			<path class="st8" d="M637.5,323.5v-68h58.2v-66.5h12.9c-0.5-0.7-0.9-1.5-1.4-2.2h-13.7v66.5h-56V134.6h-2.2v118.7h-44.5v-39.9
				h-69.1c-0.1-19.7-0.1-39.1-0.1-54.5c-0.7,0.6-1.5,1.3-2.2,1.9c0,15.2,0,33.9,0.1,52.6h-35c-0.3,0.7-0.5,1.5-0.7,2.2h35.8
				c0.1,29,0.4,57.6,0.5,73.2h-37.2c0.2,0.7,0.4,1.5,0.7,2.2h38.8l0-1.1c-0.2-17.4-0.4-45.9-0.5-74.3h66.9v39.9h46.8v65.8h-85.5
				v45.3c0.7,0.3,1.5,0.7,2.2,1v-44.1H637.5z"/>
			<path class="st8" d="M680.9,321.3c-0.6-4.7-4.5-8.3-9.3-8.3c-5.2,0-9.4,4.2-9.4,9.4c0,5.2,4.2,9.4,9.4,9.4c4.8,0,8.8-3.6,9.3-8.3
				h24.5c0.5-0.7,1-1.5,1.5-2.2H680.9z"/>
		</g>
		<g>
			<path class="st10" d="M690.7,333.1v-77.6h-50.6c-0.4,2.6-2.6,4.5-5.3,4.5c-3,0-5.4-2.4-5.4-5.4c0-3,2.4-5.4,5.4-5.4
				c2.7,0,4.9,2,5.3,4.5h52.3v81H655v31.6c42.4-19.9,71.8-62.9,71.8-112.8c0-68.8-55.8-124.5-124.5-124.5s-124.5,55.8-124.5,124.5
				c0,11.6,1.6,22.9,4.6,33.6V276h22.3v-55.8h0.8h0.9v57.5H484v15.1c16.4,49.6,63.1,85.4,118.2,85.4c3.5,0,7-0.2,10.5-0.4v-26.5h1.1
				h1.1v26.3c13.6-1.4,26.5-4.9,38.4-10.3v-34.1H690.7z"/>
			<path class="st10" d="M613.8,351.2h-1.1v26.5c0.7-0.1,1.5-0.1,2.2-0.2v-26.3H613.8z"/>
			<path class="st10" d="M506.3,277.7v-57.5h-0.9h-0.8V276h-22.3v11.2c0.5,1.9,1.1,3.7,1.7,5.6v-15.1H506.3z"/>
			<path class="st10" d="M655,334.8h37.4v-81h-52.3c-0.4-2.6-2.6-4.5-5.3-4.5c-3,0-5.4,2.4-5.4,5.4c0,3,2.4,5.4,5.4,5.4
				c2.7,0,4.9-2,5.3-4.5h50.6v77.6h-37.4v34.1c0.6-0.3,1.1-0.5,1.7-0.8V334.8z"/>
		</g>
		<g>
			
				<linearGradient id="SVGID_00000133515683201751196950000001585235827269691525_" gradientUnits="userSpaceOnUse" x1="625.457" y1="303.3081" x2="968.8643" y2="303.3081">
				<stop  offset="4.753638e-04" style="stop-color:#46978F"/>
				<stop  offset="1" style="stop-color:#7CDBC7"/>
			</linearGradient>
			<path style="fill:url(#SVGID_00000133515683201751196950000001585235827269691525_);" d="M909.1,302.5
				c-0.5,7.2,5.2,13.2,12.3,13.2h61.3c6.6,0,12.3-5,12.7-11.5c0.5-7.2-5.2-13.2-12.3-13.2h-61.3C915.3,291,909.5,295.9,909.1,302.5z
				"/>
			
				<linearGradient id="SVGID_00000132785032971958042020000012219722094038627506_" gradientUnits="userSpaceOnUse" x1="625.457" y1="253.6192" x2="968.8643" y2="253.6192">
				<stop  offset="4.753638e-04" style="stop-color:#46978F"/>
				<stop  offset="1" style="stop-color:#7CDBC7"/>
			</linearGradient>
			<path style="fill:url(#SVGID_00000132785032971958042020000012219722094038627506_);" d="M1071.7,254.4
				c0.5-7.2-5.2-13.2-12.3-13.2h-85c-6.6,0-12.3,5-12.7,11.5c-0.5,7.2,5.2,13.2,12.3,13.2h85C1065.6,266,1071.3,261,1071.7,254.4z"
				/>
			
				<linearGradient id="SVGID_00000014633701486311158970000007647324811797073041_" gradientUnits="userSpaceOnUse" x1="625.457" y1="303.3081" x2="968.8643" y2="303.3081">
				<stop  offset="4.753638e-04" style="stop-color:#46978F"/>
				<stop  offset="1" style="stop-color:#7CDBC7"/>
			</linearGradient>
			<path style="fill:url(#SVGID_00000014633701486311158970000007647324811797073041_);" d="M1024.9,291c-6.6,0-12.3,5-12.7,11.5
				c-0.5,7.2,5.2,13.2,12.3,13.2h28.1c6.6,0,12.3-5,12.7-11.5c0.5-7.2-5.2-13.2-12.3-13.2H1024.9z"/>
			
				<linearGradient id="SVGID_00000097497036975127520440000015787649639927842483_" gradientUnits="userSpaceOnUse" x1="625.457" y1="203.9305" x2="968.8643" y2="203.9305">
				<stop  offset="4.753638e-04" style="stop-color:#46978F"/>
				<stop  offset="1" style="stop-color:#7CDBC7"/>
			</linearGradient>
			<path style="fill:url(#SVGID_00000097497036975127520440000015787649639927842483_);" d="M952.3,191.6h-28.1
				c-6.6,0-12.3,5-12.7,11.5c-0.5,7.2,5.2,13.2,12.3,13.2h28.1c6.6,0,12.3-5,12.7-11.5C965.1,197.6,959.4,191.6,952.3,191.6z"/>
			
				<linearGradient id="SVGID_00000009589612642847501630000001272689489411782315_" gradientUnits="userSpaceOnUse" x1="625.457" y1="201.4917" x2="968.8643" y2="201.4917">
				<stop  offset="4.753638e-04" style="stop-color:#46978F"/>
				<stop  offset="1" style="stop-color:#7CDBC7"/>
			</linearGradient>
			<path style="fill:url(#SVGID_00000009589612642847501630000001272689489411782315_);" d="M747,204.8c0.4-5.7-3.2-10.7-8.2-12.5
				c2.4,6,4.5,12.1,6.1,18.4C746.1,209,746.9,207,747,204.8z"/>
			
				<linearGradient id="SVGID_00000142170520949369943320000017685139443354501809_" gradientUnits="userSpaceOnUse" x1="625.457" y1="551.753" x2="968.8643" y2="551.753">
				<stop  offset="4.753638e-04" style="stop-color:#46978F"/>
				<stop  offset="1" style="stop-color:#7CDBC7"/>
			</linearGradient>
			<path style="fill:url(#SVGID_00000142170520949369943320000017685139443354501809_);" d="M900.1,539.4c-6.8,0-12.3,5.5-12.3,12.4
				c0,6.8,5.5,12.4,12.3,12.4c6.8,0,12.4-5.5,12.4-12.4C912.5,544.9,906.9,539.4,900.1,539.4z"/>
			
				<linearGradient id="SVGID_00000143607026538132004250000006965129817616936850_" gradientUnits="userSpaceOnUse" x1="625.457" y1="377.8413" x2="968.8643" y2="377.8413">
				<stop  offset="4.753638e-04" style="stop-color:#46978F"/>
				<stop  offset="1" style="stop-color:#7CDBC7"/>
			</linearGradient>
			<path style="fill:url(#SVGID_00000143607026538132004250000006965129817616936850_);" d="M993.2,390.3h-20.6
				c-6.6,0-12.3,5-12.7,11.5c-0.5,7.2,5.2,13.2,12.3,13.2h56.8c6.6,0,12.3-5,12.7-11.5c0.5-7.2-5.2-13.2-12.3-13.2h3.3
				c-6.8,0-12.4-5.5-12.4-12.4v-0.5c0-6.7,5.4-12.1,12.1-12.1c0.1,0,10.4,0,10.6,0c6.4-0.2,11.9-5.1,12.3-11.5
				c0.5-7.2-5.2-13.2-12.3-13.2h-88.6c-6.6,0-12.3,5-12.7,11.5c-0.5,7.2,5.2,13.2,12.3,13.2h39.2c6.8,0,12.3,5.5,12.3,12.4v0.3
				C1005.5,384.8,1000,390.3,993.2,390.3z"/>
			
				<linearGradient id="SVGID_00000160886159296094083750000000866710599440470957_" gradientUnits="userSpaceOnUse" x1="625.457" y1="452.375" x2="968.8643" y2="452.375">
				<stop  offset="4.753638e-04" style="stop-color:#46978F"/>
				<stop  offset="1" style="stop-color:#7CDBC7"/>
			</linearGradient>
			<path style="fill:url(#SVGID_00000160886159296094083750000000866710599440470957_);" d="M992.7,440c-6.8,0-12.4,5.5-12.4,12.3
				c0,6.8,5.5,12.4,12.4,12.4h17.4c6.8,0,12.3-5.5,12.3-12.4c0-6.8-5.5-12.3-12.3-12.3H992.7z"/>
			
				<linearGradient id="SVGID_00000137837967951909485580000014012699913661361815_" gradientUnits="userSpaceOnUse" x1="625.457" y1="154.2398" x2="968.8643" y2="154.2398">
				<stop  offset="4.753638e-04" style="stop-color:#46978F"/>
				<stop  offset="1" style="stop-color:#7CDBC7"/>
			</linearGradient>
			<path style="fill:url(#SVGID_00000137837967951909485580000014012699913661361815_);" d="M824.8,141.9c-6.8,0-12.4,5.5-12.4,12.4
				c0,6.8,5.5,12.3,12.4,12.3h9.3c6.8,0,12.4-5.5,12.4-12.3c0-6.8-5.5-12.4-12.4-12.4H824.8z"/>
			
				<linearGradient id="SVGID_00000049914025032422249630000014558348794822028718_" gradientUnits="userSpaceOnUse" x1="625.457" y1="328.0213" x2="968.8643" y2="328.0213">
				<stop  offset="4.753638e-04" style="stop-color:#46978F"/>
				<stop  offset="1" style="stop-color:#7CDBC7"/>
			</linearGradient>
			<path style="fill:url(#SVGID_00000049914025032422249630000014558348794822028718_);" d="M847.4,332.3c2.4-2.4,2.4-6.2,0-8.6
				c-2.4-2.4-6.2-2.4-8.6,0c-2.4,2.4-2.4,6.2,0,8.6C841.2,334.7,845,334.7,847.4,332.3z"/>
			
				<linearGradient id="SVGID_00000029750210809797589080000013108492097275139747_" gradientUnits="userSpaceOnUse" x1="625.457" y1="427.5304" x2="968.8643" y2="427.5304">
				<stop  offset="4.753638e-04" style="stop-color:#46978F"/>
				<stop  offset="1" style="stop-color:#7CDBC7"/>
			</linearGradient>
			<path style="fill:url(#SVGID_00000029750210809797589080000013108492097275139747_);" d="M839,432.1c2.5-2.5,2.5-6.6,0-9.1
				c-2.5-2.5-6.6-2.5-9.1,0c-2.5,2.5-2.5,6.6,0,9.1C832.4,434.6,836.5,434.6,839,432.1z"/>
			
				<linearGradient id="SVGID_00000043426934828584897370000016871614475824144542_" gradientUnits="userSpaceOnUse" x1="625.457" y1="377.9854" x2="968.8643" y2="377.9854">
				<stop  offset="4.753638e-04" style="stop-color:#46978F"/>
				<stop  offset="1" style="stop-color:#7CDBC7"/>
			</linearGradient>
			<path style="fill:url(#SVGID_00000043426934828584897370000016871614475824144542_);" d="M809.2,385c3.9-3.9,3.9-10.2,0-14.1
				c-3.9-3.9-10.2-3.9-14.1,0c-3.9,3.9-3.9,10.2,0,14.1C799,388.9,805.3,388.9,809.2,385z"/>
			
				<linearGradient id="SVGID_00000064337667605322970450000000146147101529955992_" gradientUnits="userSpaceOnUse" x1="625.457" y1="452.3748" x2="968.8643" y2="452.3748">
				<stop  offset="4.753638e-04" style="stop-color:#46978F"/>
				<stop  offset="1" style="stop-color:#7CDBC7"/>
			</linearGradient>
			<path style="fill:url(#SVGID_00000064337667605322970450000000146147101529955992_);" d="M732.5,452.4c0-6.8-5.5-12.3-12.4-12.3
				h-34.4c0,0,0,0,0,0h-42.9c-6.5,0-12.3,4.6-13,11.1c-0.7,7.4,5,13.6,12.3,13.6h78.1C726.9,464.7,732.5,459.2,732.5,452.4z"/>
			
				<linearGradient id="SVGID_00000035517912385682519100000000232271806916548770_" gradientUnits="userSpaceOnUse" x1="625.457" y1="651.1324" x2="968.8643" y2="651.1324">
				<stop  offset="4.753638e-04" style="stop-color:#46978F"/>
				<stop  offset="1" style="stop-color:#7CDBC7"/>
			</linearGradient>
			<path style="fill:url(#SVGID_00000035517912385682519100000000232271806916548770_);" d="M830.1,663.5c6.8,0,12.4-5.5,12.4-12.4
				c0-6.8-5.5-12.4-12.4-12.4h-1.2c-6.8,0-12.4,5.5-12.4,12.4c0,6.8,5.5,12.4,12.4,12.4H830.1z"/>
			
				<linearGradient id="SVGID_00000038404800718772551800000017232727279258820793_" gradientUnits="userSpaceOnUse" x1="625.457" y1="228.7749" x2="968.8643" y2="228.7749">
				<stop  offset="4.753638e-04" style="stop-color:#46978F"/>
				<stop  offset="1" style="stop-color:#7CDBC7"/>
			</linearGradient>
			<path style="fill:url(#SVGID_00000038404800718772551800000017232727279258820793_);" d="M748.8,266h20h163.9
				c6.5,0,12.3-4.6,13-11.1c0.7-7.4-5-13.6-12.3-13.6h-57.2c-6.8,0-12.4-5.5-12.4-12.4v-0.3c0-6.8,5.5-12.4,12.3-12.4h6.9
				c6.5,0,12.3-4.6,13-11.1c0.7-7.4-5-13.6-12.3-13.6h-108c-6.5,0-12.3,4.6-13,11.1c-0.7,7.4,5,13.6,12.3,13.6h61.6
				c6.8,0,12.4,5.5,12.4,12.4v0.3c0,6.8-5.5,12.4-12.4,12.4h-87.1C750.1,249.6,749.8,257.9,748.8,266z"/>
			
				<linearGradient id="SVGID_00000080888722122845519470000009510129029651368070_" gradientUnits="userSpaceOnUse" x1="625.457" y1="502.064" x2="968.8643" y2="502.064">
				<stop  offset="4.753638e-04" style="stop-color:#46978F"/>
				<stop  offset="1" style="stop-color:#7CDBC7"/>
			</linearGradient>
			<path style="fill:url(#SVGID_00000080888722122845519470000009510129029651368070_);" d="M945.8,502.1c0,6.8,5.5,12.4,12.4,12.4
				h31.2c6.8,0,12.4-5.5,12.4-12.4c0-6.8-5.5-12.3-12.4-12.3h-31.2C951.4,489.7,945.8,495.2,945.8,502.1z"/>
			
				<linearGradient id="SVGID_00000106858123758743357050000001782513393006507169_" gradientUnits="userSpaceOnUse" x1="625.457" y1="551.753" x2="968.8643" y2="551.753">
				<stop  offset="4.753638e-04" style="stop-color:#46978F"/>
				<stop  offset="1" style="stop-color:#7CDBC7"/>
			</linearGradient>
			<path style="fill:url(#SVGID_00000106858123758743357050000001782513393006507169_);" d="M924.2,551.8c0,6.8,5.5,12.4,12.4,12.4
				h21c6.8,0,12.4-5.5,12.4-12.4c0-6.8-5.5-12.3-12.4-12.3h-21C929.7,539.4,924.2,544.9,924.2,551.8z"/>
			
				<linearGradient id="SVGID_00000097486503236061925340000001546423576566990508_" gradientUnits="userSpaceOnUse" x1="625.457" y1="601.4417" x2="968.8643" y2="601.4417">
				<stop  offset="4.753638e-04" style="stop-color:#46978F"/>
				<stop  offset="1" style="stop-color:#7CDBC7"/>
			</linearGradient>
			<path style="fill:url(#SVGID_00000097486503236061925340000001546423576566990508_);" d="M913.9,589.1h-9.7
				c-6.8,0-12.4,5.5-12.4,12.4c0,6.8,5.5,12.4,12.4,12.4h9.7c6.8,0,12.4-5.5,12.4-12.4C926.3,594.6,920.7,589.1,913.9,589.1z"/>
			
				<linearGradient id="SVGID_00000136372433269711663700000014489175781729593006_" gradientUnits="userSpaceOnUse" x1="625.457" y1="452.2842" x2="968.8643" y2="452.2842">
				<stop  offset="4.753638e-04" style="stop-color:#46978F"/>
				<stop  offset="1" style="stop-color:#7CDBC7"/>
			</linearGradient>
			<path style="fill:url(#SVGID_00000136372433269711663700000014489175781729593006_);" d="M744.8,315.7h22.3c0,0,0,0,0,0h48
				c5.2,0,10.4-1.6,14.7-4.5c1.9-1.3,4-2.5,6.2-3.2c2.6-0.9,5.3-1.3,8-1.2c5.1,0.2,10.2,2.3,14.1,6.2c7.6,7.6,8.2,19.4,2.1,27.7
				c-0.6,0.9-1.3,1.7-2.1,2.5c-5.7,5.7-13.9,7.7-21.1,5.4c-3-1-5.6-2.3-7.6-3.7c-4.5-3-9.7-4.5-15.1-4.5h-48.9c0,0.1,0,0.2,0,0.3
				h-30.3c-0.4-0.5-0.8-1.1-1.3-1.6c-3.1-3.1-7-4.9-11.2-5.4c-6,8.5-12.9,16.3-20.6,23.4c0.8,3.2,2.4,6.3,5,8.9
				c3.6,3.6,8.3,5.6,13.4,5.6c5.1,0,9.8-2,13.4-5.6c0.2-0.2,0.3-0.3,0.4-0.5h32.4c5.8,0,11.4-2.3,15.5-6.4l0.5-0.5h0
				c10.8-10.8,28.3-10.8,39.1,0c2.1,2.1,3.8,4.4,5,6.9c5.3,10.4,3.7,23.5-5,32.2c-10.8,10.8-28.3,10.8-39.1,0h0
				c-0.2-0.2-0.3-0.3-0.5-0.5c-4.2-4.4-10-7-16.2-7h-4.9c0,0.1,0,0.2,0,0.3h-91c-0.8-1.2-1.7-2.3-2.8-3.4c-1.5-1.5-3.2-2.8-5-3.8
				c-10.1,4.5-20.8,7.9-32,10c-4.1,8.6-2.7,19.2,4.4,26.3c4.4,4.4,10.1,6.7,16.3,6.7c6.2,0,11.9-2.4,16.3-6.7
				c1.4-1.4,2.4-2.9,3.4-4.5h15h73.4c0,0,0,0.1,0,0.1h51.1c5.1,0,10.2-1.4,14.6-4c2.6-1.5,6.3-2.8,11.1-2.5
				c5.6,0.4,11.1,3.4,14.6,8.8c3.9,6.1,3.8,14.2-0.1,20.2c-3.7,5.6-9.5,8.6-15.4,8.7c-5,0.1-8.4-1-10.6-2.4
				c-4.2-2.5-8.8-4.1-13.7-4.1l-48.2,0c0,0,0,0.1,0.1,0.1h-2.5c-6.5,0-12.3,4.6-13,11.1c-0.7,7.4,5,13.6,12.3,13.6h15.7h8.2
				c6.5,0,12.3,4.6,13,11.1c0.7,6.5-3.7,12.1-9.7,13.4h-63.7c-0.8-1.2-1.7-2.3-2.8-3.4c-4.3-4.3-10.1-6.7-16.3-6.7
				s-11.9,2.4-16.3,6.7c-9,9-9,23.6,0,32.6c4.4,4.4,10.1,6.7,16.3,6.7s11.9-2.4,16.3-6.7c1.2-1.2,2.2-2.5,3.1-4c0.2,0,0.5,0,0.7,0
				h32c6.8,0,12.4,5.5,12.4,12.4v0.3c0,6.8-5.5,12.4-12.3,12.4h-58.5c-6.5,0-12.4,4.6-13,11.1c-0.7,7.4,5,13.6,12.3,13.6h87h25.3
				c6.5,0,12.3,4.6,13,11.1c0.7,7.4-5,13.6-12.3,13.6h-64.2v0.3l-3.5,0c-6.5,0-12.4,4.6-13,11.1c-0.7,7.4,5,13.6,12.3,13.6h123.4
				c6.8,0,12.3-5.5,12.3-12.4c0-0.1,0-0.3,0-0.4c0,0,0-0.1,0-0.1v-76.8c0-7.5,6-13.5,13.5-13.5h27.9c9.3,0,16.8-7.5,16.8-16.8v-37.7
				c0-3.7,3-6.7,6.7-6.7H957c2,0,3.9-0.6,5.3-2c2.5-2.3,3-5.9,1.6-8.8l-12.7-25.4c-7-14.1-12.3-28.9-17-43.9
				C919.3,321.3,872.9,288,821,291h-52.1h-24c-0.4,0-0.9,0-1.3,0.1c-2.1,7-4.8,13.9-7.9,20.5C737.8,314,741.1,315.7,744.8,315.7z
				 M726.4,359c-3.3,3.3-8.7,3.3-12,0c-3.3-3.3-3.3-8.7,0-12c3.3-3.3,8.7-3.3,12,0C729.8,350.3,729.8,355.7,726.4,359z M658.7,411
				c-4.3,4.3-11.3,4.3-15.6,0c-4.3-4.3-4.3-11.3,0-15.6c4.3-4.3,11.3-4.3,15.6,0C663.1,399.8,663.1,406.7,658.7,411z M711.3,509.9
				c-4.3,4.3-11.3,4.3-15.6,0c-4.3-4.3-4.3-11.3,0-15.6c4.3-4.3,11.3-4.3,15.6,0C715.6,498.6,715.6,505.6,711.3,509.9z"/>
		</g>
		<g>
			<path class="st7" d="M827.6,70.8L684,125.4c-30.6-20.4-67.1-28.5-103.7-23c-39,5.9-73.3,26.6-96.8,58.3
				c-23.4,31.7-33.1,70.6-27.2,109.6c4.2,27.7,15.9,53.1,33.7,73.9L365.9,476.6c-6.6,7-6.2,18,0.8,24.6c3.4,3.1,7.6,4.7,11.9,4.7
				c4.6,0,9.3-1.8,12.7-5.5l124.3-132.6c6.6,4.8,13.4,9,20.6,12.5c5.1,20,11.2,40.8,18.2,62c25.2,75.2,58.3,137.9,98.5,187.1
				c25.4,6.1,49,13.1,70.8,21c-76-65.8-120.1-167-145.5-256.4c7.8,1.3,15.8,1.9,23.8,1.9c7.4,0,14.8-0.6,22.3-1.7c2-0.3,4-0.7,6-1
				c11.2-2.2,21.9-5.6,32-10c14.8-6.6,28.2-15.5,39.8-26.2c7.7-7.1,14.6-14.9,20.6-23.4c4.9-7,9.3-14.4,13-22.1
				c3.1-6.6,5.8-13.4,7.9-20.5c2.5-8.1,4.2-16.5,5.3-25.1c1-8.1,1.3-16.3,0.9-24.7c-0.2-4.9-0.7-9.9-1.5-14.9
				c-0.8-5.3-1.9-10.6-3.2-15.7c-1.6-6.3-3.7-12.4-6.1-18.4c-5.9-14.4-13.9-27.7-24-39.5L827.6,110l282.1,107.2
				c-6.3,60.7-40.7,312.1-183,435.2c22-8.2,45.8-15.5,71.5-21.8c40.2-49.3,69.2-114,99.6-188c38.2-92.8,48.2-222.2,49.6-236.2
				l0.9-13.5L827.6,70.8z M715,247.1c0,4.1-0.1,8.2-0.5,12.2c-1.1,11-3.8,21.7-7.9,31.7c-3.6,8.8-8.3,17.1-13.9,24.6
				c-9.7,13-22.2,24-36.8,31.9c-11.2,6-23.5,10.3-36.8,12.3c-5.5,0.8-11,1.2-16.5,1.3c-11.7,0.1-23.3-1.7-34.4-5.2
				c-11.7-3.7-22.8-9.3-32.9-16.8c-3.7-2.7-7.2-5.7-10.5-8.8c-18.3-17.2-30.2-39.9-34-65.2c-4.5-29.8,2.9-59.5,20.8-83.8
				c17.9-24.2,44.2-40.1,73.9-44.5c5.7-0.9,11.4-1.3,17-1.3c12.9,0,25.6,2.2,37.7,6.6c10.3,3.7,20,8.9,29.1,15.5
				c3.6,2.7,7.1,5.6,10.4,8.6c8.1,7.6,15,16.3,20.4,25.8c4.4,7.6,7.8,15.7,10.4,24.3c1.5,5,2.6,10.1,3.4,15.3
				C714.6,236.8,715,242,715,247.1z"/>
			<path class="st7" d="M874.6,744.3c33.3-22.2,86.4-46.5,170.2-63.3v-32.7c-31,6-58.3,13-82.3,20.7
				c-67.9,21.7-109.6,48.3-134.8,71.2c-25.8-23.4-68.8-50.7-139.5-72.6c-22.9-7.1-48.6-13.6-77.6-19.2l-0.3,1.7v30.9
				c84.1,16.9,137.4,41.2,170.7,63.5c-28.4-9.1-66.7-16-117.6-16c-27.1,0-57.7,2-92.3,6.6v31.9l0,0.4c35.1-4.9,65.7-6.9,92.3-6.9
				c63.8,0,104.9,11.6,129.9,23.1c3.5,1.6,6.6,3.2,9.5,4.7l14.5,10.6l9.9,7.2c0.1,0.2,0.2,0.3,0.3,0.3l0.1-0.1l0.4,0.3
				c0-0.1,0.5-0.6,1.3-1.5l9.1-6.5l14.1-10.2c2.9-1.6,6.2-3.2,9.7-4.9c25.1-11.6,66.2-23.1,130-23.1c26.5,0,57,2,91.9,6.8v-32.3
				c-34.4-4.6-65-6.5-91.9-6.5C941.3,728.3,903,735.2,874.6,744.3z"/>
		</g>
	</g>
</g>
<g id="Layer_2">
</g>
</svg>
