<?xml version="1.0" encoding="utf-8"?>
<!-- Generator: Adobe Illustrator 28.1.0, SVG Export Plug-In . SVG Version: 6.00 Build 0)  -->
<svg version="1.1" xmlns="http://www.w3.org/2000/svg" xmlns:xlink="http://www.w3.org/1999/xlink" x="0px" y="0px"
	 viewBox="0 0 1133.9 1133.9" style="enable-background:new 0 0 1133.9 1133.9;" xml:space="preserve">
<style type="text/css">
	.st0{display:none;}
	.st1{display:inline;}
	.st2{fill:none;stroke:#010101;stroke-width:0.9157;stroke-miterlimit:10;}
	.st3{fill:#231F20;}
	.st4{opacity:0.6;}
	.st5{opacity:0.3;}
	.st6{opacity:0.3;fill:#231F20;}
	.st7{fill:#FFFFFF;}
	.st8{opacity:0.3;fill:#FFFFFF;}
	.st9{fill:url(#SVGID_1_);}
	.st10{fill:none;}
	.st11{fill:url(#SVGID_00000133529815062787017260000010541440857983816627_);}
	.st12{fill:url(#SVGID_00000037658949268670869030000010738984916699239597_);}
	.st13{fill:url(#SVGID_00000018936160014813069610000009974755782648075142_);}
	.st14{fill:url(#SVGID_00000036233832899473295040000005838817961865438639_);}
	.st15{fill:url(#SVGID_00000169516702504270414980000013796435763729472666_);}
	.st16{fill:url(#SVGID_00000106862273887348710460000012528746121074576056_);}
	.st17{fill:url(#SVGID_00000146489231367635040760000016517547900942450077_);}
	.st18{fill:url(#SVGID_00000041981264624112233150000015957844460694260638_);}
	.st19{fill:url(#SVGID_00000013184957768257211200000001064780504009785783_);}
	.st20{fill:url(#SVGID_00000163046140845327350420000013622503288213220540_);}
	.st21{fill:url(#SVGID_00000053543119058408154840000010419912201689856398_);}
	.st22{fill:url(#SVGID_00000084494428207858131590000018107541462293653680_);}
	.st23{fill:url(#SVGID_00000062873683971082982510000012705112303533791109_);}
	.st24{fill:url(#SVGID_00000042728884007195926450000016735035870644643246_);}
	.st25{fill:url(#SVGID_00000070812888522211158930000005030657686802537385_);}
	.st26{fill:url(#SVGID_00000011715502925349643080000013945692422027086246_);}
	.st27{fill:url(#SVGID_00000143609573309993858170000013329255814408601753_);}
	.st28{fill:url(#SVGID_00000165935260718604705310000005176803987159282106_);}
	.st29{fill:url(#SVGID_00000154422810539300566870000006212591346656639679_);}
	.st30{fill:url(#SVGID_00000019641242266535051990000016238290912021861784_);}
	.st31{fill:url(#SVGID_00000148632530150102297410000001683080754626421892_);}
	.st32{fill:url(#SVGID_00000039103432193796987710000013799821487558749854_);}
	.st33{fill:url(#SVGID_00000028283751273332024390000017708062732051219585_);}
	.st34{fill:url(#SVGID_00000106848485856103321390000000362778502842082734_);}
	.st35{fill:url(#SVGID_00000023965334663992725500000001049800356602432942_);}
	.st36{fill:url(#SVGID_00000031203729769338897110000002324801629172426661_);}
	.st37{fill:url(#SVGID_00000037682337164252189270000006892128805097229461_);}
	.st38{fill:url(#SVGID_00000023994063908117849850000010141906090494710923_);}
	.st39{fill:url(#SVGID_00000154390644890490276040000000717822755875744920_);}
	.st40{fill:url(#SVGID_00000062169864025893887190000010356500547943465403_);}
	.st41{fill:url(#SVGID_00000103236426462562641520000000976784058816186518_);}
	.st42{fill:url(#SVGID_00000137105847423470471190000005057317121359497355_);}
	.st43{fill:url(#SVGID_00000123436853089680965500000012430560845274349722_);}
	.st44{fill:url(#SVGID_00000071559234908597870120000007659369358488252846_);}
	.st45{fill:url(#SVGID_00000015351389929607938950000013288644820362216600_);}
	.st46{fill:url(#SVGID_00000079476130605850596060000002251100493064906118_);}
	.st47{fill:url(#SVGID_00000047741470711204538460000005446531835444994181_);}
	.st48{fill:url(#SVGID_00000099658817025505422560000013338788006717757571_);}
	.st49{fill:url(#SVGID_00000031904997400853896940000003170293796918392251_);}
	.st50{fill:#062C44;}
	.st51{fill:url(#SVGID_00000109029803104621603670000003578894186441570743_);}
	.st52{fill:url(#SVGID_00000143600342285579712760000007681502654436428194_);}
	.st53{fill:url(#SVGID_00000030456225638285554820000008629822262017072829_);}
	.st54{fill:url(#SVGID_00000123437317007244380440000000855795259573244813_);}
	.st55{fill:url(#SVGID_00000121978717483812600450000016616616136175861890_);}
	.st56{fill:url(#SVGID_00000094590091157830286540000008642452409175728781_);}
	.st57{fill:url(#SVGID_00000153676324996010943900000015172333539972930710_);}
	.st58{fill:url(#SVGID_00000008131701745424066800000003928243138941446314_);}
	.st59{fill:url(#SVGID_00000115509628887806004080000010607616671840465540_);}
	.st60{fill:url(#SVGID_00000057859236129739359670000003057435092516709264_);}
	.st61{fill:url(#SVGID_00000027588934885903608580000006210488657002493877_);}
	.st62{fill:url(#SVGID_00000077284031310969644290000015148002856722480274_);}
	.st63{fill:url(#SVGID_00000039818199606989828400000013576365480645981108_);}
	.st64{fill:url(#SVGID_00000054952528525756610150000004876910858981378229_);}
	.st65{fill:url(#SVGID_00000109722782804349302880000004378619431251845306_);}
	.st66{fill:url(#SVGID_00000097475414190213302560000015986428644426634904_);}
	.st67{fill:url(#SVGID_00000152235485463228123090000003167516489358791346_);}
	.st68{fill:url(#SVGID_00000161605028901676355030000006636372166666821822_);}
	.st69{fill:url(#SVGID_00000039835304812995908460000006665325956424338869_);}
	.st70{fill:url(#SVGID_00000137115013463759502140000014819058707445728958_);}
	.st71{fill:url(#SVGID_00000015318264239695569410000009398212051838828201_);}
	.st72{fill:url(#SVGID_00000113313127927185617960000003615215042104461223_);}
	.st73{fill:url(#SVGID_00000147940668083823045310000001146237235753911171_);}
	.st74{fill:url(#SVGID_00000112593483408958119790000003004388191307409334_);}
	.st75{fill:url(#SVGID_00000152251717505977309570000010789424248909532566_);}
	.st76{fill:url(#SVGID_00000103243834654496770720000015645925919107803039_);}
	.st77{fill:url(#SVGID_00000026870228919604170310000013563690875816597903_);}
	.st78{fill:url(#SVGID_00000171711617297226025860000015338765024777528960_);}
	.st79{fill:url(#SVGID_00000010993097238672203590000002724805715214390153_);}
	.st80{fill:url(#SVGID_00000049222178925968336670000011211778077459399350_);}
	.st81{fill:url(#SVGID_00000111909006141981350740000006182814553105684379_);}
	.st82{fill:url(#SVGID_00000121253403254992489830000012502902619468954021_);}
	.st83{fill:url(#SVGID_00000021101572837824469250000007380696130051159694_);}
	.st84{fill:url(#SVGID_00000063619458882154395270000009881542115397856420_);}
	.st85{fill:url(#SVGID_00000017503369165200300680000018022230140625489539_);}
	.st86{fill:url(#SVGID_00000009591136073827271370000004460211072240441762_);}
	.st87{fill:url(#SVGID_00000182496556733138012160000014192302299312092559_);}
	.st88{fill:url(#SVGID_00000077325048026911479990000005555040249338074520_);}
	.st89{fill:url(#SVGID_00000002373950277948172070000013558974578434671512_);}
	.st90{fill:url(#SVGID_00000176726395143219915380000013299940158311070861_);}
	.st91{fill:url(#SVGID_00000126308144216199255700000007339908302106148746_);}
	.st92{fill:url(#SVGID_00000015327045621246597650000001853954301168422589_);}
	.st93{fill:url(#SVGID_00000010304384900995805400000004720595110022225028_);}
	.st94{fill:url(#SVGID_00000133509652160103158500000005456126641280792461_);}
	.st95{fill:url(#SVGID_00000097465877080611533430000002117994907168466861_);}
	.st96{fill:url(#SVGID_00000154396998776250646840000005745996045181037701_);}
	.st97{fill:url(#SVGID_00000169556476604935818060000008533674044563566486_);}
	.st98{fill:url(#SVGID_00000036219959612596753870000014426432306257288087_);}
	.st99{fill:url(#SVGID_00000181770747945350440070000010931341481872860804_);}
	.st100{fill:url(#SVGID_00000014627025747034333130000011001477229064203660_);}
	.st101{fill:url(#SVGID_00000052066105347101266680000014173470901938590143_);}
	.st102{fill:url(#SVGID_00000008833729659061146440000013380653007925959608_);}
	.st103{fill:url(#SVGID_00000070841066080063257660000005753669237871622065_);}
	.st104{fill:url(#SVGID_00000075134218731523794400000005651617361193468812_);}
	.st105{fill:url(#SVGID_00000127754480021470404690000015841508685328859022_);}
	.st106{fill:url(#SVGID_00000139269450529850743870000003082259732707991198_);}
	.st107{fill:url(#SVGID_00000047749589415226820800000002243858925086275992_);}
	.st108{fill:url(#SVGID_00000106835714479211879000000015663140046875681964_);}
	.st109{fill:url(#SVGID_00000018209314834172468060000000723616261264411273_);}
	.st110{fill:url(#SVGID_00000139259679490566396540000012655333206942702767_);}
	.st111{fill:url(#SVGID_00000047036605510995588330000005843340145884746642_);}
	.st112{fill:url(#SVGID_00000083078885577987721250000009043649709081594299_);}
	.st113{fill:url(#SVGID_00000041270654623782375140000009360573480225436094_);}
	.st114{fill:url(#SVGID_00000160896016288708764390000003728383556151420064_);}
	.st115{fill:url(#SVGID_00000098917011998269743350000015997435344243169443_);}
	.st116{fill:url(#SVGID_00000014592032690967751920000001457458875635545253_);}
	.st117{fill:url(#SVGID_00000126285295565867949280000005540670752284307610_);}
	.st118{fill:url(#SVGID_00000171716584164166156040000012837981681833331616_);}
	.st119{fill:url(#SVGID_00000023278624542608360610000008330619485355449756_);}
	.st120{fill:url(#SVGID_00000035517319561616383150000002532430141999961233_);}
	.st121{fill:url(#SVGID_00000100369415069665576140000008606889729213055374_);}
	.st122{fill:url(#SVGID_00000063627008540122915910000006589484469943302793_);}
	.st123{fill:url(#SVGID_00000147941142435850510920000001603626825633014432_);}
	.st124{fill:url(#SVGID_00000103960789772829483660000003083537521622818986_);}
	.st125{fill:url(#SVGID_00000047739221314201990230000004188174532977860481_);}
	.st126{fill:url(#SVGID_00000020394258075953433310000014587377688739034781_);}
	.st127{fill:url(#SVGID_00000173150427160078053470000004893278350715432595_);}
	.st128{fill:url(#SVGID_00000091703863477473305010000010047267692782620600_);}
	.st129{fill:url(#SVGID_00000093899275895787774570000014991064783390314412_);}
	.st130{fill:url(#SVGID_00000041283358731618459660000010118391101980442014_);}
	.st131{fill:url(#SVGID_00000085934549551470416240000002007680221089592467_);}
	.st132{fill:url(#SVGID_00000165927230885490735980000003841512196494373541_);}
	.st133{fill:url(#SVGID_00000117650535716985725840000006644284609331896230_);}
	.st134{fill:url(#SVGID_00000072962610120131131890000001815446874565827973_);}
	.st135{fill:url(#SVGID_00000181779213943371208120000014946004927658163079_);}
	.st136{fill:url(#SVGID_00000115489099573743068280000016601572392237913480_);}
	.st137{fill:url(#SVGID_00000015333038493301105930000012279381385951839932_);}
	.st138{fill:url(#SVGID_00000165919606107084861170000001300185088116808323_);}
	.st139{fill:url(#SVGID_00000029009360273438493950000007905382999307891341_);}
	.st140{fill:url(#SVGID_00000169516014395987346010000017041262028141645971_);}
	.st141{fill:url(#SVGID_00000140721486877628707840000004969134509763720591_);}
	.st142{fill:url(#SVGID_00000071527686672305738150000000491531341066761634_);}
	.st143{fill:url(#SVGID_00000087413491736817514630000002891190105134353815_);}
	.st144{fill:url(#SVGID_00000013901164319344076500000000022513160541255076_);}
	.st145{fill:url(#SVGID_00000058587906962711791260000011911953280591333805_);}
	.st146{fill:url(#SVGID_00000050654257873844443480000002701188153726823347_);}
	.st147{fill:url(#SVGID_00000074410387857744716060000014604736021086841226_);}
	.st148{fill:url(#SVGID_00000010268979068705140180000001286895373266249133_);}
	.st149{fill:url(#SVGID_00000023250865250888285940000001267794602389322668_);}
	.st150{fill:url(#SVGID_00000012439817957756038750000005125107133970964610_);}
	.st151{fill:url(#SVGID_00000098221082111324927400000010864518907731813272_);}
	.st152{fill:url(#SVGID_00000141452919433648608980000001072705021096545203_);}
	.st153{fill:url(#SVGID_00000118376733074580586930000012905590976602730421_);}
	.st154{fill:url(#SVGID_00000059268786173760059240000006055727423509164956_);}
	.st155{fill:url(#SVGID_00000074444427792475851940000014627442513819928210_);}
	.st156{fill:url(#SVGID_00000075128900001979790860000001333162991289505205_);}
	.st157{fill:url(#SVGID_00000013914782997160862950000014517604871328719008_);}
	.st158{fill:url(#SVGID_00000181803937004802136020000014844495542930888091_);}
	.st159{fill:url(#SVGID_00000171697617320680068610000005534695438192300467_);}
	.st160{fill:url(#SVGID_00000164485516115910645440000011304365778344408248_);}
	.st161{fill:url(#SVGID_00000182504214565424141320000008268194216376749236_);}
	.st162{fill:url(#SVGID_00000018209550976451086750000002915463704236555446_);}
	.st163{fill:url(#SVGID_00000085972434800039802030000006902728824562547109_);}
	.st164{fill:url(#SVGID_00000025409408970101848260000008567595605292577921_);}
	.st165{fill:url(#SVGID_00000121993571340439919340000014622351925543125132_);}
	.st166{fill:url(#SVGID_00000087401834023528105860000009949271166652113588_);}
	.st167{fill:url(#SVGID_00000079467183509189858770000006677769900674016426_);}
	.st168{fill:url(#SVGID_00000183250782995491527030000000338777178695700132_);}
	.st169{fill:url(#SVGID_00000044149550389134043090000013991242130295201183_);}
	.st170{fill:url(#SVGID_00000069376721627289712020000002130255540674829993_);}
</style>
<g id="Layer_1">
	<g>
		<linearGradient id="SVGID_1_" gradientUnits="userSpaceOnUse" x1="57.0004" y1="320.4817" x2="746.2274" y2="320.4817">
			<stop  offset="4.753638e-04" style="stop-color:#009B90"/>
			<stop  offset="1" style="stop-color:#50C1B7"/>
		</linearGradient>
		<circle class="st9" cx="363.8" cy="320.5" r="165.9"/>
		<g>
			<g>
				<path class="st7" d="M379.2,431.8c-5.2,0-9.4,4.2-9.4,9.4c0,5.2,4.2,9.4,9.4,9.4c5.2,0,9.4-4.2,9.4-9.4
					C388.5,436,384.4,431.8,379.2,431.8z"/>
			</g>
			<g>
				<path class="st7" d="M327.4,248.3H324V239h0c0-6.6-5.4-11.9-12-11.9c-6.6,0-11.9,5.3-12,11.9h0v9.3h-3.3c-0.7,0-1.3,0.6-1.3,1.3
					v18.7c0,0.7,0.6,1.3,1.3,1.3h30.7c0.7,0,1.3-0.6,1.3-1.3v-18.7C328.7,248.9,328.1,248.3,327.4,248.3z M304.7,239
					C304.7,239,304.7,239,304.7,239c0-4,3.3-7.2,7.3-7.2c4,0,7.3,3.3,7.3,7.3c0,0,0,0,0,0v9.3h-14.7V239z M314.6,262.4h-5l1.6-4.7
					c-1-0.4-1.8-1.3-1.8-2.5c0-1.5,1.2-2.7,2.7-2.7c1.5,0,2.7,1.2,2.7,2.7c0,1.2-0.7,2.1-1.8,2.5L314.6,262.4z"/>
			</g>
		</g>
		<g class="st4">
			<g>
				<path class="st7" d="M439.4,398.5c0.2,3.8,3.3,6.8,7.1,6.8c4,0,7.2-3.2,7.2-7.2s-3.2-7.2-7.2-7.2c-3.3,0-6.1,2.2-6.9,5.3H348
					c-0.6-4.8-4.6-8.5-9.5-8.5c-5.3,0-9.6,4.3-9.6,9.6c0,5.3,4.3,9.6,9.6,9.6c4.9,0,8.9-3.7,9.5-8.5H439.4z"/>
				<path class="st7" d="M234.9,261.6c-4,0-7.2,3.2-7.2,7.2c0,4,3.2,7.2,7.2,7.2c4,0,7.2-3.2,7.2-7.2
					C242.1,264.8,238.8,261.6,234.9,261.6z"/>
			</g>
			<g>
				<path class="st7" d="M398.9,385.4h-1.9v-5.3h0c0-3.7-3-6.7-6.7-6.7c-3.7,0-6.7,3-6.7,6.7h0v5.3h-1.9c-0.4,0-0.7,0.3-0.7,0.8
					v10.5c0,0.4,0.3,0.8,0.7,0.8h17.3c0.4,0,0.7-0.3,0.7-0.8v-10.5C399.7,385.7,399.4,385.4,398.9,385.4z M386.2,380.1
					C386.2,380.1,386.2,380.1,386.2,380.1c0-2.2,1.9-4.1,4.1-4.1c2.3,0,4.1,1.8,4.1,4.1c0,0,0,0,0,0v5.3h-8.2V380.1z M391.7,393.3
					h-2.8l0.9-2.6c-0.6-0.2-1-0.8-1-1.4c0-0.8,0.7-1.5,1.5-1.5c0.8,0,1.5,0.7,1.5,1.5c0,0.6-0.4,1.2-1,1.4L391.7,393.3z"/>
				<path class="st7" d="M418.8,229.3h-2.6v-7.2h0c0-5-4.1-9.1-9.2-9.1c-5,0-9.1,4.1-9.2,9.1h0v7.2h-2.6c-0.6,0-1,0.5-1,1v14.3
					c0,0.6,0.5,1,1,1h23.5c0.6,0,1-0.5,1-1v-14.3C419.9,229.7,419.4,229.3,418.8,229.3z M401.5,222.1
					C401.5,222.1,401.5,222.1,401.5,222.1c0-3,2.5-5.5,5.6-5.5c3.1,0,5.6,2.5,5.6,5.6c0,0,0,0,0,0v7.2h-11.2V222.1z M409,240h-3.8
					l1.2-3.6c-0.8-0.3-1.3-1-1.3-1.9c0-1.1,0.9-2,2-2c1.1,0,2,0.9,2,2c0,0.9-0.6,1.6-1.3,1.9L409,240z"/>
			</g>
		</g>
		<g class="st5">
			<path class="st10" d="M465,245.4v-56.3c-28-21.6-63.1-34.5-101.2-34.5c-1.2,0-2.4,0-3.6,0v90.7H465z"/>
			<path class="st10" d="M360.2,247.6v85.6h-60.3v98.5c3.4,0.5,6,3.5,6,7.1c0,4-3.2,7.2-7.2,7.2c-4,0-7.2-3.2-7.2-7.2
				c0-3.6,2.6-6.5,6-7.1V331h60.3v-83.4h-2.7v-2.3h2.7v-90.7c-88.9,3.1-160,76.1-160,165.8c0,91.6,74.3,165.9,165.9,165.9
				s165.9-74.3,165.9-165.9c0-52.5-24.4-99.2-62.4-129.6v56.8H360.2z"/>
			<path class="st7" d="M465,245.4H360.2v-90.7c-0.8,0-1.5,0-2.3,0.1v90.7h-2.7v2.3h2.7V331h-60.3v100.8c-3.4,0.5-6,3.5-6,7.1
				c0,4,3.2,7.2,7.2,7.2c4,0,7.2-3.2,7.2-7.2c0-3.6-2.6-6.5-6-7.1v-98.5h60.3v-85.6h107.1v-56.8c-0.7-0.6-1.5-1.2-2.3-1.8V245.4z"/>
		</g>
		<g>
			<path class="st8" d="M410.8,413.6V323h77.6v-88.6h17.2c-0.6-1-1.2-2-1.8-3h-18.3V320h-74.6V161.9h-3V320h-59.3v-53.2h-92.1
				c-0.1-26.2-0.2-52.1-0.1-72.7c-1,0.8-2,1.7-3,2.6c-0.1,20.3,0,45.1,0.1,70.1h-46.7c-0.3,1-0.7,2-1,3h47.6
				c0.2,38.6,0.5,76.8,0.7,97.5h-49.6c0.3,1,0.6,2,0.9,3h51.6l0-1.5c-0.2-23.1-0.5-61.2-0.7-99h89.1V323h62.3v87.7H293.9v60.3
				c1,0.5,2,0.9,3,1.3v-58.7H410.8z"/>
			<path class="st8" d="M468.5,410.6c-0.7-6.2-6-11.1-12.4-11.1c-6.9,0-12.6,5.6-12.6,12.6c0,6.9,5.6,12.6,12.6,12.6
				c6.4,0,11.7-4.8,12.4-11.1h32.6c0.7-1,1.3-2,2-3H468.5z"/>
		</g>
		<g>
			<path class="st10" d="M481.6,426.4V323.1h-67.4c-0.5,3.4-3.5,6-7,6c-4,0-7.2-3.2-7.2-7.2c0-4,3.2-7.2,7.2-7.2c3.6,0,6.5,2.6,7,6
				h69.7v107.9h-49.8v42.1c56.5-26.5,95.6-83.8,95.6-150.3c0-91.6-74.3-165.9-165.9-165.9s-165.9,74.3-165.9,165.9
				c0,15.5,2.1,30.5,6.1,44.7v-14.9h29.7v-74.4h1.1h1.1v76.6h-29.7v20.1c21.9,66.1,84.1,113.7,157.5,113.7c4.7,0,9.3-0.2,13.9-0.6
				v-35.2h1.5h1.5v35c18.1-1.8,35.3-6.6,51.1-13.7v-45.4H481.6z"/>
			<path class="st10" d="M379.2,450.5h-1.5v35.2c1-0.1,2-0.2,3-0.3v-35H379.2z"/>
			<path class="st10" d="M236,352.6v-76.6h-1.1h-1.1v74.4H204v14.9c0.7,2.5,1.5,5,2.3,7.4v-20.1H236z"/>
			<path class="st10" d="M434.1,428.7h49.8V320.8h-69.7c-0.5-3.4-3.5-6-7-6c-4,0-7.2,3.2-7.2,7.2c0,4,3.2,7.2,7.2,7.2
				c3.6,0,6.5-2.6,7-6h67.4v103.3h-49.8v45.4c0.8-0.3,1.5-0.7,2.3-1V428.7z"/>
		</g>
		<g>
			
				<linearGradient id="SVGID_00000100345143284672413130000001082701935014056379_" gradientUnits="userSpaceOnUse" x1="394.6985" y1="386.6665" x2="852.1115" y2="386.6665">
				<stop  offset="4.753638e-04" style="stop-color:#009B90"/>
				<stop  offset="1" style="stop-color:#50C1B7"/>
			</linearGradient>
			<path style="fill:url(#SVGID_00000100345143284672413130000001082701935014056379_);" d="M772.5,385.6c-0.6,9.6,7,17.5,16.4,17.5
				h81.7c8.8,0,16.4-6.6,17-15.4c0.6-9.6-7-17.5-16.4-17.5h-81.7C780.7,370.2,773.1,376.8,772.5,385.6z"/>
			
				<linearGradient id="SVGID_00000155832865734429104870000002503640376801121671_" gradientUnits="userSpaceOnUse" x1="394.6985" y1="320.4816" x2="852.1115" y2="320.4816">
				<stop  offset="4.753638e-04" style="stop-color:#009B90"/>
				<stop  offset="1" style="stop-color:#50C1B7"/>
			</linearGradient>
			<path style="fill:url(#SVGID_00000155832865734429104870000002503640376801121671_);" d="M989.1,321.6c0.6-9.6-7-17.5-16.4-17.5
				H859.4c-8.8,0-16.4,6.6-17,15.4c-0.6,9.6,7,17.5,16.4,17.5h113.3C980.9,336.9,988.6,330.3,989.1,321.6z"/>
			
				<linearGradient id="SVGID_00000142894010166223560180000017382489672891523234_" gradientUnits="userSpaceOnUse" x1="394.6985" y1="386.6665" x2="852.1115" y2="386.6665">
				<stop  offset="4.753638e-04" style="stop-color:#009B90"/>
				<stop  offset="1" style="stop-color:#50C1B7"/>
			</linearGradient>
			<path style="fill:url(#SVGID_00000142894010166223560180000017382489672891523234_);" d="M926.8,370.2c-8.8,0-16.4,6.6-17,15.4
				c-0.6,9.6,7,17.5,16.4,17.5h37.4c8.8,0,16.4-6.6,17-15.4c0.6-9.6-7-17.5-16.4-17.5H926.8z"/>
			
				<linearGradient id="SVGID_00000169556828541281117930000001696964919747430790_" gradientUnits="userSpaceOnUse" x1="394.6985" y1="254.297" x2="852.1115" y2="254.297">
				<stop  offset="4.753638e-04" style="stop-color:#009B90"/>
				<stop  offset="1" style="stop-color:#50C1B7"/>
			</linearGradient>
			<path style="fill:url(#SVGID_00000169556828541281117930000001696964919747430790_);" d="M830.1,237.8h-37.4
				c-8.8,0-16.4,6.6-17,15.4c-0.6,9.6,7,17.5,16.4,17.5h37.4c8.8,0,16.4-6.6,17-15.4C847.1,245.8,839.5,237.8,830.1,237.8z"/>
			
				<linearGradient id="SVGID_00000049185526499028450680000007213889927506963332_" gradientUnits="userSpaceOnUse" x1="394.6985" y1="251.0487" x2="852.1115" y2="251.0487">
				<stop  offset="4.753638e-04" style="stop-color:#009B90"/>
				<stop  offset="1" style="stop-color:#50C1B7"/>
			</linearGradient>
			<path style="fill:url(#SVGID_00000049185526499028450680000007213889927506963332_);" d="M556.6,255.4
				c0.5-7.6-4.2-14.2-10.9-16.6c3.2,7.9,6,16.1,8.2,24.5C555.4,261,556.4,258.3,556.6,255.4z"/>
			
				<linearGradient id="SVGID_00000173859083554024993750000015229487799954479251_" gradientUnits="userSpaceOnUse" x1="394.6985" y1="717.5909" x2="852.1115" y2="717.5909">
				<stop  offset="4.753638e-04" style="stop-color:#009B90"/>
				<stop  offset="1" style="stop-color:#50C1B7"/>
			</linearGradient>
			<path style="fill:url(#SVGID_00000173859083554024993750000015229487799954479251_);" d="M760.5,701.1c-9.1,0-16.4,7.4-16.4,16.5
				c0,9.1,7.4,16.5,16.4,16.5c9.1,0,16.5-7.4,16.5-16.5C777,708.5,769.6,701.1,760.5,701.1z"/>
			
				<linearGradient id="SVGID_00000151516244124145738510000005089916326719985032_" gradientUnits="userSpaceOnUse" x1="394.6985" y1="485.9435" x2="852.1115" y2="485.9435">
				<stop  offset="4.753638e-04" style="stop-color:#009B90"/>
				<stop  offset="1" style="stop-color:#50C1B7"/>
			</linearGradient>
			<path style="fill:url(#SVGID_00000151516244124145738510000005089916326719985032_);" d="M884.5,502.6H857
				c-8.8,0-16.4,6.6-17,15.4c-0.6,9.6,7,17.5,16.4,17.5h75.6c8.8,0,16.4-6.6,17-15.4c0.6-9.6-7-17.5-16.4-17.5h4.4
				c-9.1,0-16.5-7.4-16.5-16.5v-0.7c0-8.9,7.2-16.1,16.1-16.1c0.2,0,13.9,0,14.1,0c8.5-0.3,15.9-6.8,16.4-15.3
				c0.6-9.6-7-17.5-16.4-17.5h-118c-8.8,0-16.4,6.6-17,15.4c-0.6,9.6,7,17.5,16.4,17.5h52.2c9.1,0,16.4,7.4,16.4,16.5v0.4
				C901,495.2,893.6,502.6,884.5,502.6z"/>
			
				<linearGradient id="SVGID_00000106835193911587563930000007964805581522557838_" gradientUnits="userSpaceOnUse" x1="394.6985" y1="585.2211" x2="852.1115" y2="585.2211">
				<stop  offset="4.753638e-04" style="stop-color:#009B90"/>
				<stop  offset="1" style="stop-color:#50C1B7"/>
			</linearGradient>
			<path style="fill:url(#SVGID_00000106835193911587563930000007964805581522557838_);" d="M883.9,568.8c-9.1,0-16.5,7.4-16.5,16.4
				c0,9.1,7.4,16.5,16.5,16.5H907c9.1,0,16.4-7.4,16.4-16.5c0-9.1-7.4-16.4-16.4-16.4H883.9z"/>
			
				<linearGradient id="SVGID_00000179613063350724168510000010883908652912768446_" gradientUnits="userSpaceOnUse" x1="394.6985" y1="188.1099" x2="852.1115" y2="188.1099">
				<stop  offset="4.753638e-04" style="stop-color:#009B90"/>
				<stop  offset="1" style="stop-color:#50C1B7"/>
			</linearGradient>
			<path style="fill:url(#SVGID_00000179613063350724168510000010883908652912768446_);" d="M660.2,171.7c-9.1,0-16.5,7.4-16.5,16.5
				c0,9.1,7.4,16.4,16.5,16.4h12.4c9.1,0,16.5-7.4,16.5-16.4c0-9.1-7.4-16.5-16.5-16.5H660.2z"/>
			
				<linearGradient id="SVGID_00000141419809149328804950000012901359104928540292_" gradientUnits="userSpaceOnUse" x1="394.6985" y1="419.584" x2="852.1115" y2="419.584">
				<stop  offset="4.753638e-04" style="stop-color:#009B90"/>
				<stop  offset="1" style="stop-color:#50C1B7"/>
			</linearGradient>
			<path style="fill:url(#SVGID_00000141419809149328804950000012901359104928540292_);" d="M690.3,425.3c3.1-3.1,3.1-8.2,0-11.4
				c-3.1-3.1-8.2-3.1-11.4,0c-3.1,3.1-3.1,8.2,0,11.4C682,428.4,687.1,428.4,690.3,425.3z"/>
			
				<linearGradient id="SVGID_00000056420911039408525080000006591339880289877681_" gradientUnits="userSpaceOnUse" x1="394.6985" y1="552.1285" x2="852.1115" y2="552.1285">
				<stop  offset="4.753638e-04" style="stop-color:#009B90"/>
				<stop  offset="1" style="stop-color:#50C1B7"/>
			</linearGradient>
			<path style="fill:url(#SVGID_00000056420911039408525080000006591339880289877681_);" d="M679.1,558.2c3.3-3.3,3.3-8.8,0-12.1
				c-3.3-3.4-8.8-3.4-12.1,0c-3.4,3.3-3.4,8.8,0,12.1C670.3,561.5,675.7,561.5,679.1,558.2z"/>
			
				<linearGradient id="SVGID_00000127017310715837321650000015377376348714947507_" gradientUnits="userSpaceOnUse" x1="394.6985" y1="486.1353" x2="852.1115" y2="486.1353">
				<stop  offset="4.753638e-04" style="stop-color:#009B90"/>
				<stop  offset="1" style="stop-color:#50C1B7"/>
			</linearGradient>
			<path style="fill:url(#SVGID_00000127017310715837321650000015377376348714947507_);" d="M639.5,495.5c5.2-5.2,5.2-13.6,0-18.7
				c-5.2-5.2-13.6-5.2-18.7,0c-5.2,5.2-5.2,13.6,0,18.7C625.9,500.7,634.3,500.7,639.5,495.5z"/>
			
				<linearGradient id="SVGID_00000084503718387578142950000008983944289768764297_" gradientUnits="userSpaceOnUse" x1="394.6985" y1="585.2208" x2="852.1115" y2="585.2208">
				<stop  offset="4.753638e-04" style="stop-color:#009B90"/>
				<stop  offset="1" style="stop-color:#50C1B7"/>
			</linearGradient>
			<path style="fill:url(#SVGID_00000084503718387578142950000008983944289768764297_);" d="M537.2,585.2c0-9.1-7.4-16.4-16.5-16.4
				h-45.9c0,0,0,0,0,0h-57.2c-8.6,0-16.4,6.2-17.3,14.8c-1,9.8,6.7,18.1,16.4,18.1h104C529.9,601.7,537.2,594.3,537.2,585.2z"/>
			
				<linearGradient id="SVGID_00000160872669136033916040000004467153565176208798_" gradientUnits="userSpaceOnUse" x1="394.6985" y1="849.9626" x2="852.1115" y2="849.9626">
				<stop  offset="4.753638e-04" style="stop-color:#009B90"/>
				<stop  offset="1" style="stop-color:#50C1B7"/>
			</linearGradient>
			<path style="fill:url(#SVGID_00000160872669136033916040000004467153565176208798_);" d="M667.3,866.4c9.1,0,16.5-7.4,16.5-16.5
				c0-9.1-7.4-16.5-16.5-16.5h-1.7c-9.1,0-16.5,7.4-16.5,16.5c0,9.1,7.4,16.5,16.5,16.5H667.3z"/>
			
				<linearGradient id="SVGID_00000117665271862377973660000017034105879066221244_" gradientUnits="userSpaceOnUse" x1="394.6985" y1="287.3895" x2="852.1115" y2="287.3895">
				<stop  offset="4.753638e-04" style="stop-color:#009B90"/>
				<stop  offset="1" style="stop-color:#50C1B7"/>
			</linearGradient>
			<path style="fill:url(#SVGID_00000117665271862377973660000017034105879066221244_);" d="M559,336.9h26.7H804
				c8.6,0,16.4-6.2,17.3-14.8c1-9.8-6.7-18.1-16.4-18.1h-76.3c-9.1,0-16.5-7.4-16.5-16.5v-0.4c0-9.1,7.4-16.5,16.4-16.5h9.1
				c8.6,0,16.4-6.2,17.3-14.8c1-9.8-6.7-18.1-16.4-18.1H595c-8.6,0-16.4,6.2-17.3,14.8c-1,9.8,6.7,18.1,16.4,18.1h82.1
				c9.1,0,16.5,7.4,16.5,16.5v0.4c0,9.1-7.4,16.5-16.5,16.5h-116C560.7,315.2,560.3,326.2,559,336.9z"/>
			
				<linearGradient id="SVGID_00000044863057451411823600000000303240277251607738_" gradientUnits="userSpaceOnUse" x1="394.6985" y1="651.406" x2="852.1115" y2="651.406">
				<stop  offset="4.753638e-04" style="stop-color:#009B90"/>
				<stop  offset="1" style="stop-color:#50C1B7"/>
			</linearGradient>
			<path style="fill:url(#SVGID_00000044863057451411823600000000303240277251607738_);" d="M821.4,651.4c0,9.1,7.4,16.5,16.5,16.5
				h41.5c9.1,0,16.5-7.4,16.5-16.5c0-9.1-7.4-16.4-16.5-16.4h-41.5C828.8,635,821.4,642.3,821.4,651.4z"/>
			
				<linearGradient id="SVGID_00000102542657663241544980000015630449611501577909_" gradientUnits="userSpaceOnUse" x1="394.6985" y1="717.5909" x2="852.1115" y2="717.5909">
				<stop  offset="4.753638e-04" style="stop-color:#009B90"/>
				<stop  offset="1" style="stop-color:#50C1B7"/>
			</linearGradient>
			<path style="fill:url(#SVGID_00000102542657663241544980000015630449611501577909_);" d="M792.6,717.6c0,9.1,7.4,16.5,16.5,16.5
				H837c9.1,0,16.5-7.4,16.5-16.5c0-9.1-7.4-16.4-16.5-16.4h-27.9C800,701.1,792.6,708.5,792.6,717.6z"/>
			
				<linearGradient id="SVGID_00000036945200397345724330000002854291853918756541_" gradientUnits="userSpaceOnUse" x1="394.6985" y1="783.7755" x2="852.1115" y2="783.7755">
				<stop  offset="4.753638e-04" style="stop-color:#009B90"/>
				<stop  offset="1" style="stop-color:#50C1B7"/>
			</linearGradient>
			<path style="fill:url(#SVGID_00000036945200397345724330000002854291853918756541_);" d="M778.9,767.3H766
				c-9.1,0-16.5,7.4-16.5,16.5c0,9.1,7.4,16.5,16.5,16.5h12.9c9.1,0,16.5-7.4,16.5-16.5C795.4,774.7,788,767.3,778.9,767.3z"/>
			
				<linearGradient id="SVGID_00000168113955522564600890000012806048277228723373_" gradientUnits="userSpaceOnUse" x1="394.6985" y1="585.1001" x2="852.1115" y2="585.1001">
				<stop  offset="4.753638e-04" style="stop-color:#009B90"/>
				<stop  offset="1" style="stop-color:#50C1B7"/>
			</linearGradient>
			<path style="fill:url(#SVGID_00000168113955522564600890000012806048277228723373_);" d="M553.7,403.1h29.7c0,0,0,0,0,0h63.9
				c7,0,13.8-2.1,19.6-6c2.5-1.7,5.4-3.4,8.3-4.3c3.5-1.2,7.1-1.7,10.7-1.6c6.8,0.3,13.6,3,18.8,8.3c10.1,10.1,11,25.8,2.8,36.9
				c-0.8,1.1-1.7,2.3-2.8,3.3c-7.6,7.6-18.5,10.2-28.1,7.2c-4-1.3-7.5-3.1-10.1-4.9c-5.9-4-13-6-20.1-6h-65.2c0,0.1,0,0.2,0,0.4
				h-40.3c-0.6-0.7-1.1-1.5-1.8-2.2c-4.1-4.1-9.3-6.6-15-7.2c-8,11.3-17.2,21.7-27.4,31.2c1.1,4.3,3.3,8.4,6.6,11.8
				c4.8,4.8,11.1,7.4,17.9,7.4c6.7,0,13.1-2.6,17.9-7.4c0.2-0.2,0.3-0.4,0.5-0.7h43.1c7.8,0,15.2-3.1,20.7-8.6l0.6-0.6h0
				c14.4-14.4,37.7-14.4,52.1,0c2.8,2.8,5,5.9,6.7,9.2c7.1,13.9,4.9,31.3-6.7,42.9c-14.4,14.4-37.7,14.4-52.1,0h0
				c-0.2-0.2-0.4-0.5-0.7-0.7c-5.6-5.9-13.4-9.3-21.5-9.3h-6.5c0,0.1,0,0.3,0,0.4H454c-1.1-1.6-2.3-3.1-3.7-4.5c-2-2-4.3-3.7-6.7-5
				c-13.4,6-27.6,10.5-42.6,13.4c-5.5,11.4-3.6,25.6,5.9,35.1c5.8,5.8,13.5,9,21.7,9c8.2,0,15.9-3.2,21.7-9c1.8-1.8,3.3-3.8,4.5-6
				h20h97.8c0,0.1,0,0.1,0,0.2h68.1c6.8,0,13.5-1.8,19.4-5.3c3.4-2,8.3-3.8,14.7-3.3c7.5,0.5,14.8,4.5,19.4,11.8
				c5.2,8.1,5.1,18.9-0.2,26.9c-4.9,7.5-12.7,11.4-20.5,11.6c-6.6,0.1-11.2-1.4-14.2-3.2c-5.6-3.4-11.8-5.5-18.3-5.5l-64.2,0
				c0,0.1,0,0.1,0.1,0.2h-3.4c-8.6,0-16.4,6.2-17.3,14.8c-1,9.8,6.7,18.1,16.4,18.1h20.9h10.9c8.6,0,16.4,6.2,17.3,14.8
				c0.9,8.7-5,16.1-12.9,17.8h-84.9c-1.1-1.6-2.3-3.1-3.7-4.5c-5.8-5.8-13.5-9-21.7-9c-8.2,0-15.9,3.2-21.7,9c-12,12-12,31.4,0,43.4
				c5.8,5.8,13.5,9,21.7,9c8.2,0,15.9-3.2,21.7-9c1.6-1.6,2.9-3.4,4.1-5.3c0.3,0,0.6,0,0.9,0H568c9.1,0,16.5,7.4,16.5,16.5v0.4
				c0,9.1-7.4,16.5-16.4,16.5h-77.9c-8.6,0-16.5,6.2-17.3,14.8c-1,9.8,6.7,18.1,16.4,18.1H605h33.8c8.6,0,16.4,6.2,17.3,14.8
				c1,9.8-6.7,18.1-16.4,18.1h-85.5v0.4l-4.7,0c-8.6,0-16.5,6.2-17.3,14.8c-1,9.8,6.7,18.1,16.4,18.1H713c9.1,0,16.4-7.4,16.4-16.5
				c0-0.2,0-0.3,0-0.5c0-0.1,0-0.1,0-0.2V680.7c0-9.9,8-18,18-18h37.2c12.3,0,22.3-10,22.3-22.3v-50.3c0-4.9,4-8.9,8.9-8.9h20.4
				c2.6,0,5.2-0.9,7.1-2.6c3.3-3.1,4-7.8,2.1-11.7l-16.9-33.8c-9.4-18.7-16.4-38.4-22.6-58.4c-19.9-64.1-81.6-108.4-150.9-104.4
				h-69.4h-32c-0.6,0-1.2,0-1.7,0.1c-2.8,9.4-6.4,18.5-10.6,27.3C544.4,401,548.8,403.1,553.7,403.1z M529.2,460.9
				c-4.4,4.4-11.6,4.4-16,0c-4.4-4.4-4.4-11.6,0-16c4.4-4.4,11.6-4.4,16,0C533.6,449.3,533.6,456.4,529.2,460.9z M439,530.2
				c-5.7,5.7-15,5.7-20.8,0c-5.7-5.7-5.7-15,0-20.8c5.7-5.7,15-5.7,20.8,0C444.8,515.1,444.8,524.4,439,530.2z M509,661.8
				c-5.7,5.7-15,5.7-20.8,0c-5.7-5.7-5.7-15,0-20.8c5.7-5.7,15-5.7,20.8,0C514.8,646.8,514.8,656.1,509,661.8z"/>
		</g>
		<g>
			<path class="st7" d="M663.9,77l-191.3,72.7c-40.7-27.1-89.4-38-138.1-30.7c-51.9,7.8-97.7,35.4-128.9,77.6
				c-31.2,42.2-44.1,94.1-36.2,146c5.6,37,21.1,70.8,44.9,98.5L49,617.5c-8.8,9.3-8.3,24,1.1,32.7c4.5,4.2,10.2,6.3,15.8,6.3
				c6.2,0,12.3-2.5,16.9-7.3l165.6-176.6c8.8,6.4,17.9,11.9,27.4,16.7c6.8,26.6,14.9,54.4,24.3,82.6
				c33.5,100.2,77.7,183.7,131.2,249.2c33.8,8.1,65.2,17.4,94.3,27.9c-101.2-87.6-159.9-222.4-193.8-341.5c10.4,1.7,21,2.6,31.7,2.6
				c9.8,0,19.8-0.7,29.7-2.2c2.7-0.4,5.4-0.9,8-1.4c14.9-2.9,29.2-7.4,42.6-13.4c19.7-8.8,37.6-20.6,53.1-34.9
				c10.2-9.4,19.4-19.9,27.4-31.2c6.6-9.3,12.4-19.1,17.3-29.4c4.2-8.8,7.7-17.9,10.6-27.3c3.3-10.8,5.7-22,7-33.4
				c1.3-10.8,1.7-21.8,1.2-32.9c-0.3-6.6-1-13.2-2-19.9c-1.1-7.1-2.5-14.1-4.3-20.9c-2.2-8.4-4.9-16.6-8.2-24.5
				c-7.8-19.1-18.6-36.8-32-52.6l150.2-57.1L1039.7,272c-8.4,80.8-54.2,415.7-243.8,579.6c29.3-10.9,61.1-20.7,95.3-29.1
				c53.5-65.7,92.1-151.9,132.7-250.5c50.9-123.6,64.2-296,66.1-314.7l1.2-18L663.9,77z M514,311.8c0.1,5.5-0.2,10.9-0.7,16.3
				c-1.4,14.7-5,28.9-10.5,42.2c-4.8,11.7-11.1,22.7-18.6,32.8c-12.9,17.4-29.6,32-49,42.5c-14.9,8.1-31.4,13.7-49,16.4
				c-7.3,1.1-14.7,1.7-21.9,1.7c-15.6,0.1-31.1-2.3-45.8-7c-15.6-4.9-30.4-12.5-43.9-22.4c-4.9-3.6-9.6-7.6-14-11.7
				c-24.4-23-40.3-53.2-45.3-86.8c-6-39.7,3.9-79.3,27.7-111.6c23.8-32.3,58.8-53.3,98.5-59.3c7.6-1.1,15.2-1.7,22.7-1.7
				c17.2,0,34.2,3,50.2,8.7c13.7,4.9,26.7,11.8,38.7,20.7c4.9,3.6,9.5,7.4,13.8,11.5c10.8,10.1,19.9,21.7,27.2,34.4
				c5.8,10.1,10.5,21,13.8,32.3c1.9,6.6,3.5,13.4,4.5,20.3C513.4,298,513.9,305,514,311.8z"/>
			<path class="st7" d="M726.6,974.1c44.3-29.6,115.1-61.9,226.8-84.4v-43.5c-41.3,8-77.6,17.4-109.6,27.6
				c-90.5,28.9-145.9,64.4-179.6,94.8c-34.4-31.1-91.6-67.6-185.8-96.8c-30.5-9.4-64.7-18.1-103.4-25.6l-0.4,2.3v41.1
				c112,22.5,183,54.9,227.4,84.5c-37.8-12.2-88.8-21.4-156.6-21.4c-36.1,0-76.8,2.6-122.9,8.8v42.5l0.1,0.5
				c46.7-6.5,87.5-9.2,122.9-9.2c85,0,139.7,15.4,173.1,30.8c4.6,2.1,8.8,4.2,12.6,6.3l19.3,14.2l13.2,9.7c0.2,0.2,0.3,0.4,0.3,0.4
				l0.1-0.1l0.5,0.3c0.1-0.1,0.7-0.8,1.8-2l12.1-8.7l18.8-13.6c3.9-2.1,8.2-4.3,13-6.5c33.4-15.4,88.1-30.8,173.1-30.8
				c35.3,0,75.9,2.7,122.4,9.1v-43c-45.9-6.1-86.5-8.7-122.4-8.7C815.3,952.7,764.4,961.9,726.6,974.1z"/>
		</g>
	</g>
</g>
<g id="Layer_2">
</g>
</svg>
