<?xml version="1.0" encoding="utf-8"?>
<!-- Generator: Adobe Illustrator 28.1.0, SVG Export Plug-In . SVG Version: 6.00 Build 0)  -->
<svg version="1.1" xmlns="http://www.w3.org/2000/svg" xmlns:xlink="http://www.w3.org/1999/xlink" x="0px" y="0px"
	 viewBox="0 0 1133.9 1133.9" style="enable-background:new 0 0 1133.9 1133.9;" xml:space="preserve">
<style type="text/css">
	.st0{display:none;}
	.st1{display:inline;}
	.st2{fill:none;stroke:#010101;stroke-width:0.9157;stroke-miterlimit:10;}
	.st3{fill:#231F20;}
	.st4{opacity:0.6;}
	.st5{opacity:0.3;}
	.st6{opacity:0.3;fill:#231F20;}
	.st7{fill:#FFFFFF;}
	.st8{opacity:0.3;fill:#FFFFFF;}
	.st9{fill:url(#SVGID_1_);}
	.st10{fill:none;}
	.st11{fill:url(#SVGID_00000123417440601319969030000001574883543387114912_);}
	.st12{fill:url(#SVGID_00000168830869659701449330000010566604245746235036_);}
	.st13{fill:url(#SVGID_00000179648503279449519130000012797171601669771395_);}
	.st14{fill:url(#SVGID_00000124126770631295543870000014801539797539776177_);}
	.st15{fill:url(#SVGID_00000065762865588283457560000000998891759807187086_);}
	.st16{fill:url(#SVGID_00000039842939189752092530000003324221416247686550_);}
	.st17{fill:url(#SVGID_00000137098750980336043280000016626835147614884993_);}
	.st18{fill:url(#SVGID_00000136399787066418851920000017763247507825594813_);}
	.st19{fill:url(#SVGID_00000119821783035165902240000017123539665947332000_);}
	.st20{fill:url(#SVGID_00000026125880897454196650000004505472000889898422_);}
	.st21{fill:url(#SVGID_00000062886158397864380240000011431755310398347164_);}
	.st22{fill:url(#SVGID_00000183948848397594164940000008458702543272268460_);}
	.st23{fill:url(#SVGID_00000137846444907480210800000005701643653181210278_);}
	.st24{fill:url(#SVGID_00000166677531575271708350000000469611004409530042_);}
	.st25{fill:url(#SVGID_00000060028122902306809260000016951075617325834160_);}
	.st26{fill:url(#SVGID_00000022544081938096311070000010154340921939267235_);}
	.st27{fill:url(#SVGID_00000147179838635945244080000014092006413708043161_);}
	.st28{fill:url(#SVGID_00000090975360503805793690000012228515772205602211_);}
	.st29{fill:url(#SVGID_00000170240388243944385860000004328666745437560764_);}
	.st30{fill:url(#SVGID_00000155846589595727271170000016640066316256031907_);}
	.st31{fill:url(#SVGID_00000078762388355749515940000001893984080785230238_);}
	.st32{fill:url(#SVGID_00000170255107067028144320000010558872633115810691_);}
	.st33{fill:url(#SVGID_00000088098282964915079700000017916047519096976545_);}
	.st34{fill:url(#SVGID_00000132805861759530728580000008000764330086627511_);}
	.st35{fill:url(#SVGID_00000119816180790585858240000008050820332184480438_);}
	.st36{fill:url(#SVGID_00000179620731310545492540000014206846850737438130_);}
	.st37{fill:url(#SVGID_00000183230492110620821060000001096747464799840644_);}
	.st38{fill:url(#SVGID_00000027579784242998848160000016233949182765197214_);}
	.st39{fill:url(#SVGID_00000050657118452931919310000001396767894891568309_);}
	.st40{fill:url(#SVGID_00000018943650671783217420000018264139635657489851_);}
	.st41{fill:url(#SVGID_00000152240128515127214390000009520888435480839851_);}
	.st42{fill:url(#SVGID_00000085237405088530065680000013331493209458295714_);}
	.st43{fill:url(#SVGID_00000160883956752505929300000005647998028935591565_);}
	.st44{fill:url(#SVGID_00000169526668738311522720000003248035230711461770_);}
	.st45{fill:url(#SVGID_00000142144568859535326330000003818761102993051306_);}
	.st46{fill:url(#SVGID_00000127763819882193638460000011398333836002801318_);}
	.st47{fill:url(#SVGID_00000164501766492751261150000003823002850416620972_);}
	.st48{fill:url(#SVGID_00000114765043208745671090000005702522429889813929_);}
	.st49{fill:url(#SVGID_00000011709575732210092180000009788228240964957861_);}
	.st50{fill:#062C44;}
	.st51{fill:url(#SVGID_00000021800335492499607680000002658634961010539167_);}
	.st52{fill:url(#SVGID_00000121263480539349713370000011259255869377738687_);}
	.st53{fill:url(#SVGID_00000152237733749555124100000004613488051701292175_);}
	.st54{fill:url(#SVGID_00000171688032771501689400000008774461214023257520_);}
	.st55{fill:url(#SVGID_00000113313066506833820000000011938436954405911478_);}
	.st56{fill:url(#SVGID_00000026850932304010709430000009482952783684414126_);}
	.st57{fill:url(#SVGID_00000176738628364306610520000002996892535168348080_);}
	.st58{fill:url(#SVGID_00000058584472447294304510000017843418747942364544_);}
	.st59{fill:url(#SVGID_00000032623758927956664490000011469424686753719439_);}
	.st60{fill:url(#SVGID_00000175291353989763583410000004073024025823412103_);}
	.st61{fill:url(#SVGID_00000010283766143663260670000005472297956490160022_);}
	.st62{fill:url(#SVGID_00000107568863334794482930000005243851076007846824_);}
	.st63{fill:url(#SVGID_00000100372995415082268430000008987400245332008353_);}
	.st64{fill:url(#SVGID_00000150807666565587140250000013669532123489586098_);}
	.st65{fill:url(#SVGID_00000067228516471003938340000013213608981477020055_);}
	.st66{fill:url(#SVGID_00000102536690127926318200000012608029149201590952_);}
	.st67{fill:url(#SVGID_00000064349042522038948570000017866558111796471439_);}
	.st68{fill:url(#SVGID_00000088850952003096632100000004443051143672670907_);}
	.st69{fill:url(#SVGID_00000016062806008984402460000015906129037184992650_);}
	.st70{fill:url(#SVGID_00000119801881722965938370000012345022251386620819_);}
	.st71{fill:url(#SVGID_00000016043689757734626140000000231091601139354300_);}
	.st72{fill:url(#SVGID_00000040553853446699055420000011486077562522670501_);}
	.st73{fill:url(#SVGID_00000016777686213658932060000001983043065266166188_);}
	.st74{fill:url(#SVGID_00000092444230711011759440000015462143001485872829_);}
	.st75{fill:url(#SVGID_00000145768190617428727220000013197631310786203060_);}
	.st76{fill:url(#SVGID_00000166638106738142652260000003544158658164817541_);}
	.st77{fill:url(#SVGID_00000155147957034697047810000000000685050913445514_);}
	.st78{fill:url(#SVGID_00000031897748431386222630000014270090317410398100_);}
	.st79{fill:url(#SVGID_00000106859024528413815290000004805078464151214761_);}
	.st80{fill:url(#SVGID_00000059273161250978896630000016943032796546963335_);}
	.st81{fill:url(#SVGID_00000096749399170751143350000016359661637298036875_);}
	.st82{fill:url(#SVGID_00000086649259040535555880000002999130980023704736_);}
	.st83{fill:url(#SVGID_00000165917759498786029880000015313220754750309507_);}
	.st84{fill:url(#SVGID_00000134969904866776940110000012683704425101095590_);}
	.st85{fill:url(#SVGID_00000091000288879650713420000011222887711681629829_);}
	.st86{fill:url(#SVGID_00000057134817789256590710000015641928002836678040_);}
	.st87{fill:url(#SVGID_00000038384862997179919870000010222580761453480839_);}
	.st88{fill:url(#SVGID_00000011007998649084567300000003005268680783048348_);}
	.st89{fill:url(#SVGID_00000005247150239505624600000005611669219926866328_);}
	.st90{fill:url(#SVGID_00000088853793570275973720000001917468411560945586_);}
	.st91{fill:url(#SVGID_00000075850691834822405170000012124228487113333677_);}
	.st92{fill:url(#SVGID_00000121987104085315729350000014607977416620555157_);}
	.st93{fill:url(#SVGID_00000122711426205827412390000013268269358467731863_);}
	.st94{fill:url(#SVGID_00000152969344026391531220000012892927956114656910_);}
	.st95{fill:url(#SVGID_00000070831364007532407660000010578631602780896166_);}
	.st96{fill:url(#SVGID_00000031194349390565988880000006510983906379606161_);}
	.st97{fill:url(#SVGID_00000124865588648492876070000009016230504313415858_);}
	.st98{fill:url(#SVGID_00000067915189878486520210000015295860818095464116_);}
	.st99{fill:url(#SVGID_00000087377471150901501850000000865937290838574764_);}
	.st100{fill:url(#SVGID_00000096745962887244410010000015830406461362464447_);}
	.st101{fill:url(#SVGID_00000140005001594679198350000010633868920320572045_);}
	.st102{fill:url(#SVGID_00000038395869185977643150000003959422207399340981_);}
	.st103{fill:url(#SVGID_00000099664249871242489490000003502906749168787348_);}
	.st104{fill:url(#SVGID_00000074431431385750244420000010919645527182077631_);}
	.st105{fill:url(#SVGID_00000155143282295528610300000007332378943161007286_);}
	.st106{fill:url(#SVGID_00000121997863716456945540000010043960585321710502_);}
	.st107{fill:url(#SVGID_00000000207691202042944090000006538659546678768000_);}
	.st108{fill:url(#SVGID_00000081639379360647868870000011659339062451161748_);}
	.st109{fill:url(#SVGID_00000024701380916717301610000011116216638447132076_);}
	.st110{fill:url(#SVGID_00000039845292515564173170000009970680202119155391_);}
	.st111{fill:url(#SVGID_00000050637967270384882610000009939194124046817466_);}
	.st112{fill:url(#SVGID_00000183958788862699640200000006866153470539433107_);}
	.st113{fill:url(#SVGID_00000003826875502023613330000009998483043991034799_);}
	.st114{fill:url(#SVGID_00000087370417883616618540000010101940453632697249_);}
	.st115{fill:url(#SVGID_00000146501960080864667250000012759094439097016990_);}
	.st116{fill:url(#SVGID_00000023258975494437142990000015075100014799414414_);}
	.st117{fill:url(#SVGID_00000104703502316314628130000013610822798158000009_);}
	.st118{fill:url(#SVGID_00000087380851272237792360000002279722172244418489_);}
	.st119{fill:url(#SVGID_00000116210203731396789780000007647059476720337291_);}
	.st120{fill:url(#SVGID_00000110428880893617813610000003569469920688887446_);}
	.st121{fill:url(#SVGID_00000099627880227112924090000015003590976148808613_);}
	.st122{fill:url(#SVGID_00000025435773046201266450000014393091180905915531_);}
	.st123{fill:url(#SVGID_00000065042561622849169800000008354757776617144250_);}
	.st124{fill:url(#SVGID_00000062156958956871884470000012983685895953945754_);}
	.st125{fill:url(#SVGID_00000105425996202034813730000002579811933081730207_);}
	.st126{fill:url(#SVGID_00000060007172404916037990000018235671488595524751_);}
	.st127{fill:url(#SVGID_00000013160671101441602650000016978208815455159742_);}
	.st128{fill:url(#SVGID_00000173162035087708529660000005352494331400791985_);}
	.st129{fill:url(#SVGID_00000111884050665997830790000015924601444838979235_);}
	.st130{fill:url(#SVGID_00000162312251296800759660000006711940713003435152_);}
	.st131{fill:url(#SVGID_00000070833991635929327210000004968483700622131134_);}
	.st132{fill:url(#SVGID_00000014635117513596679330000006865838819467480733_);}
	.st133{fill:url(#SVGID_00000141434502729805078930000003844348250393342128_);}
	.st134{fill:url(#SVGID_00000094616712594772219610000015188214712489692589_);}
	.st135{fill:url(#SVGID_00000013175507437183576200000013442705878333880475_);}
	.st136{fill:url(#SVGID_00000058548856025871535870000007295974222714322063_);}
	.st137{fill:url(#SVGID_00000005988322878593650250000017574404460689149824_);}
	.st138{fill:url(#SVGID_00000111165131159636388000000015307395423690635655_);}
	.st139{fill:url(#SVGID_00000114759636563002962880000017659519881966192280_);}
	.st140{fill:url(#SVGID_00000047062279867419827370000008504713296238515859_);}
	.st141{fill:url(#SVGID_00000092453974963196870540000015749259362912523938_);}
	.st142{fill:url(#SVGID_00000088849562056449190000000010951394542757067709_);}
	.st143{fill:url(#SVGID_00000031907910435527253980000007739874532207526310_);}
	.st144{fill:url(#SVGID_00000044870622208057065500000012217529400890286228_);}
	.st145{fill:url(#SVGID_00000105389108521433157810000009149153378754987175_);}
	.st146{fill:url(#SVGID_00000159460513660924022840000013880035356694254728_);}
	.st147{fill:url(#SVGID_00000164513013252716299640000011289472776058536603_);}
	.st148{fill:url(#SVGID_00000046300573944882287080000004475603557327915925_);}
	.st149{fill:url(#SVGID_00000054259260749251672060000015543151004728789926_);}
	.st150{fill:url(#SVGID_00000007426249586194199010000005693039935925095850_);}
	.st151{fill:url(#SVGID_00000096034304003391856030000016691904183327486141_);}
	.st152{fill:url(#SVGID_00000093159015351785396120000016908473702894499734_);}
	.st153{fill:url(#SVGID_00000114779085798292731510000010866188555615810980_);}
	.st154{fill:url(#SVGID_00000098930654033671737050000016490885153451419832_);}
	.st155{fill:url(#SVGID_00000070809663750684956940000009239529182886754188_);}
	.st156{fill:url(#SVGID_00000018915285192112761760000013192679981336388490_);}
	.st157{fill:url(#SVGID_00000031897884452790169920000015845541733600312205_);}
	.st158{fill:url(#SVGID_00000008143124313891889650000011836053840204134299_);}
	.st159{fill:url(#SVGID_00000157286255875906774190000013871082734142333877_);}
	.st160{fill:url(#SVGID_00000105427883482479195660000007361768851482594237_);}
	.st161{fill:url(#SVGID_00000038415153045243405490000001406623292545424550_);}
	.st162{fill:url(#SVGID_00000130632889050245097150000003276049742002932619_);}
	.st163{fill:url(#SVGID_00000152249097081484288450000017986425802446370207_);}
	.st164{fill:url(#SVGID_00000023978835979012602720000017351640019125013927_);}
	.st165{fill:url(#SVGID_00000107557906078842492900000015617844765608053438_);}
	.st166{fill:url(#SVGID_00000136373821273637442650000008916254563791973564_);}
	.st167{fill:url(#SVGID_00000069397831588254960040000003342462359250651570_);}
	.st168{fill:url(#SVGID_00000130636818716659228220000001754944821363183516_);}
	.st169{fill:url(#SVGID_00000078725785325337900690000012627243726490905244_);}
	.st170{fill:url(#SVGID_00000080907546070261377330000008085499044229739926_);}
</style>
<g id="Layer_1">
	<g>
		<linearGradient id="SVGID_1_" gradientUnits="userSpaceOnUse" x1="57.0004" y1="320.4817" x2="746.2274" y2="320.4817">
			<stop  offset="4.753638e-04" style="stop-color:#009B90"/>
			<stop  offset="1" style="stop-color:#50C1B7"/>
		</linearGradient>
		<circle class="st9" cx="363.8" cy="320.5" r="165.9"/>
		<g>
			<g>
				<path class="st7" d="M379.2,431.8c-5.2,0-9.4,4.2-9.4,9.4c0,5.2,4.2,9.4,9.4,9.4c5.2,0,9.4-4.2,9.4-9.4
					C388.5,436,384.4,431.8,379.2,431.8z"/>
			</g>
			<g>
				<path class="st7" d="M327.4,248.3H324V239h0c0-6.6-5.4-11.9-12-11.9c-6.6,0-11.9,5.3-12,11.9h0v9.3h-3.3c-0.7,0-1.3,0.6-1.3,1.3
					v18.7c0,0.7,0.6,1.3,1.3,1.3h30.7c0.7,0,1.3-0.6,1.3-1.3v-18.7C328.7,248.9,328.1,248.3,327.4,248.3z M304.7,239
					C304.7,239,304.7,239,304.7,239c0-4,3.3-7.2,7.3-7.2c4,0,7.3,3.3,7.3,7.3c0,0,0,0,0,0v9.3h-14.7V239z M314.6,262.4h-5l1.6-4.7
					c-1-0.4-1.8-1.3-1.8-2.5c0-1.5,1.2-2.7,2.7-2.7c1.5,0,2.7,1.2,2.7,2.7c0,1.2-0.7,2.1-1.8,2.5L314.6,262.4z"/>
			</g>
		</g>
		<g class="st4">
			<g>
				<path class="st7" d="M439.4,398.5c0.2,3.8,3.3,6.8,7.1,6.8c4,0,7.2-3.2,7.2-7.2s-3.2-7.2-7.2-7.2c-3.3,0-6.1,2.2-6.9,5.3H348
					c-0.6-4.8-4.6-8.5-9.5-8.5c-5.3,0-9.6,4.3-9.6,9.6c0,5.3,4.3,9.6,9.6,9.6c4.9,0,8.9-3.7,9.5-8.5H439.4z"/>
				<path class="st7" d="M234.9,261.6c-4,0-7.2,3.2-7.2,7.2c0,4,3.2,7.2,7.2,7.2c4,0,7.2-3.2,7.2-7.2
					C242.1,264.8,238.8,261.6,234.9,261.6z"/>
			</g>
			<g>
				<path class="st7" d="M398.9,385.4h-1.9v-5.3h0c0-3.7-3-6.7-6.7-6.7c-3.7,0-6.7,3-6.7,6.7h0v5.3h-1.9c-0.4,0-0.7,0.3-0.7,0.8
					v10.5c0,0.4,0.3,0.8,0.7,0.8h17.3c0.4,0,0.7-0.3,0.7-0.8v-10.5C399.7,385.7,399.4,385.4,398.9,385.4z M386.2,380.1
					C386.2,380.1,386.2,380.1,386.2,380.1c0-2.2,1.9-4.1,4.1-4.1c2.3,0,4.1,1.8,4.1,4.1c0,0,0,0,0,0v5.3h-8.2V380.1z M391.7,393.3
					h-2.8l0.9-2.6c-0.6-0.2-1-0.8-1-1.4c0-0.8,0.7-1.5,1.5-1.5c0.8,0,1.5,0.7,1.5,1.5c0,0.6-0.4,1.2-1,1.4L391.7,393.3z"/>
				<path class="st7" d="M418.8,229.3h-2.6v-7.2h0c0-5-4.1-9.1-9.2-9.1c-5,0-9.1,4.1-9.2,9.1h0v7.2h-2.6c-0.6,0-1,0.5-1,1v14.3
					c0,0.6,0.5,1,1,1h23.5c0.6,0,1-0.5,1-1v-14.3C419.9,229.7,419.4,229.3,418.8,229.3z M401.5,222.1
					C401.5,222.1,401.5,222.1,401.5,222.1c0-3,2.5-5.5,5.6-5.5c3.1,0,5.6,2.5,5.6,5.6c0,0,0,0,0,0v7.2h-11.2V222.1z M409,240h-3.8
					l1.2-3.6c-0.8-0.3-1.3-1-1.3-1.9c0-1.1,0.9-2,2-2c1.1,0,2,0.9,2,2c0,0.9-0.6,1.6-1.3,1.9L409,240z"/>
			</g>
		</g>
		<g class="st5">
			<path class="st10" d="M465,245.4v-56.3c-28-21.6-63.1-34.5-101.2-34.5c-1.2,0-2.4,0-3.6,0v90.7H465z"/>
			<path class="st10" d="M360.2,247.6v85.6h-60.3v98.5c3.4,0.5,6,3.5,6,7.1c0,4-3.2,7.2-7.2,7.2c-4,0-7.2-3.2-7.2-7.2
				c0-3.6,2.6-6.5,6-7.1V331h60.3v-83.4h-2.7v-2.3h2.7v-90.7c-88.9,3.1-160,76.1-160,165.8c0,91.6,74.3,165.9,165.9,165.9
				s165.9-74.3,165.9-165.9c0-52.5-24.4-99.2-62.4-129.6v56.8H360.2z"/>
			<path class="st7" d="M465,245.4H360.2v-90.7c-0.8,0-1.5,0-2.3,0.1v90.7h-2.7v2.3h2.7V331h-60.3v100.8c-3.4,0.5-6,3.5-6,7.1
				c0,4,3.2,7.2,7.2,7.2c4,0,7.2-3.2,7.2-7.2c0-3.6-2.6-6.5-6-7.1v-98.5h60.3v-85.6h107.1v-56.8c-0.7-0.6-1.5-1.2-2.3-1.8V245.4z"/>
		</g>
		<g>
			<path class="st8" d="M410.8,413.6V323h77.6v-88.6h17.2c-0.6-1-1.2-2-1.8-3h-18.3V320h-74.6V161.9h-3V320h-59.3v-53.2h-92.1
				c-0.1-26.2-0.2-52.1-0.1-72.7c-1,0.8-2,1.7-3,2.6c-0.1,20.3,0,45.1,0.1,70.1h-46.7c-0.3,1-0.7,2-1,3h47.6
				c0.2,38.6,0.5,76.8,0.7,97.5h-49.6c0.3,1,0.6,2,0.9,3h51.6l0-1.5c-0.2-23.1-0.5-61.2-0.7-99h89.1V323h62.3v87.7H293.9v60.3
				c1,0.5,2,0.9,3,1.3v-58.7H410.8z"/>
			<path class="st8" d="M468.5,410.6c-0.7-6.2-6-11.1-12.4-11.1c-6.9,0-12.6,5.6-12.6,12.6c0,6.9,5.6,12.6,12.6,12.6
				c6.4,0,11.7-4.8,12.4-11.1h32.6c0.7-1,1.3-2,2-3H468.5z"/>
		</g>
		<g>
			<path class="st10" d="M481.6,426.4V323.1h-67.4c-0.5,3.4-3.5,6-7,6c-4,0-7.2-3.2-7.2-7.2c0-4,3.2-7.2,7.2-7.2c3.6,0,6.5,2.6,7,6
				h69.7v107.9h-49.8v42.1c56.5-26.5,95.6-83.8,95.6-150.3c0-91.6-74.3-165.9-165.9-165.9s-165.9,74.3-165.9,165.9
				c0,15.5,2.1,30.5,6.1,44.7v-14.9h29.7v-74.4h1.1h1.1v76.6h-29.7v20.1c21.9,66.1,84.1,113.7,157.5,113.7c4.7,0,9.3-0.2,13.9-0.6
				v-35.2h1.5h1.5v35c18.1-1.8,35.3-6.6,51.1-13.7v-45.4H481.6z"/>
			<path class="st10" d="M379.2,450.5h-1.5v35.2c1-0.1,2-0.2,3-0.3v-35H379.2z"/>
			<path class="st10" d="M236,352.6v-76.6h-1.1h-1.1v74.4H204v14.9c0.7,2.5,1.5,5,2.3,7.4v-20.1H236z"/>
			<path class="st10" d="M434.1,428.7h49.8V320.8h-69.7c-0.5-3.4-3.5-6-7-6c-4,0-7.2,3.2-7.2,7.2c0,4,3.2,7.2,7.2,7.2
				c3.6,0,6.5-2.6,7-6h67.4v103.3h-49.8v45.4c0.8-0.3,1.5-0.7,2.3-1V428.7z"/>
		</g>
		<g>
			
				<linearGradient id="SVGID_00000134225134420619454410000004282556624776621460_" gradientUnits="userSpaceOnUse" x1="394.6985" y1="386.6665" x2="852.1115" y2="386.6665">
				<stop  offset="4.753638e-04" style="stop-color:#009B90"/>
				<stop  offset="1" style="stop-color:#50C1B7"/>
			</linearGradient>
			<path style="fill:url(#SVGID_00000134225134420619454410000004282556624776621460_);" d="M772.5,385.6c-0.6,9.6,7,17.5,16.4,17.5
				h81.7c8.8,0,16.4-6.6,17-15.4c0.6-9.6-7-17.5-16.4-17.5h-81.7C780.7,370.2,773.1,376.8,772.5,385.6z"/>
			
				<linearGradient id="SVGID_00000132769544221031546630000014668821562555063969_" gradientUnits="userSpaceOnUse" x1="394.6985" y1="320.4816" x2="852.1115" y2="320.4816">
				<stop  offset="4.753638e-04" style="stop-color:#009B90"/>
				<stop  offset="1" style="stop-color:#50C1B7"/>
			</linearGradient>
			<path style="fill:url(#SVGID_00000132769544221031546630000014668821562555063969_);" d="M989.1,321.6c0.6-9.6-7-17.5-16.4-17.5
				H859.4c-8.8,0-16.4,6.6-17,15.4c-0.6,9.6,7,17.5,16.4,17.5h113.3C980.9,336.9,988.6,330.3,989.1,321.6z"/>
			
				<linearGradient id="SVGID_00000097493279416161102670000003242002753760029837_" gradientUnits="userSpaceOnUse" x1="394.6985" y1="386.6665" x2="852.1115" y2="386.6665">
				<stop  offset="4.753638e-04" style="stop-color:#009B90"/>
				<stop  offset="1" style="stop-color:#50C1B7"/>
			</linearGradient>
			<path style="fill:url(#SVGID_00000097493279416161102670000003242002753760029837_);" d="M926.8,370.2c-8.8,0-16.4,6.6-17,15.4
				c-0.6,9.6,7,17.5,16.4,17.5h37.4c8.8,0,16.4-6.6,17-15.4c0.6-9.6-7-17.5-16.4-17.5H926.8z"/>
			
				<linearGradient id="SVGID_00000181068538876234146600000010257972007645254785_" gradientUnits="userSpaceOnUse" x1="394.6985" y1="254.297" x2="852.1115" y2="254.297">
				<stop  offset="4.753638e-04" style="stop-color:#009B90"/>
				<stop  offset="1" style="stop-color:#50C1B7"/>
			</linearGradient>
			<path style="fill:url(#SVGID_00000181068538876234146600000010257972007645254785_);" d="M830.1,237.8h-37.4
				c-8.8,0-16.4,6.6-17,15.4c-0.6,9.6,7,17.5,16.4,17.5h37.4c8.8,0,16.4-6.6,17-15.4C847.1,245.8,839.5,237.8,830.1,237.8z"/>
			
				<linearGradient id="SVGID_00000103259985330079402080000017215568509703855778_" gradientUnits="userSpaceOnUse" x1="394.6985" y1="251.0487" x2="852.1115" y2="251.0487">
				<stop  offset="4.753638e-04" style="stop-color:#009B90"/>
				<stop  offset="1" style="stop-color:#50C1B7"/>
			</linearGradient>
			<path style="fill:url(#SVGID_00000103259985330079402080000017215568509703855778_);" d="M556.6,255.4
				c0.5-7.6-4.2-14.2-10.9-16.6c3.2,7.9,6,16.1,8.2,24.5C555.4,261,556.4,258.3,556.6,255.4z"/>
			
				<linearGradient id="SVGID_00000045605899225647537530000012793323491245806237_" gradientUnits="userSpaceOnUse" x1="394.6985" y1="717.5909" x2="852.1115" y2="717.5909">
				<stop  offset="4.753638e-04" style="stop-color:#009B90"/>
				<stop  offset="1" style="stop-color:#50C1B7"/>
			</linearGradient>
			<path style="fill:url(#SVGID_00000045605899225647537530000012793323491245806237_);" d="M760.5,701.1c-9.1,0-16.4,7.4-16.4,16.5
				c0,9.1,7.4,16.5,16.4,16.5c9.1,0,16.5-7.4,16.5-16.5C777,708.5,769.6,701.1,760.5,701.1z"/>
			
				<linearGradient id="SVGID_00000176042309431356092370000016942136065047537300_" gradientUnits="userSpaceOnUse" x1="394.6985" y1="485.9435" x2="852.1115" y2="485.9435">
				<stop  offset="4.753638e-04" style="stop-color:#009B90"/>
				<stop  offset="1" style="stop-color:#50C1B7"/>
			</linearGradient>
			<path style="fill:url(#SVGID_00000176042309431356092370000016942136065047537300_);" d="M884.5,502.6H857
				c-8.8,0-16.4,6.6-17,15.4c-0.6,9.6,7,17.5,16.4,17.5h75.6c8.8,0,16.4-6.6,17-15.4c0.6-9.6-7-17.5-16.4-17.5h4.4
				c-9.1,0-16.5-7.4-16.5-16.5v-0.7c0-8.9,7.2-16.1,16.1-16.1c0.2,0,13.9,0,14.1,0c8.5-0.3,15.9-6.8,16.4-15.3
				c0.6-9.6-7-17.5-16.4-17.5h-118c-8.8,0-16.4,6.6-17,15.4c-0.6,9.6,7,17.5,16.4,17.5h52.2c9.1,0,16.4,7.4,16.4,16.5v0.4
				C901,495.2,893.6,502.6,884.5,502.6z"/>
			
				<linearGradient id="SVGID_00000016770680409346977180000000218281853391815858_" gradientUnits="userSpaceOnUse" x1="394.6985" y1="585.2211" x2="852.1115" y2="585.2211">
				<stop  offset="4.753638e-04" style="stop-color:#009B90"/>
				<stop  offset="1" style="stop-color:#50C1B7"/>
			</linearGradient>
			<path style="fill:url(#SVGID_00000016770680409346977180000000218281853391815858_);" d="M883.9,568.8c-9.1,0-16.5,7.4-16.5,16.4
				c0,9.1,7.4,16.5,16.5,16.5H907c9.1,0,16.4-7.4,16.4-16.5c0-9.1-7.4-16.4-16.4-16.4H883.9z"/>
			
				<linearGradient id="SVGID_00000065757940797566747180000008579302021166946219_" gradientUnits="userSpaceOnUse" x1="394.6985" y1="188.1099" x2="852.1115" y2="188.1099">
				<stop  offset="4.753638e-04" style="stop-color:#009B90"/>
				<stop  offset="1" style="stop-color:#50C1B7"/>
			</linearGradient>
			<path style="fill:url(#SVGID_00000065757940797566747180000008579302021166946219_);" d="M660.2,171.7c-9.1,0-16.5,7.4-16.5,16.5
				c0,9.1,7.4,16.4,16.5,16.4h12.4c9.1,0,16.5-7.4,16.5-16.4c0-9.1-7.4-16.5-16.5-16.5H660.2z"/>
			
				<linearGradient id="SVGID_00000089534089830046758490000016447000706802710451_" gradientUnits="userSpaceOnUse" x1="394.6985" y1="419.584" x2="852.1115" y2="419.584">
				<stop  offset="4.753638e-04" style="stop-color:#009B90"/>
				<stop  offset="1" style="stop-color:#50C1B7"/>
			</linearGradient>
			<path style="fill:url(#SVGID_00000089534089830046758490000016447000706802710451_);" d="M690.3,425.3c3.1-3.1,3.1-8.2,0-11.4
				c-3.1-3.1-8.2-3.1-11.4,0c-3.1,3.1-3.1,8.2,0,11.4C682,428.4,687.1,428.4,690.3,425.3z"/>
			
				<linearGradient id="SVGID_00000000937379663007293900000015813769265631544977_" gradientUnits="userSpaceOnUse" x1="394.6985" y1="552.1285" x2="852.1115" y2="552.1285">
				<stop  offset="4.753638e-04" style="stop-color:#009B90"/>
				<stop  offset="1" style="stop-color:#50C1B7"/>
			</linearGradient>
			<path style="fill:url(#SVGID_00000000937379663007293900000015813769265631544977_);" d="M679.1,558.2c3.3-3.3,3.3-8.8,0-12.1
				c-3.3-3.4-8.8-3.4-12.1,0c-3.4,3.3-3.4,8.8,0,12.1C670.3,561.5,675.7,561.5,679.1,558.2z"/>
			
				<linearGradient id="SVGID_00000133519494027060159880000008265072516433081253_" gradientUnits="userSpaceOnUse" x1="394.6985" y1="486.1353" x2="852.1115" y2="486.1353">
				<stop  offset="4.753638e-04" style="stop-color:#009B90"/>
				<stop  offset="1" style="stop-color:#50C1B7"/>
			</linearGradient>
			<path style="fill:url(#SVGID_00000133519494027060159880000008265072516433081253_);" d="M639.5,495.5c5.2-5.2,5.2-13.6,0-18.7
				c-5.2-5.2-13.6-5.2-18.7,0c-5.2,5.2-5.2,13.6,0,18.7C625.9,500.7,634.3,500.7,639.5,495.5z"/>
			
				<linearGradient id="SVGID_00000126287420204321219410000002344896044551614392_" gradientUnits="userSpaceOnUse" x1="394.6985" y1="585.2208" x2="852.1115" y2="585.2208">
				<stop  offset="4.753638e-04" style="stop-color:#009B90"/>
				<stop  offset="1" style="stop-color:#50C1B7"/>
			</linearGradient>
			<path style="fill:url(#SVGID_00000126287420204321219410000002344896044551614392_);" d="M537.2,585.2c0-9.1-7.4-16.4-16.5-16.4
				h-45.9c0,0,0,0,0,0h-57.2c-8.6,0-16.4,6.2-17.3,14.8c-1,9.8,6.7,18.1,16.4,18.1h104C529.9,601.7,537.2,594.3,537.2,585.2z"/>
			
				<linearGradient id="SVGID_00000101788158564253617640000015240652637131496596_" gradientUnits="userSpaceOnUse" x1="394.6985" y1="849.9626" x2="852.1115" y2="849.9626">
				<stop  offset="4.753638e-04" style="stop-color:#009B90"/>
				<stop  offset="1" style="stop-color:#50C1B7"/>
			</linearGradient>
			<path style="fill:url(#SVGID_00000101788158564253617640000015240652637131496596_);" d="M667.3,866.4c9.1,0,16.5-7.4,16.5-16.5
				c0-9.1-7.4-16.5-16.5-16.5h-1.7c-9.1,0-16.5,7.4-16.5,16.5c0,9.1,7.4,16.5,16.5,16.5H667.3z"/>
			
				<linearGradient id="SVGID_00000071530951646941463440000001426189772868292250_" gradientUnits="userSpaceOnUse" x1="394.6985" y1="287.3895" x2="852.1115" y2="287.3895">
				<stop  offset="4.753638e-04" style="stop-color:#009B90"/>
				<stop  offset="1" style="stop-color:#50C1B7"/>
			</linearGradient>
			<path style="fill:url(#SVGID_00000071530951646941463440000001426189772868292250_);" d="M559,336.9h26.7H804
				c8.6,0,16.4-6.2,17.3-14.8c1-9.8-6.7-18.1-16.4-18.1h-76.3c-9.1,0-16.5-7.4-16.5-16.5v-0.4c0-9.1,7.4-16.5,16.4-16.5h9.1
				c8.6,0,16.4-6.2,17.3-14.8c1-9.8-6.7-18.1-16.4-18.1H595c-8.6,0-16.4,6.2-17.3,14.8c-1,9.8,6.7,18.1,16.4,18.1h82.1
				c9.1,0,16.5,7.4,16.5,16.5v0.4c0,9.1-7.4,16.5-16.5,16.5h-116C560.7,315.2,560.3,326.2,559,336.9z"/>
			
				<linearGradient id="SVGID_00000174601510106784507630000006875914570949442725_" gradientUnits="userSpaceOnUse" x1="394.6985" y1="651.406" x2="852.1115" y2="651.406">
				<stop  offset="4.753638e-04" style="stop-color:#009B90"/>
				<stop  offset="1" style="stop-color:#50C1B7"/>
			</linearGradient>
			<path style="fill:url(#SVGID_00000174601510106784507630000006875914570949442725_);" d="M821.4,651.4c0,9.1,7.4,16.5,16.5,16.5
				h41.5c9.1,0,16.5-7.4,16.5-16.5c0-9.1-7.4-16.4-16.5-16.4h-41.5C828.8,635,821.4,642.3,821.4,651.4z"/>
			
				<linearGradient id="SVGID_00000169544207376501915440000009920032455562231225_" gradientUnits="userSpaceOnUse" x1="394.6985" y1="717.5909" x2="852.1115" y2="717.5909">
				<stop  offset="4.753638e-04" style="stop-color:#009B90"/>
				<stop  offset="1" style="stop-color:#50C1B7"/>
			</linearGradient>
			<path style="fill:url(#SVGID_00000169544207376501915440000009920032455562231225_);" d="M792.6,717.6c0,9.1,7.4,16.5,16.5,16.5
				H837c9.1,0,16.5-7.4,16.5-16.5c0-9.1-7.4-16.4-16.5-16.4h-27.9C800,701.1,792.6,708.5,792.6,717.6z"/>
			
				<linearGradient id="SVGID_00000101075465015586073090000003743942791695953069_" gradientUnits="userSpaceOnUse" x1="394.6985" y1="783.7755" x2="852.1115" y2="783.7755">
				<stop  offset="4.753638e-04" style="stop-color:#009B90"/>
				<stop  offset="1" style="stop-color:#50C1B7"/>
			</linearGradient>
			<path style="fill:url(#SVGID_00000101075465015586073090000003743942791695953069_);" d="M778.9,767.3H766
				c-9.1,0-16.5,7.4-16.5,16.5c0,9.1,7.4,16.5,16.5,16.5h12.9c9.1,0,16.5-7.4,16.5-16.5C795.4,774.7,788,767.3,778.9,767.3z"/>
			
				<linearGradient id="SVGID_00000120546027350192420990000001256002182769905300_" gradientUnits="userSpaceOnUse" x1="394.6985" y1="585.1001" x2="852.1115" y2="585.1001">
				<stop  offset="4.753638e-04" style="stop-color:#009B90"/>
				<stop  offset="1" style="stop-color:#50C1B7"/>
			</linearGradient>
			<path style="fill:url(#SVGID_00000120546027350192420990000001256002182769905300_);" d="M553.7,403.1h29.7c0,0,0,0,0,0h63.9
				c7,0,13.8-2.1,19.6-6c2.5-1.7,5.4-3.4,8.3-4.3c3.5-1.2,7.1-1.7,10.7-1.6c6.8,0.3,13.6,3,18.8,8.3c10.1,10.1,11,25.8,2.8,36.9
				c-0.8,1.1-1.7,2.3-2.8,3.3c-7.6,7.6-18.5,10.2-28.1,7.2c-4-1.3-7.5-3.1-10.1-4.9c-5.9-4-13-6-20.1-6h-65.2c0,0.1,0,0.2,0,0.4
				h-40.3c-0.6-0.7-1.1-1.5-1.8-2.2c-4.1-4.1-9.3-6.6-15-7.2c-8,11.3-17.2,21.7-27.4,31.2c1.1,4.3,3.3,8.4,6.6,11.8
				c4.8,4.8,11.1,7.4,17.9,7.4c6.7,0,13.1-2.6,17.9-7.4c0.2-0.2,0.3-0.4,0.5-0.7h43.1c7.8,0,15.2-3.1,20.7-8.6l0.6-0.6h0
				c14.4-14.4,37.7-14.4,52.1,0c2.8,2.8,5,5.9,6.7,9.2c7.1,13.9,4.9,31.3-6.7,42.9c-14.4,14.4-37.7,14.4-52.1,0h0
				c-0.2-0.2-0.4-0.5-0.7-0.7c-5.6-5.9-13.4-9.3-21.5-9.3h-6.5c0,0.1,0,0.3,0,0.4H454c-1.1-1.6-2.3-3.1-3.7-4.5c-2-2-4.3-3.7-6.7-5
				c-13.4,6-27.6,10.5-42.6,13.4c-5.5,11.4-3.6,25.6,5.9,35.1c5.8,5.8,13.5,9,21.7,9c8.2,0,15.9-3.2,21.7-9c1.8-1.8,3.3-3.8,4.5-6
				h20h97.8c0,0.1,0,0.1,0,0.2h68.1c6.8,0,13.5-1.8,19.4-5.3c3.4-2,8.3-3.8,14.7-3.3c7.5,0.5,14.8,4.5,19.4,11.8
				c5.2,8.1,5.1,18.9-0.2,26.9c-4.9,7.5-12.7,11.4-20.5,11.6c-6.6,0.1-11.2-1.4-14.2-3.2c-5.6-3.4-11.8-5.5-18.3-5.5l-64.2,0
				c0,0.1,0,0.1,0.1,0.2h-3.4c-8.6,0-16.4,6.2-17.3,14.8c-1,9.8,6.7,18.1,16.4,18.1h20.9h10.9c8.6,0,16.4,6.2,17.3,14.8
				c0.9,8.7-5,16.1-12.9,17.8h-84.9c-1.1-1.6-2.3-3.1-3.7-4.5c-5.8-5.8-13.5-9-21.7-9c-8.2,0-15.9,3.2-21.7,9c-12,12-12,31.4,0,43.4
				c5.8,5.8,13.5,9,21.7,9c8.2,0,15.9-3.2,21.7-9c1.6-1.6,2.9-3.4,4.1-5.3c0.3,0,0.6,0,0.9,0H568c9.1,0,16.5,7.4,16.5,16.5v0.4
				c0,9.1-7.4,16.5-16.4,16.5h-77.9c-8.6,0-16.5,6.2-17.3,14.8c-1,9.8,6.7,18.1,16.4,18.1H605h33.8c8.6,0,16.4,6.2,17.3,14.8
				c1,9.8-6.7,18.1-16.4,18.1h-85.5v0.4l-4.7,0c-8.6,0-16.5,6.2-17.3,14.8c-1,9.8,6.7,18.1,16.4,18.1H713c9.1,0,16.4-7.4,16.4-16.5
				c0-0.2,0-0.3,0-0.5c0-0.1,0-0.1,0-0.2V680.7c0-9.9,8-18,18-18h37.2c12.3,0,22.3-10,22.3-22.3v-50.3c0-4.9,4-8.9,8.9-8.9h20.4
				c2.6,0,5.2-0.9,7.1-2.6c3.3-3.1,4-7.8,2.1-11.7l-16.9-33.8c-9.4-18.7-16.4-38.4-22.6-58.4c-19.9-64.1-81.6-108.4-150.9-104.4
				h-69.4h-32c-0.6,0-1.2,0-1.7,0.1c-2.8,9.4-6.4,18.5-10.6,27.3C544.4,401,548.8,403.1,553.7,403.1z M529.2,460.9
				c-4.4,4.4-11.6,4.4-16,0c-4.4-4.4-4.4-11.6,0-16c4.4-4.4,11.6-4.4,16,0C533.6,449.3,533.6,456.4,529.2,460.9z M439,530.2
				c-5.7,5.7-15,5.7-20.8,0c-5.7-5.7-5.7-15,0-20.8c5.7-5.7,15-5.7,20.8,0C444.8,515.1,444.8,524.4,439,530.2z M509,661.8
				c-5.7,5.7-15,5.7-20.8,0c-5.7-5.7-5.7-15,0-20.8c5.7-5.7,15-5.7,20.8,0C514.8,646.8,514.8,656.1,509,661.8z"/>
		</g>
		<g>
			<g>
				<path class="st50" d="M663.9,77l-191.3,72.7c-40.7-27.1-89.4-38-138.1-30.7c-51.9,7.8-97.7,35.4-128.9,77.6
					c-31.2,42.2-44.1,94.1-36.2,146c5.6,37,21.1,70.8,44.9,98.5L49,617.5c-8.8,9.3-8.3,24,1.1,32.7c4.5,4.2,10.2,6.3,15.8,6.3
					c6.2,0,12.3-2.5,16.9-7.3l165.6-176.6c8.8,6.4,17.9,11.9,27.4,16.7c6.8,26.6,14.9,54.4,24.3,82.6
					c33.5,100.2,77.7,183.7,131.2,249.2c33.8,8.1,65.2,17.4,94.3,27.9c-101.2-87.6-159.9-222.4-193.8-341.5
					c10.4,1.7,21,2.6,31.7,2.6c9.8,0,19.8-0.7,29.7-2.2c2.7-0.4,5.4-0.9,8-1.4c14.9-2.9,29.2-7.4,42.6-13.4
					c19.7-8.8,37.6-20.6,53.1-34.9c10.2-9.4,19.4-19.9,27.4-31.2c6.6-9.3,12.4-19.1,17.3-29.4c4.2-8.8,7.7-17.9,10.6-27.3
					c3.3-10.8,5.7-22,7-33.4c1.3-10.8,1.7-21.8,1.2-32.9c-0.3-6.6-1-13.2-2-19.9c-1.1-7.1-2.5-14.1-4.3-20.9
					c-2.2-8.4-4.9-16.6-8.2-24.5c-7.8-19.1-18.6-36.8-32-52.6l150.2-57.1L1039.7,272c-8.4,80.8-54.2,415.7-243.8,579.6
					c29.3-10.9,61.1-20.7,95.3-29.1c53.5-65.7,92.1-151.9,132.7-250.5c50.9-123.6,64.2-296,66.1-314.7l1.2-18L663.9,77z M514,311.8
					c0.1,5.5-0.2,10.9-0.7,16.3c-1.4,14.7-5,28.9-10.5,42.2c-4.8,11.7-11.1,22.7-18.6,32.8c-12.9,17.4-29.6,32-49,42.5
					c-14.9,8.1-31.4,13.7-49,16.4c-7.3,1.1-14.7,1.7-21.9,1.7c-15.6,0.1-31.1-2.3-45.8-7c-15.6-4.9-30.4-12.5-43.9-22.4
					c-4.9-3.6-9.6-7.6-14-11.7c-24.4-23-40.3-53.2-45.3-86.8c-6-39.7,3.9-79.3,27.7-111.6c23.8-32.3,58.8-53.3,98.5-59.3
					c7.6-1.1,15.2-1.7,22.7-1.7c17.2,0,34.2,3,50.2,8.7c13.7,4.9,26.7,11.8,38.7,20.7c4.9,3.6,9.5,7.4,13.8,11.5
					c10.8,10.1,19.9,21.7,27.2,34.4c5.8,10.1,10.5,21,13.8,32.3c1.9,6.6,3.5,13.4,4.5,20.3C513.4,298,513.9,305,514,311.8z"/>
				<path class="st50" d="M726.6,974.1c44.3-29.6,115.1-61.9,226.8-84.4v-43.5c-41.3,8-77.6,17.4-109.6,27.6
					c-90.5,28.9-145.9,64.4-179.6,94.8c-34.4-31.1-91.6-67.6-185.8-96.8c-30.5-9.4-64.7-18.1-103.4-25.6l-0.4,2.3v41.1
					c112,22.5,183,54.9,227.4,84.5c-37.8-12.2-88.8-21.4-156.6-21.4c-36.1,0-76.8,2.6-122.9,8.8v42.5l0.1,0.5
					c46.7-6.5,87.5-9.2,122.9-9.2c85,0,139.7,15.4,173.1,30.8c4.6,2.1,8.8,4.2,12.6,6.3l19.3,14.2l13.2,9.7c0.2,0.2,0.3,0.4,0.3,0.4
					l0.1-0.1l0.5,0.3c0.1-0.1,0.7-0.8,1.8-2l12.1-8.7l18.8-13.6c3.9-2.1,8.2-4.3,13-6.5c33.4-15.4,88.1-30.8,173.1-30.8
					c35.3,0,75.9,2.7,122.4,9.1v-43c-45.9-6.1-86.5-8.7-122.4-8.7C815.3,952.7,764.4,961.9,726.6,974.1z"/>
			</g>
		</g>
	</g>
</g>
<g id="Layer_2">
</g>
</svg>
