<?xml version="1.0" encoding="utf-8"?>
<!-- Generator: Adobe Illustrator 28.1.0, SVG Export Plug-In . SVG Version: 6.00 Build 0)  -->
<svg version="1.1" xmlns="http://www.w3.org/2000/svg" xmlns:xlink="http://www.w3.org/1999/xlink" x="0px" y="0px"
	 viewBox="0 0 1133.9 1133.9" style="enable-background:new 0 0 1133.9 1133.9;" xml:space="preserve">
<style type="text/css">
	.st0{display:none;}
	.st1{display:inline;}
	.st2{fill:none;stroke:#000000;stroke-width:0.9157;stroke-miterlimit:10;}
	.st3{fill:#221F20;}
	.st4{opacity:0.6;}
	.st5{opacity:0.3;}
	.st6{opacity:0.3;fill:#221F20;}
	.st7{fill:#FFFFFF;}
	.st8{opacity:0.3;fill:#FFFFFF;}
	.st9{fill:url(#SVGID_1_);}
	.st10{fill:none;}
	.st11{fill:url(#SVGID_00000070837748524322454230000003759741163317365930_);}
	.st12{fill:url(#SVGID_00000154404254849023424570000016175987019844392097_);}
	.st13{fill:url(#SVGID_00000070084088560597827480000003420637973539242639_);}
	.st14{fill:url(#SVGID_00000026871634537201984890000012341505635939847558_);}
	.st15{fill:url(#SVGID_00000075882574656329346990000017796199362954114207_);}
	.st16{fill:url(#SVGID_00000158716391256261947960000001197149600024350634_);}
	.st17{fill:url(#SVGID_00000145769481873322304440000010577030008309007030_);}
	.st18{fill:url(#SVGID_00000111158842575755945640000013107612868348730013_);}
	.st19{fill:url(#SVGID_00000095331295233776640570000001181500392748542387_);}
	.st20{fill:url(#SVGID_00000071554904850390181370000012927813078020935356_);}
	.st21{fill:url(#SVGID_00000153679823457146963970000010919346029570337930_);}
	.st22{fill:url(#SVGID_00000101095182716036615540000009135446134276153991_);}
	.st23{fill:url(#SVGID_00000078019750044859635730000001519472841026641813_);}
	.st24{fill:url(#SVGID_00000062884096398368358580000017086101477165409679_);}
	.st25{fill:url(#SVGID_00000119810047143093222360000009911980780674644869_);}
	.st26{fill:url(#SVGID_00000053543087403343348940000005002480434299072145_);}
	.st27{fill:url(#SVGID_00000096056971194171195740000001802611578825816479_);}
	.st28{fill:url(#SVGID_00000085220089067840047530000003869542318940218544_);}
	.st29{fill:url(#SVGID_00000019661003745535583590000001638482137465006739_);}
	.st30{fill:url(#SVGID_00000117656811918529301700000014310817062792491394_);}
	.st31{fill:url(#SVGID_00000166637584361837991510000003191758896945496498_);}
	.st32{fill:url(#SVGID_00000023243767958383005920000006221931096519922575_);}
	.st33{fill:url(#SVGID_00000178198979421939619940000013454024513009510277_);}
	.st34{fill:url(#SVGID_00000042701621876557289460000011624304418473695127_);}
	.st35{fill:url(#SVGID_00000181793270072102490510000003436201818387481479_);}
	.st36{fill:url(#SVGID_00000174567023351660377200000002643412356255286419_);}
	.st37{fill:url(#SVGID_00000116943309336654413340000013833141586534697124_);}
	.st38{fill:url(#SVGID_00000031892150434353022760000015050455559592918666_);}
	.st39{fill:url(#SVGID_00000127725300542547536870000017716109181756695203_);}
	.st40{fill:url(#SVGID_00000006670003174777097930000002752898373192676232_);}
	.st41{fill:url(#SVGID_00000105397390740927643410000012270379917050392219_);}
	.st42{fill:url(#SVGID_00000092441282670668070460000004475915537439448974_);}
	.st43{fill:url(#SVGID_00000142881137945166402600000012408054340698445470_);}
	.st44{fill:url(#SVGID_00000176758935534836749840000010217082280750010012_);}
	.st45{fill:url(#SVGID_00000125578351214842400630000000376368083337595528_);}
	.st46{fill:url(#SVGID_00000179618352303159176160000000591401420578184632_);}
	.st47{fill:url(#SVGID_00000044140129085987885140000018240224161012989357_);}
	.st48{fill:url(#SVGID_00000019660133815128349480000002691964467555260858_);}
	.st49{fill:url(#SVGID_00000090979779777857890790000016202631109541262493_);}
	.st50{fill:#172B43;}
	.st51{fill:url(#SVGID_00000134946963971124328090000012606055214177621183_);}
	.st52{fill:url(#SVGID_00000021118645860033618330000013044956402613638331_);}
	.st53{fill:url(#SVGID_00000119113376544674972940000014069999622087137948_);}
	.st54{fill:url(#SVGID_00000105422968574717379590000003598584645403067523_);}
	.st55{fill:url(#SVGID_00000039832135205041685180000003730714385758256784_);}
	.st56{fill:url(#SVGID_00000104696677653994144440000004509895279878522796_);}
	.st57{fill:url(#SVGID_00000067224912361286088810000001080486266802880958_);}
	.st58{fill:url(#SVGID_00000001644045352863593660000002504680594713693880_);}
	.st59{fill:url(#SVGID_00000140012892182988251240000000155334234505384620_);}
	.st60{fill:url(#SVGID_00000072979745115378945200000006542418993306608821_);}
	.st61{fill:url(#SVGID_00000090266707573378898120000015077344580117657736_);}
	.st62{fill:url(#SVGID_00000103236470371474705340000007292410162909289098_);}
	.st63{fill:url(#SVGID_00000003790736789296207490000000080237370846070701_);}
	.st64{fill:url(#SVGID_00000129887963901919236980000015099382583452962445_);}
	.st65{fill:url(#SVGID_00000003811893751260126880000006096350280334718638_);}
	.st66{fill:url(#SVGID_00000095328168584940736040000004838611030900721073_);}
	.st67{fill:url(#SVGID_00000068677106570671554030000002559893512648733847_);}
	.st68{fill:url(#SVGID_00000168110361932722545800000016222246015317121697_);}
	.st69{fill:url(#SVGID_00000168803563959455992890000007742153662250739588_);}
	.st70{fill:url(#SVGID_00000136382211858464513120000003851760087346728081_);}
	.st71{fill:url(#SVGID_00000183232139765305002700000011248145492247793343_);}
	.st72{fill:url(#SVGID_00000034068070759831435890000010976684404267383427_);}
	.st73{fill:url(#SVGID_00000004526422846760383510000009127654103158684319_);}
	.st74{fill:url(#SVGID_00000147906042124239966570000003542371352840078753_);}
	.st75{fill:url(#SVGID_00000096741503220190607980000002889411689817882512_);}
	.st76{fill:url(#SVGID_00000086684755250180571100000018326106963461131658_);}
	.st77{fill:url(#SVGID_00000096738707477709891420000001451567722668144296_);}
	.st78{fill:url(#SVGID_00000089575435434078281070000005537137480871884223_);}
	.st79{fill:url(#SVGID_00000034774225231987284340000004448668541559508353_);}
	.st80{fill:url(#SVGID_00000044873342734930298050000009024428622570654391_);}
	.st81{fill:url(#SVGID_00000148642677982808605920000000323416376787740073_);}
	.st82{fill:url(#SVGID_00000030446312492775930710000016809023772884126119_);}
	.st83{fill:url(#SVGID_00000174567823406824110650000002814856204341711247_);}
	.st84{fill:url(#SVGID_00000097487052690976759670000004599027606478967484_);}
	.st85{fill:url(#SVGID_00000037665341675800044770000009504721666606431422_);}
	.st86{fill:url(#SVGID_00000105404496862675342440000006044801003819045765_);}
	.st87{fill:url(#SVGID_00000082339983488445819980000011093937523178894238_);}
	.st88{fill:url(#SVGID_00000096041728467797058550000017621863726911531657_);}
	.st89{fill:url(#SVGID_00000056390375058151530320000017287529288515775899_);}
	.st90{fill:url(#SVGID_00000142156770360309168210000013140394409563528614_);}
	.st91{fill:url(#SVGID_00000147914739372723933170000015700020360603793307_);}
	.st92{fill:url(#SVGID_00000007419460101510982980000005439626063056983210_);}
	.st93{fill:url(#SVGID_00000175312002395897381080000002598534506207160448_);}
	.st94{fill:url(#SVGID_00000070807354429778535670000011885184186506253247_);}
	.st95{fill:url(#SVGID_00000036943877873468782400000010398510809398580645_);}
	.st96{fill:url(#SVGID_00000160181966250197356440000012210689294922441402_);}
	.st97{fill:url(#SVGID_00000096776738734957281780000012877586986329269418_);}
	.st98{fill:url(#SVGID_00000032612704195647308990000008254493782226761392_);}
	.st99{fill:url(#SVGID_00000159436773809329601960000018153117788106889919_);}
	.st100{fill:url(#SVGID_00000076562383291109258190000013673451683942133896_);}
	.st101{fill:url(#SVGID_00000012449985716448934330000015085471693600604606_);}
	.st102{fill:url(#SVGID_00000047038060900908231840000003583740146115264680_);}
	.st103{fill:url(#SVGID_00000049222930427072555530000002807921077636252315_);}
	.st104{fill:url(#SVGID_00000124859798935547988450000008368645057068154540_);}
	.st105{fill:url(#SVGID_00000029032984480888553270000000263664053836254347_);}
	.st106{fill:url(#SVGID_00000075863242854750268010000010171486566117801608_);}
	.st107{fill:url(#SVGID_00000150072183359907469120000018356199762673420982_);}
	.st108{fill:url(#SVGID_00000119117882422430505400000003539167825274305452_);}
	.st109{fill:url(#SVGID_00000026137182765647133060000000430356689504690077_);}
	.st110{fill:url(#SVGID_00000124134807242566801900000008555345042093466769_);}
	.st111{fill:url(#SVGID_00000005234015413224150210000010868691435500611456_);}
	.st112{fill:url(#SVGID_00000016052826835546742040000006802789947819298223_);}
	.st113{fill:url(#SVGID_00000078022060842700745710000012712355395642871741_);}
	.st114{fill:url(#SVGID_00000074426210445884005610000017813401644269036958_);}
	.st115{fill:url(#SVGID_00000103262911391837403450000010307808041124337794_);}
	.st116{fill:url(#SVGID_00000142159910968860999480000011445746690775285898_);}
	.st117{fill:url(#SVGID_00000158732917719884334370000014458140922993474449_);}
	.st118{fill:url(#SVGID_00000034062877121797779320000001037945558702004382_);}
	.st119{fill:url(#SVGID_00000016755401750174908140000013750633621687902625_);}
	.st120{fill:url(#SVGID_00000013885990935748985930000001339647711249717651_);}
	.st121{fill:url(#SVGID_00000087402677666974192030000016759940617486128517_);}
	.st122{fill:url(#SVGID_00000148643710332547609020000011386107669710017454_);}
	.st123{fill:url(#SVGID_00000064317808540068600850000012502230935358730157_);}
	.st124{fill:url(#SVGID_00000073693723270956753110000010803945179481697944_);}
	.st125{fill:url(#SVGID_00000171696104772329232460000005486880744419989666_);}
	.st126{fill:url(#SVGID_00000021084246952610916440000015005595906887628981_);}
	.st127{fill:url(#SVGID_00000173867052244734111090000006915292446364809092_);}
	.st128{fill:url(#SVGID_00000067228240183560120360000009455663113701107375_);}
	.st129{fill:url(#SVGID_00000104667987598702908060000017798299882394474667_);}
	.st130{fill:url(#SVGID_00000108277906496467384240000017460033578237735855_);}
	.st131{fill:url(#SVGID_00000006695743773759756640000000065261275152723595_);}
	.st132{fill:url(#SVGID_00000102545532070483686190000005069669965151628951_);}
	.st133{fill:url(#SVGID_00000060717069693898746640000009636461587188626307_);}
	.st134{fill:url(#SVGID_00000062902450586094305030000017954911855581733780_);}
	.st135{fill:url(#SVGID_00000139258642481148956810000004096960611324042387_);}
	.st136{fill:url(#SVGID_00000047019339603688243330000012100030842458510221_);}
	.st137{fill:url(#SVGID_00000139999272892706227250000015044593100890748336_);}
	.st138{fill:url(#SVGID_00000144300981227620830060000013828073587409863602_);}
	.st139{fill:url(#SVGID_00000101789742856185462820000009190526612887543468_);}
	.st140{fill:url(#SVGID_00000113340421222780878860000006888725444184082356_);}
	.st141{fill:url(#SVGID_00000112602605736297732670000007013719897585349814_);}
	.st142{fill:url(#SVGID_00000062894627938271524020000015166076211376878262_);}
	.st143{fill:url(#SVGID_00000063624815924208459150000010840032838758871718_);}
	.st144{fill:url(#SVGID_00000166673778512019961050000007222773888508644242_);}
	.st145{fill:url(#SVGID_00000000933134900939048770000012025015304926197437_);}
	.st146{fill:url(#SVGID_00000089545647018652752400000005910168446532580785_);}
	.st147{fill:url(#SVGID_00000138565661625030275080000007055241177289693873_);}
	.st148{fill:url(#SVGID_00000106109447216194851370000001871840151193112985_);}
	.st149{fill:url(#SVGID_00000105390755082629133030000013534950203192183425_);}
	.st150{fill:url(#SVGID_00000058578934093235203020000017979015400234947002_);}
	.st151{fill:url(#SVGID_00000150072813620458657590000003766119992963528100_);}
	.st152{fill:url(#SVGID_00000096052136189859436520000008488121044082090113_);}
	.st153{fill:url(#SVGID_00000032621855613030136630000009159425246788943527_);}
	.st154{fill:url(#SVGID_00000149370675131420739710000004256835286363999123_);}
	.st155{fill:url(#SVGID_00000029755039454764626680000014093868127094703795_);}
	.st156{fill:url(#SVGID_00000041995990138314668780000013565223604524733320_);}
	.st157{fill:url(#SVGID_00000160903137041612119070000008241606193963977088_);}
	.st158{fill:url(#SVGID_00000046333146553401273330000010464923528024967353_);}
	.st159{fill:url(#SVGID_00000056411827112993387470000012426462660670718617_);}
	.st160{fill:url(#SVGID_00000025416901204151267410000006265871211331669433_);}
	.st161{fill:url(#SVGID_00000091711670656616999070000008668127868616058781_);}
	.st162{fill:url(#SVGID_00000169518876976542559860000015321825926343097232_);}
	.st163{fill:url(#SVGID_00000116222955174324492290000006751275997335692962_);}
	.st164{fill:url(#SVGID_00000173160974900974644620000012282443705639880591_);}
	.st165{fill:url(#SVGID_00000178911560502667609910000009644689656617755564_);}
	.st166{fill:url(#SVGID_00000102522313088783335690000000880115937135289783_);}
	.st167{fill:url(#SVGID_00000026136620797586485030000016578089153580318116_);}
	.st168{fill:url(#SVGID_00000036209490168650912340000018020235464334290874_);}
	.st169{fill:url(#SVGID_00000044141126877384834280000007956598140935555750_);}
	.st170{fill:url(#SVGID_00000143598999503704589620000005414895106302274237_);}
</style>
<g id="Layer_1">
	<g>
		<linearGradient id="SVGID_1_" gradientUnits="userSpaceOnUse" x1="57.0004" y1="320.4817" x2="746.2274" y2="320.4817">
			<stop  offset="4.753638e-04" style="stop-color:#46978F"/>
			<stop  offset="1" style="stop-color:#7CDBC7"/>
		</linearGradient>
		<circle class="st9" cx="363.8" cy="320.5" r="165.9"/>
		<g>
			<g>
				<path class="st7" d="M379.2,431.8c-5.2,0-9.4,4.2-9.4,9.4c0,5.2,4.2,9.4,9.4,9.4c5.2,0,9.4-4.2,9.4-9.4
					C388.5,436,384.4,431.8,379.2,431.8z"/>
			</g>
			<g>
				<path class="st7" d="M327.4,248.3H324V239h0c0-6.6-5.4-11.9-12-11.9c-6.6,0-11.9,5.3-12,11.9h0v9.3h-3.3c-0.7,0-1.3,0.6-1.3,1.3
					v18.7c0,0.7,0.6,1.3,1.3,1.3h30.7c0.7,0,1.3-0.6,1.3-1.3v-18.7C328.7,248.9,328.1,248.3,327.4,248.3z M304.7,239
					C304.7,239,304.7,239,304.7,239c0-4,3.3-7.2,7.3-7.2c4,0,7.3,3.3,7.3,7.3c0,0,0,0,0,0v9.3h-14.7V239z M314.6,262.4h-5l1.6-4.7
					c-1-0.4-1.8-1.3-1.8-2.5c0-1.5,1.2-2.7,2.7-2.7c1.5,0,2.7,1.2,2.7,2.7c0,1.2-0.7,2.1-1.8,2.5L314.6,262.4z"/>
			</g>
		</g>
		<g class="st4">
			<g>
				<path class="st7" d="M439.4,398.5c0.2,3.8,3.3,6.8,7.1,6.8c4,0,7.2-3.2,7.2-7.2s-3.2-7.2-7.2-7.2c-3.3,0-6.1,2.2-6.9,5.3H348
					c-0.6-4.8-4.6-8.5-9.5-8.5c-5.3,0-9.6,4.3-9.6,9.6c0,5.3,4.3,9.6,9.6,9.6c4.9,0,8.9-3.7,9.5-8.5H439.4z"/>
				<path class="st7" d="M234.9,261.6c-4,0-7.2,3.2-7.2,7.2c0,4,3.2,7.2,7.2,7.2c4,0,7.2-3.2,7.2-7.2
					C242.1,264.8,238.8,261.6,234.9,261.6z"/>
			</g>
			<g>
				<path class="st7" d="M398.9,385.4h-1.9v-5.3h0c0-3.7-3-6.7-6.7-6.7c-3.7,0-6.7,3-6.7,6.7h0v5.3h-1.9c-0.4,0-0.7,0.3-0.7,0.8
					v10.5c0,0.4,0.3,0.8,0.7,0.8h17.3c0.4,0,0.7-0.3,0.7-0.8v-10.5C399.7,385.7,399.4,385.4,398.9,385.4z M386.2,380.1
					C386.2,380.1,386.2,380.1,386.2,380.1c0-2.2,1.9-4.1,4.1-4.1c2.3,0,4.1,1.8,4.1,4.1c0,0,0,0,0,0v5.3h-8.2V380.1z M391.7,393.3
					h-2.8l0.9-2.6c-0.6-0.2-1-0.8-1-1.4c0-0.8,0.7-1.5,1.5-1.5c0.8,0,1.5,0.7,1.5,1.5c0,0.6-0.4,1.2-1,1.4L391.7,393.3z"/>
				<path class="st7" d="M418.8,229.3h-2.6v-7.2h0c0-5-4.1-9.1-9.2-9.1c-5,0-9.1,4.1-9.2,9.1h0v7.2h-2.6c-0.6,0-1,0.5-1,1v14.3
					c0,0.6,0.5,1,1,1h23.5c0.6,0,1-0.5,1-1v-14.3C419.9,229.7,419.4,229.3,418.8,229.3z M401.5,222.1
					C401.5,222.1,401.5,222.1,401.5,222.1c0-3,2.5-5.5,5.6-5.5c3.1,0,5.6,2.5,5.6,5.6c0,0,0,0,0,0v7.2h-11.2V222.1z M409,240h-3.8
					l1.2-3.6c-0.8-0.3-1.3-1-1.3-1.9c0-1.1,0.9-2,2-2c1.1,0,2,0.9,2,2c0,0.9-0.6,1.6-1.3,1.9L409,240z"/>
			</g>
		</g>
		<g class="st5">
			<path class="st10" d="M465,245.4v-56.3c-28-21.6-63.1-34.5-101.2-34.5c-1.2,0-2.4,0-3.6,0v90.7H465z"/>
			<path class="st10" d="M360.2,247.6v85.6h-60.3v98.5c3.4,0.5,6,3.5,6,7.1c0,4-3.2,7.2-7.2,7.2c-4,0-7.2-3.2-7.2-7.2
				c0-3.6,2.6-6.5,6-7.1V331h60.3v-83.4h-2.7v-2.3h2.7v-90.7c-88.9,3.1-160,76.1-160,165.8c0,91.6,74.3,165.9,165.9,165.9
				s165.9-74.3,165.9-165.9c0-52.5-24.4-99.2-62.4-129.6v56.8H360.2z"/>
			<path class="st7" d="M465,245.4H360.2v-90.7c-0.8,0-1.5,0-2.3,0.1v90.7h-2.7v2.3h2.7V331h-60.3v100.8c-3.4,0.5-6,3.5-6,7.1
				c0,4,3.2,7.2,7.2,7.2c4,0,7.2-3.2,7.2-7.2c0-3.6-2.6-6.5-6-7.1v-98.5h60.3v-85.6h107.1v-56.8c-0.7-0.6-1.5-1.2-2.3-1.8V245.4z"/>
		</g>
		<g>
			<path class="st8" d="M410.8,413.6V323h77.6v-88.6h17.2c-0.6-1-1.2-2-1.8-3h-18.3V320h-74.6V161.9h-3V320h-59.3v-53.2h-92.1
				c-0.1-26.2-0.2-52.1-0.1-72.7c-1,0.8-2,1.7-3,2.6c-0.1,20.3,0,45.1,0.1,70.1h-46.7c-0.3,1-0.7,2-1,3h47.6
				c0.2,38.6,0.5,76.8,0.7,97.5h-49.6c0.3,1,0.6,2,0.9,3h51.6l0-1.5c-0.2-23.1-0.5-61.2-0.7-99h89.1V323h62.3v87.7H293.9v60.3
				c1,0.5,2,0.9,3,1.3v-58.7H410.8z"/>
			<path class="st8" d="M468.5,410.6c-0.7-6.2-6-11.1-12.4-11.1c-6.9,0-12.6,5.6-12.6,12.6c0,6.9,5.6,12.6,12.6,12.6
				c6.4,0,11.7-4.8,12.4-11.1h32.6c0.7-1,1.3-2,2-3H468.5z"/>
		</g>
		<g>
			<path class="st10" d="M481.6,426.4V323.1h-67.4c-0.5,3.4-3.5,6-7,6c-4,0-7.2-3.2-7.2-7.2c0-4,3.2-7.2,7.2-7.2c3.6,0,6.5,2.6,7,6
				h69.7v107.9h-49.8v42.1c56.5-26.5,95.6-83.8,95.6-150.3c0-91.6-74.3-165.9-165.9-165.9s-165.9,74.3-165.9,165.9
				c0,15.5,2.1,30.5,6.1,44.7v-14.9h29.7v-74.4h1.1h1.1v76.6h-29.7v20.1c21.9,66.1,84.1,113.7,157.5,113.7c4.7,0,9.3-0.2,13.9-0.6
				v-35.2h1.5h1.5v35c18.1-1.8,35.3-6.6,51.1-13.7v-45.4H481.6z"/>
			<path class="st10" d="M379.2,450.5h-1.5v35.2c1-0.1,2-0.2,3-0.3v-35H379.2z"/>
			<path class="st10" d="M236,352.6v-76.6h-1.1h-1.1v74.4H204v14.9c0.7,2.5,1.5,5,2.3,7.4v-20.1H236z"/>
			<path class="st10" d="M434.1,428.7h49.8V320.8h-69.7c-0.5-3.4-3.5-6-7-6c-4,0-7.2,3.2-7.2,7.2c0,4,3.2,7.2,7.2,7.2
				c3.6,0,6.5-2.6,7-6h67.4v103.3h-49.8v45.4c0.8-0.3,1.5-0.7,2.3-1V428.7z"/>
		</g>
		<g>
			
				<linearGradient id="SVGID_00000025428414512305607440000017291591842567832712_" gradientUnits="userSpaceOnUse" x1="394.6985" y1="386.6665" x2="852.1115" y2="386.6665">
				<stop  offset="4.753638e-04" style="stop-color:#46978F"/>
				<stop  offset="1" style="stop-color:#7CDBC7"/>
			</linearGradient>
			<path style="fill:url(#SVGID_00000025428414512305607440000017291591842567832712_);" d="M772.5,385.6c-0.6,9.6,7,17.5,16.4,17.5
				h81.7c8.8,0,16.4-6.6,17-15.4c0.6-9.6-7-17.5-16.4-17.5h-81.7C780.7,370.2,773.1,376.8,772.5,385.6z"/>
			
				<linearGradient id="SVGID_00000051368941622989221950000003630035860219712153_" gradientUnits="userSpaceOnUse" x1="394.6985" y1="320.4816" x2="852.1115" y2="320.4816">
				<stop  offset="4.753638e-04" style="stop-color:#46978F"/>
				<stop  offset="1" style="stop-color:#7CDBC7"/>
			</linearGradient>
			<path style="fill:url(#SVGID_00000051368941622989221950000003630035860219712153_);" d="M989.1,321.6c0.6-9.6-7-17.5-16.4-17.5
				H859.4c-8.8,0-16.4,6.6-17,15.4c-0.6,9.6,7,17.5,16.4,17.5h113.3C980.9,336.9,988.6,330.3,989.1,321.6z"/>
			
				<linearGradient id="SVGID_00000070825761158091870080000006597086141714103169_" gradientUnits="userSpaceOnUse" x1="394.6985" y1="386.6665" x2="852.1115" y2="386.6665">
				<stop  offset="4.753638e-04" style="stop-color:#46978F"/>
				<stop  offset="1" style="stop-color:#7CDBC7"/>
			</linearGradient>
			<path style="fill:url(#SVGID_00000070825761158091870080000006597086141714103169_);" d="M926.8,370.2c-8.8,0-16.4,6.6-17,15.4
				c-0.6,9.6,7,17.5,16.4,17.5h37.4c8.8,0,16.4-6.6,17-15.4c0.6-9.6-7-17.5-16.4-17.5H926.8z"/>
			
				<linearGradient id="SVGID_00000078730511433045443190000003439675832296505267_" gradientUnits="userSpaceOnUse" x1="394.6985" y1="254.297" x2="852.1115" y2="254.297">
				<stop  offset="4.753638e-04" style="stop-color:#46978F"/>
				<stop  offset="1" style="stop-color:#7CDBC7"/>
			</linearGradient>
			<path style="fill:url(#SVGID_00000078730511433045443190000003439675832296505267_);" d="M830.1,237.8h-37.4
				c-8.8,0-16.4,6.6-17,15.4c-0.6,9.6,7,17.5,16.4,17.5h37.4c8.8,0,16.4-6.6,17-15.4C847.1,245.8,839.5,237.8,830.1,237.8z"/>
			
				<linearGradient id="SVGID_00000112597943212299145060000011049834970537763259_" gradientUnits="userSpaceOnUse" x1="394.6985" y1="251.0487" x2="852.1115" y2="251.0487">
				<stop  offset="4.753638e-04" style="stop-color:#46978F"/>
				<stop  offset="1" style="stop-color:#7CDBC7"/>
			</linearGradient>
			<path style="fill:url(#SVGID_00000112597943212299145060000011049834970537763259_);" d="M556.6,255.4
				c0.5-7.6-4.2-14.2-10.9-16.6c3.2,7.9,6,16.1,8.2,24.5C555.4,261,556.4,258.3,556.6,255.4z"/>
			
				<linearGradient id="SVGID_00000067202448105044556370000018285022543707865745_" gradientUnits="userSpaceOnUse" x1="394.6985" y1="717.5909" x2="852.1115" y2="717.5909">
				<stop  offset="4.753638e-04" style="stop-color:#46978F"/>
				<stop  offset="1" style="stop-color:#7CDBC7"/>
			</linearGradient>
			<path style="fill:url(#SVGID_00000067202448105044556370000018285022543707865745_);" d="M760.5,701.1c-9.1,0-16.4,7.4-16.4,16.5
				c0,9.1,7.4,16.5,16.4,16.5c9.1,0,16.5-7.4,16.5-16.5C777,708.5,769.6,701.1,760.5,701.1z"/>
			
				<linearGradient id="SVGID_00000067219950384806544710000015214875809378081160_" gradientUnits="userSpaceOnUse" x1="394.6985" y1="485.9435" x2="852.1115" y2="485.9435">
				<stop  offset="4.753638e-04" style="stop-color:#46978F"/>
				<stop  offset="1" style="stop-color:#7CDBC7"/>
			</linearGradient>
			<path style="fill:url(#SVGID_00000067219950384806544710000015214875809378081160_);" d="M884.5,502.6H857
				c-8.8,0-16.4,6.6-17,15.4c-0.6,9.6,7,17.5,16.4,17.5h75.6c8.8,0,16.4-6.6,17-15.4c0.6-9.6-7-17.5-16.4-17.5h4.4
				c-9.1,0-16.5-7.4-16.5-16.5v-0.7c0-8.9,7.2-16.1,16.1-16.1c0.2,0,13.9,0,14.1,0c8.5-0.3,15.9-6.8,16.4-15.3
				c0.6-9.6-7-17.5-16.4-17.5h-118c-8.8,0-16.4,6.6-17,15.4c-0.6,9.6,7,17.5,16.4,17.5h52.2c9.1,0,16.4,7.4,16.4,16.5v0.4
				C901,495.2,893.6,502.6,884.5,502.6z"/>
			
				<linearGradient id="SVGID_00000065046387869063492650000009880724812258260908_" gradientUnits="userSpaceOnUse" x1="394.6985" y1="585.2211" x2="852.1115" y2="585.2211">
				<stop  offset="4.753638e-04" style="stop-color:#46978F"/>
				<stop  offset="1" style="stop-color:#7CDBC7"/>
			</linearGradient>
			<path style="fill:url(#SVGID_00000065046387869063492650000009880724812258260908_);" d="M883.9,568.8c-9.1,0-16.5,7.4-16.5,16.4
				c0,9.1,7.4,16.5,16.5,16.5H907c9.1,0,16.4-7.4,16.4-16.5c0-9.1-7.4-16.4-16.4-16.4H883.9z"/>
			
				<linearGradient id="SVGID_00000005974085658006422360000002138378166295087745_" gradientUnits="userSpaceOnUse" x1="394.6985" y1="188.1099" x2="852.1115" y2="188.1099">
				<stop  offset="4.753638e-04" style="stop-color:#46978F"/>
				<stop  offset="1" style="stop-color:#7CDBC7"/>
			</linearGradient>
			<path style="fill:url(#SVGID_00000005974085658006422360000002138378166295087745_);" d="M660.2,171.7c-9.1,0-16.5,7.4-16.5,16.5
				c0,9.1,7.4,16.4,16.5,16.4h12.4c9.1,0,16.5-7.4,16.5-16.4c0-9.1-7.4-16.5-16.5-16.5H660.2z"/>
			
				<linearGradient id="SVGID_00000150823081313635518260000015118957419917125796_" gradientUnits="userSpaceOnUse" x1="394.6985" y1="419.584" x2="852.1115" y2="419.584">
				<stop  offset="4.753638e-04" style="stop-color:#46978F"/>
				<stop  offset="1" style="stop-color:#7CDBC7"/>
			</linearGradient>
			<path style="fill:url(#SVGID_00000150823081313635518260000015118957419917125796_);" d="M690.3,425.3c3.1-3.1,3.1-8.2,0-11.4
				c-3.1-3.1-8.2-3.1-11.4,0c-3.1,3.1-3.1,8.2,0,11.4C682,428.4,687.1,428.4,690.3,425.3z"/>
			
				<linearGradient id="SVGID_00000078029769951128624070000015434014260046717096_" gradientUnits="userSpaceOnUse" x1="394.6985" y1="552.1285" x2="852.1115" y2="552.1285">
				<stop  offset="4.753638e-04" style="stop-color:#46978F"/>
				<stop  offset="1" style="stop-color:#7CDBC7"/>
			</linearGradient>
			<path style="fill:url(#SVGID_00000078029769951128624070000015434014260046717096_);" d="M679.1,558.2c3.3-3.3,3.3-8.8,0-12.1
				c-3.3-3.4-8.8-3.4-12.1,0c-3.4,3.3-3.4,8.8,0,12.1C670.3,561.5,675.7,561.5,679.1,558.2z"/>
			
				<linearGradient id="SVGID_00000114789754535403552190000000588153816950707850_" gradientUnits="userSpaceOnUse" x1="394.6985" y1="486.1353" x2="852.1115" y2="486.1353">
				<stop  offset="4.753638e-04" style="stop-color:#46978F"/>
				<stop  offset="1" style="stop-color:#7CDBC7"/>
			</linearGradient>
			<path style="fill:url(#SVGID_00000114789754535403552190000000588153816950707850_);" d="M639.5,495.5c5.2-5.2,5.2-13.6,0-18.7
				c-5.2-5.2-13.6-5.2-18.7,0c-5.2,5.2-5.2,13.6,0,18.7C625.9,500.7,634.3,500.7,639.5,495.5z"/>
			
				<linearGradient id="SVGID_00000047045524962507439750000001008509676364614547_" gradientUnits="userSpaceOnUse" x1="394.6985" y1="585.2208" x2="852.1115" y2="585.2208">
				<stop  offset="4.753638e-04" style="stop-color:#46978F"/>
				<stop  offset="1" style="stop-color:#7CDBC7"/>
			</linearGradient>
			<path style="fill:url(#SVGID_00000047045524962507439750000001008509676364614547_);" d="M537.2,585.2c0-9.1-7.4-16.4-16.5-16.4
				h-45.9c0,0,0,0,0,0h-57.2c-8.6,0-16.4,6.2-17.3,14.8c-1,9.8,6.7,18.1,16.4,18.1h104C529.9,601.7,537.2,594.3,537.2,585.2z"/>
			
				<linearGradient id="SVGID_00000029746353078574206060000002303820710703798954_" gradientUnits="userSpaceOnUse" x1="394.6985" y1="849.9626" x2="852.1115" y2="849.9626">
				<stop  offset="4.753638e-04" style="stop-color:#46978F"/>
				<stop  offset="1" style="stop-color:#7CDBC7"/>
			</linearGradient>
			<path style="fill:url(#SVGID_00000029746353078574206060000002303820710703798954_);" d="M667.3,866.4c9.1,0,16.5-7.4,16.5-16.5
				c0-9.1-7.4-16.5-16.5-16.5h-1.7c-9.1,0-16.5,7.4-16.5,16.5c0,9.1,7.4,16.5,16.5,16.5H667.3z"/>
			
				<linearGradient id="SVGID_00000055696880788914363620000017998541736639742861_" gradientUnits="userSpaceOnUse" x1="394.6985" y1="287.3895" x2="852.1115" y2="287.3895">
				<stop  offset="4.753638e-04" style="stop-color:#46978F"/>
				<stop  offset="1" style="stop-color:#7CDBC7"/>
			</linearGradient>
			<path style="fill:url(#SVGID_00000055696880788914363620000017998541736639742861_);" d="M559,336.9h26.7H804
				c8.6,0,16.4-6.2,17.3-14.8c1-9.8-6.7-18.1-16.4-18.1h-76.3c-9.1,0-16.5-7.4-16.5-16.5v-0.4c0-9.1,7.4-16.5,16.4-16.5h9.1
				c8.6,0,16.4-6.2,17.3-14.8c1-9.8-6.7-18.1-16.4-18.1H595c-8.6,0-16.4,6.2-17.3,14.8c-1,9.8,6.7,18.1,16.4,18.1h82.1
				c9.1,0,16.5,7.4,16.5,16.5v0.4c0,9.1-7.4,16.5-16.5,16.5h-116C560.7,315.2,560.3,326.2,559,336.9z"/>
			
				<linearGradient id="SVGID_00000104694194111365779900000000117632171609236357_" gradientUnits="userSpaceOnUse" x1="394.6985" y1="651.406" x2="852.1115" y2="651.406">
				<stop  offset="4.753638e-04" style="stop-color:#46978F"/>
				<stop  offset="1" style="stop-color:#7CDBC7"/>
			</linearGradient>
			<path style="fill:url(#SVGID_00000104694194111365779900000000117632171609236357_);" d="M821.4,651.4c0,9.1,7.4,16.5,16.5,16.5
				h41.5c9.1,0,16.5-7.4,16.5-16.5c0-9.1-7.4-16.4-16.5-16.4h-41.5C828.8,635,821.4,642.3,821.4,651.4z"/>
			
				<linearGradient id="SVGID_00000021805312287150992190000001023377537069997954_" gradientUnits="userSpaceOnUse" x1="394.6985" y1="717.5909" x2="852.1115" y2="717.5909">
				<stop  offset="4.753638e-04" style="stop-color:#46978F"/>
				<stop  offset="1" style="stop-color:#7CDBC7"/>
			</linearGradient>
			<path style="fill:url(#SVGID_00000021805312287150992190000001023377537069997954_);" d="M792.6,717.6c0,9.1,7.4,16.5,16.5,16.5
				H837c9.1,0,16.5-7.4,16.5-16.5c0-9.1-7.4-16.4-16.5-16.4h-27.9C800,701.1,792.6,708.5,792.6,717.6z"/>
			
				<linearGradient id="SVGID_00000005947039029548332000000015497964729641171119_" gradientUnits="userSpaceOnUse" x1="394.6985" y1="783.7755" x2="852.1115" y2="783.7755">
				<stop  offset="4.753638e-04" style="stop-color:#46978F"/>
				<stop  offset="1" style="stop-color:#7CDBC7"/>
			</linearGradient>
			<path style="fill:url(#SVGID_00000005947039029548332000000015497964729641171119_);" d="M778.9,767.3H766
				c-9.1,0-16.5,7.4-16.5,16.5c0,9.1,7.4,16.5,16.5,16.5h12.9c9.1,0,16.5-7.4,16.5-16.5C795.4,774.7,788,767.3,778.9,767.3z"/>
			
				<linearGradient id="SVGID_00000151510971722797087030000004473704090776698271_" gradientUnits="userSpaceOnUse" x1="394.6985" y1="585.1001" x2="852.1115" y2="585.1001">
				<stop  offset="4.753638e-04" style="stop-color:#46978F"/>
				<stop  offset="1" style="stop-color:#7CDBC7"/>
			</linearGradient>
			<path style="fill:url(#SVGID_00000151510971722797087030000004473704090776698271_);" d="M553.7,403.1h29.7c0,0,0,0,0,0h63.9
				c7,0,13.8-2.1,19.6-6c2.5-1.7,5.4-3.4,8.3-4.3c3.5-1.2,7.1-1.7,10.7-1.6c6.8,0.3,13.6,3,18.8,8.3c10.1,10.1,11,25.8,2.8,36.9
				c-0.8,1.1-1.7,2.3-2.8,3.3c-7.6,7.6-18.5,10.2-28.1,7.2c-4-1.3-7.5-3.1-10.1-4.9c-5.9-4-13-6-20.1-6h-65.2c0,0.1,0,0.2,0,0.4
				h-40.3c-0.6-0.7-1.1-1.5-1.8-2.2c-4.1-4.1-9.3-6.6-15-7.2c-8,11.3-17.2,21.7-27.4,31.2c1.1,4.3,3.3,8.4,6.6,11.8
				c4.8,4.8,11.1,7.4,17.9,7.4c6.7,0,13.1-2.6,17.9-7.4c0.2-0.2,0.3-0.4,0.5-0.7h43.1c7.8,0,15.2-3.1,20.7-8.6l0.6-0.6h0
				c14.4-14.4,37.7-14.4,52.1,0c2.8,2.8,5,5.9,6.7,9.2c7.1,13.9,4.9,31.3-6.7,42.9c-14.4,14.4-37.7,14.4-52.1,0h0
				c-0.2-0.2-0.4-0.5-0.7-0.7c-5.6-5.9-13.4-9.3-21.5-9.3h-6.5c0,0.1,0,0.3,0,0.4H454c-1.1-1.6-2.3-3.1-3.7-4.5c-2-2-4.3-3.7-6.7-5
				c-13.4,6-27.6,10.5-42.6,13.4c-5.5,11.4-3.6,25.6,5.9,35.1c5.8,5.8,13.5,9,21.7,9c8.2,0,15.9-3.2,21.7-9c1.8-1.8,3.3-3.8,4.5-6
				h20h97.8c0,0.1,0,0.1,0,0.2h68.1c6.8,0,13.5-1.8,19.4-5.3c3.4-2,8.3-3.8,14.7-3.3c7.5,0.5,14.8,4.5,19.4,11.8
				c5.2,8.1,5.1,18.9-0.2,26.9c-4.9,7.5-12.7,11.4-20.5,11.6c-6.6,0.1-11.2-1.4-14.2-3.2c-5.6-3.4-11.8-5.5-18.3-5.5l-64.2,0
				c0,0.1,0,0.1,0.1,0.2h-3.4c-8.6,0-16.4,6.2-17.3,14.8c-1,9.8,6.7,18.1,16.4,18.1h20.9h10.9c8.6,0,16.4,6.2,17.3,14.8
				c0.9,8.7-5,16.1-12.9,17.8h-84.9c-1.1-1.6-2.3-3.1-3.7-4.5c-5.8-5.8-13.5-9-21.7-9c-8.2,0-15.9,3.2-21.7,9c-12,12-12,31.4,0,43.4
				c5.8,5.8,13.5,9,21.7,9c8.2,0,15.9-3.2,21.7-9c1.6-1.6,2.9-3.4,4.1-5.3c0.3,0,0.6,0,0.9,0H568c9.1,0,16.5,7.4,16.5,16.5v0.4
				c0,9.1-7.4,16.5-16.4,16.5h-77.9c-8.6,0-16.5,6.2-17.3,14.8c-1,9.8,6.7,18.1,16.4,18.1H605h33.8c8.6,0,16.4,6.2,17.3,14.8
				c1,9.8-6.7,18.1-16.4,18.1h-85.5v0.4l-4.7,0c-8.6,0-16.5,6.2-17.3,14.8c-1,9.8,6.7,18.1,16.4,18.1H713c9.1,0,16.4-7.4,16.4-16.5
				c0-0.2,0-0.3,0-0.5c0-0.1,0-0.1,0-0.2V680.7c0-9.9,8-18,18-18h37.2c12.3,0,22.3-10,22.3-22.3v-50.3c0-4.9,4-8.9,8.9-8.9h20.4
				c2.6,0,5.2-0.9,7.1-2.6c3.3-3.1,4-7.8,2.1-11.7l-16.9-33.8c-9.4-18.7-16.4-38.4-22.6-58.4c-19.9-64.1-81.6-108.4-150.9-104.4
				h-69.4h-32c-0.6,0-1.2,0-1.7,0.1c-2.8,9.4-6.4,18.5-10.6,27.3C544.4,401,548.8,403.1,553.7,403.1z M529.2,460.9
				c-4.4,4.4-11.6,4.4-16,0c-4.4-4.4-4.4-11.6,0-16c4.4-4.4,11.6-4.4,16,0C533.6,449.3,533.6,456.4,529.2,460.9z M439,530.2
				c-5.7,5.7-15,5.7-20.8,0c-5.7-5.7-5.7-15,0-20.8c5.7-5.7,15-5.7,20.8,0C444.8,515.1,444.8,524.4,439,530.2z M509,661.8
				c-5.7,5.7-15,5.7-20.8,0c-5.7-5.7-5.7-15,0-20.8c5.7-5.7,15-5.7,20.8,0C514.8,646.8,514.8,656.1,509,661.8z"/>
		</g>
		<g>
			<path class="st7" d="M663.9,77l-191.3,72.7c-40.7-27.1-89.4-38-138.1-30.7c-51.9,7.8-97.7,35.4-128.9,77.6
				c-31.2,42.2-44.1,94.1-36.2,146c5.6,37,21.1,70.8,44.9,98.5L49,617.5c-8.8,9.3-8.3,24,1.1,32.7c4.5,4.2,10.2,6.3,15.8,6.3
				c6.2,0,12.3-2.5,16.9-7.3l165.6-176.6c8.8,6.4,17.9,11.9,27.4,16.7c6.8,26.6,14.9,54.4,24.3,82.6
				c33.5,100.2,77.7,183.7,131.2,249.2c33.8,8.1,65.2,17.4,94.3,27.9c-101.2-87.6-159.9-222.4-193.8-341.5c10.4,1.7,21,2.6,31.7,2.6
				c9.8,0,19.8-0.7,29.7-2.2c2.7-0.4,5.4-0.9,8-1.4c14.9-2.9,29.2-7.4,42.6-13.4c19.7-8.8,37.6-20.6,53.1-34.9
				c10.2-9.4,19.4-19.9,27.4-31.2c6.6-9.3,12.4-19.1,17.3-29.4c4.2-8.8,7.7-17.9,10.6-27.3c3.3-10.8,5.7-22,7-33.4
				c1.3-10.8,1.7-21.8,1.2-32.9c-0.3-6.6-1-13.2-2-19.9c-1.1-7.1-2.5-14.1-4.3-20.9c-2.2-8.4-4.9-16.6-8.2-24.5
				c-7.8-19.1-18.6-36.8-32-52.6l150.2-57.1L1039.7,272c-8.4,80.8-54.2,415.7-243.8,579.6c29.3-10.9,61.1-20.7,95.3-29.1
				c53.5-65.7,92.1-151.9,132.7-250.5c50.9-123.6,64.2-296,66.1-314.7l1.2-18L663.9,77z M514,311.8c0.1,5.5-0.2,10.9-0.7,16.3
				c-1.4,14.7-5,28.9-10.5,42.2c-4.8,11.7-11.1,22.7-18.6,32.8c-12.9,17.4-29.6,32-49,42.5c-14.9,8.1-31.4,13.7-49,16.4
				c-7.3,1.1-14.7,1.7-21.9,1.7c-15.6,0.1-31.1-2.3-45.8-7c-15.6-4.9-30.4-12.5-43.9-22.4c-4.9-3.6-9.6-7.6-14-11.7
				c-24.4-23-40.3-53.2-45.3-86.8c-6-39.7,3.9-79.3,27.7-111.6c23.8-32.3,58.8-53.3,98.5-59.3c7.6-1.1,15.2-1.7,22.7-1.7
				c17.2,0,34.2,3,50.2,8.7c13.7,4.9,26.7,11.8,38.7,20.7c4.9,3.6,9.5,7.4,13.8,11.5c10.8,10.1,19.9,21.7,27.2,34.4
				c5.8,10.1,10.5,21,13.8,32.3c1.9,6.6,3.5,13.4,4.5,20.3C513.4,298,513.9,305,514,311.8z"/>
			<path class="st7" d="M726.6,974.1c44.3-29.6,115.1-61.9,226.8-84.4v-43.5c-41.3,8-77.6,17.4-109.6,27.6
				c-90.5,28.9-145.9,64.4-179.6,94.8c-34.4-31.1-91.6-67.6-185.8-96.8c-30.5-9.4-64.7-18.1-103.4-25.6l-0.4,2.3v41.1
				c112,22.5,183,54.9,227.4,84.5c-37.8-12.2-88.8-21.4-156.6-21.4c-36.1,0-76.8,2.6-122.9,8.8v42.5l0.1,0.5
				c46.7-6.5,87.5-9.2,122.9-9.2c85,0,139.7,15.4,173.1,30.8c4.6,2.1,8.8,4.2,12.6,6.3l19.3,14.2l13.2,9.7c0.2,0.2,0.3,0.4,0.3,0.4
				l0.1-0.1l0.5,0.3c0.1-0.1,0.7-0.8,1.8-2l12.1-8.7l18.8-13.6c3.9-2.1,8.2-4.3,13-6.5c33.4-15.4,88.1-30.8,173.1-30.8
				c35.3,0,75.9,2.7,122.4,9.1v-43c-45.9-6.1-86.5-8.7-122.4-8.7C815.3,952.7,764.4,961.9,726.6,974.1z"/>
		</g>
	</g>
</g>
<g id="Layer_2">
</g>
</svg>
