<?xml version="1.0" encoding="utf-8"?>
<!-- Generator: Adobe Illustrator 28.1.0, SVG Export Plug-In . SVG Version: 6.00 Build 0)  -->
<svg version="1.1" xmlns="http://www.w3.org/2000/svg" xmlns:xlink="http://www.w3.org/1999/xlink" x="0px" y="0px"
	 viewBox="0 0 1133.9 1133.9" style="enable-background:new 0 0 1133.9 1133.9;" xml:space="preserve">
<style type="text/css">
	.st0{display:none;}
	.st1{display:inline;}
	.st2{fill:none;stroke:#000000;stroke-width:0.9157;stroke-miterlimit:10;}
	.st3{fill:#221F20;}
	.st4{opacity:0.6;}
	.st5{opacity:0.3;}
	.st6{opacity:0.3;fill:#221F20;}
	.st7{fill:#FFFFFF;}
	.st8{opacity:0.3;fill:#FFFFFF;}
	.st9{fill:url(#SVGID_1_);}
	.st10{fill:none;}
	.st11{fill:url(#SVGID_00000108271797095367677870000018038981181096212884_);}
	.st12{fill:url(#SVGID_00000135652561851650069380000017129535419220798391_);}
	.st13{fill:url(#SVGID_00000171682299907070145800000006316342815316361602_);}
	.st14{fill:url(#SVGID_00000119112276569155611960000005490358317375326848_);}
	.st15{fill:url(#SVGID_00000097472312551809056310000017448662478428389541_);}
	.st16{fill:url(#SVGID_00000107571992318518377960000008840113028094164611_);}
	.st17{fill:url(#SVGID_00000083085008849760829630000015474344754729663104_);}
	.st18{fill:url(#SVGID_00000063597983534023349530000001677494951673626796_);}
	.st19{fill:url(#SVGID_00000068668373240304604110000013386651280861893552_);}
	.st20{fill:url(#SVGID_00000039123849765307677090000016457950698033531058_);}
	.st21{fill:url(#SVGID_00000152960066689871837550000012534295388552134573_);}
	.st22{fill:url(#SVGID_00000070829006031276640520000004880192882819361444_);}
	.st23{fill:url(#SVGID_00000171705748300960897770000013510604083773035667_);}
	.st24{fill:url(#SVGID_00000115488857804223401250000006086295661722162334_);}
	.st25{fill:url(#SVGID_00000155106017139503638090000000149048921284579473_);}
	.st26{fill:url(#SVGID_00000096027970371384819380000013471356136877946777_);}
	.st27{fill:url(#SVGID_00000008871787741281013710000000119753024153745331_);}
	.st28{fill:url(#SVGID_00000062887474460660915950000003764293090315936645_);}
	.st29{fill:url(#SVGID_00000077292118068320239600000013920944756557572230_);}
	.st30{fill:url(#SVGID_00000029005843980282648690000017150468010966326199_);}
	.st31{fill:url(#SVGID_00000147221279277557421420000015452474877156880816_);}
	.st32{fill:url(#SVGID_00000017498893897450435550000012574838767342510722_);}
	.st33{fill:url(#SVGID_00000075143469521874082990000011183934124212820369_);}
	.st34{fill:url(#SVGID_00000078756324073151097800000004214330023001892786_);}
	.st35{fill:url(#SVGID_00000170279626318934063420000003599993836650338713_);}
	.st36{fill:url(#SVGID_00000025402485466549773260000013467557768841488052_);}
	.st37{fill:url(#SVGID_00000168804412127859880370000003202198078177019780_);}
	.st38{fill:url(#SVGID_00000173882586055645240760000003947476967108601758_);}
	.st39{fill:url(#SVGID_00000181795411793544525940000016141095172660611757_);}
	.st40{fill:url(#SVGID_00000024713184155233914170000004420712345234166448_);}
	.st41{fill:url(#SVGID_00000120540207521896358990000008032259900395396771_);}
	.st42{fill:url(#SVGID_00000130631465930759683440000009040032700508421003_);}
	.st43{fill:url(#SVGID_00000083795796325012882620000000408718852427965880_);}
	.st44{fill:url(#SVGID_00000065035502990129959700000006615150419596985009_);}
	.st45{fill:url(#SVGID_00000118364161887073942690000000535243503862709908_);}
	.st46{fill:url(#SVGID_00000125561533119580386020000006464567457109333901_);}
	.st47{fill:url(#SVGID_00000044147722353636420590000011546945299145474955_);}
	.st48{fill:url(#SVGID_00000138574395940025504830000007667141887918766495_);}
	.st49{fill:url(#SVGID_00000044176426216779010670000017718304205496513670_);}
	.st50{fill:#172B43;}
	.st51{fill:url(#SVGID_00000150796090927501945960000016314031671305509251_);}
	.st52{fill:url(#SVGID_00000132778842972676702520000009949818254950366641_);}
	.st53{fill:url(#SVGID_00000139264827401723198070000012313594589540153527_);}
	.st54{fill:url(#SVGID_00000162324636835857827730000016241159948629103796_);}
	.st55{fill:url(#SVGID_00000164476909323175439170000017374002349188961435_);}
	.st56{fill:url(#SVGID_00000109743168916212373470000010837624976624791736_);}
	.st57{fill:url(#SVGID_00000124150661652164340010000009572135599566463163_);}
	.st58{fill:url(#SVGID_00000029765237115030825130000012284735953765867423_);}
	.st59{fill:url(#SVGID_00000168095194549230284570000018252477470322735002_);}
	.st60{fill:url(#SVGID_00000124852310246513336850000011270688002280244136_);}
	.st61{fill:url(#SVGID_00000074434102719104913490000003118205090631730838_);}
	.st62{fill:url(#SVGID_00000080197074893612897600000003855505066198386322_);}
	.st63{fill:url(#SVGID_00000181088500070774563160000011225970186978273444_);}
	.st64{fill:url(#SVGID_00000011735055176712462030000009524038124857958802_);}
	.st65{fill:url(#SVGID_00000065071033546587175310000011150535485808577698_);}
	.st66{fill:url(#SVGID_00000012450247572897596760000003037874653309903017_);}
	.st67{fill:url(#SVGID_00000018217966795630419580000004201348361384514198_);}
	.st68{fill:url(#SVGID_00000033358589567308069700000016176057793796975537_);}
	.st69{fill:url(#SVGID_00000111166503690838713600000012940096608680296628_);}
	.st70{fill:url(#SVGID_00000165940549530159054620000015908073456157421451_);}
	.st71{fill:url(#SVGID_00000030483433196423833170000012464659475261790630_);}
	.st72{fill:url(#SVGID_00000060026416724278742770000008401444077826988948_);}
	.st73{fill:url(#SVGID_00000121962064641139204810000013065150047242435721_);}
	.st74{fill:url(#SVGID_00000088819345405497591560000000837494893801232809_);}
	.st75{fill:url(#SVGID_00000009564302730215743150000003849101619972174240_);}
	.st76{fill:url(#SVGID_00000111162445858311608150000010128069009593207957_);}
	.st77{fill:url(#SVGID_00000127732149478773152220000008370513525817468091_);}
	.st78{fill:url(#SVGID_00000062189983879176231080000016340109752673746108_);}
	.st79{fill:url(#SVGID_00000160913030575036763320000017403254795720439980_);}
	.st80{fill:url(#SVGID_00000010312972920576233510000004446870371942157960_);}
	.st81{fill:url(#SVGID_00000131343218313579026560000013143272719926815382_);}
	.st82{fill:url(#SVGID_00000065073201289397394740000011048839948692952988_);}
	.st83{fill:url(#SVGID_00000162328004369697823850000005306889597820270515_);}
	.st84{fill:url(#SVGID_00000173125695402133685660000017487977807644686781_);}
	.st85{fill:url(#SVGID_00000148625245654427453390000009608602477683070369_);}
	.st86{fill:url(#SVGID_00000175304396098603949530000013631324467471560116_);}
	.st87{fill:url(#SVGID_00000035497810079898906640000013394543511899487644_);}
	.st88{fill:url(#SVGID_00000078034270291536487790000006879779675373957811_);}
	.st89{fill:url(#SVGID_00000163039533488698785220000002834723759676566923_);}
	.st90{fill:url(#SVGID_00000098194949668985085010000007717007188639331466_);}
	.st91{fill:url(#SVGID_00000032615631209308019150000002392557822659948443_);}
	.st92{fill:url(#SVGID_00000119097618980453409880000013281910085703003033_);}
	.st93{fill:url(#SVGID_00000046330538041487690970000011587513208534173848_);}
	.st94{fill:url(#SVGID_00000085938257500234374810000004421746711581012159_);}
	.st95{fill:url(#SVGID_00000158728414608115340390000000688957048998384266_);}
	.st96{fill:url(#SVGID_00000025439956626995341350000008449492086478196397_);}
	.st97{fill:url(#SVGID_00000119822795497489829680000013525043947140176532_);}
	.st98{fill:url(#SVGID_00000022540345858604607050000004126139021564950435_);}
	.st99{fill:url(#SVGID_00000085945453846515597130000018233702336146680221_);}
	.st100{fill:url(#SVGID_00000168822317782218816800000002239849362379356040_);}
	.st101{fill:url(#SVGID_00000134966604843646179180000003475270028424298907_);}
	.st102{fill:url(#SVGID_00000163072366233015005580000012125401474995951787_);}
	.st103{fill:url(#SVGID_00000169519626407325955240000015073111226241259923_);}
	.st104{fill:url(#SVGID_00000143602336481210437310000012617253770208089263_);}
	.st105{fill:url(#SVGID_00000021808453764885163770000004975225498307797377_);}
	.st106{fill:url(#SVGID_00000133501716337302677250000003168657309018234268_);}
	.st107{fill:url(#SVGID_00000017511754973801220800000008868697183526261120_);}
	.st108{fill:url(#SVGID_00000155126133990892799000000007232875851485197496_);}
	.st109{fill:url(#SVGID_00000021084497514634925450000005869538411086674098_);}
	.st110{fill:url(#SVGID_00000173882128637549802350000007737461953328015000_);}
	.st111{fill:url(#SVGID_00000151511606394652708900000010099199548590153099_);}
	.st112{fill:url(#SVGID_00000168803171665634885090000011111294731933476524_);}
	.st113{fill:url(#SVGID_00000005949282097190362020000009898159960069225890_);}
	.st114{fill:url(#SVGID_00000046317724588523380580000014432784052859690675_);}
	.st115{fill:url(#SVGID_00000128458434527711637370000014223627446555374465_);}
	.st116{fill:url(#SVGID_00000060727654515414381640000001247567756076772527_);}
	.st117{fill:url(#SVGID_00000074429032419826595580000010157777781031475090_);}
	.st118{fill:url(#SVGID_00000150820952637001360690000011668224177170943404_);}
	.st119{fill:url(#SVGID_00000045615552840904006190000013319732109041364372_);}
	.st120{fill:url(#SVGID_00000145763736045889692430000015885708873666771363_);}
	.st121{fill:url(#SVGID_00000149340002636466729790000000705626362542292371_);}
	.st122{fill:url(#SVGID_00000147921514603394996020000018174563551007138990_);}
	.st123{fill:url(#SVGID_00000127744601603958594980000000796238522087968652_);}
	.st124{fill:url(#SVGID_00000037677632342377128300000011900632894077604535_);}
	.st125{fill:url(#SVGID_00000104704640575107575400000012586287188831829428_);}
	.st126{fill:url(#SVGID_00000044165429380009424620000016371005536396891806_);}
	.st127{fill:url(#SVGID_00000168086059827836376050000007648940813745746870_);}
	.st128{fill:url(#SVGID_00000116923208013115863060000008436551302609503916_);}
	.st129{fill:url(#SVGID_00000127734015826646177810000012707134826074952373_);}
	.st130{fill:url(#SVGID_00000135688495291033596790000008277333035263055544_);}
	.st131{fill:url(#SVGID_00000026124533508402952150000000492336489453435048_);}
	.st132{fill:url(#SVGID_00000156553450899776478610000014672985962754109064_);}
	.st133{fill:url(#SVGID_00000082327235052170319250000012844810773416834954_);}
	.st134{fill:url(#SVGID_00000065778272779134450310000015421809154579146685_);}
	.st135{fill:url(#SVGID_00000052817721041785186050000017571765423033092757_);}
	.st136{fill:url(#SVGID_00000126324736022642221620000012833184790187801777_);}
	.st137{fill:url(#SVGID_00000023975951147399762110000001336398828000219816_);}
	.st138{fill:url(#SVGID_00000170960682381299935570000002055698930037514147_);}
	.st139{fill:url(#SVGID_00000166671179124490071320000014247715562070795687_);}
	.st140{fill:url(#SVGID_00000163033299201396838300000002040748845854139308_);}
	.st141{fill:url(#SVGID_00000027580778879576915650000007194951541384710073_);}
	.st142{fill:url(#SVGID_00000078752320300090289590000014561729150315197087_);}
	.st143{fill:url(#SVGID_00000019664842937330612560000010772424241922079908_);}
	.st144{fill:url(#SVGID_00000034778617514600001400000010769153964441596309_);}
	.st145{fill:url(#SVGID_00000034080642809704497050000003841201287148803229_);}
	.st146{fill:url(#SVGID_00000070831678779867938220000011933666424291103930_);}
	.st147{fill:url(#SVGID_00000093876843468283740030000002071904360361897914_);}
	.st148{fill:url(#SVGID_00000079470729283359272310000016305221490959144104_);}
	.st149{fill:url(#SVGID_00000116921487930164815500000006860037719802976436_);}
	.st150{fill:url(#SVGID_00000022525722988692451490000016359355328442987924_);}
	.st151{fill:url(#SVGID_00000160157760075856589230000000106661249930424459_);}
	.st152{fill:url(#SVGID_00000093144417244527709250000013938939821438083769_);}
	.st153{fill:url(#SVGID_00000047059969267631962740000010485755903891282336_);}
	.st154{fill:url(#SVGID_00000145041047996505451970000015153114970995589527_);}
	.st155{fill:url(#SVGID_00000032615061909641978970000011231294013169139618_);}
	.st156{fill:url(#SVGID_00000150785068914044352480000003542475234413399979_);}
	.st157{fill:url(#SVGID_00000113313267837596805910000007625342213623689601_);}
	.st158{fill:url(#SVGID_00000127741858227002367370000010536537215575901059_);}
	.st159{fill:url(#SVGID_00000075141508703242089780000008281163855556223907_);}
	.st160{fill:url(#SVGID_00000145037037499722343310000000801535209576000439_);}
	.st161{fill:url(#SVGID_00000078757360831404715990000017584095909130604723_);}
	.st162{fill:url(#SVGID_00000181770438943816599870000000990062037528881302_);}
	.st163{fill:url(#SVGID_00000127726980293234045090000010878230014694852793_);}
	.st164{fill:url(#SVGID_00000103952220221205007970000010554244195215711891_);}
	.st165{fill:url(#SVGID_00000019654928721645343700000002041422632100631971_);}
	.st166{fill:url(#SVGID_00000084502998097320805560000005914225646723765668_);}
	.st167{fill:url(#SVGID_00000174598978189899457750000003087301553307221183_);}
	.st168{fill:url(#SVGID_00000135650259946980985680000012477265969672586942_);}
	.st169{fill:url(#SVGID_00000142147730334121773130000009268384553400011943_);}
	.st170{fill:url(#SVGID_00000027566564620358389220000009146461450606922922_);}
</style>
<g id="Layer_1">
	<g>
		<linearGradient id="SVGID_1_" gradientUnits="userSpaceOnUse" x1="57.0004" y1="320.4817" x2="746.2274" y2="320.4817">
			<stop  offset="4.753638e-04" style="stop-color:#46978F"/>
			<stop  offset="1" style="stop-color:#7CDBC7"/>
		</linearGradient>
		<circle class="st9" cx="363.8" cy="320.5" r="165.9"/>
		<g>
			<g>
				<path class="st7" d="M379.2,431.8c-5.2,0-9.4,4.2-9.4,9.4c0,5.2,4.2,9.4,9.4,9.4c5.2,0,9.4-4.2,9.4-9.4
					C388.5,436,384.4,431.8,379.2,431.8z"/>
			</g>
			<g>
				<path class="st7" d="M327.4,248.3H324V239h0c0-6.6-5.4-11.9-12-11.9c-6.6,0-11.9,5.3-12,11.9h0v9.3h-3.3c-0.7,0-1.3,0.6-1.3,1.3
					v18.7c0,0.7,0.6,1.3,1.3,1.3h30.7c0.7,0,1.3-0.6,1.3-1.3v-18.7C328.7,248.9,328.1,248.3,327.4,248.3z M304.7,239
					C304.7,239,304.7,239,304.7,239c0-4,3.3-7.2,7.3-7.2c4,0,7.3,3.3,7.3,7.3c0,0,0,0,0,0v9.3h-14.7V239z M314.6,262.4h-5l1.6-4.7
					c-1-0.4-1.8-1.3-1.8-2.5c0-1.5,1.2-2.7,2.7-2.7c1.5,0,2.7,1.2,2.7,2.7c0,1.2-0.7,2.1-1.8,2.5L314.6,262.4z"/>
			</g>
		</g>
		<g class="st4">
			<g>
				<path class="st7" d="M439.4,398.5c0.2,3.8,3.3,6.8,7.1,6.8c4,0,7.2-3.2,7.2-7.2s-3.2-7.2-7.2-7.2c-3.3,0-6.1,2.2-6.9,5.3H348
					c-0.6-4.8-4.6-8.5-9.5-8.5c-5.3,0-9.6,4.3-9.6,9.6c0,5.3,4.3,9.6,9.6,9.6c4.9,0,8.9-3.7,9.5-8.5H439.4z"/>
				<path class="st7" d="M234.9,261.6c-4,0-7.2,3.2-7.2,7.2c0,4,3.2,7.2,7.2,7.2c4,0,7.2-3.2,7.2-7.2
					C242.1,264.8,238.8,261.6,234.9,261.6z"/>
			</g>
			<g>
				<path class="st7" d="M398.9,385.4h-1.9v-5.3h0c0-3.7-3-6.7-6.7-6.7c-3.7,0-6.7,3-6.7,6.7h0v5.3h-1.9c-0.4,0-0.7,0.3-0.7,0.8
					v10.5c0,0.4,0.3,0.8,0.7,0.8h17.3c0.4,0,0.7-0.3,0.7-0.8v-10.5C399.7,385.7,399.4,385.4,398.9,385.4z M386.2,380.1
					C386.2,380.1,386.2,380.1,386.2,380.1c0-2.2,1.9-4.1,4.1-4.1c2.3,0,4.1,1.8,4.1,4.1c0,0,0,0,0,0v5.3h-8.2V380.1z M391.7,393.3
					h-2.8l0.9-2.6c-0.6-0.2-1-0.8-1-1.4c0-0.8,0.7-1.5,1.5-1.5c0.8,0,1.5,0.7,1.5,1.5c0,0.6-0.4,1.2-1,1.4L391.7,393.3z"/>
				<path class="st7" d="M418.8,229.3h-2.6v-7.2h0c0-5-4.1-9.1-9.2-9.1c-5,0-9.1,4.1-9.2,9.1h0v7.2h-2.6c-0.6,0-1,0.5-1,1v14.3
					c0,0.6,0.5,1,1,1h23.5c0.6,0,1-0.5,1-1v-14.3C419.9,229.7,419.4,229.3,418.8,229.3z M401.5,222.1
					C401.5,222.1,401.5,222.1,401.5,222.1c0-3,2.5-5.5,5.6-5.5c3.1,0,5.6,2.5,5.6,5.6c0,0,0,0,0,0v7.2h-11.2V222.1z M409,240h-3.8
					l1.2-3.6c-0.8-0.3-1.3-1-1.3-1.9c0-1.1,0.9-2,2-2c1.1,0,2,0.9,2,2c0,0.9-0.6,1.6-1.3,1.9L409,240z"/>
			</g>
		</g>
		<g class="st5">
			<path class="st10" d="M465,245.4v-56.3c-28-21.6-63.1-34.5-101.2-34.5c-1.2,0-2.4,0-3.6,0v90.7H465z"/>
			<path class="st10" d="M360.2,247.6v85.6h-60.3v98.5c3.4,0.5,6,3.5,6,7.1c0,4-3.2,7.2-7.2,7.2c-4,0-7.2-3.2-7.2-7.2
				c0-3.6,2.6-6.5,6-7.1V331h60.3v-83.4h-2.7v-2.3h2.7v-90.7c-88.9,3.1-160,76.1-160,165.8c0,91.6,74.3,165.9,165.9,165.9
				s165.9-74.3,165.9-165.9c0-52.5-24.4-99.2-62.4-129.6v56.8H360.2z"/>
			<path class="st7" d="M465,245.4H360.2v-90.7c-0.8,0-1.5,0-2.3,0.1v90.7h-2.7v2.3h2.7V331h-60.3v100.8c-3.4,0.5-6,3.5-6,7.1
				c0,4,3.2,7.2,7.2,7.2c4,0,7.2-3.2,7.2-7.2c0-3.6-2.6-6.5-6-7.1v-98.5h60.3v-85.6h107.1v-56.8c-0.7-0.6-1.5-1.2-2.3-1.8V245.4z"/>
		</g>
		<g>
			<path class="st8" d="M410.8,413.6V323h77.6v-88.6h17.2c-0.6-1-1.2-2-1.8-3h-18.3V320h-74.6V161.9h-3V320h-59.3v-53.2h-92.1
				c-0.1-26.2-0.2-52.1-0.1-72.7c-1,0.8-2,1.7-3,2.6c-0.1,20.3,0,45.1,0.1,70.1h-46.7c-0.3,1-0.7,2-1,3h47.6
				c0.2,38.6,0.5,76.8,0.7,97.5h-49.6c0.3,1,0.6,2,0.9,3h51.6l0-1.5c-0.2-23.1-0.5-61.2-0.7-99h89.1V323h62.3v87.7H293.9v60.3
				c1,0.5,2,0.9,3,1.3v-58.7H410.8z"/>
			<path class="st8" d="M468.5,410.6c-0.7-6.2-6-11.1-12.4-11.1c-6.9,0-12.6,5.6-12.6,12.6c0,6.9,5.6,12.6,12.6,12.6
				c6.4,0,11.7-4.8,12.4-11.1h32.6c0.7-1,1.3-2,2-3H468.5z"/>
		</g>
		<g>
			<path class="st10" d="M481.6,426.4V323.1h-67.4c-0.5,3.4-3.5,6-7,6c-4,0-7.2-3.2-7.2-7.2c0-4,3.2-7.2,7.2-7.2c3.6,0,6.5,2.6,7,6
				h69.7v107.9h-49.8v42.1c56.5-26.5,95.6-83.8,95.6-150.3c0-91.6-74.3-165.9-165.9-165.9s-165.9,74.3-165.9,165.9
				c0,15.5,2.1,30.5,6.1,44.7v-14.9h29.7v-74.4h1.1h1.1v76.6h-29.7v20.1c21.9,66.1,84.1,113.7,157.5,113.7c4.7,0,9.3-0.2,13.9-0.6
				v-35.2h1.5h1.5v35c18.1-1.8,35.3-6.6,51.1-13.7v-45.4H481.6z"/>
			<path class="st10" d="M379.2,450.5h-1.5v35.2c1-0.1,2-0.2,3-0.3v-35H379.2z"/>
			<path class="st10" d="M236,352.6v-76.6h-1.1h-1.1v74.4H204v14.9c0.7,2.5,1.5,5,2.3,7.4v-20.1H236z"/>
			<path class="st10" d="M434.1,428.7h49.8V320.8h-69.7c-0.5-3.4-3.5-6-7-6c-4,0-7.2,3.2-7.2,7.2c0,4,3.2,7.2,7.2,7.2
				c3.6,0,6.5-2.6,7-6h67.4v103.3h-49.8v45.4c0.8-0.3,1.5-0.7,2.3-1V428.7z"/>
		</g>
		<g>
			
				<linearGradient id="SVGID_00000041271720299761119550000016510868464479863436_" gradientUnits="userSpaceOnUse" x1="394.6985" y1="386.6665" x2="852.1115" y2="386.6665">
				<stop  offset="4.753638e-04" style="stop-color:#46978F"/>
				<stop  offset="1" style="stop-color:#7CDBC7"/>
			</linearGradient>
			<path style="fill:url(#SVGID_00000041271720299761119550000016510868464479863436_);" d="M772.5,385.6c-0.6,9.6,7,17.5,16.4,17.5
				h81.7c8.8,0,16.4-6.6,17-15.4c0.6-9.6-7-17.5-16.4-17.5h-81.7C780.7,370.2,773.1,376.8,772.5,385.6z"/>
			
				<linearGradient id="SVGID_00000172437153935128889870000014226892101248744124_" gradientUnits="userSpaceOnUse" x1="394.6985" y1="320.4816" x2="852.1115" y2="320.4816">
				<stop  offset="4.753638e-04" style="stop-color:#46978F"/>
				<stop  offset="1" style="stop-color:#7CDBC7"/>
			</linearGradient>
			<path style="fill:url(#SVGID_00000172437153935128889870000014226892101248744124_);" d="M989.1,321.6c0.6-9.6-7-17.5-16.4-17.5
				H859.4c-8.8,0-16.4,6.6-17,15.4c-0.6,9.6,7,17.5,16.4,17.5h113.3C980.9,336.9,988.6,330.3,989.1,321.6z"/>
			
				<linearGradient id="SVGID_00000097479017288047271420000011569590593520256445_" gradientUnits="userSpaceOnUse" x1="394.6985" y1="386.6665" x2="852.1115" y2="386.6665">
				<stop  offset="4.753638e-04" style="stop-color:#46978F"/>
				<stop  offset="1" style="stop-color:#7CDBC7"/>
			</linearGradient>
			<path style="fill:url(#SVGID_00000097479017288047271420000011569590593520256445_);" d="M926.8,370.2c-8.8,0-16.4,6.6-17,15.4
				c-0.6,9.6,7,17.5,16.4,17.5h37.4c8.8,0,16.4-6.6,17-15.4c0.6-9.6-7-17.5-16.4-17.5H926.8z"/>
			
				<linearGradient id="SVGID_00000020392542255037014310000010599328388168874426_" gradientUnits="userSpaceOnUse" x1="394.6985" y1="254.297" x2="852.1115" y2="254.297">
				<stop  offset="4.753638e-04" style="stop-color:#46978F"/>
				<stop  offset="1" style="stop-color:#7CDBC7"/>
			</linearGradient>
			<path style="fill:url(#SVGID_00000020392542255037014310000010599328388168874426_);" d="M830.1,237.8h-37.4
				c-8.8,0-16.4,6.6-17,15.4c-0.6,9.6,7,17.5,16.4,17.5h37.4c8.8,0,16.4-6.6,17-15.4C847.1,245.8,839.5,237.8,830.1,237.8z"/>
			
				<linearGradient id="SVGID_00000163032813900204713420000006346785841204811162_" gradientUnits="userSpaceOnUse" x1="394.6985" y1="251.0487" x2="852.1115" y2="251.0487">
				<stop  offset="4.753638e-04" style="stop-color:#46978F"/>
				<stop  offset="1" style="stop-color:#7CDBC7"/>
			</linearGradient>
			<path style="fill:url(#SVGID_00000163032813900204713420000006346785841204811162_);" d="M556.6,255.4
				c0.5-7.6-4.2-14.2-10.9-16.6c3.2,7.9,6,16.1,8.2,24.5C555.4,261,556.4,258.3,556.6,255.4z"/>
			
				<linearGradient id="SVGID_00000013907330958077863780000013762232046379569853_" gradientUnits="userSpaceOnUse" x1="394.6985" y1="717.5909" x2="852.1115" y2="717.5909">
				<stop  offset="4.753638e-04" style="stop-color:#46978F"/>
				<stop  offset="1" style="stop-color:#7CDBC7"/>
			</linearGradient>
			<path style="fill:url(#SVGID_00000013907330958077863780000013762232046379569853_);" d="M760.5,701.1c-9.1,0-16.4,7.4-16.4,16.5
				c0,9.1,7.4,16.5,16.4,16.5c9.1,0,16.5-7.4,16.5-16.5C777,708.5,769.6,701.1,760.5,701.1z"/>
			
				<linearGradient id="SVGID_00000097472775936166453960000006674123554067494565_" gradientUnits="userSpaceOnUse" x1="394.6985" y1="485.9435" x2="852.1115" y2="485.9435">
				<stop  offset="4.753638e-04" style="stop-color:#46978F"/>
				<stop  offset="1" style="stop-color:#7CDBC7"/>
			</linearGradient>
			<path style="fill:url(#SVGID_00000097472775936166453960000006674123554067494565_);" d="M884.5,502.6H857
				c-8.8,0-16.4,6.6-17,15.4c-0.6,9.6,7,17.5,16.4,17.5h75.6c8.8,0,16.4-6.6,17-15.4c0.6-9.6-7-17.5-16.4-17.5h4.4
				c-9.1,0-16.5-7.4-16.5-16.5v-0.7c0-8.9,7.2-16.1,16.1-16.1c0.2,0,13.9,0,14.1,0c8.5-0.3,15.9-6.8,16.4-15.3
				c0.6-9.6-7-17.5-16.4-17.5h-118c-8.8,0-16.4,6.6-17,15.4c-0.6,9.6,7,17.5,16.4,17.5h52.2c9.1,0,16.4,7.4,16.4,16.5v0.4
				C901,495.2,893.6,502.6,884.5,502.6z"/>
			
				<linearGradient id="SVGID_00000128443042692458863220000004241485608627130290_" gradientUnits="userSpaceOnUse" x1="394.6985" y1="585.2211" x2="852.1115" y2="585.2211">
				<stop  offset="4.753638e-04" style="stop-color:#46978F"/>
				<stop  offset="1" style="stop-color:#7CDBC7"/>
			</linearGradient>
			<path style="fill:url(#SVGID_00000128443042692458863220000004241485608627130290_);" d="M883.9,568.8c-9.1,0-16.5,7.4-16.5,16.4
				c0,9.1,7.4,16.5,16.5,16.5H907c9.1,0,16.4-7.4,16.4-16.5c0-9.1-7.4-16.4-16.4-16.4H883.9z"/>
			
				<linearGradient id="SVGID_00000111873223424619942880000010965054584770246835_" gradientUnits="userSpaceOnUse" x1="394.6985" y1="188.1099" x2="852.1115" y2="188.1099">
				<stop  offset="4.753638e-04" style="stop-color:#46978F"/>
				<stop  offset="1" style="stop-color:#7CDBC7"/>
			</linearGradient>
			<path style="fill:url(#SVGID_00000111873223424619942880000010965054584770246835_);" d="M660.2,171.7c-9.1,0-16.5,7.4-16.5,16.5
				c0,9.1,7.4,16.4,16.5,16.4h12.4c9.1,0,16.5-7.4,16.5-16.4c0-9.1-7.4-16.5-16.5-16.5H660.2z"/>
			
				<linearGradient id="SVGID_00000085965383527343444380000000075454208109004678_" gradientUnits="userSpaceOnUse" x1="394.6985" y1="419.584" x2="852.1115" y2="419.584">
				<stop  offset="4.753638e-04" style="stop-color:#46978F"/>
				<stop  offset="1" style="stop-color:#7CDBC7"/>
			</linearGradient>
			<path style="fill:url(#SVGID_00000085965383527343444380000000075454208109004678_);" d="M690.3,425.3c3.1-3.1,3.1-8.2,0-11.4
				c-3.1-3.1-8.2-3.1-11.4,0c-3.1,3.1-3.1,8.2,0,11.4C682,428.4,687.1,428.4,690.3,425.3z"/>
			
				<linearGradient id="SVGID_00000044875873384682718570000003851999824962195592_" gradientUnits="userSpaceOnUse" x1="394.6985" y1="552.1285" x2="852.1115" y2="552.1285">
				<stop  offset="4.753638e-04" style="stop-color:#46978F"/>
				<stop  offset="1" style="stop-color:#7CDBC7"/>
			</linearGradient>
			<path style="fill:url(#SVGID_00000044875873384682718570000003851999824962195592_);" d="M679.1,558.2c3.3-3.3,3.3-8.8,0-12.1
				c-3.3-3.4-8.8-3.4-12.1,0c-3.4,3.3-3.4,8.8,0,12.1C670.3,561.5,675.7,561.5,679.1,558.2z"/>
			
				<linearGradient id="SVGID_00000025439214404061155080000016405977979179848068_" gradientUnits="userSpaceOnUse" x1="394.6985" y1="486.1353" x2="852.1115" y2="486.1353">
				<stop  offset="4.753638e-04" style="stop-color:#46978F"/>
				<stop  offset="1" style="stop-color:#7CDBC7"/>
			</linearGradient>
			<path style="fill:url(#SVGID_00000025439214404061155080000016405977979179848068_);" d="M639.5,495.5c5.2-5.2,5.2-13.6,0-18.7
				c-5.2-5.2-13.6-5.2-18.7,0c-5.2,5.2-5.2,13.6,0,18.7C625.9,500.7,634.3,500.7,639.5,495.5z"/>
			
				<linearGradient id="SVGID_00000160172170166598608910000000521541088928846490_" gradientUnits="userSpaceOnUse" x1="394.6985" y1="585.2208" x2="852.1115" y2="585.2208">
				<stop  offset="4.753638e-04" style="stop-color:#46978F"/>
				<stop  offset="1" style="stop-color:#7CDBC7"/>
			</linearGradient>
			<path style="fill:url(#SVGID_00000160172170166598608910000000521541088928846490_);" d="M537.2,585.2c0-9.1-7.4-16.4-16.5-16.4
				h-45.9c0,0,0,0,0,0h-57.2c-8.6,0-16.4,6.2-17.3,14.8c-1,9.8,6.7,18.1,16.4,18.1h104C529.9,601.7,537.2,594.3,537.2,585.2z"/>
			
				<linearGradient id="SVGID_00000078023871794218584630000004561281920074110621_" gradientUnits="userSpaceOnUse" x1="394.6985" y1="849.9626" x2="852.1115" y2="849.9626">
				<stop  offset="4.753638e-04" style="stop-color:#46978F"/>
				<stop  offset="1" style="stop-color:#7CDBC7"/>
			</linearGradient>
			<path style="fill:url(#SVGID_00000078023871794218584630000004561281920074110621_);" d="M667.3,866.4c9.1,0,16.5-7.4,16.5-16.5
				c0-9.1-7.4-16.5-16.5-16.5h-1.7c-9.1,0-16.5,7.4-16.5,16.5c0,9.1,7.4,16.5,16.5,16.5H667.3z"/>
			
				<linearGradient id="SVGID_00000160890830965682072800000003207821814613936057_" gradientUnits="userSpaceOnUse" x1="394.6985" y1="287.3895" x2="852.1115" y2="287.3895">
				<stop  offset="4.753638e-04" style="stop-color:#46978F"/>
				<stop  offset="1" style="stop-color:#7CDBC7"/>
			</linearGradient>
			<path style="fill:url(#SVGID_00000160890830965682072800000003207821814613936057_);" d="M559,336.9h26.7H804
				c8.6,0,16.4-6.2,17.3-14.8c1-9.8-6.7-18.1-16.4-18.1h-76.3c-9.1,0-16.5-7.4-16.5-16.5v-0.4c0-9.1,7.4-16.5,16.4-16.5h9.1
				c8.6,0,16.4-6.2,17.3-14.8c1-9.8-6.7-18.1-16.4-18.1H595c-8.6,0-16.4,6.2-17.3,14.8c-1,9.8,6.7,18.1,16.4,18.1h82.1
				c9.1,0,16.5,7.4,16.5,16.5v0.4c0,9.1-7.4,16.5-16.5,16.5h-116C560.7,315.2,560.3,326.2,559,336.9z"/>
			
				<linearGradient id="SVGID_00000021802257446814439960000001579305081732775089_" gradientUnits="userSpaceOnUse" x1="394.6985" y1="651.406" x2="852.1115" y2="651.406">
				<stop  offset="4.753638e-04" style="stop-color:#46978F"/>
				<stop  offset="1" style="stop-color:#7CDBC7"/>
			</linearGradient>
			<path style="fill:url(#SVGID_00000021802257446814439960000001579305081732775089_);" d="M821.4,651.4c0,9.1,7.4,16.5,16.5,16.5
				h41.5c9.1,0,16.5-7.4,16.5-16.5c0-9.1-7.4-16.4-16.5-16.4h-41.5C828.8,635,821.4,642.3,821.4,651.4z"/>
			
				<linearGradient id="SVGID_00000165223977491867620870000009984046240220697002_" gradientUnits="userSpaceOnUse" x1="394.6985" y1="717.5909" x2="852.1115" y2="717.5909">
				<stop  offset="4.753638e-04" style="stop-color:#46978F"/>
				<stop  offset="1" style="stop-color:#7CDBC7"/>
			</linearGradient>
			<path style="fill:url(#SVGID_00000165223977491867620870000009984046240220697002_);" d="M792.6,717.6c0,9.1,7.4,16.5,16.5,16.5
				H837c9.1,0,16.5-7.4,16.5-16.5c0-9.1-7.4-16.4-16.5-16.4h-27.9C800,701.1,792.6,708.5,792.6,717.6z"/>
			
				<linearGradient id="SVGID_00000065766119076276478930000006174250302576482434_" gradientUnits="userSpaceOnUse" x1="394.6985" y1="783.7755" x2="852.1115" y2="783.7755">
				<stop  offset="4.753638e-04" style="stop-color:#46978F"/>
				<stop  offset="1" style="stop-color:#7CDBC7"/>
			</linearGradient>
			<path style="fill:url(#SVGID_00000065766119076276478930000006174250302576482434_);" d="M778.9,767.3H766
				c-9.1,0-16.5,7.4-16.5,16.5c0,9.1,7.4,16.5,16.5,16.5h12.9c9.1,0,16.5-7.4,16.5-16.5C795.4,774.7,788,767.3,778.9,767.3z"/>
			
				<linearGradient id="SVGID_00000029027208719309529220000000956671993156880269_" gradientUnits="userSpaceOnUse" x1="394.6985" y1="585.1001" x2="852.1115" y2="585.1001">
				<stop  offset="4.753638e-04" style="stop-color:#46978F"/>
				<stop  offset="1" style="stop-color:#7CDBC7"/>
			</linearGradient>
			<path style="fill:url(#SVGID_00000029027208719309529220000000956671993156880269_);" d="M553.7,403.1h29.7c0,0,0,0,0,0h63.9
				c7,0,13.8-2.1,19.6-6c2.5-1.7,5.4-3.4,8.3-4.3c3.5-1.2,7.1-1.7,10.7-1.6c6.8,0.3,13.6,3,18.8,8.3c10.1,10.1,11,25.8,2.8,36.9
				c-0.8,1.1-1.7,2.3-2.8,3.3c-7.6,7.6-18.5,10.2-28.1,7.2c-4-1.3-7.5-3.1-10.1-4.9c-5.9-4-13-6-20.1-6h-65.2c0,0.1,0,0.2,0,0.4
				h-40.3c-0.6-0.7-1.1-1.5-1.8-2.2c-4.1-4.1-9.3-6.6-15-7.2c-8,11.3-17.2,21.7-27.4,31.2c1.1,4.3,3.3,8.4,6.6,11.8
				c4.8,4.8,11.1,7.4,17.9,7.4c6.7,0,13.1-2.6,17.9-7.4c0.2-0.2,0.3-0.4,0.5-0.7h43.1c7.8,0,15.2-3.1,20.7-8.6l0.6-0.6h0
				c14.4-14.4,37.7-14.4,52.1,0c2.8,2.8,5,5.9,6.7,9.2c7.1,13.9,4.9,31.3-6.7,42.9c-14.4,14.4-37.7,14.4-52.1,0h0
				c-0.2-0.2-0.4-0.5-0.7-0.7c-5.6-5.9-13.4-9.3-21.5-9.3h-6.5c0,0.1,0,0.3,0,0.4H454c-1.1-1.6-2.3-3.1-3.7-4.5c-2-2-4.3-3.7-6.7-5
				c-13.4,6-27.6,10.5-42.6,13.4c-5.5,11.4-3.6,25.6,5.9,35.1c5.8,5.8,13.5,9,21.7,9c8.2,0,15.9-3.2,21.7-9c1.8-1.8,3.3-3.8,4.5-6
				h20h97.8c0,0.1,0,0.1,0,0.2h68.1c6.8,0,13.5-1.8,19.4-5.3c3.4-2,8.3-3.8,14.7-3.3c7.5,0.5,14.8,4.5,19.4,11.8
				c5.2,8.1,5.1,18.9-0.2,26.9c-4.9,7.5-12.7,11.4-20.5,11.6c-6.6,0.1-11.2-1.4-14.2-3.2c-5.6-3.4-11.8-5.5-18.3-5.5l-64.2,0
				c0,0.1,0,0.1,0.1,0.2h-3.4c-8.6,0-16.4,6.2-17.3,14.8c-1,9.8,6.7,18.1,16.4,18.1h20.9h10.9c8.6,0,16.4,6.2,17.3,14.8
				c0.9,8.7-5,16.1-12.9,17.8h-84.9c-1.1-1.6-2.3-3.1-3.7-4.5c-5.8-5.8-13.5-9-21.7-9c-8.2,0-15.9,3.2-21.7,9c-12,12-12,31.4,0,43.4
				c5.8,5.8,13.5,9,21.7,9c8.2,0,15.9-3.2,21.7-9c1.6-1.6,2.9-3.4,4.1-5.3c0.3,0,0.6,0,0.9,0H568c9.1,0,16.5,7.4,16.5,16.5v0.4
				c0,9.1-7.4,16.5-16.4,16.5h-77.9c-8.6,0-16.5,6.2-17.3,14.8c-1,9.8,6.7,18.1,16.4,18.1H605h33.8c8.6,0,16.4,6.2,17.3,14.8
				c1,9.8-6.7,18.1-16.4,18.1h-85.5v0.4l-4.7,0c-8.6,0-16.5,6.2-17.3,14.8c-1,9.8,6.7,18.1,16.4,18.1H713c9.1,0,16.4-7.4,16.4-16.5
				c0-0.2,0-0.3,0-0.5c0-0.1,0-0.1,0-0.2V680.7c0-9.9,8-18,18-18h37.2c12.3,0,22.3-10,22.3-22.3v-50.3c0-4.9,4-8.9,8.9-8.9h20.4
				c2.6,0,5.2-0.9,7.1-2.6c3.3-3.1,4-7.8,2.1-11.7l-16.9-33.8c-9.4-18.7-16.4-38.4-22.6-58.4c-19.9-64.1-81.6-108.4-150.9-104.4
				h-69.4h-32c-0.6,0-1.2,0-1.7,0.1c-2.8,9.4-6.4,18.5-10.6,27.3C544.4,401,548.8,403.1,553.7,403.1z M529.2,460.9
				c-4.4,4.4-11.6,4.4-16,0c-4.4-4.4-4.4-11.6,0-16c4.4-4.4,11.6-4.4,16,0C533.6,449.3,533.6,456.4,529.2,460.9z M439,530.2
				c-5.7,5.7-15,5.7-20.8,0c-5.7-5.7-5.7-15,0-20.8c5.7-5.7,15-5.7,20.8,0C444.8,515.1,444.8,524.4,439,530.2z M509,661.8
				c-5.7,5.7-15,5.7-20.8,0c-5.7-5.7-5.7-15,0-20.8c5.7-5.7,15-5.7,20.8,0C514.8,646.8,514.8,656.1,509,661.8z"/>
		</g>
		<g>
			<g>
				<path class="st50" d="M663.9,77l-191.3,72.7c-40.7-27.1-89.4-38-138.1-30.7c-51.9,7.8-97.7,35.4-128.9,77.6
					c-31.2,42.2-44.1,94.1-36.2,146c5.6,37,21.1,70.8,44.9,98.5L49,617.5c-8.8,9.3-8.3,24,1.1,32.7c4.5,4.2,10.2,6.3,15.8,6.3
					c6.2,0,12.3-2.5,16.9-7.3l165.6-176.6c8.8,6.4,17.9,11.9,27.4,16.7c6.8,26.6,14.9,54.4,24.3,82.6
					c33.5,100.2,77.7,183.7,131.2,249.2c33.8,8.1,65.2,17.4,94.3,27.9c-101.2-87.6-159.9-222.4-193.8-341.5
					c10.4,1.7,21,2.6,31.7,2.6c9.8,0,19.8-0.7,29.7-2.2c2.7-0.4,5.4-0.9,8-1.4c14.9-2.9,29.2-7.4,42.6-13.4
					c19.7-8.8,37.6-20.6,53.1-34.9c10.2-9.4,19.4-19.9,27.4-31.2c6.6-9.3,12.4-19.1,17.3-29.4c4.2-8.8,7.7-17.9,10.6-27.3
					c3.3-10.8,5.7-22,7-33.4c1.3-10.8,1.7-21.8,1.2-32.9c-0.3-6.6-1-13.2-2-19.9c-1.1-7.1-2.5-14.1-4.3-20.9
					c-2.2-8.4-4.9-16.6-8.2-24.5c-7.8-19.1-18.6-36.8-32-52.6l150.2-57.1L1039.7,272c-8.4,80.8-54.2,415.7-243.8,579.6
					c29.3-10.9,61.1-20.7,95.3-29.1c53.5-65.7,92.1-151.9,132.7-250.5c50.9-123.6,64.2-296,66.1-314.7l1.2-18L663.9,77z M514,311.8
					c0.1,5.5-0.2,10.9-0.7,16.3c-1.4,14.7-5,28.9-10.5,42.2c-4.8,11.7-11.1,22.7-18.6,32.8c-12.9,17.4-29.6,32-49,42.5
					c-14.9,8.1-31.4,13.7-49,16.4c-7.3,1.1-14.7,1.7-21.9,1.7c-15.6,0.1-31.1-2.3-45.8-7c-15.6-4.9-30.4-12.5-43.9-22.4
					c-4.9-3.6-9.6-7.6-14-11.7c-24.4-23-40.3-53.2-45.3-86.8c-6-39.7,3.9-79.3,27.7-111.6c23.8-32.3,58.8-53.3,98.5-59.3
					c7.6-1.1,15.2-1.7,22.7-1.7c17.2,0,34.2,3,50.2,8.7c13.7,4.9,26.7,11.8,38.7,20.7c4.9,3.6,9.5,7.4,13.8,11.5
					c10.8,10.1,19.9,21.7,27.2,34.4c5.8,10.1,10.5,21,13.8,32.3c1.9,6.6,3.5,13.4,4.5,20.3C513.4,298,513.9,305,514,311.8z"/>
				<path class="st50" d="M726.6,974.1c44.3-29.6,115.1-61.9,226.8-84.4v-43.5c-41.3,8-77.6,17.4-109.6,27.6
					c-90.5,28.9-145.9,64.4-179.6,94.8c-34.4-31.1-91.6-67.6-185.8-96.8c-30.5-9.4-64.7-18.1-103.4-25.6l-0.4,2.3v41.1
					c112,22.5,183,54.9,227.4,84.5c-37.8-12.2-88.8-21.4-156.6-21.4c-36.1,0-76.8,2.6-122.9,8.8v42.5l0.1,0.5
					c46.7-6.5,87.5-9.2,122.9-9.2c85,0,139.7,15.4,173.1,30.8c4.6,2.1,8.8,4.2,12.6,6.3l19.3,14.2l13.2,9.7c0.2,0.2,0.3,0.4,0.3,0.4
					l0.1-0.1l0.5,0.3c0.1-0.1,0.7-0.8,1.8-2l12.1-8.7l18.8-13.6c3.9-2.1,8.2-4.3,13-6.5c33.4-15.4,88.1-30.8,173.1-30.8
					c35.3,0,75.9,2.7,122.4,9.1v-43c-45.9-6.1-86.5-8.7-122.4-8.7C815.3,952.7,764.4,961.9,726.6,974.1z"/>
			</g>
		</g>
	</g>
</g>
<g id="Layer_2">
</g>
</svg>
