<?xml version="1.0" encoding="utf-8"?>
<!-- Generator: Adobe Illustrator 28.1.0, SVG Export Plug-In . SVG Version: 6.00 Build 0)  -->
<svg version="1.1" xmlns="http://www.w3.org/2000/svg" xmlns:xlink="http://www.w3.org/1999/xlink" x="0px" y="0px"
	 viewBox="0 0 2670.3 856" style="enable-background:new 0 0 2670.3 856;" xml:space="preserve">
<style type="text/css">
	.st0{display:none;}
	.st1{display:inline;}
	.st2{fill:none;stroke:#010101;stroke-width:0.9157;stroke-miterlimit:10;}
	.st3{fill:#231F20;}
	.st4{opacity:0.6;}
	.st5{opacity:0.3;}
	.st6{opacity:0.3;fill:#231F20;}
	.st7{fill:#FFFFFF;}
	.st8{opacity:0.3;fill:#FFFFFF;}
	.st9{fill:url(#SVGID_1_);}
	.st10{fill:none;}
	.st11{fill:url(#SVGID_00000119835052084412781620000013580982910849205930_);}
	.st12{fill:url(#SVGID_00000155837147358590361630000003964052762964173185_);}
	.st13{fill:url(#SVGID_00000038404472333832209810000008803041574509234576_);}
	.st14{fill:url(#SVGID_00000066501230619152838350000004097317015658207646_);}
	.st15{fill:url(#SVGID_00000178914420220121117800000006556494617690347146_);}
	.st16{fill:url(#SVGID_00000049199887707845436760000004432674200580834738_);}
	.st17{fill:url(#SVGID_00000036934538122098994370000006273154249400992407_);}
	.st18{fill:url(#SVGID_00000106855479325840682990000018066456965145565066_);}
	.st19{fill:url(#SVGID_00000130648672982835661530000000072671587431354756_);}
	.st20{fill:url(#SVGID_00000110468905000136174100000005586043909463529610_);}
	.st21{fill:url(#SVGID_00000150785846340018857830000005901420774187341727_);}
	.st22{fill:url(#SVGID_00000097500016237699921620000014598296146276109213_);}
	.st23{fill:url(#SVGID_00000171695599032779392110000017124487058196353673_);}
	.st24{fill:url(#SVGID_00000046326265161152114000000011183185277576048574_);}
	.st25{fill:url(#SVGID_00000075875105315529911010000010575294840557702839_);}
	.st26{fill:url(#SVGID_00000147204611910202208760000005115490809171387532_);}
	.st27{fill:url(#SVGID_00000081638625166804384810000002276403561541477001_);}
	.st28{fill:url(#SVGID_00000065073547243721836500000003803070290823397031_);}
	.st29{fill:url(#SVGID_00000069398047603354514660000014000987203262944648_);}
	.st30{fill:url(#SVGID_00000029026047731256048860000002237753597717672881_);}
	.st31{fill:url(#SVGID_00000029729822817815667610000014649363874498564543_);}
	.st32{fill:url(#SVGID_00000067916796246648551400000006802975068422656397_);}
	.st33{fill:url(#SVGID_00000038400201882524322620000010703496319490393530_);}
	.st34{fill:url(#SVGID_00000008129823522214428830000004096650832632550021_);}
	.st35{fill:url(#SVGID_00000082351234153833010090000016568284591746967980_);}
	.st36{fill:url(#SVGID_00000064313503809593787740000011675094307728530365_);}
	.st37{fill:url(#SVGID_00000053537064783757923240000012817348783507412626_);}
	.st38{fill:url(#SVGID_00000035514456325118269740000007465516901768717705_);}
	.st39{fill:url(#SVGID_00000165220210999568487730000007571941899947129736_);}
	.st40{fill:url(#SVGID_00000065784916239416000060000001403372101055651207_);}
	.st41{fill:url(#SVGID_00000126300038970476934550000001247909870100239493_);}
	.st42{fill:url(#SVGID_00000094592787554162041440000004358366951097468801_);}
	.st43{fill:url(#SVGID_00000037667018702057176050000000638547349018301617_);}
	.st44{fill:url(#SVGID_00000138534801170118659100000000526195568745511327_);}
	.st45{fill:url(#SVGID_00000007393696300856934610000003510375265949775280_);}
	.st46{fill:url(#SVGID_00000129912092648653149590000017859840276894871475_);}
	.st47{fill:url(#SVGID_00000178912308306368610890000002185819022656742018_);}
	.st48{fill:url(#SVGID_00000053506790579906762590000012047614473813235113_);}
	.st49{fill:url(#SVGID_00000003072317576986691600000000947931090295761567_);}
	.st50{fill:#062C44;}
	.st51{fill:url(#SVGID_00000054262367772953896400000015559503407343157941_);}
	.st52{fill:url(#SVGID_00000034806301279376642510000005415957818135045544_);}
	.st53{fill:url(#SVGID_00000079444537812867233240000002477567449076742534_);}
	.st54{fill:url(#SVGID_00000143617649844278586370000007806132343781465219_);}
	.st55{fill:url(#SVGID_00000045580191632205233940000001594340033080400800_);}
	.st56{fill:url(#SVGID_00000113342921600991817420000013824193482964629923_);}
	.st57{fill:url(#SVGID_00000171690994729204501600000005818500700975164301_);}
	.st58{fill:url(#SVGID_00000137849434415306488400000004661763360449218732_);}
	.st59{fill:url(#SVGID_00000114060504501249081700000011177455255895047317_);}
	.st60{fill:url(#SVGID_00000000917119839006990480000011761945796594597760_);}
	.st61{fill:url(#SVGID_00000133527515071624563660000002657508005902325432_);}
	.st62{fill:url(#SVGID_00000076569009077419567110000005001440149441956507_);}
	.st63{fill:url(#SVGID_00000183220948508503278990000016852243848048464537_);}
	.st64{fill:url(#SVGID_00000160174036159382287380000013637819700732284592_);}
	.st65{fill:url(#SVGID_00000142890459080988878200000011600383918023429554_);}
	.st66{fill:url(#SVGID_00000016071372260598412360000017561324731121684368_);}
	.st67{fill:url(#SVGID_00000152981078382493525850000017035643539466551437_);}
	.st68{fill:url(#SVGID_00000044171509974587512200000008530354127815408816_);}
	.st69{fill:url(#SVGID_00000013904183474720726380000004966596569759666345_);}
	.st70{fill:url(#SVGID_00000030451997629585459930000009508961164791045273_);}
	.st71{fill:url(#SVGID_00000039821049637188982620000017636728655774228400_);}
	.st72{fill:url(#SVGID_00000049219805869545841750000017441670941374040969_);}
	.st73{fill:url(#SVGID_00000052103702915451121830000002105869928172958354_);}
	.st74{fill:url(#SVGID_00000182492107096689345710000007581382465508580495_);}
	.st75{fill:url(#SVGID_00000036944341680186805240000016816666239890995620_);}
	.st76{fill:url(#SVGID_00000097489469493635461950000014638397153883912586_);}
	.st77{fill:url(#SVGID_00000144309378724365772250000005832844905312425350_);}
	.st78{fill:url(#SVGID_00000089534117057549016490000016098164588343924142_);}
	.st79{fill:url(#SVGID_00000098212747320059104670000013101206587968013729_);}
	.st80{fill:url(#SVGID_00000121973420002201197880000012611314499953674662_);}
	.st81{fill:url(#SVGID_00000045584935199286233380000013756160395607621054_);}
	.st82{fill:url(#SVGID_00000129895693117591929340000003162091105860443056_);}
	.st83{fill:url(#SVGID_00000130626707662926166290000014624585804750024087_);}
	.st84{fill:url(#SVGID_00000048492304345565533960000015345326965241485468_);}
	.st85{fill:url(#SVGID_00000124139635582170471210000007113214623277902782_);}
	.st86{fill:url(#SVGID_00000063609017459037442140000014420254204023919499_);}
	.st87{fill:url(#SVGID_00000093860689311751478640000014583251342899521943_);}
	.st88{fill:url(#SVGID_00000064319015738169400740000018183364330333584822_);}
	.st89{fill:url(#SVGID_00000013884555780622800290000010877285128455593131_);}
	.st90{fill:url(#SVGID_00000061434658190240364920000009153166385720824471_);}
	.st91{fill:url(#SVGID_00000136406116821371082190000004261407198468013998_);}
	.st92{fill:url(#SVGID_00000003784820844373037030000014738130159631652482_);}
	.st93{fill:url(#SVGID_00000009578049648002501770000015158455792177809543_);}
	.st94{fill:url(#SVGID_00000044176819204162780410000008449083308745095076_);}
	.st95{fill:url(#SVGID_00000108270130750276228060000012382576755035181743_);}
	.st96{fill:url(#SVGID_00000018223777620817714780000010850847605372854945_);}
	.st97{fill:url(#SVGID_00000013903039887534605810000002472728212273718435_);}
	.st98{fill:url(#SVGID_00000084500715242954247420000007989184943500320659_);}
	.st99{fill:url(#SVGID_00000049202476382677772790000015628425117773851320_);}
	.st100{fill:url(#SVGID_00000048466039019644869870000005936034776407156107_);}
	.st101{fill:url(#SVGID_00000006691349694460286520000005352820160244555164_);}
	.st102{fill:url(#SVGID_00000183951093005940239910000014986759455259653518_);}
	.st103{fill:url(#SVGID_00000135663976186369728520000013543113762433512627_);}
	.st104{fill:url(#SVGID_00000083807985053214568370000004411050230911933104_);}
	.st105{fill:url(#SVGID_00000004520628009576659220000005287890701912332716_);}
	.st106{fill:url(#SVGID_00000027583688295578215590000012979283393887393212_);}
	.st107{fill:url(#SVGID_00000102540162312663352040000013183743048543019941_);}
	.st108{fill:url(#SVGID_00000126312908302957686170000004211526855273765543_);}
	.st109{fill:url(#SVGID_00000000943623399926795080000000069546652709525924_);}
	.st110{fill:url(#SVGID_00000003788079597862864770000004397919480404793751_);}
	.st111{fill:url(#SVGID_00000000939360413562005500000015593343419327798149_);}
	.st112{fill:url(#SVGID_00000060718964717843530590000013595049514761811852_);}
	.st113{fill:url(#SVGID_00000075152579001278572660000016425942934753552524_);}
	.st114{fill:url(#SVGID_00000069395213238683769420000006938498994810024603_);}
	.st115{fill:url(#SVGID_00000001634031756233641970000007669599038818569111_);}
	.st116{fill:url(#SVGID_00000028290940792780953960000017645535496318990464_);}
	.st117{fill:url(#SVGID_00000023275370401600771140000001982883785134021291_);}
	.st118{fill:url(#SVGID_00000079473965022648028760000009999370918913438881_);}
	.st119{fill:url(#SVGID_00000051372267338671608890000016772950330074936246_);}
	.st120{fill:url(#SVGID_00000037675466528063107680000013651741130070611343_);}
	.st121{fill:url(#SVGID_00000016794529119526840700000008329514830944355203_);}
	.st122{fill:url(#SVGID_00000119105093595760392150000007096093822434683013_);}
	.st123{fill:url(#SVGID_00000158007889561246283640000013880236255438044833_);}
	.st124{fill:url(#SVGID_00000118385158431441725730000013998340492526737855_);}
	.st125{fill:url(#SVGID_00000085954463105329959260000007006177873926003378_);}
	.st126{fill:url(#SVGID_00000142137477041731521340000011126060783978903711_);}
	.st127{fill:url(#SVGID_00000019638229402584715140000010461434171760221359_);}
	.st128{fill:url(#SVGID_00000119080863246033330260000008209664168433581221_);}
	.st129{fill:url(#SVGID_00000062902896794767308320000002339120579939435659_);}
	.st130{fill:url(#SVGID_00000094579700731458157100000004804551651572476860_);}
	.st131{fill:url(#SVGID_00000176019943824094009780000004367587502540988034_);}
	.st132{fill:url(#SVGID_00000161620454123837903360000000485959097216098437_);}
	.st133{fill:url(#SVGID_00000103977627573167832840000018044260612125826467_);}
	.st134{fill:url(#SVGID_00000054950450524924488290000014412573338949154744_);}
	.st135{fill:url(#SVGID_00000168113018740580631990000012686119827010215578_);}
	.st136{fill:url(#SVGID_00000000211644314403245250000010555271501271310268_);}
	.st137{fill:url(#SVGID_00000167378018797161136460000011275270735497481867_);}
	.st138{fill:url(#SVGID_00000144300873201875167950000009027629018967513021_);}
	.st139{fill:url(#SVGID_00000046302526293515823700000003819152378692183196_);}
	.st140{fill:url(#SVGID_00000170265366769841191140000009075030713435167875_);}
	.st141{fill:url(#SVGID_00000047752527281733963560000011015012645859212952_);}
	.st142{fill:url(#SVGID_00000083074890390100672660000000326520545307652746_);}
	.st143{fill:url(#SVGID_00000177455197809375035800000000083818151016494241_);}
	.st144{fill:url(#SVGID_00000052800880894741277920000003561018394898373004_);}
	.st145{fill:url(#SVGID_00000156566468500528699920000003111341792923648652_);}
	.st146{fill:url(#SVGID_00000048458976575854066520000002606455843885774487_);}
	.st147{fill:url(#SVGID_00000014598648999084676540000008543852100526075043_);}
	.st148{fill:url(#SVGID_00000135662296921956452670000010349816821917215417_);}
	.st149{fill:url(#SVGID_00000180360744106692946480000006206866939365818031_);}
	.st150{fill:url(#SVGID_00000023276683936050257210000012232150373416440966_);}
	.st151{fill:url(#SVGID_00000171703645684611101470000015585734137858718380_);}
	.st152{fill:url(#SVGID_00000171713828080088974460000012117593768911663745_);}
	.st153{fill:url(#SVGID_00000080901125065327444210000000205307855625159081_);}
	.st154{fill:url(#SVGID_00000111888390231820801220000016797687318371685785_);}
	.st155{fill:url(#SVGID_00000150795680541808387200000015307338958260066977_);}
	.st156{fill:url(#SVGID_00000129198364228473579950000000111669069908950427_);}
	.st157{fill:url(#SVGID_00000103955687481921628120000002596356901210539192_);}
	.st158{fill:url(#SVGID_00000010274998250015607780000016131790846608197286_);}
	.st159{fill:url(#SVGID_00000070812894798340389090000005552312376633314212_);}
	.st160{fill:url(#SVGID_00000175283803422717251140000008852233292255402370_);}
	.st161{fill:url(#SVGID_00000047052834440929371900000003494697555066886788_);}
	.st162{fill:url(#SVGID_00000127039856565181968360000001803133889671738505_);}
	.st163{fill:url(#SVGID_00000025430560570409434630000003396451236260846227_);}
	.st164{fill:url(#SVGID_00000041288144265352630410000009797574570025741701_);}
	.st165{fill:url(#SVGID_00000066512850834762054600000003015064142007177642_);}
	.st166{fill:url(#SVGID_00000070108957772690374550000011650607202845018284_);}
	.st167{fill:url(#SVGID_00000117674925165343980860000007734796366727027111_);}
	.st168{fill:url(#SVGID_00000007386782388397766260000006033171732052463243_);}
	.st169{fill:url(#SVGID_00000114053649982020402850000003477910704299447209_);}
	.st170{fill:url(#SVGID_00000058550547970879192210000006618705751443449534_);}
</style>
<g id="Layer_1">
	<g>
		<linearGradient id="SVGID_1_" gradientUnits="userSpaceOnUse" x1="75.7321" y1="242.9642" x2="593.1761" y2="242.9642">
			<stop  offset="4.753638e-04" style="stop-color:#009B90"/>
			<stop  offset="1" style="stop-color:#50C1B7"/>
		</linearGradient>
		<circle class="st9" cx="306.1" cy="243" r="124.5"/>
		<g>
			<g>
				<path class="st7" d="M317.6,326.5c-3.9,0-7,3.1-7,7c0,3.9,3.1,7,7,7c3.9,0,7-3.1,7-7C324.6,329.7,321.5,326.5,317.6,326.5z"/>
			</g>
			<g>
				<path class="st7" d="M278.7,188.8h-2.5v-7h0c0-4.9-4.1-8.9-9-8.9c-5,0-9,4-9,8.9h0v7h-2.5c-0.5,0-1,0.5-1,1v14c0,0.5,0.5,1,1,1
					h23c0.6,0,1-0.5,1-1v-14C279.7,189.2,279.3,188.8,278.7,188.8z M261.7,181.8C261.7,181.8,261.7,181.8,261.7,181.8
					c0-3,2.5-5.4,5.5-5.4s5.5,2.4,5.5,5.5c0,0,0,0,0,0v7h-11V181.8z M269.1,199.3h-3.8l1.2-3.5c-0.8-0.3-1.3-1-1.3-1.9
					c0-1.1,0.9-2,2-2s2,0.9,2,2c0,0.9-0.6,1.6-1.3,1.9L269.1,199.3z"/>
			</g>
		</g>
		<g class="st4">
			<g>
				<path class="st7" d="M362.8,301.5c0.2,2.8,2.5,5.1,5.3,5.1c3,0,5.4-2.4,5.4-5.4s-2.4-5.4-5.4-5.4c-2.5,0-4.5,1.7-5.2,4h-68.8
					c-0.4-3.6-3.4-6.4-7.1-6.4c-4,0-7.2,3.2-7.2,7.2c0,4,3.2,7.2,7.2,7.2c3.7,0,6.7-2.8,7.1-6.4H362.8z"/>
				<path class="st7" d="M209.3,198.8c-3,0-5.4,2.4-5.4,5.4c0,3,2.4,5.4,5.4,5.4c3,0,5.4-2.4,5.4-5.4
					C214.7,201.2,212.3,198.8,209.3,198.8z"/>
			</g>
			<g>
				<path class="st7" d="M332.5,291.7H331v-3.9h0c0-2.8-2.3-5-5.1-5c-2.8,0-5,2.2-5.1,5h0v3.9h-1.4c-0.3,0-0.6,0.3-0.6,0.6v7.9
					c0,0.3,0.3,0.6,0.6,0.6h13c0.3,0,0.6-0.3,0.6-0.6v-7.9C333,291.9,332.8,291.7,332.5,291.7z M322.9,287.7
					C322.9,287.7,322.9,287.7,322.9,287.7c0-1.7,1.4-3.1,3.1-3.1c1.7,0,3.1,1.4,3.1,3.1c0,0,0,0,0,0v3.9h-6.2V287.7z M327,297.6
					h-2.1l0.7-2c-0.4-0.2-0.7-0.6-0.7-1.1c0-0.6,0.5-1.1,1.1-1.1c0.6,0,1.1,0.5,1.1,1.1c0,0.5-0.3,0.9-0.7,1.1L327,297.6z"/>
				<path class="st7" d="M347.4,174.5h-1.9v-5.4h0c0-3.8-3.1-6.8-6.9-6.8c-3.8,0-6.9,3.1-6.9,6.8h0v5.4h-1.9c-0.4,0-0.8,0.3-0.8,0.8
					V186c0,0.4,0.3,0.8,0.8,0.8h17.6c0.4,0,0.8-0.3,0.8-0.8v-10.7C348.2,174.8,347.8,174.5,347.4,174.5z M334.4,169.1
					C334.4,169.1,334.4,169.1,334.4,169.1c0-2.3,1.9-4.2,4.2-4.2c2.3,0,4.2,1.9,4.2,4.2c0,0,0,0,0,0v5.4h-8.4V169.1z M340,182.6
					h-2.9l0.9-2.7c-0.6-0.2-1-0.8-1-1.4c0-0.8,0.7-1.5,1.5-1.5c0.8,0,1.5,0.7,1.5,1.5c0,0.7-0.4,1.2-1,1.4L340,182.6z"/>
			</g>
		</g>
		<g class="st5">
			<path class="st10" d="M382,186.6v-42.3c-21-16.2-47.4-25.9-76-25.9c-0.9,0-1.8,0-2.7,0v68.1H382z"/>
			<path class="st10" d="M303.3,188.3v64.3H258v74c2.6,0.4,4.5,2.6,4.5,5.3c0,3-2.4,5.4-5.4,5.4c-3,0-5.4-2.4-5.4-5.4
				c0-2.7,2-4.9,4.5-5.3v-75.7h45.3v-62.6h-2v-1.7h2v-68.1c-66.7,2.3-120.1,57.1-120.1,124.4c0,68.8,55.8,124.5,124.5,124.5
				c68.8,0,124.5-55.8,124.5-124.5c0-39.4-18.3-74.5-46.8-97.3v42.6H303.3z"/>
			<path class="st7" d="M382,186.6h-78.7v-68.1c-0.6,0-1.1,0-1.7,0.1v68.1h-2v1.7h2v62.6h-45.3v75.7c-2.6,0.4-4.5,2.6-4.5,5.3
				c0,3,2.4,5.4,5.4,5.4c3,0,5.4-2.4,5.4-5.4c0-2.7-2-4.9-4.5-5.3v-74h45.3v-64.3h80.4v-42.6c-0.6-0.4-1.1-0.9-1.7-1.3V186.6z"/>
		</g>
		<g>
			<path class="st8" d="M341.3,312.8v-68h58.2v-66.5h12.9c-0.5-0.7-0.9-1.5-1.4-2.2h-13.7v66.5h-56V123.9h-2.2v118.7h-44.5v-39.9
				h-69.1c-0.1-19.7-0.1-39.1-0.1-54.5c-0.7,0.6-1.5,1.3-2.2,1.9c0,15.2,0,33.9,0.1,52.6h-35c-0.3,0.7-0.5,1.5-0.7,2.2h35.8
				c0.1,29,0.4,57.6,0.5,73.2h-37.2c0.2,0.7,0.4,1.5,0.7,2.2H226l0-1.1c-0.2-17.4-0.4-45.9-0.5-74.3h66.9v39.9h46.8v65.8h-85.5v45.3
				c0.7,0.3,1.5,0.7,2.2,1v-44.1H341.3z"/>
			<path class="st8" d="M384.7,310.6c-0.6-4.7-4.5-8.3-9.3-8.3c-5.2,0-9.4,4.2-9.4,9.4c0,5.2,4.2,9.4,9.4,9.4c4.8,0,8.8-3.6,9.3-8.3
				h24.5c0.5-0.7,1-1.5,1.5-2.2H384.7z"/>
		</g>
		<g>
			<path class="st10" d="M394.5,322.5v-77.6h-50.6c-0.4,2.6-2.6,4.5-5.3,4.5c-3,0-5.4-2.4-5.4-5.4c0-3,2.4-5.4,5.4-5.4
				c2.7,0,4.9,2,5.3,4.5h52.3v81h-37.4v31.6c42.4-19.9,71.8-62.9,71.8-112.8c0-68.8-55.8-124.5-124.5-124.5
				c-68.8,0-124.5,55.8-124.5,124.5c0,11.6,1.6,22.9,4.6,33.6v-11.2h22.3v-55.8h0.8h0.9V267h-22.3v15.1
				c16.4,49.6,63.1,85.4,118.2,85.4c3.5,0,7-0.2,10.5-0.4v-26.5h1.1h1.1v26.3c13.6-1.4,26.5-4.9,38.4-10.3v-34.1H394.5z"/>
			<path class="st10" d="M317.6,340.6h-1.1v26.5c0.7-0.1,1.5-0.1,2.2-0.2v-26.3H317.6z"/>
			<path class="st10" d="M210.1,267v-57.5h-0.9h-0.8v55.8h-22.3v11.2c0.5,1.9,1.1,3.7,1.7,5.6V267H210.1z"/>
			<path class="st10" d="M358.8,324.2h37.4v-81h-52.3c-0.4-2.6-2.6-4.5-5.3-4.5c-3,0-5.4,2.4-5.4,5.4c0,3,2.4,5.4,5.4,5.4
				c2.7,0,4.9-2,5.3-4.5h50.6v77.6h-37.4v34.1c0.6-0.3,1.1-0.5,1.7-0.8V324.2z"/>
		</g>
		<g>
			
				<linearGradient id="SVGID_00000000920195641909628300000007179630571804695992_" gradientUnits="userSpaceOnUse" x1="329.2624" y1="292.6531" x2="672.6697" y2="292.6531">
				<stop  offset="4.753638e-04" style="stop-color:#009B90"/>
				<stop  offset="1" style="stop-color:#50C1B7"/>
			</linearGradient>
			<path style="fill:url(#SVGID_00000000920195641909628300000007179630571804695992_);" d="M612.9,291.8
				c-0.5,7.2,5.2,13.2,12.3,13.2h61.3c6.6,0,12.3-5,12.7-11.5c0.5-7.2-5.2-13.2-12.3-13.2h-61.3
				C619.1,280.3,613.3,285.3,612.9,291.8z"/>
			
				<linearGradient id="SVGID_00000140724884840859123020000017044721871248850087_" gradientUnits="userSpaceOnUse" x1="329.2624" y1="242.9642" x2="672.6697" y2="242.9642">
				<stop  offset="4.753638e-04" style="stop-color:#009B90"/>
				<stop  offset="1" style="stop-color:#50C1B7"/>
			</linearGradient>
			<path style="fill:url(#SVGID_00000140724884840859123020000017044721871248850087_);" d="M775.5,243.8
				c0.5-7.2-5.2-13.2-12.3-13.2h-85c-6.6,0-12.3,5-12.7,11.5c-0.5,7.2,5.2,13.2,12.3,13.2h85C769.4,255.3,775.1,250.4,775.5,243.8z"
				/>
			
				<linearGradient id="SVGID_00000065074594503371714960000001275621876341694615_" gradientUnits="userSpaceOnUse" x1="329.2624" y1="292.6531" x2="672.6697" y2="292.6531">
				<stop  offset="4.753638e-04" style="stop-color:#009B90"/>
				<stop  offset="1" style="stop-color:#50C1B7"/>
			</linearGradient>
			<path style="fill:url(#SVGID_00000065074594503371714960000001275621876341694615_);" d="M728.7,280.3c-6.6,0-12.3,5-12.7,11.5
				c-0.5,7.2,5.2,13.2,12.3,13.2h28.1c6.6,0,12.3-5,12.7-11.5c0.5-7.2-5.2-13.2-12.3-13.2H728.7z"/>
			
				<linearGradient id="SVGID_00000057123263199195622350000005706871968383659953_" gradientUnits="userSpaceOnUse" x1="329.2624" y1="193.2754" x2="672.6697" y2="193.2754">
				<stop  offset="4.753638e-04" style="stop-color:#009B90"/>
				<stop  offset="1" style="stop-color:#50C1B7"/>
			</linearGradient>
			<path style="fill:url(#SVGID_00000057123263199195622350000005706871968383659953_);" d="M656.1,180.9H628
				c-6.6,0-12.3,5-12.7,11.5c-0.5,7.2,5.2,13.2,12.3,13.2h28.1c6.6,0,12.3-5,12.7-11.5C668.9,186.9,663.2,180.9,656.1,180.9z"/>
			
				<linearGradient id="SVGID_00000017490032892097200770000014507023256106623916_" gradientUnits="userSpaceOnUse" x1="329.2624" y1="190.8367" x2="672.6697" y2="190.8367">
				<stop  offset="4.753638e-04" style="stop-color:#009B90"/>
				<stop  offset="1" style="stop-color:#50C1B7"/>
			</linearGradient>
			<path style="fill:url(#SVGID_00000017490032892097200770000014507023256106623916_);" d="M450.8,194.1c0.4-5.7-3.2-10.7-8.2-12.5
				c2.4,6,4.5,12.1,6.1,18.4C449.9,198.3,450.7,196.3,450.8,194.1z"/>
			
				<linearGradient id="SVGID_00000047743522442354485940000017299458211243713941_" gradientUnits="userSpaceOnUse" x1="329.2624" y1="541.098" x2="672.6697" y2="541.098">
				<stop  offset="4.753638e-04" style="stop-color:#009B90"/>
				<stop  offset="1" style="stop-color:#50C1B7"/>
			</linearGradient>
			<path style="fill:url(#SVGID_00000047743522442354485940000017299458211243713941_);" d="M603.9,528.7c-6.8,0-12.3,5.5-12.3,12.4
				c0,6.8,5.5,12.4,12.3,12.4c6.8,0,12.4-5.5,12.4-12.4C616.3,534.3,610.7,528.7,603.9,528.7z"/>
			
				<linearGradient id="SVGID_00000044869228370450125000000009964014261984818068_" gradientUnits="userSpaceOnUse" x1="329.2624" y1="367.1863" x2="672.6697" y2="367.1863">
				<stop  offset="4.753638e-04" style="stop-color:#009B90"/>
				<stop  offset="1" style="stop-color:#50C1B7"/>
			</linearGradient>
			<path style="fill:url(#SVGID_00000044869228370450125000000009964014261984818068_);" d="M697,379.7h-20.6
				c-6.6,0-12.3,5-12.7,11.5c-0.5,7.2,5.2,13.2,12.3,13.2h56.8c6.6,0,12.3-5,12.7-11.5c0.5-7.2-5.2-13.2-12.3-13.2h3.3
				c-6.8,0-12.4-5.5-12.4-12.4v-0.5c0-6.7,5.4-12.1,12.1-12.1c0.1,0,10.4,0,10.6,0c6.4-0.2,11.9-5.1,12.3-11.5
				c0.5-7.2-5.2-13.2-12.3-13.2h-88.6c-6.6,0-12.3,5-12.7,11.5c-0.5,7.2,5.2,13.2,12.3,13.2H697c6.8,0,12.3,5.5,12.3,12.4v0.3
				C709.4,374.2,703.8,379.7,697,379.7z"/>
			
				<linearGradient id="SVGID_00000036947095439065722620000013152731823819179949_" gradientUnits="userSpaceOnUse" x1="329.2624" y1="441.72" x2="672.6697" y2="441.72">
				<stop  offset="4.753638e-04" style="stop-color:#009B90"/>
				<stop  offset="1" style="stop-color:#50C1B7"/>
			</linearGradient>
			<path style="fill:url(#SVGID_00000036947095439065722620000013152731823819179949_);" d="M696.5,429.4c-6.8,0-12.4,5.5-12.4,12.3
				c0,6.8,5.5,12.4,12.4,12.4h17.4c6.8,0,12.3-5.5,12.3-12.4c0-6.8-5.5-12.3-12.3-12.3H696.5z"/>
			
				<linearGradient id="SVGID_00000029754234490771243440000006764392927206252160_" gradientUnits="userSpaceOnUse" x1="329.2624" y1="143.5848" x2="672.6697" y2="143.5848">
				<stop  offset="4.753638e-04" style="stop-color:#009B90"/>
				<stop  offset="1" style="stop-color:#50C1B7"/>
			</linearGradient>
			<path style="fill:url(#SVGID_00000029754234490771243440000006764392927206252160_);" d="M528.6,131.2c-6.8,0-12.4,5.5-12.4,12.4
				c0,6.8,5.5,12.3,12.4,12.3h9.3c6.8,0,12.4-5.5,12.4-12.3c0-6.8-5.5-12.4-12.4-12.4H528.6z"/>
			
				<linearGradient id="SVGID_00000101092296893875248850000011347158594795885727_" gradientUnits="userSpaceOnUse" x1="329.2624" y1="317.3662" x2="672.6697" y2="317.3662">
				<stop  offset="4.753638e-04" style="stop-color:#009B90"/>
				<stop  offset="1" style="stop-color:#50C1B7"/>
			</linearGradient>
			<path style="fill:url(#SVGID_00000101092296893875248850000011347158594795885727_);" d="M551.2,321.6c2.4-2.4,2.4-6.2,0-8.6
				c-2.4-2.4-6.2-2.4-8.6,0c-2.4,2.4-2.4,6.2,0,8.6C545,324,548.8,324,551.2,321.6z"/>
			
				<linearGradient id="SVGID_00000001660617721086307540000012290902998649173390_" gradientUnits="userSpaceOnUse" x1="329.2624" y1="416.8754" x2="672.6697" y2="416.8754">
				<stop  offset="4.753638e-04" style="stop-color:#009B90"/>
				<stop  offset="1" style="stop-color:#50C1B7"/>
			</linearGradient>
			<path style="fill:url(#SVGID_00000001660617721086307540000012290902998649173390_);" d="M542.8,421.4c2.5-2.5,2.5-6.6,0-9.1
				c-2.5-2.5-6.6-2.5-9.1,0c-2.5,2.5-2.5,6.6,0,9.1C536.2,423.9,540.3,423.9,542.8,421.4z"/>
			
				<linearGradient id="SVGID_00000172426076943561660590000002244656176080686271_" gradientUnits="userSpaceOnUse" x1="329.2624" y1="367.3304" x2="672.6697" y2="367.3304">
				<stop  offset="4.753638e-04" style="stop-color:#009B90"/>
				<stop  offset="1" style="stop-color:#50C1B7"/>
			</linearGradient>
			<path style="fill:url(#SVGID_00000172426076943561660590000002244656176080686271_);" d="M513,374.4c3.9-3.9,3.9-10.2,0-14.1
				c-3.9-3.9-10.2-3.9-14.1,0c-3.9,3.9-3.9,10.2,0,14.1C502.9,378.3,509.2,378.3,513,374.4z"/>
			
				<linearGradient id="SVGID_00000176765369237648004230000014729514192306963100_" gradientUnits="userSpaceOnUse" x1="329.2624" y1="441.7198" x2="672.6697" y2="441.7198">
				<stop  offset="4.753638e-04" style="stop-color:#009B90"/>
				<stop  offset="1" style="stop-color:#50C1B7"/>
			</linearGradient>
			<path style="fill:url(#SVGID_00000176765369237648004230000014729514192306963100_);" d="M436.3,441.7c0-6.8-5.5-12.3-12.4-12.3
				h-34.4c0,0,0,0,0,0h-42.9c-6.5,0-12.3,4.6-13,11.1c-0.7,7.4,5,13.6,12.3,13.6h78.1C430.7,454.1,436.3,448.5,436.3,441.7z"/>
			
				<linearGradient id="SVGID_00000106111654819942578780000001749784528341442220_" gradientUnits="userSpaceOnUse" x1="329.2624" y1="640.4774" x2="672.6697" y2="640.4774">
				<stop  offset="4.753638e-04" style="stop-color:#009B90"/>
				<stop  offset="1" style="stop-color:#50C1B7"/>
			</linearGradient>
			<path style="fill:url(#SVGID_00000106111654819942578780000001749784528341442220_);" d="M533.9,652.8c6.8,0,12.4-5.5,12.4-12.4
				c0-6.8-5.5-12.4-12.4-12.4h-1.2c-6.8,0-12.4,5.5-12.4,12.4c0,6.8,5.5,12.4,12.4,12.4H533.9z"/>
			
				<linearGradient id="SVGID_00000101822085299738390680000000413508909708947900_" gradientUnits="userSpaceOnUse" x1="329.2624" y1="218.1199" x2="672.6697" y2="218.1199">
				<stop  offset="4.753638e-04" style="stop-color:#009B90"/>
				<stop  offset="1" style="stop-color:#50C1B7"/>
			</linearGradient>
			<path style="fill:url(#SVGID_00000101822085299738390680000000413508909708947900_);" d="M452.6,255.3h20h163.9
				c6.5,0,12.3-4.6,13-11.1c0.7-7.4-5-13.6-12.3-13.6H580c-6.8,0-12.4-5.5-12.4-12.4V218c0-6.8,5.5-12.4,12.3-12.4h6.9
				c6.5,0,12.3-4.6,13-11.1c0.7-7.4-5-13.6-12.3-13.6h-108c-6.5,0-12.3,4.6-13,11.1c-0.7,7.4,5,13.6,12.3,13.6h61.6
				c6.8,0,12.4,5.5,12.4,12.4v0.3c0,6.8-5.5,12.4-12.4,12.4h-87.1C453.9,239,453.6,247.2,452.6,255.3z"/>
			
				<linearGradient id="SVGID_00000042733127081466977850000017268521276551481769_" gradientUnits="userSpaceOnUse" x1="329.2624" y1="491.409" x2="672.6697" y2="491.409">
				<stop  offset="4.753638e-04" style="stop-color:#009B90"/>
				<stop  offset="1" style="stop-color:#50C1B7"/>
			</linearGradient>
			<path style="fill:url(#SVGID_00000042733127081466977850000017268521276551481769_);" d="M649.6,491.4c0,6.8,5.5,12.4,12.4,12.4
				h31.2c6.8,0,12.4-5.5,12.4-12.4c0-6.8-5.5-12.3-12.4-12.3H662C655.2,479.1,649.6,484.6,649.6,491.4z"/>
			
				<linearGradient id="SVGID_00000075161369509043287620000012716691588393013150_" gradientUnits="userSpaceOnUse" x1="329.2624" y1="541.098" x2="672.6697" y2="541.098">
				<stop  offset="4.753638e-04" style="stop-color:#009B90"/>
				<stop  offset="1" style="stop-color:#50C1B7"/>
			</linearGradient>
			<path style="fill:url(#SVGID_00000075161369509043287620000012716691588393013150_);" d="M628,541.1c0,6.8,5.5,12.4,12.4,12.4h21
				c6.8,0,12.4-5.5,12.4-12.4c0-6.8-5.5-12.3-12.4-12.3h-21C633.5,528.7,628,534.3,628,541.1z"/>
			
				<linearGradient id="SVGID_00000035496586559286739100000010880293399133094286_" gradientUnits="userSpaceOnUse" x1="329.2624" y1="590.7867" x2="672.6697" y2="590.7867">
				<stop  offset="4.753638e-04" style="stop-color:#009B90"/>
				<stop  offset="1" style="stop-color:#50C1B7"/>
			</linearGradient>
			<path style="fill:url(#SVGID_00000035496586559286739100000010880293399133094286_);" d="M617.7,578.4H608
				c-6.8,0-12.4,5.5-12.4,12.4c0,6.8,5.5,12.4,12.4,12.4h9.7c6.8,0,12.4-5.5,12.4-12.4C630.1,584,624.5,578.4,617.7,578.4z"/>
			
				<linearGradient id="SVGID_00000120530349949507788600000001899878397115116217_" gradientUnits="userSpaceOnUse" x1="329.2624" y1="441.6292" x2="672.6697" y2="441.6292">
				<stop  offset="4.753638e-04" style="stop-color:#009B90"/>
				<stop  offset="1" style="stop-color:#50C1B7"/>
			</linearGradient>
			<path style="fill:url(#SVGID_00000120530349949507788600000001899878397115116217_);" d="M448.6,305h22.3c0,0,0,0,0,0h48
				c5.2,0,10.4-1.6,14.7-4.5c1.9-1.3,4-2.5,6.2-3.2c2.6-0.9,5.3-1.3,8-1.2c5.1,0.2,10.2,2.3,14.1,6.2c7.6,7.6,8.2,19.4,2.1,27.7
				c-0.6,0.9-1.3,1.7-2.1,2.5c-5.7,5.7-13.9,7.7-21.1,5.4c-3-1-5.6-2.3-7.6-3.7c-4.5-3-9.7-4.5-15.1-4.5h-48.9c0,0.1,0,0.2,0,0.3
				H439c-0.4-0.5-0.8-1.1-1.3-1.6c-3.1-3.1-7-4.9-11.2-5.4c-6,8.5-12.9,16.3-20.6,23.4c0.8,3.2,2.4,6.3,5,8.9
				c3.6,3.6,8.3,5.6,13.4,5.6c5.1,0,9.8-2,13.4-5.6c0.2-0.2,0.3-0.3,0.4-0.5h32.4c5.8,0,11.4-2.3,15.5-6.4l0.5-0.5h0
				c10.8-10.8,28.3-10.8,39.1,0c2.1,2.1,3.8,4.4,5,6.9c5.3,10.4,3.7,23.5-5,32.2c-10.8,10.8-28.3,10.8-39.1,0h0
				c-0.2-0.2-0.3-0.3-0.5-0.5c-4.2-4.4-10-7-16.2-7h-4.9c0,0.1,0,0.2,0,0.3h-91c-0.8-1.2-1.7-2.3-2.8-3.4c-1.5-1.5-3.2-2.8-5-3.8
				c-10.1,4.5-20.8,7.9-32,10c-4.1,8.6-2.7,19.2,4.4,26.3c4.4,4.4,10.1,6.7,16.3,6.7c6.2,0,11.9-2.4,16.3-6.7
				c1.4-1.4,2.4-2.9,3.4-4.5h15h73.4c0,0,0,0.1,0,0.1H514c5.1,0,10.2-1.4,14.6-4c2.6-1.5,6.3-2.8,11.1-2.5
				c5.6,0.4,11.1,3.4,14.6,8.8c3.9,6.1,3.8,14.2-0.1,20.2c-3.7,5.6-9.5,8.6-15.4,8.7c-5,0.1-8.4-1-10.6-2.4
				c-4.2-2.5-8.8-4.1-13.7-4.1l-48.2,0c0,0,0,0.1,0.1,0.1h-2.5c-6.5,0-12.3,4.6-13,11.1c-0.7,7.4,5,13.6,12.3,13.6h15.7h8.2
				c6.5,0,12.3,4.6,13,11.1c0.7,6.5-3.7,12.1-9.7,13.4h-63.7c-0.8-1.2-1.7-2.3-2.8-3.4c-4.3-4.3-10.1-6.7-16.3-6.7
				s-11.9,2.4-16.3,6.7c-9,9-9,23.6,0,32.6c4.4,4.4,10.1,6.7,16.3,6.7s11.9-2.4,16.3-6.7c1.2-1.2,2.2-2.5,3.1-4c0.2,0,0.5,0,0.7,0
				h32c6.8,0,12.4,5.5,12.4,12.4v0.3c0,6.8-5.5,12.4-12.3,12.4h-58.5c-6.5,0-12.4,4.6-13,11.1c-0.7,7.4,5,13.6,12.3,13.6h87h25.3
				c6.5,0,12.3,4.6,13,11.1c0.7,7.4-5,13.6-12.3,13.6h-64.2v0.3l-3.5,0c-6.5,0-12.4,4.6-13,11.1c-0.7,7.4,5,13.6,12.3,13.6h123.4
				c6.8,0,12.3-5.5,12.3-12.4c0-0.1,0-0.3,0-0.4c0,0,0-0.1,0-0.1v-76.8c0-7.5,6-13.5,13.5-13.5H622c9.3,0,16.8-7.5,16.8-16.8v-37.7
				c0-3.7,3-6.7,6.7-6.7h15.3c2,0,3.9-0.6,5.3-2c2.5-2.3,3-5.9,1.6-8.8L655,402.6c-7-14.1-12.3-28.9-17-43.9
				c-14.9-48.1-61.3-81.4-113.3-78.4h-52.1h-24c-0.4,0-0.9,0-1.3,0.1c-2.1,7-4.8,13.9-7.9,20.5C441.6,303.4,444.9,305,448.6,305z
				 M430.3,348.3c-3.3,3.3-8.7,3.3-12,0c-3.3-3.3-3.3-8.7,0-12c3.3-3.3,8.7-3.3,12,0C433.6,339.7,433.6,345,430.3,348.3z
				 M362.6,400.4c-4.3,4.3-11.3,4.3-15.6,0c-4.3-4.3-4.3-11.3,0-15.6c4.3-4.3,11.3-4.3,15.6,0C366.9,389.1,366.9,396.1,362.6,400.4z
				 M415.1,499.2c-4.3,4.3-11.3,4.3-15.6,0c-4.3-4.3-4.3-11.3,0-15.6c4.3-4.3,11.3-4.3,15.6,0C419.4,487.9,419.4,494.9,415.1,499.2z
				"/>
		</g>
		<g>
			<g>
				<path class="st7" d="M531.4,60.2l-143.6,54.6c-30.6-20.4-67.1-28.5-103.7-23c-39,5.9-73.3,26.6-96.8,58.3
					c-23.4,31.7-33.1,70.6-27.2,109.6c4.2,27.7,15.9,53.1,33.7,73.9L69.7,465.9c-6.6,7-6.2,18,0.8,24.6c3.4,3.1,7.6,4.7,11.9,4.7
					c4.6,0,9.3-1.8,12.7-5.5l124.3-132.6c6.6,4.8,13.4,9,20.6,12.5c5.1,20,11.2,40.8,18.2,62c25.2,75.2,58.3,137.9,98.5,187.1
					c25.4,6.1,49,13.1,70.8,21c-76-65.8-120.1-167-145.5-256.4c7.8,1.3,15.8,1.9,23.8,1.9c7.4,0,14.8-0.6,22.3-1.7c2-0.3,4-0.7,6-1
					c11.2-2.2,21.9-5.6,32-10c14.8-6.6,28.2-15.5,39.8-26.2c7.7-7.1,14.6-14.9,20.6-23.4c4.9-7,9.3-14.4,13-22.1
					c3.1-6.6,5.8-13.4,7.9-20.5c2.5-8.1,4.2-16.5,5.3-25.1c1-8.1,1.3-16.3,0.9-24.7c-0.2-4.9-0.7-9.9-1.5-14.9
					c-0.8-5.3-1.9-10.6-3.2-15.7c-1.6-6.3-3.7-12.4-6.1-18.4c-5.9-14.4-13.9-27.7-24-39.5l112.8-42.9l282.1,107.2
					c-6.3,60.7-40.7,312.1-183,435.2c22-8.2,45.8-15.5,71.5-21.8c40.2-49.3,69.2-114,99.6-188c38.2-92.8,48.2-222.2,49.6-236.2
					l0.9-13.5L531.4,60.2z M418.8,236.4c0,4.1-0.1,8.2-0.5,12.2c-1.1,11-3.8,21.7-7.9,31.7c-3.6,8.8-8.3,17.1-13.9,24.6
					c-9.7,13-22.2,24-36.8,31.9c-11.2,6-23.5,10.3-36.8,12.3c-5.5,0.8-11,1.2-16.5,1.3c-11.7,0.1-23.3-1.7-34.4-5.2
					c-11.7-3.7-22.8-9.3-32.9-16.8c-3.7-2.7-7.2-5.7-10.5-8.8c-18.3-17.2-30.2-39.9-34-65.2c-4.5-29.8,2.9-59.5,20.8-83.8
					c17.9-24.2,44.2-40.1,73.9-44.5c5.7-0.9,11.4-1.3,17-1.3c12.9,0,25.6,2.2,37.7,6.6c10.3,3.7,20,8.9,29.1,15.5
					c3.6,2.7,7.1,5.6,10.4,8.6c8.1,7.6,15,16.3,20.4,25.8c4.4,7.6,7.8,15.7,10.4,24.3c1.5,5,2.6,10.1,3.4,15.3
					C418.4,226.1,418.8,231.3,418.8,236.4z"/>
				<path class="st7" d="M578.4,733.7c33.3-22.2,86.4-46.5,170.2-63.3v-32.7c-31,6-58.3,13-82.3,20.7
					c-67.9,21.7-109.6,48.3-134.8,71.2c-25.8-23.4-68.8-50.7-139.5-72.6c-22.9-7.1-48.6-13.6-77.6-19.2l-0.3,1.7v30.9
					c84.1,16.9,137.4,41.2,170.7,63.5c-28.4-9.1-66.7-16-117.6-16c-27.1,0-57.7,2-92.3,6.6v31.9l0,0.4c35.1-4.9,65.7-6.9,92.3-6.9
					c63.8,0,104.9,11.6,129.9,23.1c3.5,1.6,6.6,3.2,9.5,4.7l14.5,10.6l9.9,7.2c0.1,0.2,0.2,0.3,0.3,0.3l0.1-0.1l0.4,0.3
					c0-0.1,0.5-0.6,1.3-1.5l9.1-6.5l14.1-10.2c2.9-1.6,6.2-3.2,9.7-4.9c25.1-11.6,66.2-23.1,130-23.1c26.5,0,57,2,91.9,6.8v-32.3
					c-34.4-4.6-65-6.5-91.9-6.5C645.1,717.6,606.8,724.5,578.4,733.7z"/>
			</g>
		</g>
		<path class="st7" d="M1260.7,566.5h-70l-126.1-215.2v215.2h-65.4V239.6h70L1195.3,455V239.6h65.4V566.5z"/>
		<path class="st7" d="M1581.4,533.4c-15.2,12.9-32.1,22.8-50.8,29.8s-38.1,10.4-58.4,10.4c-15.5,0-30.4-2-44.8-6
			c-14.4-4-27.8-9.7-40.2-17.1c-12.5-7.4-23.9-16.2-34.2-26.4c-10.3-10.3-19.1-21.7-26.4-34.2c-7.3-12.5-13-26-17-40.5
			c-4-14.4-6-29.4-6-44.9s2-30.4,6-44.7c4-14.3,9.7-27.7,17-40.2c7.3-12.5,16.1-23.9,26.4-34.2c10.3-10.3,21.7-19,34.2-26.3
			c12.5-7.3,25.9-13,40.2-17c14.4-4,29.3-6,44.8-6c20.2,0,39.7,3.5,58.4,10.4c18.7,6.9,35.6,16.8,50.8,29.7l-34.2,57
			c-9.9-10-21.3-17.9-34.2-23.6c-12.9-5.7-26.5-8.5-40.8-8.5c-14.3,0-27.7,2.7-40.2,8.2c-12.5,5.5-23.5,12.9-32.9,22.2
			c-9.4,9.3-16.9,20.3-22.3,32.8c-5.5,12.5-8.2,26-8.2,40.2c0,14.4,2.7,28,8.2,40.6c5.5,12.6,12.9,23.6,22.3,33.1
			c9.4,9.4,20.4,16.9,32.9,22.3c12.5,5.5,25.9,8.2,40.2,8.2c8.2,0,16.2-1,23.9-3c7.8-2,15.1-4.7,22.1-8.2v-93h63.1V533.4z"/>
		<path class="st7" d="M1612.7,337.6c0-13.5,2.6-26.2,7.8-38.1c5.2-11.9,12.2-22.2,21.1-31.1c8.9-8.9,19.3-15.9,31.1-21.1
			c11.9-5.2,24.5-7.8,38.1-7.8h150V305h-150c-4.6,0-8.8,0.8-12.8,2.5c-4,1.7-7.4,4-10.4,7c-3,3-5.3,6.4-7,10.4
			c-1.7,4-2.5,8.2-2.5,12.8s0.8,8.9,2.5,12.9c1.7,4,4,7.5,7,10.5c3,3,6.4,5.3,10.4,7c4,1.7,8.2,2.5,12.8,2.5h65.4
			c13.5,0,26.3,2.5,38.2,7.6c11.9,5.1,22.3,12.1,31.2,21c8.9,8.9,15.9,19.3,21,31.2c5.1,11.9,7.6,24.7,7.6,38.2
			c0,13.5-2.5,26.2-7.6,38.1c-5.1,11.9-12.1,22.2-21,31.1c-8.9,8.9-19.3,15.9-31.2,21.1c-11.9,5.2-24.7,7.8-38.2,7.8h-145.2v-65.4
			h145.2c4.6,0,8.8-0.8,12.8-2.5c4-1.7,7.4-4,10.4-7c3-3,5.3-6.4,7-10.4c1.7-4,2.5-8.2,2.5-12.8s-0.8-8.8-2.5-12.8
			c-1.7-4-4-7.4-7-10.4c-3-3-6.4-5.3-10.4-7c-4-1.7-8.2-2.5-12.8-2.5h-65.4c-13.5,0-26.2-2.6-38.1-7.8
			c-11.9-5.2-22.2-12.2-31.1-21.1c-8.9-8.9-15.9-19.3-21.1-31.2C1615.3,363.9,1612.7,351.1,1612.7,337.6z"/>
		<path class="st7" d="M2237.3,404.4c0,15.5-2,30.4-6,44.8c-4,14.4-9.7,27.8-17,40.3s-16.1,24-26.4,34.3
			c-10.3,10.3-21.7,19.2-34.2,26.6c-12.5,7.4-25.9,13.1-40.4,17.1c-14.4,4-29.4,6-44.9,6s-30.4-2-44.8-6c-14.4-4-27.8-9.7-40.4-17.1
			c-12.5-7.4-24-16.2-34.3-26.6c-10.3-10.3-19.2-21.8-26.6-34.3c-7.4-12.5-13.1-26-17.1-40.3c-4-14.4-6-29.3-6-44.8s2-30.5,6-44.9
			c4-14.4,9.7-27.9,17.1-40.3c7.4-12.5,16.2-23.9,26.6-34.2c10.3-10.3,21.8-19.1,34.3-26.4c12.5-7.3,26-13,40.4-17
			c14.4-4,29.3-6,44.8-6s30.5,2,44.9,6c14.4,4,27.9,9.7,40.4,17c12.5,7.3,23.9,16.1,34.2,26.4c10.3,10.3,19.1,21.7,26.4,34.2
			c7.3,12.5,13,25.9,17,40.3C2235.3,373.9,2237.3,388.9,2237.3,404.4z M2172.3,404.4c0-14.3-2.7-27.8-8.2-40.5
			c-5.5-12.7-12.9-23.7-22.2-33.1s-20.4-16.8-33.1-22.2c-12.7-5.5-26.2-8.2-40.5-8.2c-14.4,0-28,2.7-40.6,8.2
			c-12.6,5.5-23.6,12.9-33.1,22.2c-9.4,9.3-16.9,20.4-22.3,33.1c-5.5,12.7-8.2,26.2-8.2,40.5c0,14.3,2.7,27.7,8.2,40.2
			c5.5,12.5,12.9,23.5,22.3,32.9c9.4,9.4,20.4,16.9,33.1,22.3c12.6,5.5,26.1,8.2,40.6,8.2c14.3,0,27.8-2.7,40.5-8.2
			c12.7-5.5,23.7-12.9,33.1-22.3c9.3-9.4,16.8-20.4,22.2-32.9C2169.6,432.1,2172.3,418.7,2172.3,404.4z"/>
		<path class="st7" d="M2407.1,566.5h-65.2V305h-98.3v-65.4h261.5V305h-98V566.5z"/>
		<path class="st7" d="M2605.2,566.5h-65.4V239.6h65.4V566.5z"/>
	</g>
</g>
<g id="Layer_2">
</g>
</svg>
