<?xml version="1.0" encoding="utf-8"?>
<!-- Generator: Adobe Illustrator 28.1.0, SVG Export Plug-In . SVG Version: 6.00 Build 0)  -->
<svg version="1.1" xmlns="http://www.w3.org/2000/svg" xmlns:xlink="http://www.w3.org/1999/xlink" x="0px" y="0px"
	 viewBox="0 0 2670.3 856" style="enable-background:new 0 0 2670.3 856;" xml:space="preserve">
<style type="text/css">
	.st0{display:none;}
	.st1{display:inline;}
	.st2{fill:none;stroke:#010101;stroke-width:0.9157;stroke-miterlimit:10;}
	.st3{fill:#231F20;}
	.st4{opacity:0.6;}
	.st5{opacity:0.3;}
	.st6{opacity:0.3;fill:#231F20;}
	.st7{fill:#FFFFFF;}
	.st8{opacity:0.3;fill:#FFFFFF;}
	.st9{fill:url(#SVGID_1_);}
	.st10{fill:none;}
	.st11{fill:url(#SVGID_00000108301415394339754010000016880054845369323656_);}
	.st12{fill:url(#SVGID_00000013904854886599578850000007061732664548661660_);}
	.st13{fill:url(#SVGID_00000119835962561030861590000014936221910114853560_);}
	.st14{fill:url(#SVGID_00000100343243026385658180000005370679138322998185_);}
	.st15{fill:url(#SVGID_00000036948336586971861920000000718514625519517848_);}
	.st16{fill:url(#SVGID_00000018200524541336490900000009159277794674031796_);}
	.st17{fill:url(#SVGID_00000180326702899747043780000005167434784040240043_);}
	.st18{fill:url(#SVGID_00000140719699931363510980000015570365454476077481_);}
	.st19{fill:url(#SVGID_00000171717523212199835930000013987316601035287969_);}
	.st20{fill:url(#SVGID_00000106860784854500299110000006468898003521617569_);}
	.st21{fill:url(#SVGID_00000109746385094351089050000002553271446677402754_);}
	.st22{fill:url(#SVGID_00000131337480035728353930000003211024805727670689_);}
	.st23{fill:url(#SVGID_00000121272390654376434190000005235319756566241672_);}
	.st24{fill:url(#SVGID_00000113352181710982548510000001372848587399303612_);}
	.st25{fill:url(#SVGID_00000122688070489563680610000004363718136514129039_);}
	.st26{fill:url(#SVGID_00000161622866379600053900000011756285516359993248_);}
	.st27{fill:url(#SVGID_00000062882809096244902690000017688016906731765410_);}
	.st28{fill:url(#SVGID_00000013169145948722542910000002831265717858231486_);}
	.st29{fill:url(#SVGID_00000129206717119441952490000004034519434410955958_);}
	.st30{fill:url(#SVGID_00000125604002569837109940000005139992831063239570_);}
	.st31{fill:url(#SVGID_00000052784207625223740700000007728506919058664378_);}
	.st32{fill:url(#SVGID_00000071524790102209156570000013078396859610940094_);}
	.st33{fill:url(#SVGID_00000056397943268868325180000000699297793457596570_);}
	.st34{fill:url(#SVGID_00000017476137631933240430000014402545761578757287_);}
	.st35{fill:url(#SVGID_00000029767456039785882640000010997622368552781185_);}
	.st36{fill:url(#SVGID_00000108998809176929449700000010539067241907860126_);}
	.st37{fill:url(#SVGID_00000084530234794329577630000004682935408040734376_);}
	.st38{fill:url(#SVGID_00000018928640029774551400000018257975332868446619_);}
	.st39{fill:url(#SVGID_00000000938639297627768680000000414676812437692046_);}
	.st40{fill:url(#SVGID_00000149372437587842955370000011410355563518626748_);}
	.st41{fill:url(#SVGID_00000142876433984874136080000007324372117889734802_);}
	.st42{fill:url(#SVGID_00000040552112562655944450000001080647815092041649_);}
	.st43{fill:url(#SVGID_00000072263137057271174640000013102100577813932190_);}
	.st44{fill:url(#SVGID_00000045604922903203874290000005312748760347558072_);}
	.st45{fill:url(#SVGID_00000114761832487194455460000003458411850608860835_);}
	.st46{fill:url(#SVGID_00000065790004420790544100000006519283720860515231_);}
	.st47{fill:url(#SVGID_00000106830385799824451190000004103199964139632791_);}
	.st48{fill:url(#SVGID_00000057126965381166766440000002756755611125207214_);}
	.st49{fill:url(#SVGID_00000034784241163402248640000015551304548372659861_);}
	.st50{fill:#062C44;}
	.st51{fill:url(#SVGID_00000123403026913099166950000010897737492927039632_);}
	.st52{fill:url(#SVGID_00000180341908934705892440000001385133996840545923_);}
	.st53{fill:url(#SVGID_00000125581641049230813890000017800220093874330278_);}
	.st54{fill:url(#SVGID_00000173128370909049547850000005319674913495399299_);}
	.st55{fill:url(#SVGID_00000099653123711247092600000013612583701159572405_);}
	.st56{fill:url(#SVGID_00000122686443031941522370000003292308875011858616_);}
	.st57{fill:url(#SVGID_00000144300792149331052710000011451312144608418472_);}
	.st58{fill:url(#SVGID_00000142177299870253358850000018025759556080578700_);}
	.st59{fill:url(#SVGID_00000092456653187532782860000001882524322392400534_);}
	.st60{fill:url(#SVGID_00000051343526462329777950000010894958539542003377_);}
	.st61{fill:url(#SVGID_00000078017509948357791290000002481675293711577733_);}
	.st62{fill:url(#SVGID_00000127006435062487887530000009965780685917384120_);}
	.st63{fill:url(#SVGID_00000005967260484295198620000014699319841986191519_);}
	.st64{fill:url(#SVGID_00000067224034420340580840000015062225428736678275_);}
	.st65{fill:url(#SVGID_00000114786727114529215640000012263890171964709018_);}
	.st66{fill:url(#SVGID_00000181784895771547776270000012951807314470920628_);}
	.st67{fill:url(#SVGID_00000180326709627496251220000014376739440965151642_);}
	.st68{fill:url(#SVGID_00000003811507507446518160000004629024297453629323_);}
	.st69{fill:url(#SVGID_00000109002456058757537960000001984101549470967433_);}
	.st70{fill:url(#SVGID_00000171705369924760768420000010454627258341138334_);}
	.st71{fill:url(#SVGID_00000179611797997658217140000006580686318262766208_);}
	.st72{fill:url(#SVGID_00000062884990376812163160000015395283508946247838_);}
	.st73{fill:url(#SVGID_00000088119858782580715440000012741622075987213484_);}
	.st74{fill:url(#SVGID_00000005952753438289598600000013072315181878051753_);}
	.st75{fill:url(#SVGID_00000126316256164861394360000013285887360628942212_);}
	.st76{fill:url(#SVGID_00000044160063316839240450000002132110818744372147_);}
	.st77{fill:url(#SVGID_00000072250611599379209700000007598776310601830540_);}
	.st78{fill:url(#SVGID_00000080909004284827953460000011369144413727466420_);}
	.st79{fill:url(#SVGID_00000107573081593299482730000008430752805252366515_);}
	.st80{fill:url(#SVGID_00000070100970520677861010000011923012719275389617_);}
	.st81{fill:url(#SVGID_00000018954455536375699600000007018827223885141152_);}
	.st82{fill:url(#SVGID_00000013181057604706479630000016777626883933021608_);}
	.st83{fill:url(#SVGID_00000124843681427693815920000005036133169305378491_);}
	.st84{fill:url(#SVGID_00000017497047218973092580000007739919857597192366_);}
	.st85{fill:url(#SVGID_00000009579479055285729330000010819601158363755955_);}
	.st86{fill:url(#SVGID_00000047757402738715414350000014252305969630564000_);}
	.st87{fill:url(#SVGID_00000164503715041121924980000007567800665559280786_);}
	.st88{fill:url(#SVGID_00000145764007556703676070000018384843612679598255_);}
	.st89{fill:url(#SVGID_00000060031453348536496660000006212615343099407237_);}
	.st90{fill:url(#SVGID_00000061444378363272665400000007659185564462694584_);}
	.st91{fill:url(#SVGID_00000116936641603862946900000013453253449122040250_);}
	.st92{fill:url(#SVGID_00000137818269381054747700000011068858556836467596_);}
	.st93{fill:url(#SVGID_00000057861468190577941780000018372289567397800113_);}
	.st94{fill:url(#SVGID_00000079479968831253860970000016952812052842855857_);}
	.st95{fill:url(#SVGID_00000021833064759568604590000000218702630228077709_);}
	.st96{fill:url(#SVGID_00000036226701987723357070000003026327665157756843_);}
	.st97{fill:url(#SVGID_00000111869665325064199960000008016364871497604001_);}
	.st98{fill:url(#SVGID_00000073718719008993217580000013455379226759142065_);}
	.st99{fill:url(#SVGID_00000129904012905795596630000007890246790701921722_);}
	.st100{fill:url(#SVGID_00000156582044771612591380000004357212239846933422_);}
	.st101{fill:url(#SVGID_00000036249870527932742570000010809290760104172222_);}
	.st102{fill:url(#SVGID_00000145045842487790428230000016871019752309719203_);}
	.st103{fill:url(#SVGID_00000090975930509606328680000005508678040957908880_);}
	.st104{fill:url(#SVGID_00000057121822327852229240000013964998287514551710_);}
	.st105{fill:url(#SVGID_00000000936501806639287870000007926420246505477307_);}
	.st106{fill:url(#SVGID_00000163036374518639832530000004731410284129763491_);}
	.st107{fill:url(#SVGID_00000163057964533856656020000014827504570291809724_);}
	.st108{fill:url(#SVGID_00000139989373802507655970000002799470381412817035_);}
	.st109{fill:url(#SVGID_00000067929094174430062770000012471057907593929401_);}
	.st110{fill:url(#SVGID_00000034783386637293171090000015129459165930710187_);}
	.st111{fill:url(#SVGID_00000117649619899679621890000010315948530347685276_);}
	.st112{fill:url(#SVGID_00000080173970098383502150000013424922241531265926_);}
	.st113{fill:url(#SVGID_00000182490262412225466020000004183464063119083921_);}
	.st114{fill:url(#SVGID_00000132775058104590687350000000021962302141569439_);}
	.st115{fill:url(#SVGID_00000116200739222638309560000011163422251703035032_);}
	.st116{fill:url(#SVGID_00000105403448857450432220000007178008841680409985_);}
	.st117{fill:url(#SVGID_00000122682745825942464480000008492966012080579456_);}
	.st118{fill:url(#SVGID_00000064315090045302437700000011553479374751431838_);}
	.st119{fill:url(#SVGID_00000135656767716285298630000007516595054382865579_);}
	.st120{fill:url(#SVGID_00000073699196696763118820000007620475873979212726_);}
	.st121{fill:url(#SVGID_00000137846743346327690450000015849271348101873538_);}
	.st122{fill:url(#SVGID_00000162332268240777066290000009765591574159671976_);}
	.st123{fill:url(#SVGID_00000114063142795243187970000016571113741117899164_);}
	.st124{fill:url(#SVGID_00000073707192931667008250000001496564367464548755_);}
	.st125{fill:url(#SVGID_00000062171410514795533710000006202626932566763193_);}
	.st126{fill:url(#SVGID_00000042736874023860684610000013316105742014109341_);}
	.st127{fill:url(#SVGID_00000156584328469842971430000003393028680130546583_);}
	.st128{fill:url(#SVGID_00000178183289122133111100000005543823014708534914_);}
	.st129{fill:url(#SVGID_00000117656354424138512760000013374288945017356208_);}
	.st130{fill:url(#SVGID_00000018231774532674017810000015048338559284279727_);}
	.st131{fill:url(#SVGID_00000165198839216141985530000014476482733527642767_);}
	.st132{fill:url(#SVGID_00000052105948393123611710000016452973945275425965_);}
	.st133{fill:url(#SVGID_00000003090834219045699270000016837573511083483015_);}
	.st134{fill:url(#SVGID_00000071538195799065413040000014708367967431641505_);}
	.st135{fill:url(#SVGID_00000145038783356020319730000010602172489416593542_);}
	.st136{fill:url(#SVGID_00000149379882386605209910000003779319396586313651_);}
	.st137{fill:url(#SVGID_00000016067197613440932910000009754935505709435776_);}
	.st138{fill:url(#SVGID_00000180327921477873876300000004049056142729980602_);}
	.st139{fill:url(#SVGID_00000101080688060648490360000004554181565815033987_);}
	.st140{fill:url(#SVGID_00000122680390547842740070000008330800469659199625_);}
	.st141{fill:url(#SVGID_00000033357848265006871710000003060089372692290493_);}
	.st142{fill:url(#SVGID_00000154427962667429208170000002219887187898250373_);}
	.st143{fill:url(#SVGID_00000181078587813974257090000002562305767445088175_);}
	.st144{fill:url(#SVGID_00000024692868605185343870000008482839911531862699_);}
	.st145{fill:url(#SVGID_00000042004489679739082460000011578456461768346297_);}
	.st146{fill:url(#SVGID_00000037686467640418977770000001903096168477951909_);}
	.st147{fill:url(#SVGID_00000107554777608525276870000012377770741148764293_);}
	.st148{fill:url(#SVGID_00000141416996979598264200000016570034959603902650_);}
	.st149{fill:url(#SVGID_00000103248714301213192610000006172599435687794100_);}
	.st150{fill:url(#SVGID_00000104667382796171371710000007144453248488424638_);}
	.st151{fill:url(#SVGID_00000181057359088866484950000000960260744488815005_);}
	.st152{fill:url(#SVGID_00000178202562709958481490000010930695487425988543_);}
	.st153{fill:url(#SVGID_00000129915573891099601860000010892195303676665779_);}
	.st154{fill:url(#SVGID_00000078738297367297884920000008255728683738916542_);}
	.st155{fill:url(#SVGID_00000070085828279295806120000000757174978571347636_);}
	.st156{fill:url(#SVGID_00000100377596110731882230000012458841831429588870_);}
	.st157{fill:url(#SVGID_00000107584828530441358130000002579826750078226575_);}
	.st158{fill:url(#SVGID_00000041286284946932478180000002080850210561120183_);}
	.st159{fill:url(#SVGID_00000134967784990653896980000012589961130052175250_);}
	.st160{fill:url(#SVGID_00000132772890257315869550000017901160955340893862_);}
	.st161{fill:url(#SVGID_00000061465507815067517770000015067582106186419611_);}
	.st162{fill:url(#SVGID_00000069378822885326540350000009933372591443828626_);}
	.st163{fill:url(#SVGID_00000018934860663969916320000011080904573702807685_);}
	.st164{fill:url(#SVGID_00000153694263675720014520000001056086744421577140_);}
	.st165{fill:url(#SVGID_00000119820118425526942990000000329695302964453558_);}
	.st166{fill:url(#SVGID_00000107568259066612050630000015391644279116918969_);}
	.st167{fill:url(#SVGID_00000017477284162096795620000014842183765201626244_);}
	.st168{fill:url(#SVGID_00000179609449857500874420000008104149504153508277_);}
	.st169{fill:url(#SVGID_00000018199253965893697070000001133498709291748500_);}
	.st170{fill:url(#SVGID_00000013888284513119599170000000932587828515373743_);}
</style>
<g id="Layer_1">
	<g>
		<g>
			<linearGradient id="SVGID_1_" gradientUnits="userSpaceOnUse" x1="75.7321" y1="242.9642" x2="593.1761" y2="242.9642">
				<stop  offset="4.753638e-04" style="stop-color:#009B90"/>
				<stop  offset="1" style="stop-color:#50C1B7"/>
			</linearGradient>
			<circle class="st9" cx="306.1" cy="243" r="124.5"/>
			<g>
				<g>
					<path class="st7" d="M317.6,326.5c-3.9,0-7,3.1-7,7c0,3.9,3.1,7,7,7c3.9,0,7-3.1,7-7C324.6,329.7,321.5,326.5,317.6,326.5z"/>
				</g>
				<g>
					<path class="st7" d="M278.7,188.8h-2.5v-7h0c0-4.9-4.1-8.9-9-8.9c-5,0-9,4-9,8.9h0v7h-2.5c-0.5,0-1,0.5-1,1v14c0,0.5,0.5,1,1,1
						h23c0.6,0,1-0.5,1-1v-14C279.7,189.2,279.3,188.8,278.7,188.8z M261.7,181.8C261.7,181.8,261.7,181.8,261.7,181.8
						c0-3,2.5-5.4,5.5-5.4s5.5,2.4,5.5,5.5c0,0,0,0,0,0v7h-11V181.8z M269.1,199.3h-3.8l1.2-3.5c-0.8-0.3-1.3-1-1.3-1.9
						c0-1.1,0.9-2,2-2s2,0.9,2,2c0,0.9-0.6,1.6-1.3,1.9L269.1,199.3z"/>
				</g>
			</g>
			<g class="st4">
				<g>
					<path class="st7" d="M362.8,301.5c0.2,2.8,2.5,5.1,5.3,5.1c3,0,5.4-2.4,5.4-5.4s-2.4-5.4-5.4-5.4c-2.5,0-4.5,1.7-5.2,4h-68.8
						c-0.4-3.6-3.4-6.4-7.1-6.4c-4,0-7.2,3.2-7.2,7.2c0,4,3.2,7.2,7.2,7.2c3.7,0,6.7-2.8,7.1-6.4H362.8z"/>
					<path class="st7" d="M209.3,198.8c-3,0-5.4,2.4-5.4,5.4c0,3,2.4,5.4,5.4,5.4c3,0,5.4-2.4,5.4-5.4
						C214.7,201.2,212.3,198.8,209.3,198.8z"/>
				</g>
				<g>
					<path class="st7" d="M332.5,291.7H331v-3.9h0c0-2.8-2.3-5-5.1-5c-2.8,0-5,2.2-5.1,5h0v3.9h-1.4c-0.3,0-0.6,0.3-0.6,0.6v7.9
						c0,0.3,0.3,0.6,0.6,0.6h13c0.3,0,0.6-0.3,0.6-0.6v-7.9C333,291.9,332.8,291.7,332.5,291.7z M322.9,287.7
						C322.9,287.7,322.9,287.7,322.9,287.7c0-1.7,1.4-3.1,3.1-3.1c1.7,0,3.1,1.4,3.1,3.1c0,0,0,0,0,0v3.9h-6.2V287.7z M327,297.6
						h-2.1l0.7-2c-0.4-0.2-0.7-0.6-0.7-1.1c0-0.6,0.5-1.1,1.1-1.1c0.6,0,1.1,0.5,1.1,1.1c0,0.5-0.3,0.9-0.7,1.1L327,297.6z"/>
					<path class="st7" d="M347.4,174.5h-1.9v-5.4h0c0-3.8-3.1-6.8-6.9-6.8c-3.8,0-6.9,3.1-6.9,6.8h0v5.4h-1.9
						c-0.4,0-0.8,0.3-0.8,0.8V186c0,0.4,0.3,0.8,0.8,0.8h17.6c0.4,0,0.8-0.3,0.8-0.8v-10.7C348.2,174.8,347.8,174.5,347.4,174.5z
						 M334.4,169.1C334.4,169.1,334.4,169.1,334.4,169.1c0-2.3,1.9-4.2,4.2-4.2c2.3,0,4.2,1.9,4.2,4.2c0,0,0,0,0,0v5.4h-8.4V169.1z
						 M340,182.6h-2.9l0.9-2.7c-0.6-0.2-1-0.8-1-1.4c0-0.8,0.7-1.5,1.5-1.5c0.8,0,1.5,0.7,1.5,1.5c0,0.7-0.4,1.2-1,1.4L340,182.6z"
						/>
				</g>
			</g>
			<g class="st5">
				<path class="st10" d="M382,186.6v-42.3c-21-16.2-47.4-25.9-76-25.9c-0.9,0-1.8,0-2.7,0v68.1H382z"/>
				<path class="st10" d="M303.3,188.3v64.3H258v74c2.6,0.4,4.5,2.6,4.5,5.3c0,3-2.4,5.4-5.4,5.4c-3,0-5.4-2.4-5.4-5.4
					c0-2.7,2-4.9,4.5-5.3v-75.7h45.3v-62.6h-2v-1.7h2v-68.1c-66.7,2.3-120.1,57.1-120.1,124.4c0,68.8,55.8,124.5,124.5,124.5
					c68.8,0,124.5-55.8,124.5-124.5c0-39.4-18.3-74.5-46.8-97.3v42.6H303.3z"/>
				<path class="st7" d="M382,186.6h-78.7v-68.1c-0.6,0-1.1,0-1.7,0.1v68.1h-2v1.7h2v62.6h-45.3v75.7c-2.6,0.4-4.5,2.6-4.5,5.3
					c0,3,2.4,5.4,5.4,5.4c3,0,5.4-2.4,5.4-5.4c0-2.7-2-4.9-4.5-5.3v-74h45.3v-64.3h80.4v-42.6c-0.6-0.4-1.1-0.9-1.7-1.3V186.6z"/>
			</g>
			<g>
				<path class="st8" d="M341.3,312.8v-68h58.2v-66.5h12.9c-0.5-0.7-0.9-1.5-1.4-2.2h-13.7v66.5h-56V123.9h-2.2v118.7h-44.5v-39.9
					h-69.1c-0.1-19.7-0.1-39.1-0.1-54.5c-0.7,0.6-1.5,1.3-2.2,1.9c0,15.2,0,33.9,0.1,52.6h-35c-0.3,0.7-0.5,1.5-0.7,2.2h35.8
					c0.1,29,0.4,57.6,0.5,73.2h-37.2c0.2,0.7,0.4,1.5,0.7,2.2H226l0-1.1c-0.2-17.4-0.4-45.9-0.5-74.3h66.9v39.9h46.8v65.8h-85.5
					v45.3c0.7,0.3,1.5,0.7,2.2,1v-44.1H341.3z"/>
				<path class="st8" d="M384.7,310.6c-0.6-4.7-4.5-8.3-9.3-8.3c-5.2,0-9.4,4.2-9.4,9.4c0,5.2,4.2,9.4,9.4,9.4
					c4.8,0,8.8-3.6,9.3-8.3h24.5c0.5-0.7,1-1.5,1.5-2.2H384.7z"/>
			</g>
			<g>
				<path class="st10" d="M394.5,322.5v-77.6h-50.6c-0.4,2.6-2.6,4.5-5.3,4.5c-3,0-5.4-2.4-5.4-5.4c0-3,2.4-5.4,5.4-5.4
					c2.7,0,4.9,2,5.3,4.5h52.3v81h-37.4v31.6c42.4-19.9,71.8-62.9,71.8-112.8c0-68.8-55.8-124.5-124.5-124.5
					c-68.8,0-124.5,55.8-124.5,124.5c0,11.6,1.6,22.9,4.6,33.6v-11.2h22.3v-55.8h0.8h0.9V267h-22.3v15.1
					c16.4,49.6,63.1,85.4,118.2,85.4c3.5,0,7-0.2,10.5-0.4v-26.5h1.1h1.1v26.3c13.6-1.4,26.5-4.9,38.4-10.3v-34.1H394.5z"/>
				<path class="st10" d="M317.6,340.6h-1.1v26.5c0.7-0.1,1.5-0.1,2.2-0.2v-26.3H317.6z"/>
				<path class="st10" d="M210.1,267v-57.5h-0.9h-0.8v55.8h-22.3v11.2c0.5,1.9,1.1,3.7,1.7,5.6V267H210.1z"/>
				<path class="st10" d="M358.8,324.2h37.4v-81h-52.3c-0.4-2.6-2.6-4.5-5.3-4.5c-3,0-5.4,2.4-5.4,5.4c0,3,2.4,5.4,5.4,5.4
					c2.7,0,4.9-2,5.3-4.5h50.6v77.6h-37.4v34.1c0.6-0.3,1.1-0.5,1.7-0.8V324.2z"/>
			</g>
			<g>
				
					<linearGradient id="SVGID_00000140723337624270663150000016130220506087473328_" gradientUnits="userSpaceOnUse" x1="329.2624" y1="292.6531" x2="672.6697" y2="292.6531">
					<stop  offset="4.753638e-04" style="stop-color:#009B90"/>
					<stop  offset="1" style="stop-color:#50C1B7"/>
				</linearGradient>
				<path style="fill:url(#SVGID_00000140723337624270663150000016130220506087473328_);" d="M612.9,291.8
					c-0.5,7.2,5.2,13.2,12.3,13.2h61.3c6.6,0,12.3-5,12.7-11.5c0.5-7.2-5.2-13.2-12.3-13.2h-61.3
					C619.1,280.3,613.3,285.3,612.9,291.8z"/>
				
					<linearGradient id="SVGID_00000043427800382916441520000002140178006389349791_" gradientUnits="userSpaceOnUse" x1="329.2624" y1="242.9642" x2="672.6697" y2="242.9642">
					<stop  offset="4.753638e-04" style="stop-color:#009B90"/>
					<stop  offset="1" style="stop-color:#50C1B7"/>
				</linearGradient>
				<path style="fill:url(#SVGID_00000043427800382916441520000002140178006389349791_);" d="M775.5,243.8
					c0.5-7.2-5.2-13.2-12.3-13.2h-85c-6.6,0-12.3,5-12.7,11.5c-0.5,7.2,5.2,13.2,12.3,13.2h85C769.4,255.3,775.1,250.4,775.5,243.8z
					"/>
				
					<linearGradient id="SVGID_00000023998244885310861720000011737835807043570056_" gradientUnits="userSpaceOnUse" x1="329.2624" y1="292.6531" x2="672.6697" y2="292.6531">
					<stop  offset="4.753638e-04" style="stop-color:#009B90"/>
					<stop  offset="1" style="stop-color:#50C1B7"/>
				</linearGradient>
				<path style="fill:url(#SVGID_00000023998244885310861720000011737835807043570056_);" d="M728.7,280.3c-6.6,0-12.3,5-12.7,11.5
					c-0.5,7.2,5.2,13.2,12.3,13.2h28.1c6.6,0,12.3-5,12.7-11.5c0.5-7.2-5.2-13.2-12.3-13.2H728.7z"/>
				
					<linearGradient id="SVGID_00000026163469342303707430000010683150280058753676_" gradientUnits="userSpaceOnUse" x1="329.2624" y1="193.2754" x2="672.6697" y2="193.2754">
					<stop  offset="4.753638e-04" style="stop-color:#009B90"/>
					<stop  offset="1" style="stop-color:#50C1B7"/>
				</linearGradient>
				<path style="fill:url(#SVGID_00000026163469342303707430000010683150280058753676_);" d="M656.1,180.9H628
					c-6.6,0-12.3,5-12.7,11.5c-0.5,7.2,5.2,13.2,12.3,13.2h28.1c6.6,0,12.3-5,12.7-11.5C668.9,186.9,663.2,180.9,656.1,180.9z"/>
				
					<linearGradient id="SVGID_00000079449947818110956840000011133912248251744408_" gradientUnits="userSpaceOnUse" x1="329.2624" y1="190.8367" x2="672.6697" y2="190.8367">
					<stop  offset="4.753638e-04" style="stop-color:#009B90"/>
					<stop  offset="1" style="stop-color:#50C1B7"/>
				</linearGradient>
				<path style="fill:url(#SVGID_00000079449947818110956840000011133912248251744408_);" d="M450.8,194.1
					c0.4-5.7-3.2-10.7-8.2-12.5c2.4,6,4.5,12.1,6.1,18.4C449.9,198.3,450.7,196.3,450.8,194.1z"/>
				
					<linearGradient id="SVGID_00000153704204754485211840000004073366347688654491_" gradientUnits="userSpaceOnUse" x1="329.2624" y1="541.098" x2="672.6697" y2="541.098">
					<stop  offset="4.753638e-04" style="stop-color:#009B90"/>
					<stop  offset="1" style="stop-color:#50C1B7"/>
				</linearGradient>
				<path style="fill:url(#SVGID_00000153704204754485211840000004073366347688654491_);" d="M603.9,528.7
					c-6.8,0-12.3,5.5-12.3,12.4c0,6.8,5.5,12.4,12.3,12.4c6.8,0,12.4-5.5,12.4-12.4C616.3,534.3,610.7,528.7,603.9,528.7z"/>
				
					<linearGradient id="SVGID_00000067925974200847138540000011344423706212552324_" gradientUnits="userSpaceOnUse" x1="329.2624" y1="367.1863" x2="672.6697" y2="367.1863">
					<stop  offset="4.753638e-04" style="stop-color:#009B90"/>
					<stop  offset="1" style="stop-color:#50C1B7"/>
				</linearGradient>
				<path style="fill:url(#SVGID_00000067925974200847138540000011344423706212552324_);" d="M697,379.7h-20.6
					c-6.6,0-12.3,5-12.7,11.5c-0.5,7.2,5.2,13.2,12.3,13.2h56.8c6.6,0,12.3-5,12.7-11.5c0.5-7.2-5.2-13.2-12.3-13.2h3.3
					c-6.8,0-12.4-5.5-12.4-12.4v-0.5c0-6.7,5.4-12.1,12.1-12.1c0.1,0,10.4,0,10.6,0c6.4-0.2,11.9-5.1,12.3-11.5
					c0.5-7.2-5.2-13.2-12.3-13.2h-88.6c-6.6,0-12.3,5-12.7,11.5c-0.5,7.2,5.2,13.2,12.3,13.2H697c6.8,0,12.3,5.5,12.3,12.4v0.3
					C709.4,374.2,703.8,379.7,697,379.7z"/>
				
					<linearGradient id="SVGID_00000011022449109426603660000017288417564864448130_" gradientUnits="userSpaceOnUse" x1="329.2624" y1="441.72" x2="672.6697" y2="441.72">
					<stop  offset="4.753638e-04" style="stop-color:#009B90"/>
					<stop  offset="1" style="stop-color:#50C1B7"/>
				</linearGradient>
				<path style="fill:url(#SVGID_00000011022449109426603660000017288417564864448130_);" d="M696.5,429.4
					c-6.8,0-12.4,5.5-12.4,12.3c0,6.8,5.5,12.4,12.4,12.4h17.4c6.8,0,12.3-5.5,12.3-12.4c0-6.8-5.5-12.3-12.3-12.3H696.5z"/>
				
					<linearGradient id="SVGID_00000043428248416024733640000003023156273582642086_" gradientUnits="userSpaceOnUse" x1="329.2624" y1="143.5848" x2="672.6697" y2="143.5848">
					<stop  offset="4.753638e-04" style="stop-color:#009B90"/>
					<stop  offset="1" style="stop-color:#50C1B7"/>
				</linearGradient>
				<path style="fill:url(#SVGID_00000043428248416024733640000003023156273582642086_);" d="M528.6,131.2
					c-6.8,0-12.4,5.5-12.4,12.4c0,6.8,5.5,12.3,12.4,12.3h9.3c6.8,0,12.4-5.5,12.4-12.3c0-6.8-5.5-12.4-12.4-12.4H528.6z"/>
				
					<linearGradient id="SVGID_00000183952906782904780450000012793809150898998688_" gradientUnits="userSpaceOnUse" x1="329.2624" y1="317.3662" x2="672.6697" y2="317.3662">
					<stop  offset="4.753638e-04" style="stop-color:#009B90"/>
					<stop  offset="1" style="stop-color:#50C1B7"/>
				</linearGradient>
				<path style="fill:url(#SVGID_00000183952906782904780450000012793809150898998688_);" d="M551.2,321.6c2.4-2.4,2.4-6.2,0-8.6
					c-2.4-2.4-6.2-2.4-8.6,0c-2.4,2.4-2.4,6.2,0,8.6C545,324,548.8,324,551.2,321.6z"/>
				
					<linearGradient id="SVGID_00000136378074777774180130000015630405632549804217_" gradientUnits="userSpaceOnUse" x1="329.2624" y1="416.8754" x2="672.6697" y2="416.8754">
					<stop  offset="4.753638e-04" style="stop-color:#009B90"/>
					<stop  offset="1" style="stop-color:#50C1B7"/>
				</linearGradient>
				<path style="fill:url(#SVGID_00000136378074777774180130000015630405632549804217_);" d="M542.8,421.4c2.5-2.5,2.5-6.6,0-9.1
					c-2.5-2.5-6.6-2.5-9.1,0c-2.5,2.5-2.5,6.6,0,9.1C536.2,423.9,540.3,423.9,542.8,421.4z"/>
				
					<linearGradient id="SVGID_00000059999969319341930420000004217721819938159006_" gradientUnits="userSpaceOnUse" x1="329.2624" y1="367.3304" x2="672.6697" y2="367.3304">
					<stop  offset="4.753638e-04" style="stop-color:#009B90"/>
					<stop  offset="1" style="stop-color:#50C1B7"/>
				</linearGradient>
				<path style="fill:url(#SVGID_00000059999969319341930420000004217721819938159006_);" d="M513,374.4c3.9-3.9,3.9-10.2,0-14.1
					c-3.9-3.9-10.2-3.9-14.1,0c-3.9,3.9-3.9,10.2,0,14.1C502.9,378.3,509.2,378.3,513,374.4z"/>
				
					<linearGradient id="SVGID_00000136394577893438779730000007850060271247753099_" gradientUnits="userSpaceOnUse" x1="329.2624" y1="441.7198" x2="672.6697" y2="441.7198">
					<stop  offset="4.753638e-04" style="stop-color:#009B90"/>
					<stop  offset="1" style="stop-color:#50C1B7"/>
				</linearGradient>
				<path style="fill:url(#SVGID_00000136394577893438779730000007850060271247753099_);" d="M436.3,441.7c0-6.8-5.5-12.3-12.4-12.3
					h-34.4c0,0,0,0,0,0h-42.9c-6.5,0-12.3,4.6-13,11.1c-0.7,7.4,5,13.6,12.3,13.6h78.1C430.7,454.1,436.3,448.5,436.3,441.7z"/>
				
					<linearGradient id="SVGID_00000007392059929744211160000005468069236462112166_" gradientUnits="userSpaceOnUse" x1="329.2624" y1="640.4774" x2="672.6697" y2="640.4774">
					<stop  offset="4.753638e-04" style="stop-color:#009B90"/>
					<stop  offset="1" style="stop-color:#50C1B7"/>
				</linearGradient>
				<path style="fill:url(#SVGID_00000007392059929744211160000005468069236462112166_);" d="M533.9,652.8c6.8,0,12.4-5.5,12.4-12.4
					c0-6.8-5.5-12.4-12.4-12.4h-1.2c-6.8,0-12.4,5.5-12.4,12.4c0,6.8,5.5,12.4,12.4,12.4H533.9z"/>
				
					<linearGradient id="SVGID_00000011741798550989579360000005739454533031708314_" gradientUnits="userSpaceOnUse" x1="329.2624" y1="218.1199" x2="672.6697" y2="218.1199">
					<stop  offset="4.753638e-04" style="stop-color:#009B90"/>
					<stop  offset="1" style="stop-color:#50C1B7"/>
				</linearGradient>
				<path style="fill:url(#SVGID_00000011741798550989579360000005739454533031708314_);" d="M452.6,255.3h20h163.9
					c6.5,0,12.3-4.6,13-11.1c0.7-7.4-5-13.6-12.3-13.6H580c-6.8,0-12.4-5.5-12.4-12.4V218c0-6.8,5.5-12.4,12.3-12.4h6.9
					c6.5,0,12.3-4.6,13-11.1c0.7-7.4-5-13.6-12.3-13.6h-108c-6.5,0-12.3,4.6-13,11.1c-0.7,7.4,5,13.6,12.3,13.6h61.6
					c6.8,0,12.4,5.5,12.4,12.4v0.3c0,6.8-5.5,12.4-12.4,12.4h-87.1C453.9,239,453.6,247.2,452.6,255.3z"/>
				
					<linearGradient id="SVGID_00000134248491317893181060000013464958919254486704_" gradientUnits="userSpaceOnUse" x1="329.2624" y1="491.409" x2="672.6697" y2="491.409">
					<stop  offset="4.753638e-04" style="stop-color:#009B90"/>
					<stop  offset="1" style="stop-color:#50C1B7"/>
				</linearGradient>
				<path style="fill:url(#SVGID_00000134248491317893181060000013464958919254486704_);" d="M649.6,491.4c0,6.8,5.5,12.4,12.4,12.4
					h31.2c6.8,0,12.4-5.5,12.4-12.4c0-6.8-5.5-12.3-12.4-12.3H662C655.2,479.1,649.6,484.6,649.6,491.4z"/>
				
					<linearGradient id="SVGID_00000020391508098979903350000015953590286138185616_" gradientUnits="userSpaceOnUse" x1="329.2624" y1="541.098" x2="672.6697" y2="541.098">
					<stop  offset="4.753638e-04" style="stop-color:#009B90"/>
					<stop  offset="1" style="stop-color:#50C1B7"/>
				</linearGradient>
				<path style="fill:url(#SVGID_00000020391508098979903350000015953590286138185616_);" d="M628,541.1c0,6.8,5.5,12.4,12.4,12.4
					h21c6.8,0,12.4-5.5,12.4-12.4c0-6.8-5.5-12.3-12.4-12.3h-21C633.5,528.7,628,534.3,628,541.1z"/>
				
					<linearGradient id="SVGID_00000173840867189496917050000008241060616069952403_" gradientUnits="userSpaceOnUse" x1="329.2624" y1="590.7867" x2="672.6697" y2="590.7867">
					<stop  offset="4.753638e-04" style="stop-color:#009B90"/>
					<stop  offset="1" style="stop-color:#50C1B7"/>
				</linearGradient>
				<path style="fill:url(#SVGID_00000173840867189496917050000008241060616069952403_);" d="M617.7,578.4H608
					c-6.8,0-12.4,5.5-12.4,12.4c0,6.8,5.5,12.4,12.4,12.4h9.7c6.8,0,12.4-5.5,12.4-12.4C630.1,584,624.5,578.4,617.7,578.4z"/>
				
					<linearGradient id="SVGID_00000175284303095261130690000011303869476046700438_" gradientUnits="userSpaceOnUse" x1="329.2624" y1="441.6292" x2="672.6697" y2="441.6292">
					<stop  offset="4.753638e-04" style="stop-color:#009B90"/>
					<stop  offset="1" style="stop-color:#50C1B7"/>
				</linearGradient>
				<path style="fill:url(#SVGID_00000175284303095261130690000011303869476046700438_);" d="M448.6,305h22.3c0,0,0,0,0,0h48
					c5.2,0,10.4-1.6,14.7-4.5c1.9-1.3,4-2.5,6.2-3.2c2.6-0.9,5.3-1.3,8-1.2c5.1,0.2,10.2,2.3,14.1,6.2c7.6,7.6,8.2,19.4,2.1,27.7
					c-0.6,0.9-1.3,1.7-2.1,2.5c-5.7,5.7-13.9,7.7-21.1,5.4c-3-1-5.6-2.3-7.6-3.7c-4.5-3-9.7-4.5-15.1-4.5h-48.9c0,0.1,0,0.2,0,0.3
					H439c-0.4-0.5-0.8-1.1-1.3-1.6c-3.1-3.1-7-4.9-11.2-5.4c-6,8.5-12.9,16.3-20.6,23.4c0.8,3.2,2.4,6.3,5,8.9
					c3.6,3.6,8.3,5.6,13.4,5.6c5.1,0,9.8-2,13.4-5.6c0.2-0.2,0.3-0.3,0.4-0.5h32.4c5.8,0,11.4-2.3,15.5-6.4l0.5-0.5h0
					c10.8-10.8,28.3-10.8,39.1,0c2.1,2.1,3.8,4.4,5,6.9c5.3,10.4,3.7,23.5-5,32.2c-10.8,10.8-28.3,10.8-39.1,0h0
					c-0.2-0.2-0.3-0.3-0.5-0.5c-4.2-4.4-10-7-16.2-7h-4.9c0,0.1,0,0.2,0,0.3h-91c-0.8-1.2-1.7-2.3-2.8-3.4c-1.5-1.5-3.2-2.8-5-3.8
					c-10.1,4.5-20.8,7.9-32,10c-4.1,8.6-2.7,19.2,4.4,26.3c4.4,4.4,10.1,6.7,16.3,6.7c6.2,0,11.9-2.4,16.3-6.7
					c1.4-1.4,2.4-2.9,3.4-4.5h15h73.4c0,0,0,0.1,0,0.1H514c5.1,0,10.2-1.4,14.6-4c2.6-1.5,6.3-2.8,11.1-2.5
					c5.6,0.4,11.1,3.4,14.6,8.8c3.9,6.1,3.8,14.2-0.1,20.2c-3.7,5.6-9.5,8.6-15.4,8.7c-5,0.1-8.4-1-10.6-2.4
					c-4.2-2.5-8.8-4.1-13.7-4.1l-48.2,0c0,0,0,0.1,0.1,0.1h-2.5c-6.5,0-12.3,4.6-13,11.1c-0.7,7.4,5,13.6,12.3,13.6h15.7h8.2
					c6.5,0,12.3,4.6,13,11.1c0.7,6.5-3.7,12.1-9.7,13.4h-63.7c-0.8-1.2-1.7-2.3-2.8-3.4c-4.3-4.3-10.1-6.7-16.3-6.7
					s-11.9,2.4-16.3,6.7c-9,9-9,23.6,0,32.6c4.4,4.4,10.1,6.7,16.3,6.7s11.9-2.4,16.3-6.7c1.2-1.2,2.2-2.5,3.1-4c0.2,0,0.5,0,0.7,0
					h32c6.8,0,12.4,5.5,12.4,12.4v0.3c0,6.8-5.5,12.4-12.3,12.4h-58.5c-6.5,0-12.4,4.6-13,11.1c-0.7,7.4,5,13.6,12.3,13.6h87h25.3
					c6.5,0,12.3,4.6,13,11.1c0.7,7.4-5,13.6-12.3,13.6h-64.2v0.3l-3.5,0c-6.5,0-12.4,4.6-13,11.1c-0.7,7.4,5,13.6,12.3,13.6h123.4
					c6.8,0,12.3-5.5,12.3-12.4c0-0.1,0-0.3,0-0.4c0,0,0-0.1,0-0.1v-76.8c0-7.5,6-13.5,13.5-13.5H622c9.3,0,16.8-7.5,16.8-16.8v-37.7
					c0-3.7,3-6.7,6.7-6.7h15.3c2,0,3.9-0.6,5.3-2c2.5-2.3,3-5.9,1.6-8.8L655,402.6c-7-14.1-12.3-28.9-17-43.9
					c-14.9-48.1-61.3-81.4-113.3-78.4h-52.1h-24c-0.4,0-0.9,0-1.3,0.1c-2.1,7-4.8,13.9-7.9,20.5C441.6,303.4,444.9,305,448.6,305z
					 M430.3,348.3c-3.3,3.3-8.7,3.3-12,0c-3.3-3.3-3.3-8.7,0-12c3.3-3.3,8.7-3.3,12,0C433.6,339.7,433.6,345,430.3,348.3z
					 M362.6,400.4c-4.3,4.3-11.3,4.3-15.6,0c-4.3-4.3-4.3-11.3,0-15.6c4.3-4.3,11.3-4.3,15.6,0C366.9,389.1,366.9,396.1,362.6,400.4
					z M415.1,499.2c-4.3,4.3-11.3,4.3-15.6,0c-4.3-4.3-4.3-11.3,0-15.6c4.3-4.3,11.3-4.3,15.6,0
					C419.4,487.9,419.4,494.9,415.1,499.2z"/>
			</g>
			<g>
				<g>
					<path class="st50" d="M531.4,60.2l-143.6,54.6c-30.6-20.4-67.1-28.5-103.7-23c-39,5.9-73.3,26.6-96.8,58.3
						c-23.4,31.7-33.1,70.6-27.2,109.6c4.2,27.7,15.9,53.1,33.7,73.9L69.7,465.9c-6.6,7-6.2,18,0.8,24.6c3.4,3.1,7.6,4.7,11.9,4.7
						c4.6,0,9.3-1.8,12.7-5.5l124.3-132.6c6.6,4.8,13.4,9,20.6,12.5c5.1,20,11.2,40.8,18.2,62c25.2,75.2,58.3,137.9,98.5,187.1
						c25.4,6.1,49,13.1,70.8,21c-76-65.8-120.1-167-145.5-256.4c7.8,1.3,15.8,1.9,23.8,1.9c7.4,0,14.8-0.6,22.3-1.7c2-0.3,4-0.7,6-1
						c11.2-2.2,21.9-5.6,32-10c14.8-6.6,28.2-15.5,39.8-26.2c7.7-7.1,14.6-14.9,20.6-23.4c4.9-7,9.3-14.4,13-22.1
						c3.1-6.6,5.8-13.4,7.9-20.5c2.5-8.1,4.2-16.5,5.3-25.1c1-8.1,1.3-16.3,0.9-24.7c-0.2-4.9-0.7-9.9-1.5-14.9
						c-0.8-5.3-1.9-10.6-3.2-15.7c-1.6-6.3-3.7-12.4-6.1-18.4c-5.9-14.4-13.9-27.7-24-39.5l112.8-42.9l282.1,107.2
						c-6.3,60.7-40.7,312.1-183,435.2c22-8.2,45.8-15.5,71.5-21.8c40.2-49.3,69.2-114,99.6-188c38.2-92.8,48.2-222.2,49.6-236.2
						l0.9-13.5L531.4,60.2z M418.8,236.4c0,4.1-0.1,8.2-0.5,12.2c-1.1,11-3.8,21.7-7.9,31.7c-3.6,8.8-8.3,17.1-13.9,24.6
						c-9.7,13-22.2,24-36.8,31.9c-11.2,6-23.5,10.3-36.8,12.3c-5.5,0.8-11,1.2-16.5,1.3c-11.7,0.1-23.3-1.7-34.4-5.2
						c-11.7-3.7-22.8-9.3-32.9-16.8c-3.7-2.7-7.2-5.7-10.5-8.8c-18.3-17.2-30.2-39.9-34-65.2c-4.5-29.8,2.9-59.5,20.8-83.8
						c17.9-24.2,44.2-40.1,73.9-44.5c5.7-0.9,11.4-1.3,17-1.3c12.9,0,25.6,2.2,37.7,6.6c10.3,3.7,20,8.9,29.1,15.5
						c3.6,2.7,7.1,5.6,10.4,8.6c8.1,7.6,15,16.3,20.4,25.8c4.4,7.6,7.8,15.7,10.4,24.3c1.5,5,2.6,10.1,3.4,15.3
						C418.4,226.1,418.8,231.3,418.8,236.4z"/>
					<path class="st50" d="M578.4,733.7c33.3-22.2,86.4-46.5,170.2-63.3v-32.7c-31,6-58.3,13-82.3,20.7
						c-67.9,21.7-109.6,48.3-134.8,71.2c-25.8-23.4-68.8-50.7-139.5-72.6c-22.9-7.1-48.6-13.6-77.6-19.2l-0.3,1.7v30.9
						c84.1,16.9,137.4,41.2,170.7,63.5c-28.4-9.1-66.7-16-117.6-16c-27.1,0-57.7,2-92.3,6.6v31.9l0,0.4c35.1-4.9,65.7-6.9,92.3-6.9
						c63.8,0,104.9,11.6,129.9,23.1c3.5,1.6,6.6,3.2,9.5,4.7l14.5,10.6l9.9,7.2c0.1,0.2,0.2,0.3,0.3,0.3l0.1-0.1l0.4,0.3
						c0-0.1,0.5-0.6,1.3-1.5l9.1-6.5l14.1-10.2c2.9-1.6,6.2-3.2,9.7-4.9c25.1-11.6,66.2-23.1,130-23.1c26.5,0,57,2,91.9,6.8v-32.3
						c-34.4-4.6-65-6.5-91.9-6.5C645.1,717.6,606.8,724.5,578.4,733.7z"/>
				</g>
			</g>
		</g>
		<g>
			<g>
				<path class="st50" d="M1260.7,566.5h-70l-126.1-215.2v215.2h-65.4V239.6h70L1195.3,455V239.6h65.4V566.5z"/>
				<path class="st50" d="M1581.4,533.4c-15.2,12.9-32.1,22.8-50.8,29.8s-38.1,10.4-58.4,10.4c-15.5,0-30.4-2-44.8-6
					c-14.4-4-27.8-9.7-40.2-17.1c-12.5-7.4-23.9-16.2-34.2-26.4c-10.3-10.3-19.1-21.7-26.4-34.2c-7.3-12.5-13-26-17-40.5
					c-4-14.4-6-29.4-6-44.9s2-30.4,6-44.7c4-14.3,9.7-27.7,17-40.2c7.3-12.5,16.1-23.9,26.4-34.2c10.3-10.3,21.7-19,34.2-26.3
					c12.5-7.3,25.9-13,40.2-17c14.4-4,29.3-6,44.8-6c20.2,0,39.7,3.5,58.4,10.4c18.7,6.9,35.6,16.8,50.8,29.7l-34.2,57
					c-9.9-10-21.3-17.9-34.2-23.6c-12.9-5.7-26.5-8.5-40.8-8.5c-14.3,0-27.7,2.7-40.2,8.2c-12.5,5.5-23.5,12.9-32.9,22.2
					c-9.4,9.3-16.9,20.3-22.3,32.8c-5.5,12.5-8.2,26-8.2,40.2c0,14.4,2.7,28,8.2,40.6c5.5,12.6,12.9,23.6,22.3,33.1
					c9.4,9.4,20.4,16.9,32.9,22.3c12.5,5.5,25.9,8.2,40.2,8.2c8.2,0,16.2-1,23.9-3c7.8-2,15.1-4.7,22.1-8.2v-93h63.1V533.4z"/>
				<path class="st50" d="M1612.7,337.6c0-13.5,2.6-26.2,7.8-38.1c5.2-11.9,12.2-22.2,21.1-31.1c8.9-8.9,19.3-15.9,31.1-21.1
					c11.9-5.2,24.5-7.8,38.1-7.8h150V305h-150c-4.6,0-8.8,0.8-12.8,2.5c-4,1.7-7.4,4-10.4,7c-3,3-5.3,6.4-7,10.4
					c-1.7,4-2.5,8.2-2.5,12.8s0.8,8.9,2.5,12.9c1.7,4,4,7.5,7,10.5c3,3,6.4,5.3,10.4,7c4,1.7,8.2,2.5,12.8,2.5h65.4
					c13.5,0,26.3,2.5,38.2,7.6c11.9,5.1,22.3,12.1,31.2,21c8.9,8.9,15.9,19.3,21,31.2c5.1,11.9,7.6,24.7,7.6,38.2
					c0,13.5-2.5,26.2-7.6,38.1c-5.1,11.9-12.1,22.2-21,31.1c-8.9,8.9-19.3,15.9-31.2,21.1c-11.9,5.2-24.7,7.8-38.2,7.8h-145.2v-65.4
					h145.2c4.6,0,8.8-0.8,12.8-2.5c4-1.7,7.4-4,10.4-7c3-3,5.3-6.4,7-10.4c1.7-4,2.5-8.2,2.5-12.8s-0.8-8.8-2.5-12.8
					c-1.7-4-4-7.4-7-10.4c-3-3-6.4-5.3-10.4-7c-4-1.7-8.2-2.5-12.8-2.5h-65.4c-13.5,0-26.2-2.6-38.1-7.8
					c-11.9-5.2-22.2-12.2-31.1-21.1c-8.9-8.9-15.9-19.3-21.1-31.2C1615.3,363.9,1612.7,351.1,1612.7,337.6z"/>
				<path class="st50" d="M2237.3,404.4c0,15.5-2,30.4-6,44.8c-4,14.4-9.7,27.8-17,40.3s-16.1,24-26.4,34.3
					c-10.3,10.3-21.7,19.2-34.2,26.6c-12.5,7.4-25.9,13.1-40.4,17.1c-14.4,4-29.4,6-44.9,6s-30.4-2-44.8-6
					c-14.4-4-27.8-9.7-40.4-17.1c-12.5-7.4-24-16.2-34.3-26.6c-10.3-10.3-19.2-21.8-26.6-34.3c-7.4-12.5-13.1-26-17.1-40.3
					c-4-14.4-6-29.3-6-44.8s2-30.5,6-44.9c4-14.4,9.7-27.9,17.1-40.3c7.4-12.5,16.2-23.9,26.6-34.2c10.3-10.3,21.8-19.1,34.3-26.4
					c12.5-7.3,26-13,40.4-17c14.4-4,29.3-6,44.8-6s30.5,2,44.9,6c14.4,4,27.9,9.7,40.4,17c12.5,7.3,23.9,16.1,34.2,26.4
					c10.3,10.3,19.1,21.7,26.4,34.2c7.3,12.5,13,25.9,17,40.3C2235.3,373.9,2237.3,388.9,2237.3,404.4z M2172.3,404.4
					c0-14.3-2.7-27.8-8.2-40.5c-5.5-12.7-12.9-23.7-22.2-33.1s-20.4-16.8-33.1-22.2c-12.7-5.5-26.2-8.2-40.5-8.2
					c-14.4,0-28,2.7-40.6,8.2c-12.6,5.5-23.6,12.9-33.1,22.2c-9.4,9.3-16.9,20.4-22.3,33.1c-5.5,12.7-8.2,26.2-8.2,40.5
					c0,14.3,2.7,27.7,8.2,40.2c5.5,12.5,12.9,23.5,22.3,32.9c9.4,9.4,20.4,16.9,33.1,22.3c12.6,5.5,26.1,8.2,40.6,8.2
					c14.3,0,27.8-2.7,40.5-8.2c12.7-5.5,23.7-12.9,33.1-22.3c9.3-9.4,16.8-20.4,22.2-32.9C2169.6,432.1,2172.3,418.7,2172.3,404.4z"
					/>
				<path class="st50" d="M2407.1,566.5h-65.2V305h-98.3v-65.4h261.5V305h-98V566.5z"/>
				<path class="st50" d="M2605.2,566.5h-65.4V239.6h65.4V566.5z"/>
			</g>
		</g>
	</g>
</g>
<g id="Layer_2">
</g>
</svg>
