<?xml version="1.0" encoding="utf-8"?>
<!-- Generator: Adobe Illustrator 28.1.0, SVG Export Plug-In . SVG Version: 6.00 Build 0)  -->
<svg version="1.1" xmlns="http://www.w3.org/2000/svg" xmlns:xlink="http://www.w3.org/1999/xlink" x="0px" y="0px"
	 viewBox="0 0 1515.1 1515.1" style="enable-background:new 0 0 1515.1 1515.1;" xml:space="preserve">
<style type="text/css">
	.st0{display:none;}
	.st1{display:inline;}
	.st2{fill:none;stroke:#000000;stroke-width:0.9157;stroke-miterlimit:10;}
	.st3{fill:#221F20;}
	.st4{opacity:0.6;}
	.st5{opacity:0.3;}
	.st6{opacity:0.3;fill:#221F20;}
	.st7{fill:#FFFFFF;}
	.st8{opacity:0.3;fill:#FFFFFF;}
	.st9{fill:url(#SVGID_1_);}
	.st10{fill:none;}
	.st11{fill:url(#SVGID_00000001661955561106910980000007101818095105547192_);}
	.st12{fill:url(#SVGID_00000067918500609690934700000012082738445458970801_);}
	.st13{fill:url(#SVGID_00000140712179609532419540000010435301473676376247_);}
	.st14{fill:url(#SVGID_00000003092783839072684120000005030109195710052782_);}
	.st15{fill:url(#SVGID_00000149340728344407790250000018055536656503577231_);}
	.st16{fill:url(#SVGID_00000045587586566499662750000004373180925943315126_);}
	.st17{fill:url(#SVGID_00000119807370787414942920000015947130727986546061_);}
	.st18{fill:url(#SVGID_00000181083174328983090820000016145130169092653981_);}
	.st19{fill:url(#SVGID_00000088816597695299572020000015436882486650589579_);}
	.st20{fill:url(#SVGID_00000071553097142694381120000003139988589125135257_);}
	.st21{fill:url(#SVGID_00000091725579045538220910000012390314993918313917_);}
	.st22{fill:url(#SVGID_00000141446825630819991750000017029614699744944028_);}
	.st23{fill:url(#SVGID_00000062914035292140372860000002112653084977980086_);}
	.st24{fill:url(#SVGID_00000037668331476820895070000018252594896265951378_);}
	.st25{fill:url(#SVGID_00000156563468308547877460000007368400911126354328_);}
	.st26{fill:url(#SVGID_00000102505091275443447220000014987289327373411996_);}
	.st27{fill:url(#SVGID_00000123409988412532904630000012506311963530977435_);}
	.st28{fill:url(#SVGID_00000166661409540823501270000002601204317767876794_);}
	.st29{fill:url(#SVGID_00000179611295763021990040000005966865892821928069_);}
	.st30{fill:url(#SVGID_00000047059709209280067450000014927495833205508992_);}
	.st31{fill:url(#SVGID_00000064350078856647083970000003656840778465244834_);}
	.st32{fill:url(#SVGID_00000085229794058424976530000001457079492867038383_);}
	.st33{fill:url(#SVGID_00000045578849441212595520000012440453949811818632_);}
	.st34{fill:url(#SVGID_00000057834102439567261120000013320499188440845750_);}
	.st35{fill:url(#SVGID_00000025442836470511643460000005249891500932108198_);}
	.st36{fill:url(#SVGID_00000088848243612169825940000003994438940649922462_);}
	.st37{fill:url(#SVGID_00000000933982015602325940000002052006821249850023_);}
	.st38{fill:url(#SVGID_00000025401009283675099920000006643298034268668812_);}
	.st39{fill:url(#SVGID_00000021837692108050458280000004732160678508915076_);}
	.st40{fill:url(#SVGID_00000149358728615942181050000017429283094176426667_);}
	.st41{fill:url(#SVGID_00000181057001083886748880000009308207361708929196_);}
	.st42{fill:url(#SVGID_00000157292474433882760130000000658223956019514801_);}
	.st43{fill:url(#SVGID_00000113318120562405295780000012773760761053019565_);}
	.st44{fill:url(#SVGID_00000052818013211540515160000010069304273001879477_);}
	.st45{fill:url(#SVGID_00000142859143186358247510000018105282179949355941_);}
	.st46{fill:url(#SVGID_00000170980506711404497760000009387848460679455114_);}
	.st47{fill:url(#SVGID_00000027570737408751545830000005772816395726946953_);}
	.st48{fill:url(#SVGID_00000031918538890415995620000001453513196163865774_);}
	.st49{fill:url(#SVGID_00000160175679323838671000000007281219037609968533_);}
	.st50{fill:#172B43;}
	.st51{fill:url(#SVGID_00000083806111184485068310000012745892644598281373_);}
	.st52{fill:url(#SVGID_00000134933039393848886580000015120082519697809081_);}
	.st53{fill:url(#SVGID_00000005246111854601630270000015662111212438460588_);}
	.st54{fill:url(#SVGID_00000000193603480456208670000018025815227476265601_);}
	.st55{fill:url(#SVGID_00000051353962962260290920000000028017222697839750_);}
	.st56{fill:url(#SVGID_00000170246197165075499460000014043046482718824876_);}
	.st57{fill:url(#SVGID_00000162329834841252547970000014717843057205784222_);}
	.st58{fill:url(#SVGID_00000049200087524359327600000016913158185490600607_);}
	.st59{fill:url(#SVGID_00000110438553423621274510000008264802240002271898_);}
	.st60{fill:url(#SVGID_00000155868809129449172180000007431789740528853650_);}
	.st61{fill:url(#SVGID_00000096058731635321470270000011006217733797391026_);}
	.st62{fill:url(#SVGID_00000137817965584680952880000012305235339694564994_);}
	.st63{fill:url(#SVGID_00000023254465191613243610000016114811571470242434_);}
	.st64{fill:url(#SVGID_00000138570779591188232980000011029291444854215865_);}
	.st65{fill:url(#SVGID_00000018915296721749402340000016974891655516508835_);}
	.st66{fill:url(#SVGID_00000005963385884162414150000013835877616168779661_);}
	.st67{fill:url(#SVGID_00000139289161200201937650000012296392317464108198_);}
	.st68{fill:url(#SVGID_00000019649273175106623960000003300714075671539120_);}
	.st69{fill:url(#SVGID_00000071523148080801000730000012359015539687554983_);}
	.st70{fill:url(#SVGID_00000049937575090401086770000015117825363617667518_);}
	.st71{fill:url(#SVGID_00000019643310950990484960000011571102715656706692_);}
	.st72{fill:url(#SVGID_00000121985971580060576140000006890029121067594673_);}
	.st73{fill:url(#SVGID_00000033363228535188404540000005744937471445102215_);}
	.st74{fill:url(#SVGID_00000021826662439712447170000012583327382042053279_);}
	.st75{fill:url(#SVGID_00000149369356622270759170000004012011826879207097_);}
	.st76{fill:url(#SVGID_00000070099601418110868610000005930518421846314371_);}
	.st77{fill:url(#SVGID_00000054267932297558231060000010193928426291310253_);}
	.st78{fill:url(#SVGID_00000043439657162004498640000017303681397072948123_);}
	.st79{fill:url(#SVGID_00000092418117516147339130000012065962529849568395_);}
	.st80{fill:url(#SVGID_00000070801171875041590510000013008340415471792046_);}
	.st81{fill:url(#SVGID_00000093139825652106783700000013025387866086868153_);}
	.st82{fill:url(#SVGID_00000069369066620911101810000012684691457242193822_);}
	.st83{fill:url(#SVGID_00000165216851353587061810000003785743057401968546_);}
	.st84{fill:url(#SVGID_00000048462104607445173090000005444895437329513857_);}
	.st85{fill:url(#SVGID_00000062890995489634458180000010844362607851752087_);}
	.st86{fill:url(#SVGID_00000110457787825781705800000009509252685413777037_);}
	.st87{fill:url(#SVGID_00000038415484335135420140000011470671507981650867_);}
	.st88{fill:url(#SVGID_00000036224688240714146620000003562723033333066664_);}
	.st89{fill:url(#SVGID_00000026872690469754811920000015923421914241523124_);}
	.st90{fill:url(#SVGID_00000080188041545096052290000002549991068888014998_);}
	.st91{fill:url(#SVGID_00000129186640004896772100000007670719118875903129_);}
	.st92{fill:url(#SVGID_00000160176925741905769490000004030913046991836065_);}
	.st93{fill:url(#SVGID_00000121279760838715054150000005599569970947381943_);}
	.st94{fill:url(#SVGID_00000074416337495140195710000000065209762550218377_);}
	.st95{fill:url(#SVGID_00000088816871872691027940000000520572866995182221_);}
	.st96{fill:url(#SVGID_00000074435383619582039820000000273350602684285869_);}
	.st97{fill:url(#SVGID_00000090257457922059001970000009226185144690861205_);}
	.st98{fill:url(#SVGID_00000082360240267681305520000011382875261677696664_);}
	.st99{fill:url(#SVGID_00000152969041174722540660000013796236103647320767_);}
	.st100{fill:url(#SVGID_00000139270624603003618020000017973656273425684387_);}
	.st101{fill:url(#SVGID_00000005261184995793149880000016584546936614759563_);}
	.st102{fill:url(#SVGID_00000134207723767757317810000000861441101229503371_);}
	.st103{fill:url(#SVGID_00000138544755189612017080000003251642545551718841_);}
	.st104{fill:url(#SVGID_00000012451719613839054590000004047433898063089848_);}
	.st105{fill:url(#SVGID_00000127763004750575968430000011756764646705621649_);}
	.st106{fill:url(#SVGID_00000151527552289004720970000009795777999176110226_);}
	.st107{fill:url(#SVGID_00000127760994777418802070000014201282570288872833_);}
	.st108{fill:url(#SVGID_00000031891821101604535620000014098989109103471008_);}
	.st109{fill:url(#SVGID_00000148620001582593959630000000570805331050429338_);}
	.st110{fill:url(#SVGID_00000145043847346703614310000007355868752861417897_);}
	.st111{fill:url(#SVGID_00000051374100712534223650000003556514647476734371_);}
	.st112{fill:url(#SVGID_00000047039942823480991770000018039155348980153001_);}
	.st113{fill:url(#SVGID_00000178194496498322240450000002442931049703819145_);}
	.st114{fill:url(#SVGID_00000024723798520343345480000017228915832945092263_);}
	.st115{fill:url(#SVGID_00000145763955344569156850000011444368296454746789_);}
	.st116{fill:url(#SVGID_00000058576685597333071040000007746776248115285151_);}
	.st117{fill:url(#SVGID_00000164493253725681324050000006904429266186072464_);}
	.st118{fill:url(#SVGID_00000137830985827738293640000004031456149369496502_);}
	.st119{fill:url(#SVGID_00000162321974461693280900000007821389308798859933_);}
	.st120{fill:url(#SVGID_00000059995318808527518000000012699204832158345612_);}
	.st121{fill:url(#SVGID_00000105398254570811942540000015776562613765361082_);}
	.st122{fill:url(#SVGID_00000168075545466167576780000016032807782373844883_);}
	.st123{fill:url(#SVGID_00000047033879511574892870000010951569581753689745_);}
	.st124{fill:url(#SVGID_00000006680085889278496590000014189338934575194297_);}
	.st125{fill:url(#SVGID_00000106830190779733860130000008965135215588572813_);}
	.st126{fill:url(#SVGID_00000008830608878495720100000013089908139202701705_);}
	.st127{fill:url(#SVGID_00000006689143467003095380000008730264569000439970_);}
	.st128{fill:url(#SVGID_00000170985610833077933260000002079359357342533792_);}
	.st129{fill:url(#SVGID_00000165920851315486498780000016675250611115033489_);}
	.st130{fill:url(#SVGID_00000063632652614147295860000003188541161295136926_);}
	.st131{fill:url(#SVGID_00000139267273440973026200000016899162505636613012_);}
	.st132{fill:url(#SVGID_00000027606110061670856350000011680431677953022083_);}
	.st133{fill:url(#SVGID_00000092435633092572738000000015879217581470431904_);}
	.st134{fill:url(#SVGID_00000118356317166870964610000001462950947903721658_);}
	.st135{fill:url(#SVGID_00000145057012396064027890000010103143075247272855_);}
	.st136{fill:url(#SVGID_00000182507962684846341420000008034464312326413225_);}
	.st137{fill:url(#SVGID_00000036237524167497775640000007186213672023376544_);}
	.st138{fill:url(#SVGID_00000054256270044491694810000005022280675436934064_);}
	.st139{fill:url(#SVGID_00000005951255812305779260000005845146610367485832_);}
	.st140{fill:url(#SVGID_00000042733466207096319400000010114799474245671096_);}
	.st141{fill:url(#SVGID_00000152247440568892804210000010273385521007757725_);}
	.st142{fill:url(#SVGID_00000067217115183898811280000000679481890168597947_);}
	.st143{fill:url(#SVGID_00000113320818828606744800000015421983768745377446_);}
	.st144{fill:url(#SVGID_00000026866703674657624960000003671061382034392230_);}
	.st145{fill:url(#SVGID_00000012469540317639300510000008241639705807189181_);}
	.st146{fill:url(#SVGID_00000021832551120182523220000008932201412438210190_);}
	.st147{fill:url(#SVGID_00000130610917295287346320000010235172018065994666_);}
	.st148{fill:url(#SVGID_00000146467264268116947250000006940049436049431736_);}
	.st149{fill:url(#SVGID_00000061439398652515784270000006111213054060624805_);}
	.st150{fill:url(#SVGID_00000151505591405813269280000001506054578122260377_);}
	.st151{fill:url(#SVGID_00000081607805876901858760000012556946461846864062_);}
	.st152{fill:url(#SVGID_00000117639482040248287130000011228922263443435154_);}
	.st153{fill:url(#SVGID_00000164492983937996092810000003987673525281405354_);}
	.st154{fill:url(#SVGID_00000029026183110942514990000001585612353132141240_);}
	.st155{fill:url(#SVGID_00000173852589055985753610000016495591424660785071_);}
	.st156{fill:url(#SVGID_00000032639315806102063070000003905634625835100552_);}
	.st157{fill:url(#SVGID_00000122692089297494430780000005434527502497380759_);}
	.st158{fill:url(#SVGID_00000176020325556679544540000001618831169756104067_);}
	.st159{fill:url(#SVGID_00000116916192934365725500000008816269888735619756_);}
	.st160{fill:url(#SVGID_00000129917769126654220690000004236379651630402222_);}
	.st161{fill:url(#SVGID_00000039117606021867148580000003989401899473751977_);}
	.st162{fill:url(#SVGID_00000053515998554027197980000016044151927624945041_);}
	.st163{fill:url(#SVGID_00000102534865959060408740000009132117529290473891_);}
	.st164{fill:url(#SVGID_00000141419386534459695440000010755046916959179167_);}
	.st165{fill:url(#SVGID_00000151508759282530468820000001255807331855644045_);}
	.st166{fill:url(#SVGID_00000008858072348996988080000013166455665272389562_);}
	.st167{fill:url(#SVGID_00000106832639236953336230000011904057370759224468_);}
	.st168{fill:url(#SVGID_00000170238793792661932230000007112488938318526625_);}
	.st169{fill:url(#SVGID_00000121965443643278117490000002166342349422889652_);}
	.st170{fill:url(#SVGID_00000067933906960089158600000000394671255597459361_);}
</style>
<g id="Layer_1">
	<g>
		<linearGradient id="SVGID_1_" gradientUnits="userSpaceOnUse" x1="187.4928" y1="494.1308" x2="924.2153" y2="494.1308">
			<stop  offset="4.753638e-04" style="stop-color:#46978F"/>
			<stop  offset="1" style="stop-color:#7CDBC7"/>
		</linearGradient>
		<circle class="st9" cx="515.4" cy="494.1" r="177.3"/>
		<g>
			<g>
				<path class="st7" d="M531.9,613.1c-5.5,0-10,4.5-10,10c0,5.5,4.5,10,10,10c5.5,0,10-4.5,10-10
					C541.9,617.6,537.4,613.1,531.9,613.1z"/>
			</g>
			<g>
				<path class="st7" d="M476.5,417h-3.6v-10h0c-0.1-7-5.8-12.7-12.8-12.7s-12.8,5.7-12.8,12.7h0v10h-3.6c-0.8,0-1.4,0.6-1.4,1.4
					v19.9c0,0.8,0.6,1.4,1.4,1.4h32.8c0.8,0,1.4-0.6,1.4-1.4v-19.9C477.9,417.6,477.3,417,476.5,417z M452.3,407
					C452.3,407,452.3,407,452.3,407c0-4.2,3.6-7.7,7.8-7.7s7.8,3.5,7.8,7.8c0,0,0,0,0,0v10h-15.7V407z M462.8,432h-5.4l1.7-5
					c-1.1-0.4-1.9-1.4-1.9-2.7c0-1.6,1.3-2.8,2.8-2.8s2.8,1.3,2.8,2.8c0,1.2-0.8,2.3-1.9,2.7L462.8,432z"/>
			</g>
		</g>
		<g class="st4">
			<g>
				<path class="st7" d="M596.2,577.5c0.2,4,3.5,7.3,7.6,7.3c4.2,0,7.7-3.4,7.7-7.7c0-4.2-3.4-7.7-7.7-7.7c-3.5,0-6.5,2.4-7.4,5.6
					h-98c-0.6-5.1-4.9-9.1-10.2-9.1c-5.7,0-10.3,4.6-10.3,10.3c0,5.7,4.6,10.3,10.3,10.3c5.3,0,9.6-4,10.2-9.1H596.2z"/>
				<path class="st7" d="M377.6,431.2c-4.2,0-7.7,3.4-7.7,7.7c0,4.2,3.4,7.7,7.7,7.7c4.2,0,7.7-3.4,7.7-7.7
					C385.3,434.6,381.9,431.2,377.6,431.2z"/>
			</g>
			<g>
				<path class="st7" d="M553,563.5h-2v-5.6h0c0-4-3.2-7.2-7.2-7.2c-4,0-7.2,3.2-7.2,7.2h0v5.6h-2c-0.4,0-0.8,0.4-0.8,0.8v11.2
					c0,0.4,0.4,0.8,0.8,0.8H553c0.4,0,0.8-0.4,0.8-0.8v-11.2C553.8,563.9,553.4,563.5,553,563.5z M539.4,557.9
					C539.4,557.9,539.4,557.9,539.4,557.9c0-2.4,2-4.4,4.4-4.4c2.4,0,4.4,2,4.4,4.4c0,0,0,0,0,0v5.6h-8.8V557.9z M545.3,571.9h-3
					l1-2.8c-0.6-0.2-1.1-0.8-1.1-1.5c0-0.9,0.7-1.6,1.6-1.6c0.9,0,1.6,0.7,1.6,1.6c0,0.7-0.4,1.3-1.1,1.5L545.3,571.9z"/>
				<path class="st7" d="M574.3,396.6h-2.7V389h0c0-5.4-4.4-9.7-9.8-9.7c-5.4,0-9.8,4.4-9.8,9.7h0v7.6h-2.7c-0.6,0-1.1,0.5-1.1,1.1
					V413c0,0.6,0.5,1.1,1.1,1.1h25.1c0.6,0,1.1-0.5,1.1-1.1v-15.3C575.4,397.1,574.9,396.6,574.3,396.6z M555.7,389
					C555.7,389,555.7,389,555.7,389c0-3.3,2.7-5.9,6-5.9c3.3,0,6,2.7,6,6c0,0,0,0,0,0v7.6h-12V389z M563.8,408.1h-4.1l1.3-3.8
					c-0.8-0.3-1.4-1.1-1.4-2c0-1.2,1-2.2,2.2-2.2c1.2,0,2.2,1,2.2,2.2c0,0.9-0.6,1.7-1.4,2L563.8,408.1z"/>
			</g>
		</g>
		<g class="st5">
			<path class="st10" d="M623.6,413.9v-60.2c-29.9-23.1-67.5-36.8-108.2-36.8c-1.3,0-2.6,0-3.9,0v97H623.6z"/>
			<path class="st10" d="M511.5,416.3v91.5H447v105.3c3.7,0.6,6.4,3.7,6.4,7.5c0,4.2-3.4,7.7-7.7,7.7c-4.2,0-7.7-3.4-7.7-7.7
				c0-3.8,2.8-7,6.4-7.5V505.4h64.5v-89.1h-2.9v-2.4h2.9V317c-95,3.3-171,81.4-171,177.2c0,97.9,79.4,177.3,177.3,177.3
				c97.9,0,177.3-79.4,177.3-177.3c0-56.1-26-106.1-66.7-138.6v60.7H511.5z"/>
			<path class="st7" d="M623.6,413.9H511.5v-97c-0.8,0-1.6,0-2.4,0.1v96.9h-2.9v2.4h2.9v89.1h-64.5v107.7c-3.6,0.6-6.4,3.7-6.4,7.5
				c0,4.2,3.4,7.7,7.7,7.7c4.2,0,7.7-3.4,7.7-7.7c0-3.8-2.8-7-6.4-7.5V507.8h64.5v-91.5H626v-60.7c-0.8-0.6-1.6-1.3-2.4-1.9V413.9z"
				/>
		</g>
		<g>
			<path class="st8" d="M565.7,593.6v-96.9h82.9V402H667c-0.6-1.1-1.3-2.1-2-3.2h-19.6v94.7h-79.8v-169h-3.2v169h-63.4v-56.8h-98.4
				c-0.1-28-0.2-55.7-0.2-77.7c-1.1,0.9-2.1,1.8-3.2,2.8c-0.1,21.7,0,48.3,0.1,74.9h-49.9c-0.4,1-0.7,2.1-1,3.2h50.9
				c0.2,41.2,0.6,82.1,0.8,104.2h-53c0.3,1.1,0.6,2.1,1,3.2h55.2l0-1.6c-0.2-24.7-0.5-65.4-0.7-105.8h95.2v56.8h66.6v93.7H440.7V655
				c1,0.5,2.1,1,3.2,1.4v-62.8H565.7z"/>
			<path class="st8" d="M627.3,590.5c-0.8-6.7-6.4-11.8-13.3-11.8c-7.4,0-13.4,6-13.4,13.4c0,7.4,6,13.4,13.4,13.4
				c6.9,0,12.5-5.2,13.3-11.8h34.8c0.7-1,1.4-2.1,2.1-3.2H627.3z"/>
		</g>
		<g>
			<path class="st10" d="M641.3,607.4V496.9h-72.1c-0.6,3.7-3.7,6.4-7.5,6.4c-4.2,0-7.7-3.4-7.7-7.7c0-4.2,3.4-7.7,7.7-7.7
				c3.8,0,7,2.8,7.5,6.4h74.5v115.3h-53.2v45c60.4-28.3,102.2-89.6,102.2-160.6c0-97.9-79.4-177.3-177.3-177.3
				c-97.9,0-177.3,79.4-177.3,177.3c0,16.6,2.3,32.6,6.5,47.8V526h31.8v-79.5h1.2h1.2v81.9h-31.8v21.4
				c23.4,70.6,89.9,121.6,168.4,121.6c5,0,10-0.2,14.9-0.6v-37.7h1.6h1.6v37.4c19.3-2,37.7-7,54.7-14.6v-48.5H641.3z"/>
			<path class="st10" d="M531.9,633.1h-1.6v37.7c1.1-0.1,2.1-0.2,3.2-0.3v-37.4H531.9z"/>
			<path class="st10" d="M378.9,528.4v-81.9h-1.2h-1.2V526h-31.8v15.9c0.7,2.7,1.6,5.3,2.4,7.9v-21.4H378.9z"/>
			<path class="st10" d="M590.5,609.8h53.2V494.5h-74.5c-0.6-3.7-3.7-6.4-7.5-6.4c-4.2,0-7.7,3.4-7.7,7.7c0,4.2,3.4,7.7,7.7,7.7
				c3.8,0,7-2.8,7.5-6.4h72.1v110.5h-53.2v48.5c0.8-0.4,1.6-0.7,2.4-1.1V609.8z"/>
		</g>
		<g>
			
				<linearGradient id="SVGID_00000111175111275841952880000017132528918420948411_" gradientUnits="userSpaceOnUse" x1="548.4621" y1="564.8765" x2="1037.396" y2="564.8765">
				<stop  offset="4.753638e-04" style="stop-color:#46978F"/>
				<stop  offset="1" style="stop-color:#7CDBC7"/>
			</linearGradient>
			<path style="fill:url(#SVGID_00000111175111275841952880000017132528918420948411_);" d="M952.3,563.7
				c-0.7,10.2,7.4,18.8,17.5,18.8h87.3c9.4,0,17.5-7.1,18.1-16.4c0.7-10.2-7.4-18.8-17.5-18.8h-87.3
				C961.1,547.3,952.9,554.4,952.3,563.7z"/>
			
				<linearGradient id="SVGID_00000183929918763484114070000011775214767813752505_" gradientUnits="userSpaceOnUse" x1="548.4621" y1="494.1308" x2="1037.396" y2="494.1308">
				<stop  offset="4.753638e-04" style="stop-color:#46978F"/>
				<stop  offset="1" style="stop-color:#7CDBC7"/>
			</linearGradient>
			<path style="fill:url(#SVGID_00000183929918763484114070000011775214767813752505_);" d="M1183.8,495.3
				c0.7-10.2-7.4-18.8-17.5-18.8h-121.1c-9.4,0-17.5,7.1-18.1,16.4c-0.7,10.2,7.4,18.8,17.5,18.8h121.1
				C1175.1,511.7,1183.2,504.6,1183.8,495.3z"/>
			
				<linearGradient id="SVGID_00000052063232844029423990000015999666900433403011_" gradientUnits="userSpaceOnUse" x1="548.4621" y1="564.8765" x2="1037.396" y2="564.8765">
				<stop  offset="4.753638e-04" style="stop-color:#46978F"/>
				<stop  offset="1" style="stop-color:#7CDBC7"/>
			</linearGradient>
			<path style="fill:url(#SVGID_00000052063232844029423990000015999666900433403011_);" d="M1117.2,547.3
				c-9.4,0-17.5,7.1-18.1,16.4c-0.7,10.2,7.4,18.8,17.5,18.8h40c9.4,0,17.5-7.1,18.1-16.4c0.7-10.2-7.4-18.8-17.5-18.8H1117.2z"/>
			
				<linearGradient id="SVGID_00000132809552218318181710000003625449991617510830_" gradientUnits="userSpaceOnUse" x1="548.4621" y1="423.3853" x2="1037.396" y2="423.3853">
				<stop  offset="4.753638e-04" style="stop-color:#46978F"/>
				<stop  offset="1" style="stop-color:#7CDBC7"/>
			</linearGradient>
			<path style="fill:url(#SVGID_00000132809552218318181710000003625449991617510830_);" d="M1013.8,405.8h-40
				c-9.4,0-17.5,7.1-18.1,16.4c-0.7,10.2,7.4,18.8,17.5,18.8h40c9.4,0,17.5-7.1,18.1-16.4C1032,414.3,1023.9,405.8,1013.8,405.8z"/>
			
				<linearGradient id="SVGID_00000163760111589024347650000016555887313537281156_" gradientUnits="userSpaceOnUse" x1="548.4621" y1="419.9131" x2="1037.396" y2="419.9131">
				<stop  offset="4.753638e-04" style="stop-color:#46978F"/>
				<stop  offset="1" style="stop-color:#7CDBC7"/>
			</linearGradient>
			<path style="fill:url(#SVGID_00000163760111589024347650000016555887313537281156_);" d="M721.5,424.6
				c0.5-8.1-4.5-15.2-11.7-17.7c3.5,8.5,6.4,17.2,8.7,26.2C720.3,430.6,721.3,427.7,721.5,424.6z"/>
			
				<linearGradient id="SVGID_00000109736143279344770570000009947808005210311835_" gradientUnits="userSpaceOnUse" x1="548.4621" y1="918.6054" x2="1037.396" y2="918.6054">
				<stop  offset="4.753638e-04" style="stop-color:#46978F"/>
				<stop  offset="1" style="stop-color:#7CDBC7"/>
			</linearGradient>
			<path style="fill:url(#SVGID_00000109736143279344770570000009947808005210311835_);" d="M939.5,901c-9.7,0-17.6,7.9-17.6,17.6
				c0,9.7,7.9,17.6,17.6,17.6c9.7,0,17.6-7.9,17.6-17.6C957.1,908.9,949.2,901,939.5,901z"/>
			
				<linearGradient id="SVGID_00000062888523749810332540000016624873451984625289_" gradientUnits="userSpaceOnUse" x1="548.4621" y1="670.9949" x2="1037.396" y2="670.9949">
				<stop  offset="4.753638e-04" style="stop-color:#46978F"/>
				<stop  offset="1" style="stop-color:#7CDBC7"/>
			</linearGradient>
			<path style="fill:url(#SVGID_00000062888523749810332540000016624873451984625289_);" d="M1072,688.8h-29.4
				c-9.4,0-17.5,7.1-18.1,16.4c-0.7,10.2,7.4,18.8,17.5,18.8h80.8c9.4,0,17.5-7.1,18.1-16.4c0.7-10.2-7.4-18.8-17.5-18.8h4.7
				c-9.7,0-17.6-7.9-17.6-17.6v-0.7c0-9.5,7.7-17.2,17.2-17.2c0.2,0,14.9,0,15.1,0c9.1-0.3,17-7.3,17.6-16.4
				c0.7-10.2-7.4-18.8-17.5-18.8h-126.1c-9.4,0-17.5,7.1-18.1,16.4c-0.7,10.2,7.4,18.8,17.5,18.8h55.8c9.7,0,17.6,7.9,17.6,17.6v0.4
				C1089.6,680.9,1081.8,688.8,1072,688.8z"/>
			
				<linearGradient id="SVGID_00000062912064728132537830000017271323805196641454_" gradientUnits="userSpaceOnUse" x1="548.4621" y1="777.1138" x2="1037.396" y2="777.1138">
				<stop  offset="4.753638e-04" style="stop-color:#46978F"/>
				<stop  offset="1" style="stop-color:#7CDBC7"/>
			</linearGradient>
			<path style="fill:url(#SVGID_00000062912064728132537830000017271323805196641454_);" d="M1071.3,759.5
				c-9.7,0-17.6,7.9-17.6,17.6c0,9.7,7.9,17.6,17.6,17.6h24.8c9.7,0,17.6-7.9,17.6-17.6c0-9.7-7.9-17.6-17.6-17.6H1071.3z"/>
			
				<linearGradient id="SVGID_00000173871098651554276070000003816609462884170168_" gradientUnits="userSpaceOnUse" x1="548.4621" y1="352.6371" x2="1037.396" y2="352.6371">
				<stop  offset="4.753638e-04" style="stop-color:#46978F"/>
				<stop  offset="1" style="stop-color:#7CDBC7"/>
			</linearGradient>
			<path style="fill:url(#SVGID_00000173871098651554276070000003816609462884170168_);" d="M832.3,335.1c-9.7,0-17.6,7.9-17.6,17.6
				c0,9.7,7.9,17.6,17.6,17.6h13.2c9.7,0,17.6-7.9,17.6-17.6c0-9.7-7.9-17.6-17.6-17.6H832.3z"/>
			
				<linearGradient id="SVGID_00000083084756803028934170000007153556600347481774_" gradientUnits="userSpaceOnUse" x1="548.4621" y1="600.0624" x2="1037.396" y2="600.0624">
				<stop  offset="4.753638e-04" style="stop-color:#46978F"/>
				<stop  offset="1" style="stop-color:#7CDBC7"/>
			</linearGradient>
			<path style="fill:url(#SVGID_00000083084756803028934170000007153556600347481774_);" d="M864.4,606.1c3.4-3.4,3.4-8.8,0-12.2
				c-3.4-3.4-8.8-3.4-12.2,0c-3.4,3.4-3.4,8.8,0,12.2C855.6,609.5,861,609.5,864.4,606.1z"/>
			
				<linearGradient id="SVGID_00000119797840858110632640000017313558004476638369_" gradientUnits="userSpaceOnUse" x1="548.4621" y1="741.7408" x2="1037.396" y2="741.7408">
				<stop  offset="4.753638e-04" style="stop-color:#46978F"/>
				<stop  offset="1" style="stop-color:#7CDBC7"/>
			</linearGradient>
			<path style="fill:url(#SVGID_00000119797840858110632640000017313558004476638369_);" d="M852.5,748.2c3.6-3.6,3.6-9.4,0-13
				c-3.6-3.6-9.4-3.6-13,0c-3.6,3.6-3.6,9.4,0,13C843.1,751.8,848.9,751.8,852.5,748.2z"/>
			
				<linearGradient id="SVGID_00000120539873352415445300000016035909594383483068_" gradientUnits="userSpaceOnUse" x1="548.4621" y1="671.2" x2="1037.396" y2="671.2">
				<stop  offset="4.753638e-04" style="stop-color:#46978F"/>
				<stop  offset="1" style="stop-color:#7CDBC7"/>
			</linearGradient>
			<path style="fill:url(#SVGID_00000120539873352415445300000016035909594383483068_);" d="M810.1,681.2c5.5-5.5,5.5-14.5,0-20
				c-5.5-5.5-14.5-5.5-20,0c-5.5,5.5-5.5,14.5,0,20C795.6,686.8,804.6,686.8,810.1,681.2z"/>
			
				<linearGradient id="SVGID_00000168084546695692925600000016205114266051677625_" gradientUnits="userSpaceOnUse" x1="548.4621" y1="777.1135" x2="1037.396" y2="777.1135">
				<stop  offset="4.753638e-04" style="stop-color:#46978F"/>
				<stop  offset="1" style="stop-color:#7CDBC7"/>
			</linearGradient>
			<path style="fill:url(#SVGID_00000168084546695692925600000016205114266051677625_);" d="M700.8,777.1c0-9.7-7.9-17.6-17.6-17.6
				h-49c0,0,0,0,0,0h-61.1c-9.2,0-17.6,6.6-18.5,15.8c-1.1,10.5,7.2,19.4,17.5,19.4h111.2C692.9,794.7,700.8,786.8,700.8,777.1z"/>
			
				<linearGradient id="SVGID_00000011740181175111658080000016199117448933137063_" gradientUnits="userSpaceOnUse" x1="548.4621" y1="1060.099" x2="1037.396" y2="1060.099">
				<stop  offset="4.753638e-04" style="stop-color:#46978F"/>
				<stop  offset="1" style="stop-color:#7CDBC7"/>
			</linearGradient>
			<path style="fill:url(#SVGID_00000011740181175111658080000016199117448933137063_);" d="M839.8,1077.7c9.7,0,17.6-7.9,17.6-17.6
				c0-9.7-7.9-17.6-17.6-17.6H838c-9.7,0-17.6,7.9-17.6,17.6c0,9.7,7.9,17.6,17.6,17.6H839.8z"/>
			
				<linearGradient id="SVGID_00000040573243169205366260000012183311914734886786_" gradientUnits="userSpaceOnUse" x1="548.4621" y1="458.7582" x2="1037.396" y2="458.7582">
				<stop  offset="4.753638e-04" style="stop-color:#46978F"/>
				<stop  offset="1" style="stop-color:#7CDBC7"/>
			</linearGradient>
			<path style="fill:url(#SVGID_00000040573243169205366260000012183311914734886786_);" d="M724,511.7h28.5H986
				c9.2,0,17.6-6.6,18.5-15.8c1.1-10.5-7.2-19.4-17.5-19.4h-81.5c-9.7,0-17.6-7.9-17.6-17.6v-0.4c0-9.7,7.9-17.6,17.6-17.6h9.8
				c9.2,0,17.6-6.6,18.5-15.8c1.1-10.5-7.2-19.4-17.5-19.4H762.6c-9.2,0-17.6,6.6-18.5,15.8c-1.1,10.5,7.2,19.4,17.5,19.4h87.7
				c9.7,0,17.6,7.9,17.6,17.6v0.4c0,9.7-7.9,17.6-17.6,17.6h-124C725.9,488.4,725.4,500.2,724,511.7z"/>
			
				<linearGradient id="SVGID_00000074421151683675264300000007414976715738699426_" gradientUnits="userSpaceOnUse" x1="548.4621" y1="847.8596" x2="1037.396" y2="847.8596">
				<stop  offset="4.753638e-04" style="stop-color:#46978F"/>
				<stop  offset="1" style="stop-color:#7CDBC7"/>
			</linearGradient>
			<path style="fill:url(#SVGID_00000074421151683675264300000007414976715738699426_);" d="M1004.6,847.9c0,9.7,7.9,17.6,17.6,17.6
				h44.4c9.7,0,17.6-7.9,17.6-17.6c0-9.7-7.9-17.6-17.6-17.6h-44.4C1012.5,830.3,1004.6,838.1,1004.6,847.9z"/>
			
				<linearGradient id="SVGID_00000077306780579041380320000008695562990429444014_" gradientUnits="userSpaceOnUse" x1="548.4621" y1="918.6054" x2="1037.396" y2="918.6054">
				<stop  offset="4.753638e-04" style="stop-color:#46978F"/>
				<stop  offset="1" style="stop-color:#7CDBC7"/>
			</linearGradient>
			<path style="fill:url(#SVGID_00000077306780579041380320000008695562990429444014_);" d="M973.8,918.6c0,9.7,7.9,17.6,17.6,17.6
				h29.9c9.7,0,17.6-7.9,17.6-17.6c0-9.7-7.9-17.6-17.6-17.6h-29.9C981.7,901,973.8,908.9,973.8,918.6z"/>
			
				<linearGradient id="SVGID_00000016757698321265191300000008094077433361723780_" gradientUnits="userSpaceOnUse" x1="548.4621" y1="989.3508" x2="1037.396" y2="989.3508">
				<stop  offset="4.753638e-04" style="stop-color:#46978F"/>
				<stop  offset="1" style="stop-color:#7CDBC7"/>
			</linearGradient>
			<path style="fill:url(#SVGID_00000016757698321265191300000008094077433361723780_);" d="M959.2,971.8h-13.8
				c-9.7,0-17.6,7.9-17.6,17.6c0,9.7,7.9,17.6,17.6,17.6h13.8c9.7,0,17.6-7.9,17.6-17.6C976.8,979.6,968.9,971.8,959.2,971.8z"/>
			
				<linearGradient id="SVGID_00000071534751218069860770000017780819641354146984_" gradientUnits="userSpaceOnUse" x1="548.4621" y1="776.9845" x2="1037.396" y2="776.9845">
				<stop  offset="4.753638e-04" style="stop-color:#46978F"/>
				<stop  offset="1" style="stop-color:#7CDBC7"/>
			</linearGradient>
			<path style="fill:url(#SVGID_00000071534751218069860770000017780819641354146984_);" d="M718.4,582.5h31.8c0,0,0,0,0,0h68.3
				c7.5,0,14.8-2.2,20.9-6.5c2.7-1.8,5.7-3.6,8.8-4.6c3.7-1.2,7.6-1.8,11.4-1.7c7.3,0.3,14.5,3.3,20.1,8.8
				c10.8,10.8,11.7,27.6,3,39.5c-0.9,1.2-1.9,2.4-3,3.5c-8.1,8.1-19.8,10.9-30,7.7c-4.3-1.4-8-3.3-10.8-5.2
				c-6.3-4.3-13.8-6.4-21.5-6.4h-69.7c0,0.1,0,0.3,0,0.4h-43.1c-0.6-0.8-1.2-1.6-1.9-2.3c-4.4-4.4-10-7-16-7.7
				c-8.6,12.1-18.4,23.2-29.3,33.3c1.1,4.6,3.5,9,7.1,12.6c5.1,5.1,11.9,7.9,19.1,7.9c7.2,0,14-2.8,19.1-7.9
				c0.2-0.2,0.4-0.5,0.6-0.7h46.1c8.3,0,16.3-3.3,22.1-9.2l0.7-0.7h0c15.4-15.4,40.3-15.4,55.7,0c3,3,5.4,6.3,7.2,9.9
				c7.6,14.8,5.2,33.4-7.2,45.8c-15.4,15.4-40.3,15.4-55.7,0h0c-0.2-0.2-0.5-0.5-0.7-0.7c-6-6.3-14.3-9.9-23-9.9h-7
				c0,0.1,0,0.3,0,0.4H611.9c-1.2-1.7-2.5-3.3-4-4.8c-2.1-2.1-4.6-3.9-7.1-5.4c-14.3,6.4-29.5,11.2-45.5,14.3
				c-5.9,12.2-3.8,27.3,6.3,37.5c6.2,6.2,14.4,9.6,23.2,9.6c8.8,0,17-3.4,23.2-9.6c1.9-1.9,3.5-4.1,4.9-6.4h21.4h104.5
				c0,0.1,0,0.1,0,0.2h72.8c7.3,0,14.5-1.9,20.8-5.7c3.7-2.2,8.9-4,15.7-3.6c8,0.6,15.8,4.8,20.8,12.6c5.5,8.6,5.5,20.1-0.2,28.7
				c-5.3,8-13.6,12.2-21.9,12.4c-7.1,0.2-11.9-1.5-15.1-3.4c-6-3.6-12.6-5.9-19.5-5.9l-68.6,0c0,0.1,0.1,0.1,0.1,0.2h-3.6
				c-9.2,0-17.6,6.6-18.5,15.8c-1.1,10.5,7.2,19.4,17.5,19.4h22.3h11.7c9.2,0,17.6,6.6,18.5,15.8c0.9,9.2-5.3,17.2-13.8,19h-90.8
				c-1.2-1.7-2.5-3.3-4-4.8c-6.2-6.2-14.4-9.6-23.2-9.6c-8.8,0-17,3.4-23.2,9.6c-12.8,12.8-12.8,33.6,0,46.4
				c6.2,6.2,14.4,9.6,23.2,9.6c8.8,0,17-3.4,23.2-9.6c1.7-1.7,3.1-3.6,4.4-5.6c0.3,0,0.6,0,1,0h45.6c9.7,0,17.6,7.9,17.6,17.6v0.4
				c0,9.7-7.9,17.6-17.6,17.6h-83.3c-9.2,0-17.6,6.6-18.5,15.8c-1.1,10.5,7.2,19.4,17.5,19.4h123.8h36.1c9.2,0,17.6,6.6,18.5,15.8
				c1.1,10.5-7.2,19.4-17.5,19.4H719v0.4l-5,0c-9.2,0-17.6,6.6-18.5,15.8c-1.1,10.5,7.2,19.4,17.5,19.4h175.6
				c9.7,0,17.6-7.9,17.6-17.6c0-0.2,0-0.4,0-0.6c0-0.1,0-0.1,0-0.2V879.2c0-10.6,8.6-19.2,19.2-19.2h39.8
				c13.2,0,23.9-10.7,23.9-23.9v-53.7c0-5.3,4.3-9.6,9.6-9.6h21.8c2.8,0,5.6-0.9,7.6-2.8c3.5-3.3,4.3-8.4,2.3-12.5l-18.1-36.2
				c-10-20-17.5-41.1-24.1-62.4c-21.3-68.5-87.3-115.8-161.3-111.6h-74.2h-34.2c-0.6,0-1.3,0-1.9,0.1c-3,10-6.8,19.8-11.3,29.1
				C708.5,580.2,713.2,582.5,718.4,582.5z M692.3,644.2c-4.7,4.7-12.4,4.7-17.1,0c-4.7-4.7-4.7-12.4,0-17.1c4.7-4.7,12.4-4.7,17.1,0
				C697,631.8,697,639.5,692.3,644.2z M595.9,718.3c-6.1,6.1-16.1,6.1-22.2,0c-6.1-6.1-6.1-16.1,0-22.2c6.1-6.1,16.1-6.1,22.2,0
				C602,702.2,602,712.1,595.9,718.3z M670.7,859c-6.1,6.1-16.1,6.1-22.2,0c-6.1-6.1-6.1-16.1,0-22.2c6.1-6.1,16.1-6.1,22.2,0
				C676.8,842.9,676.8,852.8,670.7,859z"/>
		</g>
		<g>
			<g>
				<path class="st50" d="M836.3,233.9l-204.5,77.7c-43.5-29-95.5-40.6-147.6-32.8c-55.5,8.4-104.4,37.8-137.8,83
					c-33.3,45.1-47.1,100.6-38.7,156.1c5.9,39.5,22.6,75.7,48,105.3L179,811.6c-9.4,10-8.8,25.6,1.1,35c4.8,4.5,10.9,6.7,16.9,6.7
					c6.6,0,13.2-2.6,18.1-7.8l177-188.8c9.4,6.8,19.1,12.7,29.3,17.8c7.3,28.5,15.9,58.2,26,88.3c35.8,107.1,83,196.3,140.2,266.3
					c36.1,8.7,69.7,18.6,100.8,29.9c-108.1-93.7-171-237.8-207.2-365.1c11.1,1.8,22.5,2.8,33.9,2.8c10.5,0,21.1-0.8,31.7-2.4
					c2.9-0.4,5.7-0.9,8.6-1.5c16-3.1,31.2-7.9,45.5-14.3c21.1-9.4,40.2-22,56.7-37.3c10.9-10.1,20.7-21.2,29.3-33.3
					c7-9.9,13.2-20.4,18.5-31.5c4.5-9.4,8.2-19.1,11.3-29.1c3.5-11.6,6-23.5,7.5-35.7c1.4-11.5,1.8-23.3,1.3-35.2
					c-0.3-7-1-14.1-2.1-21.2c-1.1-7.6-2.7-15-4.6-22.3c-2.3-9-5.3-17.7-8.7-26.2c-8.3-20.4-19.8-39.4-34.2-56.2l160.6-61
					l401.6,152.7c-9,86.4-57.9,444.4-260.6,619.6c31.3-11.7,65.3-22.1,101.9-31.1c57.2-70.2,98.5-162.4,141.9-267.7
					c54.4-132.1,68.6-316.4,70.6-336.3l1.3-19.2L836.3,233.9z M676,484.9c0.1,5.9-0.2,11.7-0.7,17.4c-1.5,15.7-5.4,30.9-11.2,45.1
					c-5.1,12.5-11.8,24.3-19.9,35.1c-13.8,18.6-31.7,34.2-52.4,45.4c-15.9,8.6-33.5,14.7-52.4,17.5c-7.8,1.2-15.7,1.8-23.5,1.8
					c-16.7,0.1-33.2-2.4-48.9-7.4c-16.6-5.3-32.4-13.3-46.9-24c-5.3-3.9-10.3-8.1-15-12.5c-26-24.5-43-56.9-48.4-92.8
					c-6.4-42.4,4.1-84.8,29.6-119.3c25.5-34.5,62.9-57,105.3-63.4c8.1-1.2,16.2-1.8,24.2-1.8c18.4,0,36.5,3.2,53.7,9.3
					c14.6,5.2,28.5,12.6,41.4,22.1c5.2,3.8,10.1,7.9,14.7,12.3c11.5,10.8,21.3,23.2,29.1,36.7c6.2,10.8,11.2,22.4,14.7,34.6
					c2.1,7.1,3.7,14.3,4.8,21.7C675.4,470.1,675.9,477.5,676,484.9z"/>
				<path class="st50" d="M903.2,1192.8c47.4-31.6,123.1-66.1,242.4-90.2v-46.5c-44.2,8.6-83,18.6-117.2,29.5
					c-96.7,30.8-156,68.8-191.9,101.3c-36.8-33.2-97.9-72.2-198.6-103.4c-32.5-10.1-69.2-19.4-110.5-27.4l-0.5,2.4v44
					c119.7,24.1,195.6,58.7,243,90.3c-40.4-13-94.9-22.8-167.4-22.8c-38.5,0-82.1,2.8-131.4,9.4v45.4l0.1,0.5
					c49.9-6.9,93.5-9.8,131.4-9.8c90.9,0,149.3,16.5,185,32.9c4.9,2.3,9.4,4.5,13.5,6.7l20.6,15.1l14.1,10.3
					c0.2,0.2,0.3,0.4,0.4,0.4l0.1-0.1l0.5,0.4c0.1-0.1,0.7-0.9,1.9-2.1l12.9-9.3l20.1-14.5c4.2-2.3,8.8-4.6,13.9-7
					c35.7-16.5,94.2-32.9,185-32.9c37.8,0,81.2,2.8,130.9,9.7v-45.9c-49-6.5-92.5-9.3-130.9-9.3
					C998.1,1170,943.6,1179.8,903.2,1192.8z"/>
			</g>
		</g>
	</g>
</g>
<g id="Layer_2">
</g>
</svg>
