<?xml version="1.0" encoding="utf-8"?>
<!-- Generator: Adobe Illustrator 28.1.0, SVG Export Plug-In . SVG Version: 6.00 Build 0)  -->
<svg version="1.1" xmlns="http://www.w3.org/2000/svg" xmlns:xlink="http://www.w3.org/1999/xlink" x="0px" y="0px"
	 viewBox="0 0 1515.1 1515.1" style="enable-background:new 0 0 1515.1 1515.1;" xml:space="preserve">
<style type="text/css">
	.st0{display:none;}
	.st1{display:inline;}
	.st2{fill:none;stroke:#000000;stroke-width:0.9157;stroke-miterlimit:10;}
	.st3{fill:#221F20;}
	.st4{opacity:0.6;}
	.st5{opacity:0.3;}
	.st6{opacity:0.3;fill:#221F20;}
	.st7{fill:#FFFFFF;}
	.st8{opacity:0.3;fill:#FFFFFF;}
	.st9{fill:url(#SVGID_1_);}
	.st10{fill:none;}
	.st11{fill:url(#SVGID_00000127031033775203660750000016432015519427116195_);}
	.st12{fill:url(#SVGID_00000016763388881003337950000017079074237241628826_);}
	.st13{fill:url(#SVGID_00000098912815996386570500000017486556514283762568_);}
	.st14{fill:url(#SVGID_00000040554856958065271250000016685338716766070920_);}
	.st15{fill:url(#SVGID_00000058589526915664993310000002116222135283686832_);}
	.st16{fill:url(#SVGID_00000087376357615914509990000005407795509627052436_);}
	.st17{fill:url(#SVGID_00000047057864293442022060000015298458054359082665_);}
	.st18{fill:url(#SVGID_00000150065452797755969710000014214501399635044524_);}
	.st19{fill:url(#SVGID_00000042721741480683024570000000053690707162196126_);}
	.st20{fill:url(#SVGID_00000102512746578833676680000003245152538594225325_);}
	.st21{fill:url(#SVGID_00000020395770315584897800000013027718008080167594_);}
	.st22{fill:url(#SVGID_00000066497821786452490430000007916619951804229298_);}
	.st23{fill:url(#SVGID_00000135664685677712204980000013548803111674567310_);}
	.st24{fill:url(#SVGID_00000029021801521950954330000014134804324724755379_);}
	.st25{fill:url(#SVGID_00000013884117692993791670000014825089461601533097_);}
	.st26{fill:url(#SVGID_00000183934872835157702020000015204534165155042744_);}
	.st27{fill:url(#SVGID_00000005976608227646092450000009860959142503464606_);}
	.st28{fill:url(#SVGID_00000119094867829980365970000017666152627118286239_);}
	.st29{fill:url(#SVGID_00000008847460985779956270000017848615215304733060_);}
	.st30{fill:url(#SVGID_00000029013036529258299390000015018073150686378624_);}
	.st31{fill:url(#SVGID_00000180325769454637119340000008591031671423942320_);}
	.st32{fill:url(#SVGID_00000050638978511074025630000013666120574207584702_);}
	.st33{fill:url(#SVGID_00000048486727083933856940000002503300136143895739_);}
	.st34{fill:url(#SVGID_00000032622741491419153440000012035586457318725264_);}
	.st35{fill:url(#SVGID_00000040545785474198939910000011909213852721989265_);}
	.st36{fill:url(#SVGID_00000039839988589087329190000007202084217491355070_);}
	.st37{fill:url(#SVGID_00000181050654945014577560000003485548021952707506_);}
	.st38{fill:url(#SVGID_00000150797337639823139770000003025979945940359317_);}
	.st39{fill:url(#SVGID_00000140713308959038197840000008985448447609937045_);}
	.st40{fill:url(#SVGID_00000160192458144481490010000001939881029135348376_);}
	.st41{fill:url(#SVGID_00000093887383059921539630000006760215211512587168_);}
	.st42{fill:url(#SVGID_00000036965397322341175700000014406740337059306166_);}
	.st43{fill:url(#SVGID_00000098217543398429042260000005351895006577538730_);}
	.st44{fill:url(#SVGID_00000100358913017856974790000014863311230895060612_);}
	.st45{fill:url(#SVGID_00000069398840697900082000000010129033101681791925_);}
	.st46{fill:url(#SVGID_00000119107847503572174810000000786108034297917613_);}
	.st47{fill:url(#SVGID_00000028319862480558242440000009198811597999386540_);}
	.st48{fill:url(#SVGID_00000063609862024840818270000009911716591008716720_);}
	.st49{fill:url(#SVGID_00000016072532610183490950000005102465961953604787_);}
	.st50{fill:#172B43;}
	.st51{fill:url(#SVGID_00000155868979340905867000000009702802798069772433_);}
	.st52{fill:url(#SVGID_00000174573765603143619740000004436848458057623473_);}
	.st53{fill:url(#SVGID_00000017490905973360799330000001948477805792337038_);}
	.st54{fill:url(#SVGID_00000059293222971300460310000004352452503334818476_);}
	.st55{fill:url(#SVGID_00000048478000141048307040000009044233332287643321_);}
	.st56{fill:url(#SVGID_00000082348147354625509030000003072709012200068783_);}
	.st57{fill:url(#SVGID_00000038376421094608661300000014702237605767695749_);}
	.st58{fill:url(#SVGID_00000057129262707055298130000003380798020144946562_);}
	.st59{fill:url(#SVGID_00000150083559880477230950000006749486719345860243_);}
	.st60{fill:url(#SVGID_00000162328575801536184010000008632710314599366809_);}
	.st61{fill:url(#SVGID_00000178189379221549498590000009859264680316573361_);}
	.st62{fill:url(#SVGID_00000075126784338662086700000009991454120500649389_);}
	.st63{fill:url(#SVGID_00000102539392156908352300000012220926239673486261_);}
	.st64{fill:url(#SVGID_00000056396761135632523650000015755501321590366619_);}
	.st65{fill:url(#SVGID_00000170252247989778392460000016982241171549989794_);}
	.st66{fill:url(#SVGID_00000043431694668670445600000000942333097347169952_);}
	.st67{fill:url(#SVGID_00000093861520913905730380000015984462967443760820_);}
	.st68{fill:url(#SVGID_00000054227378215528914810000000026159280910165674_);}
	.st69{fill:url(#SVGID_00000134248267939661334380000002667759984094367909_);}
	.st70{fill:url(#SVGID_00000049181456834202720920000002776965444727832463_);}
	.st71{fill:url(#SVGID_00000067232341404693313550000003902766778517999504_);}
	.st72{fill:url(#SVGID_00000179606678960084396750000001906046246735305644_);}
	.st73{fill:url(#SVGID_00000003814869395382376260000008864037433997295497_);}
	.st74{fill:url(#SVGID_00000118362449230910906800000005642863673101411516_);}
	.st75{fill:url(#SVGID_00000038401964761247531910000017099831618301932970_);}
	.st76{fill:url(#SVGID_00000160913206124735652390000013197182888772837799_);}
	.st77{fill:url(#SVGID_00000072255222162692583980000014484885297105483962_);}
	.st78{fill:url(#SVGID_00000041261260534612456130000007758993623552883086_);}
	.st79{fill:url(#SVGID_00000066497399688017660110000001222332575059478965_);}
	.st80{fill:url(#SVGID_00000016072977321126019290000013788857861764969137_);}
	.st81{fill:url(#SVGID_00000102516331194200198940000016372109434982527664_);}
	.st82{fill:url(#SVGID_00000035510119687013808150000006164934588700547720_);}
	.st83{fill:url(#SVGID_00000154390345894479623500000014607879035315198871_);}
	.st84{fill:url(#SVGID_00000083779097603420616680000004109287186701846695_);}
	.st85{fill:url(#SVGID_00000127006023180486565260000004008562114465178283_);}
	.st86{fill:url(#SVGID_00000095340628381181215910000010483081741733107874_);}
	.st87{fill:url(#SVGID_00000182496557363966500050000017824047930576851126_);}
	.st88{fill:url(#SVGID_00000055698412630807121520000003408740649762516620_);}
	.st89{fill:url(#SVGID_00000090999482056903490070000006431266657687560097_);}
	.st90{fill:url(#SVGID_00000018210674473621686440000004570985002235097479_);}
	.st91{fill:url(#SVGID_00000074431220757316835720000010428317517575286913_);}
	.st92{fill:url(#SVGID_00000005241981549978238080000011894550009101503140_);}
	.st93{fill:url(#SVGID_00000088843832344088095230000005742216890911246778_);}
	.st94{fill:url(#SVGID_00000052816494667023924770000014610093296290705024_);}
	.st95{fill:url(#SVGID_00000021095828496674185850000008742772655485101206_);}
	.st96{fill:url(#SVGID_00000112604602613638488780000002754777775451981469_);}
	.st97{fill:url(#SVGID_00000098925860832137365060000010148671921870331055_);}
	.st98{fill:url(#SVGID_00000089539208462618456040000017672779906516257459_);}
	.st99{fill:url(#SVGID_00000031194307356032981380000017332877552186912420_);}
	.st100{fill:url(#SVGID_00000144300266372555651010000014768863976103518351_);}
	.st101{fill:url(#SVGID_00000122722447413530186640000012206864434839252906_);}
	.st102{fill:url(#SVGID_00000129928165169238762280000018436524677555472059_);}
	.st103{fill:url(#SVGID_00000072972400154290445480000007829068725913794945_);}
	.st104{fill:url(#SVGID_00000179608696589251105860000018164077597273795719_);}
	.st105{fill:url(#SVGID_00000034810104768284925890000013782038508235923391_);}
	.st106{fill:url(#SVGID_00000090280325194797894940000014208362748508854705_);}
	.st107{fill:url(#SVGID_00000152965070361370084780000012981842078614921368_);}
	.st108{fill:url(#SVGID_00000137815790905151629140000006547858129196257712_);}
	.st109{fill:url(#SVGID_00000065786791171248533760000004292774931425438351_);}
	.st110{fill:url(#SVGID_00000096033098241789241700000001995432603979120288_);}
	.st111{fill:url(#SVGID_00000113350737855958807100000013866125729711124622_);}
	.st112{fill:url(#SVGID_00000111905360358863452180000010819726534746743450_);}
	.st113{fill:url(#SVGID_00000096770477819392954140000003400548353030460347_);}
	.st114{fill:url(#SVGID_00000165215579465001750160000013254004840444507054_);}
	.st115{fill:url(#SVGID_00000159451306664402940190000003108921578618256265_);}
	.st116{fill:url(#SVGID_00000042701771063088988620000002525994257596480417_);}
	.st117{fill:url(#SVGID_00000157289360091223268240000007275877821339982723_);}
	.st118{fill:url(#SVGID_00000122702811138896970200000002850250413704872607_);}
	.st119{fill:url(#SVGID_00000008137851679421474870000005750771883946934448_);}
	.st120{fill:url(#SVGID_00000115507081768001789100000015906634339838641540_);}
	.st121{fill:url(#SVGID_00000061450163596074660710000000500036664488271795_);}
	.st122{fill:url(#SVGID_00000162323726047048735950000011774300398155304374_);}
	.st123{fill:url(#SVGID_00000109749318644227622080000013245266351992927382_);}
	.st124{fill:url(#SVGID_00000090987508250655151890000010177736920716404119_);}
	.st125{fill:url(#SVGID_00000049188586686202989310000015018840943696028800_);}
	.st126{fill:url(#SVGID_00000102531843155961252130000002294349212049695148_);}
	.st127{fill:url(#SVGID_00000090976552706395984140000006620228098889835165_);}
	.st128{fill:url(#SVGID_00000113337219250196603230000009517963394972664479_);}
	.st129{fill:url(#SVGID_00000104696097426877518810000015231124009766430599_);}
	.st130{fill:url(#SVGID_00000170263724102984649220000007825604935391879333_);}
	.st131{fill:url(#SVGID_00000081619618528509360570000007997696953115975824_);}
	.st132{fill:url(#SVGID_00000087388656930101778820000015836636966563244162_);}
	.st133{fill:url(#SVGID_00000101103154041892619280000013704995083667697312_);}
	.st134{fill:url(#SVGID_00000010280817196729897700000016646304234373089686_);}
	.st135{fill:url(#SVGID_00000098221500481817480760000005103400750173879981_);}
	.st136{fill:url(#SVGID_00000063591467122540725310000013246189518591580342_);}
	.st137{fill:url(#SVGID_00000057846858226430963990000006913391055666880162_);}
	.st138{fill:url(#SVGID_00000169535395877499130120000010082442579886034309_);}
	.st139{fill:url(#SVGID_00000020373380568455953220000015512348752346789549_);}
	.st140{fill:url(#SVGID_00000007402338001796069360000005741300582453305472_);}
	.st141{fill:url(#SVGID_00000118383997536473287220000012311014363391434913_);}
	.st142{fill:url(#SVGID_00000182522090363782394730000000892948518916076439_);}
	.st143{fill:url(#SVGID_00000010271125826232553210000008494007037072125368_);}
	.st144{fill:url(#SVGID_00000135670251948275808050000012372095032185220996_);}
	.st145{fill:url(#SVGID_00000084501667766118332250000017454871455945366922_);}
	.st146{fill:url(#SVGID_00000106870064636662460290000013191844966457699745_);}
	.st147{fill:url(#SVGID_00000097459104560477815890000013689776518012404639_);}
	.st148{fill:url(#SVGID_00000178915402577410376320000016684555058723868044_);}
	.st149{fill:url(#SVGID_00000088091312291861022640000003397046785413671857_);}
	.st150{fill:url(#SVGID_00000041276118828044002010000001115653851469856387_);}
	.st151{fill:url(#SVGID_00000161605036216729734190000005286689917601159319_);}
	.st152{fill:url(#SVGID_00000113338225938679555360000010418180308361200286_);}
	.st153{fill:url(#SVGID_00000031906986028603918230000007425564592621299874_);}
	.st154{fill:url(#SVGID_00000026854328536543308120000010302287301744551359_);}
	.st155{fill:url(#SVGID_00000036216376289562312150000003616101180101772949_);}
	.st156{fill:url(#SVGID_00000070800033757171372280000008239538843873746086_);}
	.st157{fill:url(#SVGID_00000170261247410714701710000011545643927612959618_);}
	.st158{fill:url(#SVGID_00000100354612214926676700000003065233641258386342_);}
	.st159{fill:url(#SVGID_00000021092658213572729560000009030141688739193256_);}
	.st160{fill:url(#SVGID_00000031181014908143599360000018355774520889693584_);}
	.st161{fill:url(#SVGID_00000088130206568930385200000017507149345760283581_);}
	.st162{fill:url(#SVGID_00000142155808177788805720000014869187310747239576_);}
	.st163{fill:url(#SVGID_00000085964312623761622980000001933815598877577653_);}
	.st164{fill:url(#SVGID_00000123400981751344447220000000935219435776673426_);}
	.st165{fill:url(#SVGID_00000090992287219573342450000006442157629559882906_);}
	.st166{fill:url(#SVGID_00000079486096035354288460000010072682360660791741_);}
	.st167{fill:url(#SVGID_00000061436693838111798030000007256704910863116180_);}
	.st168{fill:url(#SVGID_00000048485770506485344850000013448426637163110314_);}
	.st169{fill:url(#SVGID_00000126297048993337282960000018004168346166777743_);}
	.st170{fill:url(#SVGID_00000020356318724123744700000012873472602469186436_);}
</style>
<g id="Layer_1">
	<g>
		<linearGradient id="SVGID_1_" gradientUnits="userSpaceOnUse" x1="187.4928" y1="494.1308" x2="924.2153" y2="494.1308">
			<stop  offset="4.753638e-04" style="stop-color:#46978F"/>
			<stop  offset="1" style="stop-color:#7CDBC7"/>
		</linearGradient>
		<circle class="st9" cx="515.4" cy="494.1" r="177.3"/>
		<g>
			<g>
				<path class="st7" d="M531.9,613.1c-5.5,0-10,4.5-10,10c0,5.5,4.5,10,10,10c5.5,0,10-4.5,10-10
					C541.9,617.6,537.4,613.1,531.9,613.1z"/>
			</g>
			<g>
				<path class="st7" d="M476.5,417h-3.6v-10h0c-0.1-7-5.8-12.7-12.8-12.7s-12.8,5.7-12.8,12.7h0v10h-3.6c-0.8,0-1.4,0.6-1.4,1.4
					v19.9c0,0.8,0.6,1.4,1.4,1.4h32.8c0.8,0,1.4-0.6,1.4-1.4v-19.9C477.9,417.6,477.3,417,476.5,417z M452.3,407
					C452.3,407,452.3,407,452.3,407c0-4.2,3.6-7.7,7.8-7.7s7.8,3.5,7.8,7.8c0,0,0,0,0,0v10h-15.7V407z M462.8,432h-5.4l1.7-5
					c-1.1-0.4-1.9-1.4-1.9-2.7c0-1.6,1.3-2.8,2.8-2.8s2.8,1.3,2.8,2.8c0,1.2-0.8,2.3-1.9,2.7L462.8,432z"/>
			</g>
		</g>
		<g class="st4">
			<g>
				<path class="st7" d="M596.2,577.5c0.2,4,3.5,7.3,7.6,7.3c4.2,0,7.7-3.4,7.7-7.7c0-4.2-3.4-7.7-7.7-7.7c-3.5,0-6.5,2.4-7.4,5.6
					h-98c-0.6-5.1-4.9-9.1-10.2-9.1c-5.7,0-10.3,4.6-10.3,10.3c0,5.7,4.6,10.3,10.3,10.3c5.3,0,9.6-4,10.2-9.1H596.2z"/>
				<path class="st7" d="M377.6,431.2c-4.2,0-7.7,3.4-7.7,7.7c0,4.2,3.4,7.7,7.7,7.7c4.2,0,7.7-3.4,7.7-7.7
					C385.3,434.6,381.9,431.2,377.6,431.2z"/>
			</g>
			<g>
				<path class="st7" d="M553,563.5h-2v-5.6h0c0-4-3.2-7.2-7.2-7.2c-4,0-7.2,3.2-7.2,7.2h0v5.6h-2c-0.4,0-0.8,0.4-0.8,0.8v11.2
					c0,0.4,0.4,0.8,0.8,0.8H553c0.4,0,0.8-0.4,0.8-0.8v-11.2C553.8,563.9,553.4,563.5,553,563.5z M539.4,557.9
					C539.4,557.9,539.4,557.9,539.4,557.9c0-2.4,2-4.4,4.4-4.4c2.4,0,4.4,2,4.4,4.4c0,0,0,0,0,0v5.6h-8.8V557.9z M545.3,571.9h-3
					l1-2.8c-0.6-0.2-1.1-0.8-1.1-1.5c0-0.9,0.7-1.6,1.6-1.6c0.9,0,1.6,0.7,1.6,1.6c0,0.7-0.4,1.3-1.1,1.5L545.3,571.9z"/>
				<path class="st7" d="M574.3,396.6h-2.7V389h0c0-5.4-4.4-9.7-9.8-9.7c-5.4,0-9.8,4.4-9.8,9.7h0v7.6h-2.7c-0.6,0-1.1,0.5-1.1,1.1
					V413c0,0.6,0.5,1.1,1.1,1.1h25.1c0.6,0,1.1-0.5,1.1-1.1v-15.3C575.4,397.1,574.9,396.6,574.3,396.6z M555.7,389
					C555.7,389,555.7,389,555.7,389c0-3.3,2.7-5.9,6-5.9c3.3,0,6,2.7,6,6c0,0,0,0,0,0v7.6h-12V389z M563.8,408.1h-4.1l1.3-3.8
					c-0.8-0.3-1.4-1.1-1.4-2c0-1.2,1-2.2,2.2-2.2c1.2,0,2.2,1,2.2,2.2c0,0.9-0.6,1.7-1.4,2L563.8,408.1z"/>
			</g>
		</g>
		<g class="st5">
			<path class="st10" d="M623.6,413.9v-60.2c-29.9-23.1-67.5-36.8-108.2-36.8c-1.3,0-2.6,0-3.9,0v97H623.6z"/>
			<path class="st10" d="M511.5,416.3v91.5H447v105.3c3.7,0.6,6.4,3.7,6.4,7.5c0,4.2-3.4,7.7-7.7,7.7c-4.2,0-7.7-3.4-7.7-7.7
				c0-3.8,2.8-7,6.4-7.5V505.4h64.5v-89.1h-2.9v-2.4h2.9V317c-95,3.3-171,81.4-171,177.2c0,97.9,79.4,177.3,177.3,177.3
				c97.9,0,177.3-79.4,177.3-177.3c0-56.1-26-106.1-66.7-138.6v60.7H511.5z"/>
			<path class="st7" d="M623.6,413.9H511.5v-97c-0.8,0-1.6,0-2.4,0.1v96.9h-2.9v2.4h2.9v89.1h-64.5v107.7c-3.6,0.6-6.4,3.7-6.4,7.5
				c0,4.2,3.4,7.7,7.7,7.7c4.2,0,7.7-3.4,7.7-7.7c0-3.8-2.8-7-6.4-7.5V507.8h64.5v-91.5H626v-60.7c-0.8-0.6-1.6-1.3-2.4-1.9V413.9z"
				/>
		</g>
		<g>
			<path class="st8" d="M565.7,593.6v-96.9h82.9V402H667c-0.6-1.1-1.3-2.1-2-3.2h-19.6v94.7h-79.8v-169h-3.2v169h-63.4v-56.8h-98.4
				c-0.1-28-0.2-55.7-0.2-77.7c-1.1,0.9-2.1,1.8-3.2,2.8c-0.1,21.7,0,48.3,0.1,74.9h-49.9c-0.4,1-0.7,2.1-1,3.2h50.9
				c0.2,41.2,0.6,82.1,0.8,104.2h-53c0.3,1.1,0.6,2.1,1,3.2h55.2l0-1.6c-0.2-24.7-0.5-65.4-0.7-105.8h95.2v56.8h66.6v93.7H440.7V655
				c1,0.5,2.1,1,3.2,1.4v-62.8H565.7z"/>
			<path class="st8" d="M627.3,590.5c-0.8-6.7-6.4-11.8-13.3-11.8c-7.4,0-13.4,6-13.4,13.4c0,7.4,6,13.4,13.4,13.4
				c6.9,0,12.5-5.2,13.3-11.8h34.8c0.7-1,1.4-2.1,2.1-3.2H627.3z"/>
		</g>
		<g>
			<path class="st10" d="M641.3,607.4V496.9h-72.1c-0.6,3.7-3.7,6.4-7.5,6.4c-4.2,0-7.7-3.4-7.7-7.7c0-4.2,3.4-7.7,7.7-7.7
				c3.8,0,7,2.8,7.5,6.4h74.5v115.3h-53.2v45c60.4-28.3,102.2-89.6,102.2-160.6c0-97.9-79.4-177.3-177.3-177.3
				c-97.9,0-177.3,79.4-177.3,177.3c0,16.6,2.3,32.6,6.5,47.8V526h31.8v-79.5h1.2h1.2v81.9h-31.8v21.4
				c23.4,70.6,89.9,121.6,168.4,121.6c5,0,10-0.2,14.9-0.6v-37.7h1.6h1.6v37.4c19.3-2,37.7-7,54.7-14.6v-48.5H641.3z"/>
			<path class="st10" d="M531.9,633.1h-1.6v37.7c1.1-0.1,2.1-0.2,3.2-0.3v-37.4H531.9z"/>
			<path class="st10" d="M378.9,528.4v-81.9h-1.2h-1.2V526h-31.8v15.9c0.7,2.7,1.6,5.3,2.4,7.9v-21.4H378.9z"/>
			<path class="st10" d="M590.5,609.8h53.2V494.5h-74.5c-0.6-3.7-3.7-6.4-7.5-6.4c-4.2,0-7.7,3.4-7.7,7.7c0,4.2,3.4,7.7,7.7,7.7
				c3.8,0,7-2.8,7.5-6.4h72.1v110.5h-53.2v48.5c0.8-0.4,1.6-0.7,2.4-1.1V609.8z"/>
		</g>
		<g>
			
				<linearGradient id="SVGID_00000001637381575706430410000008003832090345510786_" gradientUnits="userSpaceOnUse" x1="548.4621" y1="564.8765" x2="1037.396" y2="564.8765">
				<stop  offset="4.753638e-04" style="stop-color:#46978F"/>
				<stop  offset="1" style="stop-color:#7CDBC7"/>
			</linearGradient>
			<path style="fill:url(#SVGID_00000001637381575706430410000008003832090345510786_);" d="M952.3,563.7
				c-0.7,10.2,7.4,18.8,17.5,18.8h87.3c9.4,0,17.5-7.1,18.1-16.4c0.7-10.2-7.4-18.8-17.5-18.8h-87.3
				C961.1,547.3,952.9,554.4,952.3,563.7z"/>
			
				<linearGradient id="SVGID_00000065765599526064921930000013350324807431142055_" gradientUnits="userSpaceOnUse" x1="548.4621" y1="494.1308" x2="1037.396" y2="494.1308">
				<stop  offset="4.753638e-04" style="stop-color:#46978F"/>
				<stop  offset="1" style="stop-color:#7CDBC7"/>
			</linearGradient>
			<path style="fill:url(#SVGID_00000065765599526064921930000013350324807431142055_);" d="M1183.8,495.3
				c0.7-10.2-7.4-18.8-17.5-18.8h-121.1c-9.4,0-17.5,7.1-18.1,16.4c-0.7,10.2,7.4,18.8,17.5,18.8h121.1
				C1175.1,511.7,1183.2,504.6,1183.8,495.3z"/>
			
				<linearGradient id="SVGID_00000088842120127166350040000013528905765775543193_" gradientUnits="userSpaceOnUse" x1="548.4621" y1="564.8765" x2="1037.396" y2="564.8765">
				<stop  offset="4.753638e-04" style="stop-color:#46978F"/>
				<stop  offset="1" style="stop-color:#7CDBC7"/>
			</linearGradient>
			<path style="fill:url(#SVGID_00000088842120127166350040000013528905765775543193_);" d="M1117.2,547.3
				c-9.4,0-17.5,7.1-18.1,16.4c-0.7,10.2,7.4,18.8,17.5,18.8h40c9.4,0,17.5-7.1,18.1-16.4c0.7-10.2-7.4-18.8-17.5-18.8H1117.2z"/>
			
				<linearGradient id="SVGID_00000016058467489925372480000009164110366684334221_" gradientUnits="userSpaceOnUse" x1="548.4621" y1="423.3853" x2="1037.396" y2="423.3853">
				<stop  offset="4.753638e-04" style="stop-color:#46978F"/>
				<stop  offset="1" style="stop-color:#7CDBC7"/>
			</linearGradient>
			<path style="fill:url(#SVGID_00000016058467489925372480000009164110366684334221_);" d="M1013.8,405.8h-40
				c-9.4,0-17.5,7.1-18.1,16.4c-0.7,10.2,7.4,18.8,17.5,18.8h40c9.4,0,17.5-7.1,18.1-16.4C1032,414.3,1023.9,405.8,1013.8,405.8z"/>
			
				<linearGradient id="SVGID_00000026880371719909566560000015690617693808272828_" gradientUnits="userSpaceOnUse" x1="548.4621" y1="419.9131" x2="1037.396" y2="419.9131">
				<stop  offset="4.753638e-04" style="stop-color:#46978F"/>
				<stop  offset="1" style="stop-color:#7CDBC7"/>
			</linearGradient>
			<path style="fill:url(#SVGID_00000026880371719909566560000015690617693808272828_);" d="M721.5,424.6
				c0.5-8.1-4.5-15.2-11.7-17.7c3.5,8.5,6.4,17.2,8.7,26.2C720.3,430.6,721.3,427.7,721.5,424.6z"/>
			
				<linearGradient id="SVGID_00000150786341027389383350000015573398351741585541_" gradientUnits="userSpaceOnUse" x1="548.4621" y1="918.6054" x2="1037.396" y2="918.6054">
				<stop  offset="4.753638e-04" style="stop-color:#46978F"/>
				<stop  offset="1" style="stop-color:#7CDBC7"/>
			</linearGradient>
			<path style="fill:url(#SVGID_00000150786341027389383350000015573398351741585541_);" d="M939.5,901c-9.7,0-17.6,7.9-17.6,17.6
				c0,9.7,7.9,17.6,17.6,17.6c9.7,0,17.6-7.9,17.6-17.6C957.1,908.9,949.2,901,939.5,901z"/>
			
				<linearGradient id="SVGID_00000106141645399895905930000010314444212556001695_" gradientUnits="userSpaceOnUse" x1="548.4621" y1="670.9949" x2="1037.396" y2="670.9949">
				<stop  offset="4.753638e-04" style="stop-color:#46978F"/>
				<stop  offset="1" style="stop-color:#7CDBC7"/>
			</linearGradient>
			<path style="fill:url(#SVGID_00000106141645399895905930000010314444212556001695_);" d="M1072,688.8h-29.4
				c-9.4,0-17.5,7.1-18.1,16.4c-0.7,10.2,7.4,18.8,17.5,18.8h80.8c9.4,0,17.5-7.1,18.1-16.4c0.7-10.2-7.4-18.8-17.5-18.8h4.7
				c-9.7,0-17.6-7.9-17.6-17.6v-0.7c0-9.5,7.7-17.2,17.2-17.2c0.2,0,14.9,0,15.1,0c9.1-0.3,17-7.3,17.6-16.4
				c0.7-10.2-7.4-18.8-17.5-18.8h-126.1c-9.4,0-17.5,7.1-18.1,16.4c-0.7,10.2,7.4,18.8,17.5,18.8h55.8c9.7,0,17.6,7.9,17.6,17.6v0.4
				C1089.6,680.9,1081.8,688.8,1072,688.8z"/>
			
				<linearGradient id="SVGID_00000165929223549183768880000016395261254372745121_" gradientUnits="userSpaceOnUse" x1="548.4621" y1="777.1138" x2="1037.396" y2="777.1138">
				<stop  offset="4.753638e-04" style="stop-color:#46978F"/>
				<stop  offset="1" style="stop-color:#7CDBC7"/>
			</linearGradient>
			<path style="fill:url(#SVGID_00000165929223549183768880000016395261254372745121_);" d="M1071.3,759.5
				c-9.7,0-17.6,7.9-17.6,17.6c0,9.7,7.9,17.6,17.6,17.6h24.8c9.7,0,17.6-7.9,17.6-17.6c0-9.7-7.9-17.6-17.6-17.6H1071.3z"/>
			
				<linearGradient id="SVGID_00000013896365980009223890000008567314686843533714_" gradientUnits="userSpaceOnUse" x1="548.4621" y1="352.6371" x2="1037.396" y2="352.6371">
				<stop  offset="4.753638e-04" style="stop-color:#46978F"/>
				<stop  offset="1" style="stop-color:#7CDBC7"/>
			</linearGradient>
			<path style="fill:url(#SVGID_00000013896365980009223890000008567314686843533714_);" d="M832.3,335.1c-9.7,0-17.6,7.9-17.6,17.6
				c0,9.7,7.9,17.6,17.6,17.6h13.2c9.7,0,17.6-7.9,17.6-17.6c0-9.7-7.9-17.6-17.6-17.6H832.3z"/>
			
				<linearGradient id="SVGID_00000142865753139697911120000005110563431956172964_" gradientUnits="userSpaceOnUse" x1="548.4621" y1="600.0624" x2="1037.396" y2="600.0624">
				<stop  offset="4.753638e-04" style="stop-color:#46978F"/>
				<stop  offset="1" style="stop-color:#7CDBC7"/>
			</linearGradient>
			<path style="fill:url(#SVGID_00000142865753139697911120000005110563431956172964_);" d="M864.4,606.1c3.4-3.4,3.4-8.8,0-12.2
				c-3.4-3.4-8.8-3.4-12.2,0c-3.4,3.4-3.4,8.8,0,12.2C855.6,609.5,861,609.5,864.4,606.1z"/>
			
				<linearGradient id="SVGID_00000121992238278715267900000003898048111444748174_" gradientUnits="userSpaceOnUse" x1="548.4621" y1="741.7408" x2="1037.396" y2="741.7408">
				<stop  offset="4.753638e-04" style="stop-color:#46978F"/>
				<stop  offset="1" style="stop-color:#7CDBC7"/>
			</linearGradient>
			<path style="fill:url(#SVGID_00000121992238278715267900000003898048111444748174_);" d="M852.5,748.2c3.6-3.6,3.6-9.4,0-13
				c-3.6-3.6-9.4-3.6-13,0c-3.6,3.6-3.6,9.4,0,13C843.1,751.8,848.9,751.8,852.5,748.2z"/>
			
				<linearGradient id="SVGID_00000149369184040159768380000016124318829062719122_" gradientUnits="userSpaceOnUse" x1="548.4621" y1="671.2" x2="1037.396" y2="671.2">
				<stop  offset="4.753638e-04" style="stop-color:#46978F"/>
				<stop  offset="1" style="stop-color:#7CDBC7"/>
			</linearGradient>
			<path style="fill:url(#SVGID_00000149369184040159768380000016124318829062719122_);" d="M810.1,681.2c5.5-5.5,5.5-14.5,0-20
				c-5.5-5.5-14.5-5.5-20,0c-5.5,5.5-5.5,14.5,0,20C795.6,686.8,804.6,686.8,810.1,681.2z"/>
			
				<linearGradient id="SVGID_00000116914220118725208300000015517552678329995939_" gradientUnits="userSpaceOnUse" x1="548.4621" y1="777.1135" x2="1037.396" y2="777.1135">
				<stop  offset="4.753638e-04" style="stop-color:#46978F"/>
				<stop  offset="1" style="stop-color:#7CDBC7"/>
			</linearGradient>
			<path style="fill:url(#SVGID_00000116914220118725208300000015517552678329995939_);" d="M700.8,777.1c0-9.7-7.9-17.6-17.6-17.6
				h-49c0,0,0,0,0,0h-61.1c-9.2,0-17.6,6.6-18.5,15.8c-1.1,10.5,7.2,19.4,17.5,19.4h111.2C692.9,794.7,700.8,786.8,700.8,777.1z"/>
			
				<linearGradient id="SVGID_00000090259007231961132450000005054174698892505507_" gradientUnits="userSpaceOnUse" x1="548.4621" y1="1060.099" x2="1037.396" y2="1060.099">
				<stop  offset="4.753638e-04" style="stop-color:#46978F"/>
				<stop  offset="1" style="stop-color:#7CDBC7"/>
			</linearGradient>
			<path style="fill:url(#SVGID_00000090259007231961132450000005054174698892505507_);" d="M839.8,1077.7c9.7,0,17.6-7.9,17.6-17.6
				c0-9.7-7.9-17.6-17.6-17.6H838c-9.7,0-17.6,7.9-17.6,17.6c0,9.7,7.9,17.6,17.6,17.6H839.8z"/>
			
				<linearGradient id="SVGID_00000161629829325890638670000013939424657624223397_" gradientUnits="userSpaceOnUse" x1="548.4621" y1="458.7582" x2="1037.396" y2="458.7582">
				<stop  offset="4.753638e-04" style="stop-color:#46978F"/>
				<stop  offset="1" style="stop-color:#7CDBC7"/>
			</linearGradient>
			<path style="fill:url(#SVGID_00000161629829325890638670000013939424657624223397_);" d="M724,511.7h28.5H986
				c9.2,0,17.6-6.6,18.5-15.8c1.1-10.5-7.2-19.4-17.5-19.4h-81.5c-9.7,0-17.6-7.9-17.6-17.6v-0.4c0-9.7,7.9-17.6,17.6-17.6h9.8
				c9.2,0,17.6-6.6,18.5-15.8c1.1-10.5-7.2-19.4-17.5-19.4H762.6c-9.2,0-17.6,6.6-18.5,15.8c-1.1,10.5,7.2,19.4,17.5,19.4h87.7
				c9.7,0,17.6,7.9,17.6,17.6v0.4c0,9.7-7.9,17.6-17.6,17.6h-124C725.9,488.4,725.4,500.2,724,511.7z"/>
			
				<linearGradient id="SVGID_00000023995015325215012620000015350766693226175639_" gradientUnits="userSpaceOnUse" x1="548.4621" y1="847.8596" x2="1037.396" y2="847.8596">
				<stop  offset="4.753638e-04" style="stop-color:#46978F"/>
				<stop  offset="1" style="stop-color:#7CDBC7"/>
			</linearGradient>
			<path style="fill:url(#SVGID_00000023995015325215012620000015350766693226175639_);" d="M1004.6,847.9c0,9.7,7.9,17.6,17.6,17.6
				h44.4c9.7,0,17.6-7.9,17.6-17.6c0-9.7-7.9-17.6-17.6-17.6h-44.4C1012.5,830.3,1004.6,838.1,1004.6,847.9z"/>
			
				<linearGradient id="SVGID_00000174576371958269656900000008015668724352417959_" gradientUnits="userSpaceOnUse" x1="548.4621" y1="918.6054" x2="1037.396" y2="918.6054">
				<stop  offset="4.753638e-04" style="stop-color:#46978F"/>
				<stop  offset="1" style="stop-color:#7CDBC7"/>
			</linearGradient>
			<path style="fill:url(#SVGID_00000174576371958269656900000008015668724352417959_);" d="M973.8,918.6c0,9.7,7.9,17.6,17.6,17.6
				h29.9c9.7,0,17.6-7.9,17.6-17.6c0-9.7-7.9-17.6-17.6-17.6h-29.9C981.7,901,973.8,908.9,973.8,918.6z"/>
			
				<linearGradient id="SVGID_00000137133338176420163380000016834262820231681444_" gradientUnits="userSpaceOnUse" x1="548.4621" y1="989.3508" x2="1037.396" y2="989.3508">
				<stop  offset="4.753638e-04" style="stop-color:#46978F"/>
				<stop  offset="1" style="stop-color:#7CDBC7"/>
			</linearGradient>
			<path style="fill:url(#SVGID_00000137133338176420163380000016834262820231681444_);" d="M959.2,971.8h-13.8
				c-9.7,0-17.6,7.9-17.6,17.6c0,9.7,7.9,17.6,17.6,17.6h13.8c9.7,0,17.6-7.9,17.6-17.6C976.8,979.6,968.9,971.8,959.2,971.8z"/>
			
				<linearGradient id="SVGID_00000075123279797372327040000009272276614302679944_" gradientUnits="userSpaceOnUse" x1="548.4621" y1="776.9845" x2="1037.396" y2="776.9845">
				<stop  offset="4.753638e-04" style="stop-color:#46978F"/>
				<stop  offset="1" style="stop-color:#7CDBC7"/>
			</linearGradient>
			<path style="fill:url(#SVGID_00000075123279797372327040000009272276614302679944_);" d="M718.4,582.5h31.8c0,0,0,0,0,0h68.3
				c7.5,0,14.8-2.2,20.9-6.5c2.7-1.8,5.7-3.6,8.8-4.6c3.7-1.2,7.6-1.8,11.4-1.7c7.3,0.3,14.5,3.3,20.1,8.8
				c10.8,10.8,11.7,27.6,3,39.5c-0.9,1.2-1.9,2.4-3,3.5c-8.1,8.1-19.8,10.9-30,7.7c-4.3-1.4-8-3.3-10.8-5.2
				c-6.3-4.3-13.8-6.4-21.5-6.4h-69.7c0,0.1,0,0.3,0,0.4h-43.1c-0.6-0.8-1.2-1.6-1.9-2.3c-4.4-4.4-10-7-16-7.7
				c-8.6,12.1-18.4,23.2-29.3,33.3c1.1,4.6,3.5,9,7.1,12.6c5.1,5.1,11.9,7.9,19.1,7.9c7.2,0,14-2.8,19.1-7.9
				c0.2-0.2,0.4-0.5,0.6-0.7h46.1c8.3,0,16.3-3.3,22.1-9.2l0.7-0.7h0c15.4-15.4,40.3-15.4,55.7,0c3,3,5.4,6.3,7.2,9.9
				c7.6,14.8,5.2,33.4-7.2,45.8c-15.4,15.4-40.3,15.4-55.7,0h0c-0.2-0.2-0.5-0.5-0.7-0.7c-6-6.3-14.3-9.9-23-9.9h-7
				c0,0.1,0,0.3,0,0.4H611.9c-1.2-1.7-2.5-3.3-4-4.8c-2.1-2.1-4.6-3.9-7.1-5.4c-14.3,6.4-29.5,11.2-45.5,14.3
				c-5.9,12.2-3.8,27.3,6.3,37.5c6.2,6.2,14.4,9.6,23.2,9.6c8.8,0,17-3.4,23.2-9.6c1.9-1.9,3.5-4.1,4.9-6.4h21.4h104.5
				c0,0.1,0,0.1,0,0.2h72.8c7.3,0,14.5-1.9,20.8-5.7c3.7-2.2,8.9-4,15.7-3.6c8,0.6,15.8,4.8,20.8,12.6c5.5,8.6,5.5,20.1-0.2,28.7
				c-5.3,8-13.6,12.2-21.9,12.4c-7.1,0.2-11.9-1.5-15.1-3.4c-6-3.6-12.6-5.9-19.5-5.9l-68.6,0c0,0.1,0.1,0.1,0.1,0.2h-3.6
				c-9.2,0-17.6,6.6-18.5,15.8c-1.1,10.5,7.2,19.4,17.5,19.4h22.3h11.7c9.2,0,17.6,6.6,18.5,15.8c0.9,9.2-5.3,17.2-13.8,19h-90.8
				c-1.2-1.7-2.5-3.3-4-4.8c-6.2-6.2-14.4-9.6-23.2-9.6c-8.8,0-17,3.4-23.2,9.6c-12.8,12.8-12.8,33.6,0,46.4
				c6.2,6.2,14.4,9.6,23.2,9.6c8.8,0,17-3.4,23.2-9.6c1.7-1.7,3.1-3.6,4.4-5.6c0.3,0,0.6,0,1,0h45.6c9.7,0,17.6,7.9,17.6,17.6v0.4
				c0,9.7-7.9,17.6-17.6,17.6h-83.3c-9.2,0-17.6,6.6-18.5,15.8c-1.1,10.5,7.2,19.4,17.5,19.4h123.8h36.1c9.2,0,17.6,6.6,18.5,15.8
				c1.1,10.5-7.2,19.4-17.5,19.4H719v0.4l-5,0c-9.2,0-17.6,6.6-18.5,15.8c-1.1,10.5,7.2,19.4,17.5,19.4h175.6
				c9.7,0,17.6-7.9,17.6-17.6c0-0.2,0-0.4,0-0.6c0-0.1,0-0.1,0-0.2V879.2c0-10.6,8.6-19.2,19.2-19.2h39.8
				c13.2,0,23.9-10.7,23.9-23.9v-53.7c0-5.3,4.3-9.6,9.6-9.6h21.8c2.8,0,5.6-0.9,7.6-2.8c3.5-3.3,4.3-8.4,2.3-12.5l-18.1-36.2
				c-10-20-17.5-41.1-24.1-62.4c-21.3-68.5-87.3-115.8-161.3-111.6h-74.2h-34.2c-0.6,0-1.3,0-1.9,0.1c-3,10-6.8,19.8-11.3,29.1
				C708.5,580.2,713.2,582.5,718.4,582.5z M692.3,644.2c-4.7,4.7-12.4,4.7-17.1,0c-4.7-4.7-4.7-12.4,0-17.1c4.7-4.7,12.4-4.7,17.1,0
				C697,631.8,697,639.5,692.3,644.2z M595.9,718.3c-6.1,6.1-16.1,6.1-22.2,0c-6.1-6.1-6.1-16.1,0-22.2c6.1-6.1,16.1-6.1,22.2,0
				C602,702.2,602,712.1,595.9,718.3z M670.7,859c-6.1,6.1-16.1,6.1-22.2,0c-6.1-6.1-6.1-16.1,0-22.2c6.1-6.1,16.1-6.1,22.2,0
				C676.8,842.9,676.8,852.8,670.7,859z"/>
		</g>
		<g>
			<path class="st7" d="M836.3,233.9l-204.5,77.7c-43.5-29-95.5-40.6-147.6-32.8c-55.5,8.4-104.4,37.8-137.8,83
				c-33.3,45.1-47.1,100.6-38.7,156.1c5.9,39.5,22.6,75.7,48,105.3L179,811.6c-9.4,10-8.8,25.6,1.1,35c4.8,4.5,10.9,6.7,16.9,6.7
				c6.6,0,13.2-2.6,18.1-7.8l177-188.8c9.4,6.8,19.1,12.7,29.3,17.8c7.3,28.5,15.9,58.2,26,88.3c35.8,107.1,83,196.3,140.2,266.3
				c36.1,8.7,69.7,18.6,100.8,29.9c-108.1-93.7-171-237.8-207.2-365.1c11.1,1.8,22.5,2.8,33.9,2.8c10.5,0,21.1-0.8,31.7-2.4
				c2.9-0.4,5.7-0.9,8.6-1.5c16-3.1,31.2-7.9,45.5-14.3c21.1-9.4,40.2-22,56.7-37.3c10.9-10.1,20.7-21.2,29.3-33.3
				c7-9.9,13.2-20.4,18.5-31.5c4.5-9.4,8.2-19.1,11.3-29.1c3.5-11.6,6-23.5,7.5-35.7c1.4-11.5,1.8-23.3,1.3-35.2
				c-0.3-7-1-14.1-2.1-21.2c-1.1-7.6-2.7-15-4.6-22.3c-2.3-9-5.3-17.7-8.7-26.2c-8.3-20.4-19.8-39.4-34.2-56.2l160.6-61l401.6,152.7
				c-9,86.4-57.9,444.4-260.6,619.6c31.3-11.7,65.3-22.1,101.9-31.1c57.2-70.2,98.5-162.4,141.9-267.7
				c54.4-132.1,68.6-316.4,70.6-336.3l1.3-19.2L836.3,233.9z M676,484.9c0.1,5.9-0.2,11.7-0.7,17.4c-1.5,15.7-5.4,30.9-11.2,45.1
				c-5.1,12.5-11.8,24.3-19.9,35.1c-13.8,18.6-31.7,34.2-52.4,45.4c-15.9,8.6-33.5,14.7-52.4,17.5c-7.8,1.2-15.7,1.8-23.5,1.8
				c-16.7,0.1-33.2-2.4-48.9-7.4c-16.6-5.3-32.4-13.3-46.9-24c-5.3-3.9-10.3-8.1-15-12.5c-26-24.5-43-56.9-48.4-92.8
				c-6.4-42.4,4.1-84.8,29.6-119.3c25.5-34.5,62.9-57,105.3-63.4c8.1-1.2,16.2-1.8,24.2-1.8c18.4,0,36.5,3.2,53.7,9.3
				c14.6,5.2,28.5,12.6,41.4,22.1c5.2,3.8,10.1,7.9,14.7,12.3c11.5,10.8,21.3,23.2,29.1,36.7c6.2,10.8,11.2,22.4,14.7,34.6
				c2.1,7.1,3.7,14.3,4.8,21.7C675.4,470.1,675.9,477.5,676,484.9z"/>
			<path class="st7" d="M903.2,1192.8c47.4-31.6,123.1-66.1,242.4-90.2v-46.5c-44.2,8.6-83,18.6-117.2,29.5
				c-96.7,30.8-156,68.8-191.9,101.3c-36.8-33.2-97.9-72.2-198.6-103.4c-32.5-10.1-69.2-19.4-110.5-27.4l-0.5,2.4v44
				c119.7,24.1,195.6,58.7,243,90.3c-40.4-13-94.9-22.8-167.4-22.8c-38.5,0-82.1,2.8-131.4,9.4v45.4l0.1,0.5
				c49.9-6.9,93.5-9.8,131.4-9.8c90.9,0,149.3,16.5,185,32.9c4.9,2.3,9.4,4.5,13.5,6.7l20.6,15.1l14.1,10.3c0.2,0.2,0.3,0.4,0.4,0.4
				l0.1-0.1l0.5,0.4c0.1-0.1,0.7-0.9,1.9-2.1l12.9-9.3l20.1-14.5c4.2-2.3,8.8-4.6,13.9-7c35.7-16.5,94.2-32.9,185-32.9
				c37.8,0,81.2,2.8,130.9,9.7v-45.9c-49-6.5-92.5-9.3-130.9-9.3C998.1,1170,943.6,1179.8,903.2,1192.8z"/>
		</g>
	</g>
</g>
<g id="Layer_2">
</g>
</svg>
