<?xml version="1.0" encoding="utf-8"?>
<!-- Generator: Adobe Illustrator 28.1.0, SVG Export Plug-In . SVG Version: 6.00 Build 0)  -->
<svg version="1.1" xmlns="http://www.w3.org/2000/svg" xmlns:xlink="http://www.w3.org/1999/xlink" x="0px" y="0px"
	 viewBox="0 0 1133.9 1133.9" style="enable-background:new 0 0 1133.9 1133.9;" xml:space="preserve">
<style type="text/css">
	.st0{display:none;}
	.st1{display:inline;}
	.st2{fill:none;stroke:#000000;stroke-width:0.9157;stroke-miterlimit:10;}
	.st3{fill:#221F20;}
	.st4{opacity:0.6;}
	.st5{opacity:0.3;}
	.st6{opacity:0.3;fill:#221F20;}
	.st7{fill:#FFFFFF;}
	.st8{opacity:0.3;fill:#FFFFFF;}
	.st9{fill:url(#SVGID_1_);}
	.st10{fill:none;}
	.st11{fill:url(#SVGID_00000165209573981345743110000008811910432106382768_);}
	.st12{fill:url(#SVGID_00000016758742233724940730000010375281731837827975_);}
	.st13{fill:url(#SVGID_00000017475634516520557790000015203445053163072145_);}
	.st14{fill:url(#SVGID_00000142163830494413688790000002380715970674270081_);}
	.st15{fill:url(#SVGID_00000172408773833713256900000012540968837364081050_);}
	.st16{fill:url(#SVGID_00000089576401495421396910000018271525265787351214_);}
	.st17{fill:url(#SVGID_00000086692497501584693110000008986443325336711601_);}
	.st18{fill:url(#SVGID_00000155839911848788081740000008685104703930742955_);}
	.st19{fill:url(#SVGID_00000072959344530371416490000004506573249338570418_);}
	.st20{fill:url(#SVGID_00000041979450497982983820000012886701598455537033_);}
	.st21{fill:url(#SVGID_00000011725078465646044010000017461451189756429725_);}
	.st22{fill:url(#SVGID_00000048487483133298527180000001297135068575985830_);}
	.st23{fill:url(#SVGID_00000147210093133370189230000005208983613990343074_);}
	.st24{fill:url(#SVGID_00000073714342037823964140000012344592460231425921_);}
	.st25{fill:url(#SVGID_00000159428128008832142000000013174020004695094672_);}
	.st26{fill:url(#SVGID_00000080918642464338703730000012253359565172787356_);}
	.st27{fill:url(#SVGID_00000053504026401524798190000004078879057396075448_);}
	.st28{fill:url(#SVGID_00000158743926117696295590000001618468525186443691_);}
	.st29{fill:url(#SVGID_00000052788245314129986610000014318405637905808285_);}
	.st30{fill:url(#SVGID_00000122682688064293765590000008238019287039877304_);}
	.st31{fill:url(#SVGID_00000177447924719234053790000005342118107537759152_);}
	.st32{fill:url(#SVGID_00000062179215448786654230000012294014671999214515_);}
	.st33{fill:url(#SVGID_00000155106748796205016190000000991322281440283275_);}
	.st34{fill:url(#SVGID_00000032640290303391555590000000801719575930512573_);}
	.st35{fill:url(#SVGID_00000177446001280433098320000015312515561318451588_);}
	.st36{fill:url(#SVGID_00000157280695308685390390000011438111552771543430_);}
	.st37{fill:url(#SVGID_00000140714521664223820580000000193239438315809164_);}
	.st38{fill:url(#SVGID_00000044141460845697811190000014537146191877849476_);}
	.st39{fill:url(#SVGID_00000031204726588715596290000015871942123155077795_);}
	.st40{fill:url(#SVGID_00000047032179409972842370000010504186300048643257_);}
	.st41{fill:url(#SVGID_00000183958549241934525870000015379373931303201442_);}
	.st42{fill:url(#SVGID_00000034806269033821098790000017923350467156168604_);}
	.st43{fill:url(#SVGID_00000110470981704487508890000005654053928991670202_);}
	.st44{fill:url(#SVGID_00000098919413487383939650000015550588430668566702_);}
	.st45{fill:url(#SVGID_00000035517135566961078840000007776088644730812825_);}
	.st46{fill:url(#SVGID_00000157995254280220508730000011449979809362459581_);}
	.st47{fill:url(#SVGID_00000116936223963803732470000005208105136674729368_);}
	.st48{fill:url(#SVGID_00000098932758651859095620000018085053577055029691_);}
	.st49{fill:url(#SVGID_00000065045077525106143090000013275354773451164825_);}
	.st50{fill:#172B43;}
	.st51{fill:url(#SVGID_00000164508553015748434840000014670439098044071095_);}
	.st52{fill:url(#SVGID_00000066493554893748715870000009198921229267906229_);}
	.st53{fill:url(#SVGID_00000116921073486861161860000015970015261498478724_);}
	.st54{fill:url(#SVGID_00000019676824633249654290000009283407044448005002_);}
	.st55{fill:url(#SVGID_00000106866508688627169360000013963712887325843843_);}
	.st56{fill:url(#SVGID_00000109739957589159488280000012454940622037088912_);}
	.st57{fill:url(#SVGID_00000138565169518210765270000005675351901242178188_);}
	.st58{fill:url(#SVGID_00000012438806900064796840000008729015325085694891_);}
	.st59{fill:url(#SVGID_00000125568537462070939070000017440836711526202282_);}
	.st60{fill:url(#SVGID_00000155118835022584603370000001751255831264197050_);}
	.st61{fill:url(#SVGID_00000002363865019787138160000005967563544882786996_);}
	.st62{fill:url(#SVGID_00000075845169648066589020000000785830075040852393_);}
	.st63{fill:url(#SVGID_00000025441717512231289690000005873223602962637990_);}
	.st64{fill:url(#SVGID_00000173883036588064465350000007796128183793127301_);}
	.st65{fill:url(#SVGID_00000013911421971465264780000003047287576300128157_);}
	.st66{fill:url(#SVGID_00000133499865681132809570000003480532846794149521_);}
	.st67{fill:url(#SVGID_00000154394502147762280910000006251882036593949072_);}
	.st68{fill:url(#SVGID_00000168837409789015579170000010689471759007931529_);}
	.st69{fill:url(#SVGID_00000159466482091692543010000017971027513562203047_);}
	.st70{fill:url(#SVGID_00000092437508327411368670000014543078827762195895_);}
	.st71{fill:url(#SVGID_00000124856982918795339970000013039164956704934807_);}
	.st72{fill:url(#SVGID_00000004545655131143099330000017827112903129716921_);}
	.st73{fill:url(#SVGID_00000050628352415501176730000011134870095969657241_);}
	.st74{fill:url(#SVGID_00000032646268637756185880000008569741107428121516_);}
	.st75{fill:url(#SVGID_00000000943449958708892460000014193186675585178006_);}
	.st76{fill:url(#SVGID_00000013884594031437606890000010637956190257028757_);}
	.st77{fill:url(#SVGID_00000037667914887418559960000012626780769625796022_);}
	.st78{fill:url(#SVGID_00000023973729223461033730000007985671231095407265_);}
	.st79{fill:url(#SVGID_00000162318243434824057170000009440612015855311237_);}
	.st80{fill:url(#SVGID_00000018234448876346465430000013135323661423994512_);}
	.st81{fill:url(#SVGID_00000000212147613086588080000001151792437194723731_);}
	.st82{fill:url(#SVGID_00000097485819801317345460000005943796148279228848_);}
	.st83{fill:url(#SVGID_00000084527453464286759540000004343685773345477268_);}
	.st84{fill:url(#SVGID_00000083087150304528474840000017216191257169072025_);}
	.st85{fill:url(#SVGID_00000114043424947679459950000005381930707567947408_);}
	.st86{fill:url(#SVGID_00000087382535376169519200000011752437232012414605_);}
	.st87{fill:url(#SVGID_00000084497624972266220570000008516259062046845840_);}
	.st88{fill:url(#SVGID_00000157308184492677724750000003921589745242433194_);}
	.st89{fill:url(#SVGID_00000093863698086008349010000014119295614274589077_);}
	.st90{fill:url(#SVGID_00000056388116725698923670000002092130649265329081_);}
	.st91{fill:url(#SVGID_00000095327210291392225740000015668881981072765621_);}
	.st92{fill:url(#SVGID_00000167369254332683809710000015759774174134804157_);}
	.st93{fill:url(#SVGID_00000013878061721715022780000018292497529039868309_);}
	.st94{fill:url(#SVGID_00000057856522729755775580000012289898409864483978_);}
	.st95{fill:url(#SVGID_00000101792442940258303820000012557781608766258580_);}
	.st96{fill:url(#SVGID_00000165211131473940852150000003006497284672828330_);}
	.st97{fill:url(#SVGID_00000111902901569948104420000017264344403211169695_);}
	.st98{fill:url(#SVGID_00000163762784321260078360000010191101248261523589_);}
	.st99{fill:url(#SVGID_00000157277820124934095380000000986114176932160145_);}
	.st100{fill:url(#SVGID_00000166642719690851111270000012297296219953445800_);}
	.st101{fill:url(#SVGID_00000174567240183073613660000009560487820063004339_);}
	.st102{fill:url(#SVGID_00000158003143583655009040000000444086216388395410_);}
	.st103{fill:url(#SVGID_00000078044468585301375900000004959962654308694421_);}
	.st104{fill:url(#SVGID_00000029018523581732020450000010339166371820865719_);}
	.st105{fill:url(#SVGID_00000165192562950716531430000012299690325594084517_);}
	.st106{fill:url(#SVGID_00000174597727247051261200000010480903784181670312_);}
	.st107{fill:url(#SVGID_00000153673417556255997390000011625524905581276300_);}
	.st108{fill:url(#SVGID_00000122697864943086192270000016641476247529116552_);}
	.st109{fill:url(#SVGID_00000093158639538213795910000007364681542649892779_);}
	.st110{fill:url(#SVGID_00000177467813469256192040000004926189831506480022_);}
	.st111{fill:url(#SVGID_00000050633689108457330520000014163213946441859463_);}
	.st112{fill:url(#SVGID_00000119081994094246939030000002123347471345267357_);}
	.st113{fill:url(#SVGID_00000154397259441583401910000004523229714782280366_);}
	.st114{fill:url(#SVGID_00000111171570786781215950000010818723443296309153_);}
	.st115{fill:url(#SVGID_00000064315842998549381410000010920926252378649750_);}
	.st116{fill:url(#SVGID_00000057868676338167254640000010553684228132084367_);}
	.st117{fill:url(#SVGID_00000078047056392391062740000013390591230474020252_);}
	.st118{fill:url(#SVGID_00000034090530477502018310000016387270226562394781_);}
	.st119{fill:url(#SVGID_00000085958664925151257560000001350946994509598600_);}
	.st120{fill:url(#SVGID_00000054242849146590432110000008433630471025327800_);}
	.st121{fill:url(#SVGID_00000095312116852143015270000012646952878442394552_);}
	.st122{fill:url(#SVGID_00000016073806250364380120000008700592946363412106_);}
	.st123{fill:url(#SVGID_00000154423625720076667480000002468471287982677434_);}
	.st124{fill:url(#SVGID_00000054977897860378289740000016585784186281151140_);}
	.st125{fill:url(#SVGID_00000156575253150338761950000010945322180607108263_);}
	.st126{fill:url(#SVGID_00000039838696665588291670000001871878830413858434_);}
	.st127{fill:url(#SVGID_00000049193851057359775460000003406268621319315084_);}
	.st128{fill:url(#SVGID_00000024721892051392610290000006356859588406076552_);}
	.st129{fill:url(#SVGID_00000173855427361455394980000012460628628028205473_);}
	.st130{fill:url(#SVGID_00000034083147453813635300000003716989964617202852_);}
	.st131{fill:url(#SVGID_00000029027811737472135250000018330543870889810595_);}
	.st132{fill:url(#SVGID_00000149374846855621328220000003358208076265479865_);}
	.st133{fill:url(#SVGID_00000097466091668011719410000010267941767318972596_);}
	.st134{fill:url(#SVGID_00000183242739582898521630000006606072639157839520_);}
	.st135{fill:url(#SVGID_00000030473448362512078760000009946503978441198263_);}
	.st136{fill:url(#SVGID_00000017499149154448199390000017961302873459116417_);}
	.st137{fill:url(#SVGID_00000054251821965848176270000003151351834577087873_);}
	.st138{fill:url(#SVGID_00000039101998768500996470000009754307050889164475_);}
	.st139{fill:url(#SVGID_00000011751539399380459460000008778663086020461741_);}
	.st140{fill:url(#SVGID_00000143616856717562359530000005258289349322619287_);}
	.st141{fill:url(#SVGID_00000162335831641954248550000005295317300400599939_);}
	.st142{fill:url(#SVGID_00000008147306140853760990000017107246601523676550_);}
	.st143{fill:url(#SVGID_00000096054451628237058400000017949151722892981167_);}
	.st144{fill:url(#SVGID_00000077322019312391652540000017827738286846827937_);}
	.st145{fill:url(#SVGID_00000018924792547990984770000008075287079890831282_);}
	.st146{fill:url(#SVGID_00000030474530545866234340000004083208549473364635_);}
	.st147{fill:url(#SVGID_00000097471734471125763720000008546643127754878864_);}
	.st148{fill:url(#SVGID_00000114074722635814086850000005660484123832414095_);}
	.st149{fill:url(#SVGID_00000100354593651484431750000008794658485770142081_);}
	.st150{fill:url(#SVGID_00000073721517836187825200000005854246631146012052_);}
	.st151{fill:url(#SVGID_00000081640851184749617990000001468610163294595479_);}
	.st152{fill:url(#SVGID_00000084504758521646068310000017538355191569514935_);}
	.st153{fill:url(#SVGID_00000118362269140485601860000000479886301080950666_);}
	.st154{fill:url(#SVGID_00000183222287607705740070000005008256027671827374_);}
	.st155{fill:url(#SVGID_00000089563611789967361340000011886207333484996782_);}
	.st156{fill:url(#SVGID_00000168805108630039542100000016180477431236429440_);}
	.st157{fill:url(#SVGID_00000121981818064632009840000017745295600632927163_);}
	.st158{fill:url(#SVGID_00000173155596739266730630000017933191173857988993_);}
	.st159{fill:url(#SVGID_00000047761592607927623610000015644612662900242567_);}
	.st160{fill:url(#SVGID_00000021093991363093962770000018073412074717964688_);}
	.st161{fill:url(#SVGID_00000039822728250856957900000003623629509357765021_);}
	.st162{fill:url(#SVGID_00000116212185836368902210000011512802409287069362_);}
	.st163{fill:url(#SVGID_00000070835723772540817570000004361269163609738895_);}
	.st164{fill:url(#SVGID_00000021817784842636660600000002315208193948069308_);}
	.st165{fill:url(#SVGID_00000099640661272003659560000014307715923303365258_);}
	.st166{fill:url(#SVGID_00000110462820630347022370000004753296102905495431_);}
	.st167{fill:url(#SVGID_00000173839413710096840280000012168583670891376775_);}
	.st168{fill:url(#SVGID_00000165941311329584120690000009737265317174256022_);}
	.st169{fill:url(#SVGID_00000085219335101774005730000013496033040071507085_);}
	.st170{fill:url(#SVGID_00000018921447518650413210000005577698661928586121_);}
</style>
<g id="Layer_1">
	<g>
		<g>
			<g>
				<path class="st7" d="M379.2,431.8c-5.2,0-9.4,4.2-9.4,9.4c0,5.2,4.2,9.4,9.4,9.4c5.2,0,9.4-4.2,9.4-9.4
					C388.5,436,384.4,431.8,379.2,431.8z"/>
			</g>
			<g>
				<path class="st7" d="M327.4,248.3H324V239h0c0-6.6-5.4-11.9-12-11.9c-6.6,0-11.9,5.3-12,11.9h0v9.3h-3.3c-0.7,0-1.3,0.6-1.3,1.3
					v18.7c0,0.7,0.6,1.3,1.3,1.3h30.7c0.7,0,1.3-0.6,1.3-1.3v-18.7C328.7,248.9,328.1,248.3,327.4,248.3z M304.7,239
					C304.7,239,304.7,239,304.7,239c0-4,3.3-7.2,7.3-7.2c4,0,7.3,3.3,7.3,7.3c0,0,0,0,0,0v9.3h-14.7V239z M314.6,262.4h-5l1.6-4.7
					c-1-0.4-1.8-1.3-1.8-2.5c0-1.5,1.2-2.7,2.7-2.7c1.5,0,2.7,1.2,2.7,2.7c0,1.2-0.7,2.1-1.8,2.5L314.6,262.4z"/>
			</g>
		</g>
		<g class="st4">
			<g>
				<path class="st7" d="M439.4,398.5c0.2,3.8,3.3,6.8,7.1,6.8c4,0,7.2-3.2,7.2-7.2s-3.2-7.2-7.2-7.2c-3.3,0-6.1,2.2-6.9,5.3H348
					c-0.6-4.8-4.6-8.5-9.5-8.5c-5.3,0-9.6,4.3-9.6,9.6c0,5.3,4.3,9.6,9.6,9.6c4.9,0,8.9-3.7,9.5-8.5H439.4z"/>
				<path class="st7" d="M234.9,261.6c-4,0-7.2,3.2-7.2,7.2c0,4,3.2,7.2,7.2,7.2c4,0,7.2-3.2,7.2-7.2
					C242.1,264.8,238.8,261.6,234.9,261.6z"/>
			</g>
			<g>
				<path class="st7" d="M398.9,385.4h-1.9v-5.3h0c0-3.7-3-6.7-6.7-6.7c-3.7,0-6.7,3-6.7,6.7h0v5.3h-1.9c-0.4,0-0.7,0.3-0.7,0.8
					v10.5c0,0.4,0.3,0.8,0.7,0.8h17.3c0.4,0,0.7-0.3,0.7-0.8v-10.5C399.7,385.7,399.4,385.4,398.9,385.4z M386.2,380.1
					C386.2,380.1,386.2,380.1,386.2,380.1c0-2.2,1.9-4.1,4.1-4.1c2.3,0,4.1,1.8,4.1,4.1c0,0,0,0,0,0v5.3h-8.2V380.1z M391.7,393.3
					h-2.8l0.9-2.6c-0.6-0.2-1-0.8-1-1.4c0-0.8,0.7-1.5,1.5-1.5c0.8,0,1.5,0.7,1.5,1.5c0,0.6-0.4,1.2-1,1.4L391.7,393.3z"/>
				<path class="st7" d="M418.8,229.3h-2.6v-7.2h0c0-5-4.1-9.1-9.2-9.1c-5,0-9.1,4.1-9.2,9.1h0v7.2h-2.6c-0.6,0-1,0.5-1,1v14.3
					c0,0.6,0.5,1,1,1h23.5c0.6,0,1-0.5,1-1v-14.3C419.9,229.7,419.4,229.3,418.8,229.3z M401.5,222.1
					C401.5,222.1,401.5,222.1,401.5,222.1c0-3,2.5-5.5,5.6-5.5c3.1,0,5.6,2.5,5.6,5.6c0,0,0,0,0,0v7.2h-11.2V222.1z M409,240h-3.8
					l1.2-3.6c-0.8-0.3-1.3-1-1.3-1.9c0-1.1,0.9-2,2-2c1.1,0,2,0.9,2,2c0,0.9-0.6,1.6-1.3,1.9L409,240z"/>
			</g>
		</g>
		<g class="st5">
			<path class="st7" d="M465,245.4H360.2v-90.7c-0.8,0-1.5,0-2.3,0.1v90.7h-2.7v2.3h2.7V331h-60.3v100.8c-3.4,0.5-6,3.5-6,7.1
				c0,4,3.2,7.2,7.2,7.2c4,0,7.2-3.2,7.2-7.2c0-3.6-2.6-6.5-6-7.1v-98.5h60.3v-85.6h107.1v-56.8c-0.7-0.6-1.5-1.2-2.3-1.8V245.4z"/>
		</g>
		<g>
			<path class="st8" d="M410.8,413.6V323h77.6v-88.6h17.2c-0.6-1-1.2-2-1.8-3h-18.3V320h-74.6V161.9h-3V320h-59.3v-53.2h-92.1
				c-0.1-26.2-0.2-52.1-0.1-72.7c-1,0.8-2,1.7-3,2.6c-0.1,20.3,0,45.1,0.1,70.1h-46.7c-0.3,1-0.7,2-1,3h47.6
				c0.2,38.6,0.5,76.8,0.7,97.5h-49.6c0.3,1,0.6,2,0.9,3h51.6l0-1.5c-0.2-23.1-0.5-61.2-0.7-99h89.1V323h62.3v87.7H293.9v60.3
				c1,0.5,2,0.9,3,1.3v-58.7H410.8z"/>
			<path class="st8" d="M468.5,410.6c-0.7-6.2-6-11.1-12.4-11.1c-6.9,0-12.6,5.6-12.6,12.6c0,6.9,5.6,12.6,12.6,12.6
				c6.4,0,11.7-4.8,12.4-11.1h32.6c0.7-1,1.3-2,2-3H468.5z"/>
		</g>
		<g>
			<path class="st7" d="M379.2,450.5h-1.5v35.2c1-0.1,2-0.2,3-0.3v-35H379.2z"/>
			<path class="st7" d="M236,352.6v-76.6h-1.1h-1.1v74.4H204v14.9c0.7,2.5,1.5,5,2.3,7.4v-20.1H236z"/>
			<path class="st7" d="M434.1,428.7h49.8V320.8h-69.7c-0.5-3.4-3.5-6-7-6c-4,0-7.2,3.2-7.2,7.2c0,4,3.2,7.2,7.2,7.2
				c3.6,0,6.5-2.6,7-6h67.4v103.3h-49.8v45.4c0.8-0.3,1.5-0.7,2.3-1V428.7z"/>
		</g>
		<g>
			<path class="st7" d="M772.5,385.6c-0.6,9.6,7,17.5,16.4,17.5h81.7c8.8,0,16.4-6.6,17-15.4c0.6-9.6-7-17.5-16.4-17.5h-81.7
				C780.7,370.2,773.1,376.8,772.5,385.6z"/>
			<path class="st7" d="M989.1,321.6c0.6-9.6-7-17.5-16.4-17.5H859.4c-8.8,0-16.4,6.6-17,15.4c-0.6,9.6,7,17.5,16.4,17.5h113.3
				C980.9,336.9,988.6,330.3,989.1,321.6z"/>
			<path class="st7" d="M926.8,370.2c-8.8,0-16.4,6.6-17,15.4c-0.6,9.6,7,17.5,16.4,17.5h37.4c8.8,0,16.4-6.6,17-15.4
				c0.6-9.6-7-17.5-16.4-17.5H926.8z"/>
			<path class="st7" d="M830.1,237.8h-37.4c-8.8,0-16.4,6.6-17,15.4c-0.6,9.6,7,17.5,16.4,17.5h37.4c8.8,0,16.4-6.6,17-15.4
				C847.1,245.8,839.5,237.8,830.1,237.8z"/>
			<path class="st7" d="M556.6,255.4c0.5-7.6-4.2-14.2-10.9-16.6c3.2,7.9,6,16.1,8.2,24.5C555.4,261,556.4,258.3,556.6,255.4z"/>
			<path class="st7" d="M760.5,701.1c-9.1,0-16.4,7.4-16.4,16.5c0,9.1,7.4,16.5,16.4,16.5c9.1,0,16.5-7.4,16.5-16.5
				C777,708.5,769.6,701.1,760.5,701.1z"/>
			<path class="st7" d="M884.5,502.6H857c-8.8,0-16.4,6.6-17,15.4c-0.6,9.6,7,17.5,16.4,17.5h75.6c8.8,0,16.4-6.6,17-15.4
				c0.6-9.6-7-17.5-16.4-17.5h4.4c-9.1,0-16.5-7.4-16.5-16.5v-0.7c0-8.9,7.2-16.1,16.1-16.1c0.2,0,13.9,0,14.1,0
				c8.5-0.3,15.9-6.8,16.4-15.3c0.6-9.6-7-17.5-16.4-17.5h-118c-8.8,0-16.4,6.6-17,15.4c-0.6,9.6,7,17.5,16.4,17.5h52.2
				c9.1,0,16.4,7.4,16.4,16.5v0.4C901,495.2,893.6,502.6,884.5,502.6z"/>
			<path class="st7" d="M883.9,568.8c-9.1,0-16.5,7.4-16.5,16.4c0,9.1,7.4,16.5,16.5,16.5H907c9.1,0,16.4-7.4,16.4-16.5
				c0-9.1-7.4-16.4-16.4-16.4H883.9z"/>
			<path class="st7" d="M660.2,171.7c-9.1,0-16.5,7.4-16.5,16.5c0,9.1,7.4,16.4,16.5,16.4h12.4c9.1,0,16.5-7.4,16.5-16.4
				c0-9.1-7.4-16.5-16.5-16.5H660.2z"/>
			<path class="st7" d="M690.3,425.3c3.1-3.1,3.1-8.2,0-11.4c-3.1-3.1-8.2-3.1-11.4,0c-3.1,3.1-3.1,8.2,0,11.4
				C682,428.4,687.1,428.4,690.3,425.3z"/>
			<path class="st7" d="M679.1,558.2c3.3-3.3,3.3-8.8,0-12.1c-3.3-3.4-8.8-3.4-12.1,0c-3.4,3.3-3.4,8.8,0,12.1
				C670.3,561.5,675.7,561.5,679.1,558.2z"/>
			<path class="st7" d="M639.5,495.5c5.2-5.2,5.2-13.6,0-18.7c-5.2-5.2-13.6-5.2-18.7,0c-5.2,5.2-5.2,13.6,0,18.7
				C625.9,500.7,634.3,500.7,639.5,495.5z"/>
			<path class="st7" d="M537.2,585.2c0-9.1-7.4-16.4-16.5-16.4h-45.9c0,0,0,0,0,0h-57.2c-8.6,0-16.4,6.2-17.3,14.8
				c-1,9.8,6.7,18.1,16.4,18.1h104C529.9,601.7,537.2,594.3,537.2,585.2z"/>
			<path class="st7" d="M667.3,866.4c9.1,0,16.5-7.4,16.5-16.5c0-9.1-7.4-16.5-16.5-16.5h-1.7c-9.1,0-16.5,7.4-16.5,16.5
				c0,9.1,7.4,16.5,16.5,16.5H667.3z"/>
			<path class="st7" d="M559,336.9h26.7H804c8.6,0,16.4-6.2,17.3-14.8c1-9.8-6.7-18.1-16.4-18.1h-76.3c-9.1,0-16.5-7.4-16.5-16.5
				v-0.4c0-9.1,7.4-16.5,16.4-16.5h9.1c8.6,0,16.4-6.2,17.3-14.8c1-9.8-6.7-18.1-16.4-18.1H595c-8.6,0-16.4,6.2-17.3,14.8
				c-1,9.8,6.7,18.1,16.4,18.1h82.1c9.1,0,16.5,7.4,16.5,16.5v0.4c0,9.1-7.4,16.5-16.5,16.5h-116C560.7,315.2,560.3,326.2,559,336.9
				z"/>
			<path class="st7" d="M821.4,651.4c0,9.1,7.4,16.5,16.5,16.5h41.5c9.1,0,16.5-7.4,16.5-16.5c0-9.1-7.4-16.4-16.5-16.4h-41.5
				C828.8,635,821.4,642.3,821.4,651.4z"/>
			<path class="st7" d="M792.6,717.6c0,9.1,7.4,16.5,16.5,16.5H837c9.1,0,16.5-7.4,16.5-16.5c0-9.1-7.4-16.4-16.5-16.4h-27.9
				C800,701.1,792.6,708.5,792.6,717.6z"/>
			<path class="st7" d="M778.9,767.3H766c-9.1,0-16.5,7.4-16.5,16.5c0,9.1,7.4,16.5,16.5,16.5h12.9c9.1,0,16.5-7.4,16.5-16.5
				C795.4,774.7,788,767.3,778.9,767.3z"/>
			<path class="st7" d="M553.7,403.1h29.7c0,0,0,0,0,0h63.9c7,0,13.8-2.1,19.6-6c2.5-1.7,5.4-3.4,8.3-4.3c3.5-1.2,7.1-1.7,10.7-1.6
				c6.8,0.3,13.6,3,18.8,8.3c10.1,10.1,11,25.8,2.8,36.9c-0.8,1.1-1.7,2.3-2.8,3.3c-7.6,7.6-18.5,10.2-28.1,7.2
				c-4-1.3-7.5-3.1-10.1-4.9c-5.9-4-13-6-20.1-6h-65.2c0,0.1,0,0.2,0,0.4h-40.3c-0.6-0.7-1.1-1.5-1.8-2.2c-4.1-4.1-9.3-6.6-15-7.2
				c-8,11.3-17.2,21.7-27.4,31.2c1.1,4.3,3.3,8.4,6.6,11.8c4.8,4.8,11.1,7.4,17.9,7.4c6.7,0,13.1-2.6,17.9-7.4
				c0.2-0.2,0.3-0.4,0.5-0.7h43.1c7.8,0,15.2-3.1,20.7-8.6l0.6-0.6h0c14.4-14.4,37.7-14.4,52.1,0c2.8,2.8,5,5.9,6.7,9.2
				c7.1,13.9,4.9,31.3-6.7,42.9c-14.4,14.4-37.7,14.4-52.1,0h0c-0.2-0.2-0.4-0.5-0.7-0.7c-5.6-5.9-13.4-9.3-21.5-9.3h-6.5
				c0,0.1,0,0.3,0,0.4H454c-1.1-1.6-2.3-3.1-3.7-4.5c-2-2-4.3-3.7-6.7-5c-13.4,6-27.6,10.5-42.6,13.4c-5.5,11.4-3.6,25.6,5.9,35.1
				c5.8,5.8,13.5,9,21.7,9c8.2,0,15.9-3.2,21.7-9c1.8-1.8,3.3-3.8,4.5-6h20h97.8c0,0.1,0,0.1,0,0.2h68.1c6.8,0,13.5-1.8,19.4-5.3
				c3.4-2,8.3-3.8,14.7-3.3c7.5,0.5,14.8,4.5,19.4,11.8c5.2,8.1,5.1,18.9-0.2,26.9c-4.9,7.5-12.7,11.4-20.5,11.6
				c-6.6,0.1-11.2-1.4-14.2-3.2c-5.6-3.4-11.8-5.5-18.3-5.5l-64.2,0c0,0.1,0,0.1,0.1,0.2h-3.4c-8.6,0-16.4,6.2-17.3,14.8
				c-1,9.8,6.7,18.1,16.4,18.1h20.9h10.9c8.6,0,16.4,6.2,17.3,14.8c0.9,8.7-5,16.1-12.9,17.8h-84.9c-1.1-1.6-2.3-3.1-3.7-4.5
				c-5.8-5.8-13.5-9-21.7-9c-8.2,0-15.9,3.2-21.7,9c-12,12-12,31.4,0,43.4c5.8,5.8,13.5,9,21.7,9c8.2,0,15.9-3.2,21.7-9
				c1.6-1.6,2.9-3.4,4.1-5.3c0.3,0,0.6,0,0.9,0H568c9.1,0,16.5,7.4,16.5,16.5v0.4c0,9.1-7.4,16.5-16.4,16.5h-77.9
				c-8.6,0-16.5,6.2-17.3,14.8c-1,9.8,6.7,18.1,16.4,18.1H605h33.8c8.6,0,16.4,6.2,17.3,14.8c1,9.8-6.7,18.1-16.4,18.1h-85.5v0.4
				l-4.7,0c-8.6,0-16.5,6.2-17.3,14.8c-1,9.8,6.7,18.1,16.4,18.1H713c9.1,0,16.4-7.4,16.4-16.5c0-0.2,0-0.3,0-0.5c0-0.1,0-0.1,0-0.2
				V680.7c0-9.9,8-18,18-18h37.2c12.3,0,22.3-10,22.3-22.3v-50.3c0-4.9,4-8.9,8.9-8.9h20.4c2.6,0,5.2-0.9,7.1-2.6
				c3.3-3.1,4-7.8,2.1-11.7l-16.9-33.8c-9.4-18.7-16.4-38.4-22.6-58.4c-19.9-64.1-81.6-108.4-150.9-104.4h-69.4h-32
				c-0.6,0-1.2,0-1.7,0.1c-2.8,9.4-6.4,18.5-10.6,27.3C544.4,401,548.8,403.1,553.7,403.1z M529.2,460.9c-4.4,4.4-11.6,4.4-16,0
				c-4.4-4.4-4.4-11.6,0-16c4.4-4.4,11.6-4.4,16,0C533.6,449.3,533.6,456.4,529.2,460.9z M439,530.2c-5.7,5.7-15,5.7-20.8,0
				c-5.7-5.7-5.7-15,0-20.8c5.7-5.7,15-5.7,20.8,0C444.8,515.1,444.8,524.4,439,530.2z M509,661.8c-5.7,5.7-15,5.7-20.8,0
				c-5.7-5.7-5.7-15,0-20.8c5.7-5.7,15-5.7,20.8,0C514.8,646.8,514.8,656.1,509,661.8z"/>
		</g>
		<g>
			<path class="st7" d="M663.9,77l-191.3,72.7c-40.7-27.1-89.4-38-138.1-30.7c-51.9,7.8-97.7,35.4-128.9,77.6
				c-31.2,42.2-44.1,94.1-36.2,146c5.6,37,21.1,70.8,44.9,98.5L49,617.5c-8.8,9.3-8.3,24,1.1,32.7c4.5,4.2,10.2,6.3,15.8,6.3
				c6.2,0,12.3-2.5,16.9-7.3l165.6-176.6c8.8,6.4,17.9,11.9,27.4,16.7c6.8,26.6,14.9,54.4,24.3,82.6
				c33.5,100.2,77.7,183.7,131.2,249.2c33.8,8.1,65.2,17.4,94.3,27.9c-101.2-87.6-159.9-222.4-193.8-341.5c10.4,1.7,21,2.6,31.7,2.6
				c9.8,0,19.8-0.7,29.7-2.2c2.7-0.4,5.4-0.9,8-1.4c14.9-2.9,29.2-7.4,42.6-13.4c19.7-8.8,37.6-20.6,53.1-34.9
				c10.2-9.4,19.4-19.9,27.4-31.2c6.6-9.3,12.4-19.1,17.3-29.4c4.2-8.8,7.7-17.9,10.6-27.3c3.3-10.8,5.7-22,7-33.4
				c1.3-10.8,1.7-21.8,1.2-32.9c-0.3-6.6-1-13.2-2-19.9c-1.1-7.1-2.5-14.1-4.3-20.9c-2.2-8.4-4.9-16.6-8.2-24.5
				c-7.8-19.1-18.6-36.8-32-52.6l150.2-57.1L1039.7,272c-8.4,80.8-54.2,415.7-243.8,579.6c29.3-10.9,61.1-20.7,95.3-29.1
				c53.5-65.7,92.1-151.9,132.7-250.5c50.9-123.6,64.2-296,66.1-314.7l1.2-18L663.9,77z M514,311.8c0.1,5.5-0.2,10.9-0.7,16.3
				c-1.4,14.7-5,28.9-10.5,42.2c-4.8,11.7-11.1,22.7-18.6,32.8c-12.9,17.4-29.6,32-49,42.5c-14.9,8.1-31.4,13.7-49,16.4
				c-7.3,1.1-14.7,1.7-21.9,1.7c-15.6,0.1-31.1-2.3-45.8-7c-15.6-4.9-30.4-12.5-43.9-22.4c-4.9-3.6-9.6-7.6-14-11.7
				c-24.4-23-40.3-53.2-45.3-86.8c-6-39.7,3.9-79.3,27.7-111.6c23.8-32.3,58.8-53.3,98.5-59.3c7.6-1.1,15.2-1.7,22.7-1.7
				c17.2,0,34.2,3,50.2,8.7c13.7,4.9,26.7,11.8,38.7,20.7c4.9,3.6,9.5,7.4,13.8,11.5c10.8,10.1,19.9,21.7,27.2,34.4
				c5.8,10.1,10.5,21,13.8,32.3c1.9,6.6,3.5,13.4,4.5,20.3C513.4,298,513.9,305,514,311.8z"/>
			<path class="st7" d="M726.6,974.1c44.3-29.6,115.1-61.9,226.8-84.4v-43.5c-41.3,8-77.6,17.4-109.6,27.6
				c-90.5,28.9-145.9,64.4-179.6,94.8c-34.4-31.1-91.6-67.6-185.8-96.8c-30.5-9.4-64.7-18.1-103.4-25.6l-0.4,2.3v41.1
				c112,22.5,183,54.9,227.4,84.5c-37.8-12.2-88.8-21.4-156.6-21.4c-36.1,0-76.8,2.6-122.9,8.8v42.5l0.1,0.5
				c46.7-6.5,87.5-9.2,122.9-9.2c85,0,139.7,15.4,173.1,30.8c4.6,2.1,8.8,4.2,12.6,6.3l19.3,14.2l13.2,9.7c0.2,0.2,0.3,0.4,0.3,0.4
				l0.1-0.1l0.5,0.3c0.1-0.1,0.7-0.8,1.8-2l12.1-8.7l18.8-13.6c3.9-2.1,8.2-4.3,13-6.5c33.4-15.4,88.1-30.8,173.1-30.8
				c35.3,0,75.9,2.7,122.4,9.1v-43c-45.9-6.1-86.5-8.7-122.4-8.7C815.3,952.7,764.4,961.9,726.6,974.1z"/>
		</g>
	</g>
</g>
<g id="Layer_2">
</g>
</svg>
