<?xml version="1.0" encoding="utf-8"?>
<!-- Generator: Adobe Illustrator 28.1.0, SVG Export Plug-In . SVG Version: 6.00 Build 0)  -->
<svg version="1.1" xmlns="http://www.w3.org/2000/svg" xmlns:xlink="http://www.w3.org/1999/xlink" x="0px" y="0px"
	 viewBox="0 0 1133.9 1133.9" style="enable-background:new 0 0 1133.9 1133.9;" xml:space="preserve">
<style type="text/css">
	.st0{display:none;}
	.st1{display:inline;}
	.st2{fill:none;stroke:#000000;stroke-width:0.9157;stroke-miterlimit:10;}
	.st3{fill:#221F20;}
	.st4{opacity:0.6;}
	.st5{opacity:0.3;}
	.st6{opacity:0.3;fill:#221F20;}
	.st7{fill:#FFFFFF;}
	.st8{opacity:0.3;fill:#FFFFFF;}
	.st9{fill:url(#SVGID_1_);}
	.st10{fill:none;}
	.st11{fill:url(#SVGID_00000032630792312345931050000006739221969646285997_);}
	.st12{fill:url(#SVGID_00000055707389482890749990000011831625543844387480_);}
	.st13{fill:url(#SVGID_00000008144201465096815420000012594266118333576858_);}
	.st14{fill:url(#SVGID_00000129899734386203780400000003793377913929073576_);}
	.st15{fill:url(#SVGID_00000123426156359135739980000000237693761157179284_);}
	.st16{fill:url(#SVGID_00000159446542806705044640000013643187572768333451_);}
	.st17{fill:url(#SVGID_00000067234182353018769920000010463146624695405497_);}
	.st18{fill:url(#SVGID_00000123442154393756108630000011627075876460415164_);}
	.st19{fill:url(#SVGID_00000079449126101522364730000000482887287071082650_);}
	.st20{fill:url(#SVGID_00000039097294394904891150000008867763504459960729_);}
	.st21{fill:url(#SVGID_00000020388297089571577000000010948853455495807671_);}
	.st22{fill:url(#SVGID_00000118377272222645886460000002048844734734718380_);}
	.st23{fill:url(#SVGID_00000128466678759775164810000015131540397025766304_);}
	.st24{fill:url(#SVGID_00000119811234819754643810000013641883173080058247_);}
	.st25{fill:url(#SVGID_00000070812271404150397650000002382833310978539681_);}
	.st26{fill:url(#SVGID_00000057867971814659346020000013329546439993101220_);}
	.st27{fill:url(#SVGID_00000149375309748493738720000007667657159060542114_);}
	.st28{fill:url(#SVGID_00000026160455999354994440000002426127605663394488_);}
	.st29{fill:url(#SVGID_00000013909439252821265220000011542401791805787315_);}
	.st30{fill:url(#SVGID_00000010289597358876165030000000507205702152080277_);}
	.st31{fill:url(#SVGID_00000025421397610415443970000009838086357222619303_);}
	.st32{fill:url(#SVGID_00000098190577538910337870000012545655997238480789_);}
	.st33{fill:url(#SVGID_00000156583617597733047840000006486563000191309999_);}
	.st34{fill:url(#SVGID_00000182492095278016950660000006534234085809396608_);}
	.st35{fill:url(#SVGID_00000110469089138194181350000000128152356757892740_);}
	.st36{fill:url(#SVGID_00000145041766090213799180000009692721110615217027_);}
	.st37{fill:url(#SVGID_00000113351664704259016120000003839118903148760712_);}
	.st38{fill:url(#SVGID_00000100364006898983231420000013300819866241907114_);}
	.st39{fill:url(#SVGID_00000052101508853479128620000018043379730744459194_);}
	.st40{fill:url(#SVGID_00000037678646504868725430000017799571901338690944_);}
	.st41{fill:url(#SVGID_00000010272235573466591330000003974302020965170343_);}
	.st42{fill:url(#SVGID_00000021110411383731773280000016616622536922284221_);}
	.st43{fill:url(#SVGID_00000080907923537844238410000016713441372216995982_);}
	.st44{fill:url(#SVGID_00000129891262849315374320000006886580384398899881_);}
	.st45{fill:url(#SVGID_00000129165143873881934930000007577240292216995201_);}
	.st46{fill:url(#SVGID_00000139281963626625827800000003063173786414779800_);}
	.st47{fill:url(#SVGID_00000170996175013988654000000015953626211613164180_);}
	.st48{fill:url(#SVGID_00000180332490417424780780000000756561793335356322_);}
	.st49{fill:url(#SVGID_00000010997117783576067530000003423469413870342815_);}
	.st50{fill:#172B43;}
	.st51{fill:url(#SVGID_00000016796883029057494100000018253716793515327927_);}
	.st52{fill:url(#SVGID_00000085236373367226821420000016439142228909531281_);}
	.st53{fill:url(#SVGID_00000041268268744690498970000000389287065846784927_);}
	.st54{fill:url(#SVGID_00000038388082452507496140000007660902968764433087_);}
	.st55{fill:url(#SVGID_00000155112322674380159370000011482176417772057002_);}
	.st56{fill:url(#SVGID_00000018937886825835802370000000002354178882137524_);}
	.st57{fill:url(#SVGID_00000065774282247662410020000009931162653669828786_);}
	.st58{fill:url(#SVGID_00000088121923594359378920000017299215947774036645_);}
	.st59{fill:url(#SVGID_00000025409585878876517910000004860254337955504005_);}
	.st60{fill:url(#SVGID_00000149361827281214437600000002878260923120637613_);}
	.st61{fill:url(#SVGID_00000112601976390474509560000000707859172919235491_);}
	.st62{fill:url(#SVGID_00000178172016860047702480000004221634208255234220_);}
	.st63{fill:url(#SVGID_00000045604643203929594770000001643800263690895543_);}
	.st64{fill:url(#SVGID_00000153679556898396633190000000432946690608953002_);}
	.st65{fill:url(#SVGID_00000075873578165893659070000007902648563120496306_);}
	.st66{fill:url(#SVGID_00000084507529036163394920000011212479686434627746_);}
	.st67{fill:url(#SVGID_00000165914917015455552890000016993646842791390138_);}
	.st68{fill:url(#SVGID_00000031174082098108603470000014932017616433364914_);}
	.st69{fill:url(#SVGID_00000045609528085114959910000008169057882017979525_);}
	.st70{fill:url(#SVGID_00000075149108765740760300000002495421952689867144_);}
	.st71{fill:url(#SVGID_00000115492348847296975100000003752230559354523027_);}
	.st72{fill:url(#SVGID_00000005264855599705666520000002564844816088455578_);}
	.st73{fill:url(#SVGID_00000137114485750060053070000015807169428764508324_);}
	.st74{fill:url(#SVGID_00000125587890847306728380000005569237390594159257_);}
	.st75{fill:url(#SVGID_00000178169788198387458850000017060381628594031534_);}
	.st76{fill:url(#SVGID_00000057830805470425149820000006306856520744114565_);}
	.st77{fill:url(#SVGID_00000000935905778920634300000016042737891513457819_);}
	.st78{fill:url(#SVGID_00000147219258021206585960000015016133755193207986_);}
	.st79{fill:url(#SVGID_00000098912057963815163000000006933882790416133551_);}
	.st80{fill:url(#SVGID_00000132090413685294472030000013882164467770116514_);}
	.st81{fill:url(#SVGID_00000103949005338275357450000005167600982223210166_);}
	.st82{fill:url(#SVGID_00000003800712540404506680000005609741628760626074_);}
	.st83{fill:url(#SVGID_00000072966220420913604180000008656715990689034160_);}
	.st84{fill:url(#SVGID_00000077283725155058049060000008830730755052681626_);}
	.st85{fill:url(#SVGID_00000015326899303436198670000014728156842726667702_);}
	.st86{fill:url(#SVGID_00000172434924997321240580000016788666267138825627_);}
	.st87{fill:url(#SVGID_00000117652936178192666640000010529805613250959803_);}
	.st88{fill:url(#SVGID_00000039854582881014407010000013709687384734406796_);}
	.st89{fill:url(#SVGID_00000165956644310217642650000012149560872820075947_);}
	.st90{fill:url(#SVGID_00000117640027137962038690000003103244809859983259_);}
	.st91{fill:url(#SVGID_00000029025346716973377300000005002432263325388941_);}
	.st92{fill:url(#SVGID_00000103224908689747625740000002626625521384713658_);}
	.st93{fill:url(#SVGID_00000101089753416281760030000012830995523599352744_);}
	.st94{fill:url(#SVGID_00000152222318532267480760000001958305059023514266_);}
	.st95{fill:url(#SVGID_00000122693580473223820760000000725684774670659222_);}
	.st96{fill:url(#SVGID_00000033361331379732993750000001859288351591778712_);}
	.st97{fill:url(#SVGID_00000127041245864170219720000008760042050255712646_);}
	.st98{fill:url(#SVGID_00000126292621565031160010000015192570949178362768_);}
	.st99{fill:url(#SVGID_00000070835608048611256960000006528789636736491435_);}
	.st100{fill:url(#SVGID_00000072995978453535595310000000710710696668158338_);}
	.st101{fill:url(#SVGID_00000139982398661225897240000001203751752129476536_);}
	.st102{fill:url(#SVGID_00000141438908965039419880000014121932557540345005_);}
	.st103{fill:url(#SVGID_00000082336711142335601130000009418024722027374523_);}
	.st104{fill:url(#SVGID_00000127008217604703396120000016646863902357656985_);}
	.st105{fill:url(#SVGID_00000056422886794459268090000012472603848622076064_);}
	.st106{fill:url(#SVGID_00000111877024711167296580000002131243727957200541_);}
	.st107{fill:url(#SVGID_00000058591219419300068770000012827547858054456243_);}
	.st108{fill:url(#SVGID_00000139290114463570958290000006770655319683074193_);}
	.st109{fill:url(#SVGID_00000103266584826193175800000017010592853853412773_);}
	.st110{fill:url(#SVGID_00000127045051272963069520000010096033449945952410_);}
	.st111{fill:url(#SVGID_00000076582186875788799830000003181644081475122308_);}
	.st112{fill:url(#SVGID_00000107575068517705888920000000650557285373765546_);}
	.st113{fill:url(#SVGID_00000132804955902715164010000009621671326153412256_);}
	.st114{fill:url(#SVGID_00000062904978328477241390000000941433814048290442_);}
	.st115{fill:url(#SVGID_00000129925658042143538580000015824922821560184966_);}
	.st116{fill:url(#SVGID_00000160902497929295839010000007029102978373949622_);}
	.st117{fill:url(#SVGID_00000085961569938243688440000003008042247802462103_);}
	.st118{fill:url(#SVGID_00000163062685249409426240000005047402020159517852_);}
	.st119{fill:url(#SVGID_00000034782826223871774870000003900345771542782867_);}
	.st120{fill:url(#SVGID_00000044156607792229513010000016093438761871862697_);}
	.st121{fill:url(#SVGID_00000047756666979479555540000000077900882548171668_);}
	.st122{fill:url(#SVGID_00000018928354030403436790000006152884368874012831_);}
	.st123{fill:url(#SVGID_00000075159797071940763680000014618630241469259683_);}
	.st124{fill:url(#SVGID_00000024696354679386856330000014262981486939921035_);}
	.st125{fill:url(#SVGID_00000003096606121174476090000016234610251748332682_);}
	.st126{fill:url(#SVGID_00000088092674935919114840000000988340959543274163_);}
	.st127{fill:url(#SVGID_00000094603273882405717090000015698007444883973256_);}
	.st128{fill:url(#SVGID_00000111903423787598071880000011129478134055177116_);}
	.st129{fill:url(#SVGID_00000064318977355763014710000004534136228962244029_);}
	.st130{fill:url(#SVGID_00000057865953861252909400000010992811028148967313_);}
	.st131{fill:url(#SVGID_00000037676186390070087440000004760970732342826416_);}
	.st132{fill:url(#SVGID_00000105392543634287606520000014478268229215790979_);}
	.st133{fill:url(#SVGID_00000127747067270801193510000008726913650855444632_);}
	.st134{fill:url(#SVGID_00000057116422750931069010000012813306332800611775_);}
	.st135{fill:url(#SVGID_00000158718224897542190490000000847625068504115075_);}
	.st136{fill:url(#SVGID_00000009558306611454480040000011456985670850334127_);}
	.st137{fill:url(#SVGID_00000058559215595784993660000001364611021640149642_);}
	.st138{fill:url(#SVGID_00000024722970973029864670000004878907061648562105_);}
	.st139{fill:url(#SVGID_00000057863661014605834270000004608676390643344007_);}
	.st140{fill:url(#SVGID_00000135680571629343738790000003760461728774036925_);}
	.st141{fill:url(#SVGID_00000038389455613398839240000016784357878217154197_);}
	.st142{fill:url(#SVGID_00000101103384651400699210000008885879909778261917_);}
	.st143{fill:url(#SVGID_00000183958311983347299360000015059170570715469954_);}
	.st144{fill:url(#SVGID_00000041257932093189475990000001725595902852173206_);}
	.st145{fill:url(#SVGID_00000067237954277484496640000014224110457269679010_);}
	.st146{fill:url(#SVGID_00000061463073609818832360000013789355960232567999_);}
	.st147{fill:url(#SVGID_00000060711585982681213790000000129356812322922420_);}
	.st148{fill:url(#SVGID_00000008123194362013332840000014245629893612298652_);}
	.st149{fill:url(#SVGID_00000001628210154472985500000010178872404593192363_);}
	.st150{fill:url(#SVGID_00000087386122786710442680000012611725449870754741_);}
	.st151{fill:url(#SVGID_00000062878624914452479900000017093003308607481534_);}
	.st152{fill:url(#SVGID_00000081636206461824078790000016061582945277456556_);}
	.st153{fill:url(#SVGID_00000022549817743270056700000010829094203580873653_);}
	.st154{fill:url(#SVGID_00000080892491740129429340000003250192659751954873_);}
	.st155{fill:url(#SVGID_00000090985417441737584360000002472422121093965459_);}
	.st156{fill:url(#SVGID_00000124855642514718795250000001750155752698871216_);}
	.st157{fill:url(#SVGID_00000148620995499097289300000004407278432602065075_);}
	.st158{fill:url(#SVGID_00000054265434208923551650000005900876880905141173_);}
	.st159{fill:url(#SVGID_00000073696821045837917960000005924041102595734936_);}
	.st160{fill:url(#SVGID_00000000940994953072242740000015013194200499235222_);}
	.st161{fill:url(#SVGID_00000080914725893989186880000017978733476302647702_);}
	.st162{fill:url(#SVGID_00000158751836179635806810000010130954064180805512_);}
	.st163{fill:url(#SVGID_00000024703883726248768300000011003445394768027539_);}
	.st164{fill:url(#SVGID_00000148636529757492130600000007129219969685104039_);}
	.st165{fill:url(#SVGID_00000066474662279184498550000015604739214949479585_);}
	.st166{fill:url(#SVGID_00000178180403168215647370000017177508403894314646_);}
	.st167{fill:url(#SVGID_00000123413933535980061870000006662458450488999344_);}
	.st168{fill:url(#SVGID_00000080169223335988624790000006598316105486912131_);}
	.st169{fill:url(#SVGID_00000056423089043891051870000000157362307045202575_);}
	.st170{fill:url(#SVGID_00000169554243207010256950000005349422711809061812_);}
</style>
<g id="Layer_1">
	<g>
		<g>
			<g>
				<path class="st3" d="M379.2,431.8c-5.2,0-9.4,4.2-9.4,9.4c0,5.2,4.2,9.4,9.4,9.4c5.2,0,9.4-4.2,9.4-9.4
					C388.5,436,384.4,431.8,379.2,431.8z"/>
			</g>
			<g>
				<path class="st3" d="M327.4,248.3H324V239h0c0-6.6-5.4-11.9-12-11.9c-6.6,0-11.9,5.3-12,11.9h0v9.3h-3.3c-0.7,0-1.3,0.6-1.3,1.3
					v18.7c0,0.7,0.6,1.3,1.3,1.3h30.7c0.7,0,1.3-0.6,1.3-1.3v-18.7C328.7,248.9,328.1,248.3,327.4,248.3z M304.7,239
					C304.7,239,304.7,239,304.7,239c0-4,3.3-7.2,7.3-7.2c4,0,7.3,3.3,7.3,7.3c0,0,0,0,0,0v9.3h-14.7V239z M314.6,262.4h-5l1.6-4.7
					c-1-0.4-1.8-1.3-1.8-2.5c0-1.5,1.2-2.7,2.7-2.7c1.5,0,2.7,1.2,2.7,2.7c0,1.2-0.7,2.1-1.8,2.5L314.6,262.4z"/>
			</g>
		</g>
		<g class="st4">
			<g>
				<path class="st3" d="M439.4,398.5c0.2,3.8,3.3,6.8,7.1,6.8c4,0,7.2-3.2,7.2-7.2s-3.2-7.2-7.2-7.2c-3.3,0-6.1,2.2-6.9,5.3H348
					c-0.6-4.8-4.6-8.5-9.5-8.5c-5.3,0-9.6,4.3-9.6,9.6c0,5.3,4.3,9.6,9.6,9.6c4.9,0,8.9-3.7,9.5-8.5H439.4z"/>
				<path class="st3" d="M234.9,261.6c-4,0-7.2,3.2-7.2,7.2c0,4,3.2,7.2,7.2,7.2c4,0,7.2-3.2,7.2-7.2
					C242.1,264.8,238.8,261.6,234.9,261.6z"/>
			</g>
			<g>
				<path class="st3" d="M398.9,385.4h-1.9v-5.3h0c0-3.7-3-6.7-6.7-6.7c-3.7,0-6.7,3-6.7,6.7h0v5.3h-1.9c-0.4,0-0.7,0.3-0.7,0.8
					v10.5c0,0.4,0.3,0.8,0.7,0.8h17.3c0.4,0,0.7-0.3,0.7-0.8v-10.5C399.7,385.7,399.4,385.4,398.9,385.4z M386.2,380.1
					C386.2,380.1,386.2,380.1,386.2,380.1c0-2.2,1.9-4.1,4.1-4.1c2.3,0,4.1,1.8,4.1,4.1c0,0,0,0,0,0v5.3h-8.2V380.1z M391.7,393.3
					h-2.8l0.9-2.6c-0.6-0.2-1-0.8-1-1.4c0-0.8,0.7-1.5,1.5-1.5c0.8,0,1.5,0.7,1.5,1.5c0,0.6-0.4,1.2-1,1.4L391.7,393.3z"/>
				<path class="st3" d="M418.8,229.3h-2.6v-7.2h0c0-5-4.1-9.1-9.2-9.1c-5,0-9.1,4.1-9.2,9.1h0v7.2h-2.6c-0.6,0-1,0.5-1,1v14.3
					c0,0.6,0.5,1,1,1h23.5c0.6,0,1-0.5,1-1v-14.3C419.9,229.7,419.4,229.3,418.8,229.3z M401.5,222.1
					C401.5,222.1,401.5,222.1,401.5,222.1c0-3,2.5-5.5,5.6-5.5c3.1,0,5.6,2.5,5.6,5.6c0,0,0,0,0,0v7.2h-11.2V222.1z M409,240h-3.8
					l1.2-3.6c-0.8-0.3-1.3-1-1.3-1.9c0-1.1,0.9-2,2-2c1.1,0,2,0.9,2,2c0,0.9-0.6,1.6-1.3,1.9L409,240z"/>
			</g>
		</g>
		<g class="st5">
			<path class="st3" d="M465,245.4H360.2v-90.7c-0.8,0-1.5,0-2.3,0.1v90.7h-2.7v2.3h2.7V331h-60.3v100.8c-3.4,0.5-6,3.5-6,7.1
				c0,4,3.2,7.2,7.2,7.2c4,0,7.2-3.2,7.2-7.2c0-3.6-2.6-6.5-6-7.1v-98.5h60.3v-85.6h107.1v-56.8c-0.7-0.6-1.5-1.2-2.3-1.8V245.4z"/>
		</g>
		<g>
			<path class="st6" d="M410.8,413.6V323h77.6v-88.6h17.2c-0.6-1-1.2-2-1.8-3h-18.3V320h-74.6V161.9h-3V320h-59.3v-53.2h-92.1
				c-0.1-26.2-0.2-52.1-0.1-72.7c-1,0.8-2,1.7-3,2.6c-0.1,20.3,0,45.1,0.1,70.1h-46.7c-0.3,1-0.7,2-1,3h47.6
				c0.2,38.6,0.5,76.8,0.7,97.5h-49.6c0.3,1,0.6,2,0.9,3h51.6l0-1.5c-0.2-23.1-0.5-61.2-0.7-99h89.1V323h62.3v87.7H293.9v60.3
				c1,0.5,2,0.9,3,1.3v-58.7H410.8z"/>
			<path class="st6" d="M468.5,410.6c-0.7-6.2-6-11.1-12.4-11.1c-6.9,0-12.6,5.6-12.6,12.6c0,6.9,5.6,12.6,12.6,12.6
				c6.4,0,11.7-4.8,12.4-11.1h32.6c0.7-1,1.3-2,2-3H468.5z"/>
		</g>
		<g>
			<path class="st3" d="M379.2,450.5h-1.5v35.2c1-0.1,2-0.2,3-0.3v-35H379.2z"/>
			<path class="st3" d="M236,352.6v-76.6h-1.1h-1.1v74.4H204v14.9c0.7,2.5,1.5,5,2.3,7.4v-20.1H236z"/>
			<path class="st3" d="M434.1,428.7h49.8V320.8h-69.7c-0.5-3.4-3.5-6-7-6c-4,0-7.2,3.2-7.2,7.2c0,4,3.2,7.2,7.2,7.2
				c3.6,0,6.5-2.6,7-6h67.4v103.3h-49.8v45.4c0.8-0.3,1.5-0.7,2.3-1V428.7z"/>
		</g>
		<g>
			<path class="st3" d="M772.5,385.6c-0.6,9.6,7,17.5,16.4,17.5h81.7c8.8,0,16.4-6.6,17-15.4c0.6-9.6-7-17.5-16.4-17.5h-81.7
				C780.7,370.2,773.1,376.8,772.5,385.6z"/>
			<path class="st3" d="M989.1,321.6c0.6-9.6-7-17.5-16.4-17.5H859.4c-8.8,0-16.4,6.6-17,15.4c-0.6,9.6,7,17.5,16.4,17.5h113.3
				C980.9,336.9,988.6,330.3,989.1,321.6z"/>
			<path class="st3" d="M926.8,370.2c-8.8,0-16.4,6.6-17,15.4c-0.6,9.6,7,17.5,16.4,17.5h37.4c8.8,0,16.4-6.6,17-15.4
				c0.6-9.6-7-17.5-16.4-17.5H926.8z"/>
			<path class="st3" d="M830.1,237.8h-37.4c-8.8,0-16.4,6.6-17,15.4c-0.6,9.6,7,17.5,16.4,17.5h37.4c8.8,0,16.4-6.6,17-15.4
				C847.1,245.8,839.5,237.8,830.1,237.8z"/>
			<path class="st3" d="M556.6,255.4c0.5-7.6-4.2-14.2-10.9-16.6c3.2,7.9,6,16.1,8.2,24.5C555.4,261,556.4,258.3,556.6,255.4z"/>
			<path class="st3" d="M760.5,701.1c-9.1,0-16.4,7.4-16.4,16.5c0,9.1,7.4,16.5,16.4,16.5c9.1,0,16.5-7.4,16.5-16.5
				C777,708.5,769.6,701.1,760.5,701.1z"/>
			<path class="st3" d="M884.5,502.6H857c-8.8,0-16.4,6.6-17,15.4c-0.6,9.6,7,17.5,16.4,17.5h75.6c8.8,0,16.4-6.6,17-15.4
				c0.6-9.6-7-17.5-16.4-17.5h4.4c-9.1,0-16.5-7.4-16.5-16.5v-0.7c0-8.9,7.2-16.1,16.1-16.1c0.2,0,13.9,0,14.1,0
				c8.5-0.3,15.9-6.8,16.4-15.3c0.6-9.6-7-17.5-16.4-17.5h-118c-8.8,0-16.4,6.6-17,15.4c-0.6,9.6,7,17.5,16.4,17.5h52.2
				c9.1,0,16.4,7.4,16.4,16.5v0.4C901,495.2,893.6,502.6,884.5,502.6z"/>
			<path class="st3" d="M883.9,568.8c-9.1,0-16.5,7.4-16.5,16.4c0,9.1,7.4,16.5,16.5,16.5H907c9.1,0,16.4-7.4,16.4-16.5
				c0-9.1-7.4-16.4-16.4-16.4H883.9z"/>
			<path class="st3" d="M660.2,171.7c-9.1,0-16.5,7.4-16.5,16.5c0,9.1,7.4,16.4,16.5,16.4h12.4c9.1,0,16.5-7.4,16.5-16.4
				c0-9.1-7.4-16.5-16.5-16.5H660.2z"/>
			<path class="st3" d="M690.3,425.3c3.1-3.1,3.1-8.2,0-11.4c-3.1-3.1-8.2-3.1-11.4,0c-3.1,3.1-3.1,8.2,0,11.4
				C682,428.4,687.1,428.4,690.3,425.3z"/>
			<path class="st3" d="M679.1,558.2c3.3-3.3,3.3-8.8,0-12.1c-3.3-3.4-8.8-3.4-12.1,0c-3.4,3.3-3.4,8.8,0,12.1
				C670.3,561.5,675.7,561.5,679.1,558.2z"/>
			<path class="st3" d="M639.5,495.5c5.2-5.2,5.2-13.6,0-18.7c-5.2-5.2-13.6-5.2-18.7,0c-5.2,5.2-5.2,13.6,0,18.7
				C625.9,500.7,634.3,500.7,639.5,495.5z"/>
			<path class="st3" d="M537.2,585.2c0-9.1-7.4-16.4-16.5-16.4h-45.9c0,0,0,0,0,0h-57.2c-8.6,0-16.4,6.2-17.3,14.8
				c-1,9.8,6.7,18.1,16.4,18.1h104C529.9,601.7,537.2,594.3,537.2,585.2z"/>
			<path class="st3" d="M667.3,866.4c9.1,0,16.5-7.4,16.5-16.5c0-9.1-7.4-16.5-16.5-16.5h-1.7c-9.1,0-16.5,7.4-16.5,16.5
				c0,9.1,7.4,16.5,16.5,16.5H667.3z"/>
			<path class="st3" d="M559,336.9h26.7H804c8.6,0,16.4-6.2,17.3-14.8c1-9.8-6.7-18.1-16.4-18.1h-76.3c-9.1,0-16.5-7.4-16.5-16.5
				v-0.4c0-9.1,7.4-16.5,16.4-16.5h9.1c8.6,0,16.4-6.2,17.3-14.8c1-9.8-6.7-18.1-16.4-18.1H595c-8.6,0-16.4,6.2-17.3,14.8
				c-1,9.8,6.7,18.1,16.4,18.1h82.1c9.1,0,16.5,7.4,16.5,16.5v0.4c0,9.1-7.4,16.5-16.5,16.5h-116C560.7,315.2,560.3,326.2,559,336.9
				z"/>
			<path class="st3" d="M821.4,651.4c0,9.1,7.4,16.5,16.5,16.5h41.5c9.1,0,16.5-7.4,16.5-16.5c0-9.1-7.4-16.4-16.5-16.4h-41.5
				C828.8,635,821.4,642.3,821.4,651.4z"/>
			<path class="st3" d="M792.6,717.6c0,9.1,7.4,16.5,16.5,16.5H837c9.1,0,16.5-7.4,16.5-16.5c0-9.1-7.4-16.4-16.5-16.4h-27.9
				C800,701.1,792.6,708.5,792.6,717.6z"/>
			<path class="st3" d="M778.9,767.3H766c-9.1,0-16.5,7.4-16.5,16.5c0,9.1,7.4,16.5,16.5,16.5h12.9c9.1,0,16.5-7.4,16.5-16.5
				C795.4,774.7,788,767.3,778.9,767.3z"/>
			<path class="st3" d="M553.7,403.1h29.7c0,0,0,0,0,0h63.9c7,0,13.8-2.1,19.6-6c2.5-1.7,5.4-3.4,8.3-4.3c3.5-1.2,7.1-1.7,10.7-1.6
				c6.8,0.3,13.6,3,18.8,8.3c10.1,10.1,11,25.8,2.8,36.9c-0.8,1.1-1.7,2.3-2.8,3.3c-7.6,7.6-18.5,10.2-28.1,7.2
				c-4-1.3-7.5-3.1-10.1-4.9c-5.9-4-13-6-20.1-6h-65.2c0,0.1,0,0.2,0,0.4h-40.3c-0.6-0.7-1.1-1.5-1.8-2.2c-4.1-4.1-9.3-6.6-15-7.2
				c-8,11.3-17.2,21.7-27.4,31.2c1.1,4.3,3.3,8.4,6.6,11.8c4.8,4.8,11.1,7.4,17.9,7.4c6.7,0,13.1-2.6,17.9-7.4
				c0.2-0.2,0.3-0.4,0.5-0.7h43.1c7.8,0,15.2-3.1,20.7-8.6l0.6-0.6h0c14.4-14.4,37.7-14.4,52.1,0c2.8,2.8,5,5.9,6.7,9.2
				c7.1,13.9,4.9,31.3-6.7,42.9c-14.4,14.4-37.7,14.4-52.1,0h0c-0.2-0.2-0.4-0.5-0.7-0.7c-5.6-5.9-13.4-9.3-21.5-9.3h-6.5
				c0,0.1,0,0.3,0,0.4H454c-1.1-1.6-2.3-3.1-3.7-4.5c-2-2-4.3-3.7-6.7-5c-13.4,6-27.6,10.5-42.6,13.4c-5.5,11.4-3.6,25.6,5.9,35.1
				c5.8,5.8,13.5,9,21.7,9c8.2,0,15.9-3.2,21.7-9c1.8-1.8,3.3-3.8,4.5-6h20h97.8c0,0.1,0,0.1,0,0.2h68.1c6.8,0,13.5-1.8,19.4-5.3
				c3.4-2,8.3-3.8,14.7-3.3c7.5,0.5,14.8,4.5,19.4,11.8c5.2,8.1,5.1,18.9-0.2,26.9c-4.9,7.5-12.7,11.4-20.5,11.6
				c-6.6,0.1-11.2-1.4-14.2-3.2c-5.6-3.4-11.8-5.5-18.3-5.5l-64.2,0c0,0.1,0,0.1,0.1,0.2h-3.4c-8.6,0-16.4,6.2-17.3,14.8
				c-1,9.8,6.7,18.1,16.4,18.1h20.9h10.9c8.6,0,16.4,6.2,17.3,14.8c0.9,8.7-5,16.1-12.9,17.8h-84.9c-1.1-1.6-2.3-3.1-3.7-4.5
				c-5.8-5.8-13.5-9-21.7-9c-8.2,0-15.9,3.2-21.7,9c-12,12-12,31.4,0,43.4c5.8,5.8,13.5,9,21.7,9c8.2,0,15.9-3.2,21.7-9
				c1.6-1.6,2.9-3.4,4.1-5.3c0.3,0,0.6,0,0.9,0H568c9.1,0,16.5,7.4,16.5,16.5v0.4c0,9.1-7.4,16.5-16.4,16.5h-77.9
				c-8.6,0-16.5,6.2-17.3,14.8c-1,9.8,6.7,18.1,16.4,18.1H605h33.8c8.6,0,16.4,6.2,17.3,14.8c1,9.8-6.7,18.1-16.4,18.1h-85.5v0.4
				l-4.7,0c-8.6,0-16.5,6.2-17.3,14.8c-1,9.8,6.7,18.1,16.4,18.1H713c9.1,0,16.4-7.4,16.4-16.5c0-0.2,0-0.3,0-0.5c0-0.1,0-0.1,0-0.2
				V680.7c0-9.9,8-18,18-18h37.2c12.3,0,22.3-10,22.3-22.3v-50.3c0-4.9,4-8.9,8.9-8.9h20.4c2.6,0,5.2-0.9,7.1-2.6
				c3.3-3.1,4-7.8,2.1-11.7l-16.9-33.8c-9.4-18.7-16.4-38.4-22.6-58.4c-19.9-64.1-81.6-108.4-150.9-104.4h-69.4h-32
				c-0.6,0-1.2,0-1.7,0.1c-2.8,9.4-6.4,18.5-10.6,27.3C544.4,401,548.8,403.1,553.7,403.1z M529.2,460.9c-4.4,4.4-11.6,4.4-16,0
				c-4.4-4.4-4.4-11.6,0-16c4.4-4.4,11.6-4.4,16,0C533.6,449.3,533.6,456.4,529.2,460.9z M439,530.2c-5.7,5.7-15,5.7-20.8,0
				c-5.7-5.7-5.7-15,0-20.8c5.7-5.7,15-5.7,20.8,0C444.8,515.1,444.8,524.4,439,530.2z M509,661.8c-5.7,5.7-15,5.7-20.8,0
				c-5.7-5.7-5.7-15,0-20.8c5.7-5.7,15-5.7,20.8,0C514.8,646.8,514.8,656.1,509,661.8z"/>
		</g>
		<g>
			<path class="st3" d="M663.9,77l-191.3,72.7c-40.7-27.1-89.4-38-138.1-30.7c-51.9,7.8-97.7,35.4-128.9,77.6
				c-31.2,42.2-44.1,94.1-36.2,146c5.6,37,21.1,70.8,44.9,98.5L49,617.5c-8.8,9.3-8.3,24,1.1,32.7c4.5,4.2,10.2,6.3,15.8,6.3
				c6.2,0,12.3-2.5,16.9-7.3l165.6-176.6c8.8,6.4,17.9,11.9,27.4,16.7c6.8,26.6,14.9,54.4,24.3,82.6
				c33.5,100.2,77.7,183.7,131.2,249.2c33.8,8.1,65.2,17.4,94.3,27.9c-101.2-87.6-159.9-222.4-193.8-341.5c10.4,1.7,21,2.6,31.7,2.6
				c9.8,0,19.8-0.7,29.7-2.2c2.7-0.4,5.4-0.9,8-1.4c14.9-2.9,29.2-7.4,42.6-13.4c19.7-8.8,37.6-20.6,53.1-34.9
				c10.2-9.4,19.4-19.9,27.4-31.2c6.6-9.3,12.4-19.1,17.3-29.4c4.2-8.8,7.7-17.9,10.6-27.3c3.3-10.8,5.7-22,7-33.4
				c1.3-10.8,1.7-21.8,1.2-32.9c-0.3-6.6-1-13.2-2-19.9c-1.1-7.1-2.5-14.1-4.3-20.9c-2.2-8.4-4.9-16.6-8.2-24.5
				c-7.8-19.1-18.6-36.8-32-52.6l150.2-57.1L1039.7,272c-8.4,80.8-54.2,415.7-243.8,579.6c29.3-10.9,61.1-20.7,95.3-29.1
				c53.5-65.7,92.1-151.9,132.7-250.5c50.9-123.6,64.2-296,66.1-314.7l1.2-18L663.9,77z M514,311.8c0.1,5.5-0.2,10.9-0.7,16.3
				c-1.4,14.7-5,28.9-10.5,42.2c-4.8,11.7-11.1,22.7-18.6,32.8c-12.9,17.4-29.6,32-49,42.5c-14.9,8.1-31.4,13.7-49,16.4
				c-7.3,1.1-14.7,1.7-21.9,1.7c-15.6,0.1-31.1-2.3-45.8-7c-15.6-4.9-30.4-12.5-43.9-22.4c-4.9-3.6-9.6-7.6-14-11.7
				c-24.4-23-40.3-53.2-45.3-86.8c-6-39.7,3.9-79.3,27.7-111.6c23.8-32.3,58.8-53.3,98.5-59.3c7.6-1.1,15.2-1.7,22.7-1.7
				c17.2,0,34.2,3,50.2,8.7c13.7,4.9,26.7,11.8,38.7,20.7c4.9,3.6,9.5,7.4,13.8,11.5c10.8,10.1,19.9,21.7,27.2,34.4
				c5.8,10.1,10.5,21,13.8,32.3c1.9,6.6,3.5,13.4,4.5,20.3C513.4,298,513.9,305,514,311.8z"/>
			<path class="st3" d="M726.6,974.1c44.3-29.6,115.1-61.9,226.8-84.4v-43.5c-41.3,8-77.6,17.4-109.6,27.6
				c-90.5,28.9-145.9,64.4-179.6,94.8c-34.4-31.1-91.6-67.6-185.8-96.8c-30.5-9.4-64.7-18.1-103.4-25.6l-0.4,2.3v41.1
				c112,22.5,183,54.9,227.4,84.5c-37.8-12.2-88.8-21.4-156.6-21.4c-36.1,0-76.8,2.6-122.9,8.8v42.5l0.1,0.5
				c46.7-6.5,87.5-9.2,122.9-9.2c85,0,139.7,15.4,173.1,30.8c4.6,2.1,8.8,4.2,12.6,6.3l19.3,14.2l13.2,9.7c0.2,0.2,0.3,0.4,0.3,0.4
				l0.1-0.1l0.5,0.3c0.1-0.1,0.7-0.8,1.8-2l12.1-8.7l18.8-13.6c3.9-2.1,8.2-4.3,13-6.5c33.4-15.4,88.1-30.8,173.1-30.8
				c35.3,0,75.9,2.7,122.4,9.1v-43c-45.9-6.1-86.5-8.7-122.4-8.7C815.3,952.7,764.4,961.9,726.6,974.1z"/>
		</g>
	</g>
</g>
<g id="Layer_2">
</g>
</svg>
